%FSLAX44Y44*%
%MOMM*%
G71*
G01*
G75*
G04 Layer_Color=255*
%ADD10R,2.5000X1.2600*%
%ADD11R,2.5000X1.0000*%
%ADD12R,1.3000X1.3000*%
%ADD13R,2.6000X0.9500*%
%ADD14R,1.0000X1.0000*%
G04:AMPARAMS|DCode=15|XSize=1.8mm|YSize=2mm|CornerRadius=0mm|HoleSize=0mm|Usage=FLASHONLY|Rotation=180.000|XOffset=0mm|YOffset=0mm|HoleType=Round|Shape=Octagon|*
%AMOCTAGOND15*
4,1,8,0.4500,-1.0000,-0.4500,-1.0000,-0.9000,-0.5500,-0.9000,0.5500,-0.4500,1.0000,0.4500,1.0000,0.9000,0.5500,0.9000,-0.5500,0.4500,-1.0000,0.0*
%
%ADD15OCTAGOND15*%

%ADD16R,1.8000X2.0000*%
%ADD17O,0.4500X1.8000*%
%ADD18R,1.8000X1.1500*%
%ADD19R,0.9500X1.7000*%
%ADD20R,0.8000X0.8000*%
%ADD21R,1.3500X2.8000*%
%ADD22R,1.2000X2.6000*%
%ADD23R,0.7000X1.8000*%
%ADD24R,0.9500X2.6000*%
%ADD25C,0.3500*%
%ADD26R,1.3500X1.9000*%
%ADD27R,1.4000X2.1000*%
G04:AMPARAMS|DCode=28|XSize=1.5mm|YSize=0.35mm|CornerRadius=0.035mm|HoleSize=0mm|Usage=FLASHONLY|Rotation=0.000|XOffset=0mm|YOffset=0mm|HoleType=Round|Shape=RoundedRectangle|*
%AMROUNDEDRECTD28*
21,1,1.5000,0.2800,0,0,0.0*
21,1,1.4300,0.3500,0,0,0.0*
1,1,0.0700,0.7150,-0.1400*
1,1,0.0700,-0.7150,-0.1400*
1,1,0.0700,-0.7150,0.1400*
1,1,0.0700,0.7150,0.1400*
%
%ADD28ROUNDEDRECTD28*%
G04:AMPARAMS|DCode=29|XSize=1.5mm|YSize=1.2mm|CornerRadius=0.12mm|HoleSize=0mm|Usage=FLASHONLY|Rotation=0.000|XOffset=0mm|YOffset=0mm|HoleType=Round|Shape=RoundedRectangle|*
%AMROUNDEDRECTD29*
21,1,1.5000,0.9600,0,0,0.0*
21,1,1.2600,1.2000,0,0,0.0*
1,1,0.2400,0.6300,-0.4800*
1,1,0.2400,-0.6300,-0.4800*
1,1,0.2400,-0.6300,0.4800*
1,1,0.2400,0.6300,0.4800*
%
%ADD29ROUNDEDRECTD29*%
%ADD30R,0.8500X0.7000*%
%ADD31R,1.1176X0.6096*%
%ADD32R,1.1000X0.6000*%
%ADD33R,1.3000X2.2000*%
%ADD34O,0.5500X1.6000*%
%ADD35R,2.2000X1.2000*%
%ADD36R,2.0000X1.0000*%
%ADD37R,1.9000X1.3500*%
%ADD38C,0.3600*%
%ADD39C,0.1000*%
%ADD40C,0.2540*%
%ADD41C,1.5000*%
%ADD42C,1.5000*%
%ADD43O,4.0000X2.0000*%
%ADD44O,2.0000X4.0000*%
%ADD45O,2.0000X4.5000*%
%ADD46C,1.6000*%
%ADD47R,1.6000X1.6000*%
%ADD48R,1.5000X1.5000*%
G04:AMPARAMS|DCode=49|XSize=2.4mm|YSize=1.6mm|CornerRadius=0.4mm|HoleSize=0mm|Usage=FLASHONLY|Rotation=0.000|XOffset=0mm|YOffset=0mm|HoleType=Round|Shape=RoundedRectangle|*
%AMROUNDEDRECTD49*
21,1,2.4000,0.8000,0,0,0.0*
21,1,1.6000,1.6000,0,0,0.0*
1,1,0.8000,0.8000,-0.4000*
1,1,0.8000,-0.8000,-0.4000*
1,1,0.8000,-0.8000,0.4000*
1,1,0.8000,0.8000,0.4000*
%
%ADD49ROUNDEDRECTD49*%
%ADD50C,1.6900*%
%ADD51R,1.6900X1.6900*%
%ADD52C,4.7600*%
%ADD53R,1.5000X1.5000*%
%ADD54C,0.4000*%
%ADD55C,0.6000*%
%ADD56C,1.0160*%
%ADD57C,1.5080*%
%ADD58C,1.5080*%
%ADD59C,1.4080*%
%ADD60O,2.0080X1.3080*%
%ADD61C,1.5980*%
%ADD62C,3.7680*%
%ADD63C,0.7080*%
D13*
X1630000Y1516000D02*
D03*
Y1544000D02*
D03*
X1690000Y1516000D02*
D03*
Y1544000D02*
D03*
X1750000Y1516000D02*
D03*
Y1544001D02*
D03*
X1810000Y1516000D02*
D03*
Y1544001D02*
D03*
X1870000Y1516000D02*
D03*
Y1544000D02*
D03*
X1680000Y1794001D02*
D03*
Y1766000D02*
D03*
X1740000Y1794000D02*
D03*
Y1766000D02*
D03*
X1800000Y1794000D02*
D03*
Y1766000D02*
D03*
X1870000Y1794001D02*
D03*
Y1766000D02*
D03*
D24*
X1536000Y1650000D02*
D03*
X1564000D02*
D03*
X1536000Y1530000D02*
D03*
X1564000D02*
D03*
X1536000Y1590000D02*
D03*
X1564000D02*
D03*
X1536000Y1710000D02*
D03*
X1564000D02*
D03*
X1586000Y1770000D02*
D03*
X1614000D02*
D03*
X1616000Y1710000D02*
D03*
X1644000D02*
D03*
X1616000Y1650000D02*
D03*
X1644000D02*
D03*
X1616000Y1590000D02*
D03*
X1644000D02*
D03*
X1686000Y1710000D02*
D03*
X1714000D02*
D03*
X1016000Y1860000D02*
D03*
X1044000D02*
D03*
X1016000Y1920000D02*
D03*
X1044000D02*
D03*
X1016000Y1980000D02*
D03*
X1044000D02*
D03*
X1086000D02*
D03*
X1114000D02*
D03*
X1156000D02*
D03*
X1184000D02*
D03*
X1156000Y2040000D02*
D03*
X1184000D02*
D03*
X1156000Y2100000D02*
D03*
X1184000D02*
D03*
X1226000D02*
D03*
X1254000D02*
D03*
X1226000Y2040000D02*
D03*
X1254000D02*
D03*
X1226000Y1980000D02*
D03*
X1254000D02*
D03*
X1226000Y1920000D02*
D03*
X1254000D02*
D03*
X1226000Y1860000D02*
D03*
X1254000D02*
D03*
X1196000Y1800000D02*
D03*
X1224000D02*
D03*
X1046000D02*
D03*
X1074000D02*
D03*
X1126000D02*
D03*
X1154000D02*
D03*
X1394000Y1410000D02*
D03*
X1366000D02*
D03*
X1464000D02*
D03*
X1436000D02*
D03*
X1544001D02*
D03*
X1516000D02*
D03*
X1644000D02*
D03*
X1616000D02*
D03*
X1714000D02*
D03*
X1686000D02*
D03*
X1784000D02*
D03*
X1756000D02*
D03*
X1884000D02*
D03*
X1856000D02*
D03*
X1954000D02*
D03*
X1926000D02*
D03*
X2024000D02*
D03*
X1996000D02*
D03*
X1686000Y1650000D02*
D03*
X1714000D02*
D03*
X1686000Y1590000D02*
D03*
X1714000D02*
D03*
X1926000Y1500000D02*
D03*
X1954000D02*
D03*
X1926000Y1810000D02*
D03*
X1954000D02*
D03*
X1926000Y1740000D02*
D03*
X1954000D02*
D03*
X1926000Y1680000D02*
D03*
X1954000D02*
D03*
X1926000Y1620000D02*
D03*
X1954000D02*
D03*
X1926000Y1560000D02*
D03*
X1954000D02*
D03*
D41*
X664000Y1407500D02*
D03*
Y1432500D02*
D03*
D42*
X622000Y1370000D02*
D03*
X642000D02*
D03*
X602000Y1430000D02*
D03*
Y1410000D02*
D03*
X600000Y1040000D02*
D03*
Y1250000D02*
D03*
X1444600Y1530000D02*
D03*
X934600Y1880000D02*
D03*
X960000Y1905400D02*
D03*
X934600D02*
D03*
X960000Y1930800D02*
D03*
X934600D02*
D03*
X960000Y1956200D02*
D03*
X934600D02*
D03*
Y2007000D02*
D03*
X960000Y2032400D02*
D03*
X934600D02*
D03*
X960000Y2057800D02*
D03*
X934600D02*
D03*
X960000Y2083200D02*
D03*
X934600D02*
D03*
Y1829800D02*
D03*
X960000D02*
D03*
X934600Y1804400D02*
D03*
X960000D02*
D03*
X934600Y1779000D02*
D03*
X960000D02*
D03*
X934600Y1753600D02*
D03*
X960000D02*
D03*
X934600Y1728200D02*
D03*
X960000D02*
D03*
X934600Y1702800D02*
D03*
X960000D02*
D03*
X934600Y1677400D02*
D03*
X960000D02*
D03*
X934600Y1652000D02*
D03*
X1260000Y2225400D02*
D03*
X1285400Y2200000D02*
D03*
Y2225400D02*
D03*
X1200000D02*
D03*
X1225400Y2200000D02*
D03*
Y2225400D02*
D03*
X1040000D02*
D03*
X1065400Y2200000D02*
D03*
Y2225400D02*
D03*
X1090800Y2200000D02*
D03*
Y2225400D02*
D03*
X1116200Y2200000D02*
D03*
Y2225400D02*
D03*
X1141600Y2200000D02*
D03*
Y2225400D02*
D03*
X1167000Y2200000D02*
D03*
Y2225400D02*
D03*
X930000D02*
D03*
X955400Y2200000D02*
D03*
Y2225400D02*
D03*
X980800Y2200000D02*
D03*
Y2225400D02*
D03*
X1006200Y2200000D02*
D03*
Y2225400D02*
D03*
X930000Y2305400D02*
D03*
X955400Y2280000D02*
D03*
Y2305400D02*
D03*
X980800Y2280000D02*
D03*
Y2305400D02*
D03*
X1006200Y2280000D02*
D03*
Y2305400D02*
D03*
X1031600Y2280000D02*
D03*
Y2305400D02*
D03*
X1057000Y2280000D02*
D03*
Y2305400D02*
D03*
X1082400Y2280000D02*
D03*
Y2305400D02*
D03*
X1107800Y2280000D02*
D03*
Y2305400D02*
D03*
X1133200Y2280000D02*
D03*
Y2305400D02*
D03*
X1158600Y2280000D02*
D03*
Y2305400D02*
D03*
X1184000Y2280000D02*
D03*
Y2305400D02*
D03*
X1209400Y2280000D02*
D03*
Y2305400D02*
D03*
X1234800Y2280000D02*
D03*
Y2305400D02*
D03*
X1260200Y2280000D02*
D03*
Y2305400D02*
D03*
X1285600Y2280000D02*
D03*
Y2305400D02*
D03*
X1311000Y2280000D02*
D03*
Y2305400D02*
D03*
X1336400Y2280000D02*
D03*
Y2305400D02*
D03*
X1361800Y2280000D02*
D03*
Y2305400D02*
D03*
X1387200Y2280000D02*
D03*
Y2305400D02*
D03*
X1412600Y2280000D02*
D03*
Y2305400D02*
D03*
X930000Y2385400D02*
D03*
X955400Y2360000D02*
D03*
Y2385400D02*
D03*
X980800Y2360000D02*
D03*
Y2385400D02*
D03*
X1006200Y2360000D02*
D03*
Y2385400D02*
D03*
X1031600Y2360000D02*
D03*
Y2385400D02*
D03*
X1057000Y2360000D02*
D03*
Y2385400D02*
D03*
X1082400Y2360000D02*
D03*
Y2385400D02*
D03*
X1107800Y2360000D02*
D03*
Y2385400D02*
D03*
X1133200Y2360000D02*
D03*
Y2385400D02*
D03*
X1158600Y2360000D02*
D03*
Y2385400D02*
D03*
X1184000Y2360000D02*
D03*
Y2385400D02*
D03*
X1209400Y2360000D02*
D03*
Y2385400D02*
D03*
X1234800Y2360000D02*
D03*
Y2385400D02*
D03*
X1260200Y2360000D02*
D03*
Y2385400D02*
D03*
X1285600Y2360000D02*
D03*
Y2385400D02*
D03*
X1311000Y2360000D02*
D03*
Y2385400D02*
D03*
X1336400Y2360000D02*
D03*
Y2385400D02*
D03*
X1361800Y2360000D02*
D03*
Y2385400D02*
D03*
X1387200Y2360000D02*
D03*
Y2385400D02*
D03*
X1412600Y2360000D02*
D03*
Y2385400D02*
D03*
X1324600Y1530000D02*
D03*
X1350000Y1555400D02*
D03*
X1324600D02*
D03*
X1350000Y1580800D02*
D03*
X1324600D02*
D03*
X1350000Y1606200D02*
D03*
X1324600D02*
D03*
X1350000Y1631600D02*
D03*
X1324600D02*
D03*
X1350000Y1657000D02*
D03*
X1324600D02*
D03*
X1350000Y1682400D02*
D03*
X1324600D02*
D03*
X1350000Y1707800D02*
D03*
X1324600D02*
D03*
X1350000Y1733200D02*
D03*
X1324600D02*
D03*
X1350000Y1758600D02*
D03*
X1324600D02*
D03*
X1350000Y1784000D02*
D03*
X1324600D02*
D03*
X1350000Y1809400D02*
D03*
X1324600D02*
D03*
X1350000Y1834800D02*
D03*
X1324600D02*
D03*
X1350000Y1860200D02*
D03*
X1324600D02*
D03*
X1350000Y1885600D02*
D03*
X1324600D02*
D03*
X1350000Y1911000D02*
D03*
X1324600D02*
D03*
X1350000Y1936400D02*
D03*
X1324600D02*
D03*
X1350000Y1961800D02*
D03*
X1324600D02*
D03*
X1350000Y1987200D02*
D03*
X1324600D02*
D03*
X1350000Y2012600D02*
D03*
X1324600D02*
D03*
X1665800Y1298400D02*
D03*
Y1273000D02*
D03*
X1640400Y1298400D02*
D03*
Y1273000D02*
D03*
X1615000Y1298400D02*
D03*
Y1273000D02*
D03*
X1589600Y1298400D02*
D03*
Y1273000D02*
D03*
X1564200Y1298400D02*
D03*
Y1273000D02*
D03*
X1538800Y1298400D02*
D03*
Y1273000D02*
D03*
X1513400Y1298400D02*
D03*
Y1273000D02*
D03*
X1488000Y1298400D02*
D03*
X1072000D02*
D03*
X1097400Y1273000D02*
D03*
Y1298400D02*
D03*
X1122800Y1273000D02*
D03*
Y1298400D02*
D03*
X1148200Y1273000D02*
D03*
Y1298400D02*
D03*
X1173600Y1273000D02*
D03*
Y1298400D02*
D03*
X1199000Y1273000D02*
D03*
Y1298400D02*
D03*
X1224400Y1273000D02*
D03*
Y1298400D02*
D03*
X1249800Y1273000D02*
D03*
Y1298400D02*
D03*
X1275200Y1273000D02*
D03*
Y1298400D02*
D03*
X1300600Y1273000D02*
D03*
Y1298400D02*
D03*
X1326000Y1273000D02*
D03*
Y1298400D02*
D03*
X1351400Y1273000D02*
D03*
Y1298400D02*
D03*
X1376800Y1273000D02*
D03*
Y1298400D02*
D03*
X1402200Y1273000D02*
D03*
Y1298400D02*
D03*
X1427600Y1273000D02*
D03*
Y1298400D02*
D03*
X1453000Y1273000D02*
D03*
Y1298400D02*
D03*
X1004600Y1425000D02*
D03*
X1030000Y1450400D02*
D03*
X1004600D02*
D03*
X1384600Y1530000D02*
D03*
X1410000Y1555400D02*
D03*
X1384600D02*
D03*
X1410000Y1580800D02*
D03*
X1384600D02*
D03*
X1410000Y1606200D02*
D03*
X1384600D02*
D03*
X1410000Y1631600D02*
D03*
X1384600D02*
D03*
X1410000Y1657000D02*
D03*
X1384600D02*
D03*
X1410000Y1682400D02*
D03*
X1384600D02*
D03*
X1410000Y1707800D02*
D03*
X1384600D02*
D03*
X1410000Y1733200D02*
D03*
X1384600D02*
D03*
X1410000Y1758600D02*
D03*
X1384600D02*
D03*
X1410000Y1784000D02*
D03*
X1384600D02*
D03*
X1410000Y1809400D02*
D03*
X1384600D02*
D03*
X1410000Y1834800D02*
D03*
X1384600D02*
D03*
X1410000Y1860200D02*
D03*
X1384600D02*
D03*
X1410000Y1885600D02*
D03*
X1384600D02*
D03*
X1410000Y1911000D02*
D03*
X1384600D02*
D03*
X1410000Y1936400D02*
D03*
X1384600D02*
D03*
X1410000Y1961800D02*
D03*
X1384600D02*
D03*
X1410000Y1987200D02*
D03*
X1384600D02*
D03*
X1410000Y2012600D02*
D03*
X1384600D02*
D03*
D43*
X632000Y1370000D02*
D03*
D44*
X602000Y1420000D02*
D03*
D45*
X664000D02*
D03*
D46*
X689200Y1040000D02*
D03*
X714600D02*
D03*
X689200Y1250000D02*
D03*
X714600D02*
D03*
D47*
X740000Y1040000D02*
D03*
Y1250000D02*
D03*
D48*
X574600Y1040000D02*
D03*
Y1250000D02*
D03*
X1470000Y1530000D02*
D03*
X1260000Y2200000D02*
D03*
X1200000D02*
D03*
X1040000D02*
D03*
X930000D02*
D03*
Y2280000D02*
D03*
Y2360000D02*
D03*
X1488000Y1273000D02*
D03*
X1072000D02*
D03*
D49*
X542000Y1991000D02*
D03*
Y1889000D02*
D03*
X579001D02*
D03*
Y1991000D02*
D03*
D50*
X636200Y1739400D02*
D03*
X607800Y1725550D02*
D03*
X636200Y1711700D02*
D03*
X607800Y1697850D02*
D03*
X636200Y1684000D02*
D03*
X607800Y1670150D02*
D03*
X636200Y1656300D02*
D03*
X607800Y1642450D02*
D03*
D51*
X636200Y1628600D02*
D03*
D52*
X622000Y1559050D02*
D03*
Y1808950D02*
D03*
D53*
X960000Y1880000D02*
D03*
Y2007000D02*
D03*
Y1652000D02*
D03*
X1350000Y1530000D02*
D03*
X1030000Y1425000D02*
D03*
X1410000Y1530000D02*
D03*
M02*
