M48
;Layer_Color=9474304
;FILE_FORMAT=4:4
METRIC,TZ
;TYPE=PLATED
T1F00S00C0.2000
T3F00S00C0.9000
T4F00S00C1.0000
T5F00S00C1.0900
T6F00S00C3.2600
%
T01
X587500Y973000
X586348Y1176152
X587500Y1183000
X720090Y1065784
X795020Y1017778
X834600Y1026000
Y1076750
Y1084000
Y1136000
Y1184000
X911850Y1114000
X937350
X957500Y1130500
X972312Y1061466
X937350Y1043999
X911850
Y974000
X937260Y974090
X998600Y973000
X1090000Y961500
Y1079500
X1081000Y1114500
X1136936
X1030600Y1093000
X1018100Y1188500
X991100Y1188720
X1201000Y1114500
X1210000Y1079500
X1255000Y1103122
X1261000Y1114500
X1284224Y1132078
X1321000Y1114500
X1330000Y1079500
X1381000Y1114500
X1441000
X1450000Y1079500
X1501000Y1114500
X1561000
X1570000Y1079500
Y961500
X1450000
X1330000
X1210000
X1690000
Y1079500
X1681000Y1114500
X1621000
X1741000
X1801000
X1810000Y1079500
X1861000Y1114500
X1921000
X1930000Y1079500
X1981000Y1114500
X1845310Y1181354
X1810000Y961500
X1930000
X1985264Y1209548
X1996000Y1368044
X1988000Y1380998
X1996000Y1394000
X2011934Y1405250
X2024000Y1391968
X2020000Y1374648
X2032000Y1364742
X2004060Y1450848
X1996000Y1454404
X1992122Y1498346
X1988000Y1508310
X2011934Y1487170
X2001520Y1540764
X2007616Y1554500
X1988000Y1583000
X2032500Y1585500
X2039874Y1584452
X1975612Y1570482
X1937766Y1565402
X1938782Y1581404
X1917192Y1580404
X1906270Y1583436
X1901500Y1577250
X1889016Y1586484
X1872996Y1586504
X1865122Y1586484
X1856994
X1849000Y1586500
X1840992Y1586508
X1833118Y1584452
X1808988Y1582425
X1797050Y1584452
X1788922Y1580642
X1781048Y1578356
X1777548Y1568704
X1792986Y1565402
X1802130Y1560576
X1826006Y1544066
X1850136Y1545082
X1848250Y1531250
X1831594Y1522222
X1826000Y1509904
X1860000Y1504229
X1870032Y1483614
X1884000Y1484064
X1915840Y1484000
X1924050Y1482090
X1934032Y1480000
X1948000Y1484122
X1954500Y1481500
X1943000Y1491000
X1942750Y1501000
X1937258Y1505966
X1912340Y1498622
X1905508Y1521714
X1884426Y1523746
X1886000Y1516000
X1887982Y1542034
X1883664Y1555496
X1870000Y1554000
X1863161Y1554551
X1856486Y1554734
X1851152Y1561846
X1856740Y1571498
X1861312Y1567952
X1883156Y1572768
X1926000Y1543999
X1960500Y1526250
X1978152Y1495298
X1980000Y1480892
X1956000Y1457960
X1915616Y1455968
X1863750Y1457250
X1866138Y1441958
X1849882Y1441704
X1876044Y1415796
X1901698Y1414018
X1899920Y1380236
X1894032Y1371600
X1883918Y1368044
X1868170Y1370076
X1856000Y1394000
X1884000
X1926000
X1916000Y1381428
X1932000Y1368000
X1931924Y1345946
X1924000Y1346046
X1940000Y1346000
X1948000Y1342390
X1956000Y1375156
X1964000Y1368044
X1979250Y1370750
X1977500Y1379000
X1956032Y1394000
X1905762Y1345946
X1785620Y1351788
X1780000Y1339088
X1748000Y1345946
X1732000
X1719750Y1345250
X1700000Y1343968
X1684020Y1345946
X1659890
X1656334Y1332230
X1636014Y1345946
X1620000Y1346000
X1628000Y1368000
X1644000
Y1394000
X1611936
X1609968Y1368000
X1680464Y1370076
X1692000Y1372064
X1686000Y1394000
X1674250Y1392000
X1714000Y1394000
X1734000Y1390250
X1749552Y1387348
X1744980Y1380998
X1756000Y1394000
X1784000
X1775714Y1383284
X1772000Y1374140
X1764000Y1371600
X1725524Y1368044
X1748000Y1327912
X1734500Y1431000
X1748000Y1457960
X1764000Y1454404
Y1448054
X1780000Y1453896
X1770888Y1480058
X1751076Y1494028
X1746402Y1489558
X1740000Y1484816
X1744750Y1502500
X1719326Y1510030
X1706001Y1511936
X1696466Y1507744
X1708000Y1496164
X1709000Y1481250
X1694032Y1480000
X1700000Y1458000
X1684000Y1457960
X1652000Y1458000
X1636000
X1620266Y1480058
X1612000Y1480000
X1645250Y1501500
X1646000Y1513968
X1664970Y1519682
X1647952Y1537970
X1638046Y1554480
X1644000Y1573999
X1653250Y1584000
X1628510Y1586092
X1605840Y1571967
X1596644Y1576070
X1623004Y1534470
X1704594Y1536192
X1710182Y1544066
X1704594Y1553076
X1706372Y1565402
X1707904Y1573999
X1697228Y1574038
X1683968Y1573999
X1690116Y1560830
X1695450Y1560576
X1721104Y1569974
X1723898Y1580388
X1753210Y1581021
X1758968Y1576340
X1767741Y1579019
X1766062Y1550162
X1766001Y1522096
X1752092Y1533398
X1724261Y1526939
X1741678Y1558544
X1742000Y1565000
X1781500Y1512250
X1808734Y1468120
X1696085Y1435735
X1587500Y1432250
X1651000Y1247902
X1696020Y1194500
X1751330
X1817878Y1194562
X1874520Y1198118
X1938020Y1209294
X1972818Y1234694
X1578102Y1194562
X1517904
X1375726Y1194500
X1331406Y1201166
X1277874Y1197102
X1216976Y1194500
X1387250Y1265500
X1379982Y1345946
X1395984
X1383500Y1369000
X1388000Y1377188
X1408064Y1373124
X1413250Y1378500
X1425702Y1386954
X1436000Y1386724
Y1394000
X1464000
X1484000Y1388364
X1472000Y1369500
X1452000Y1368000
X1460000Y1346000
X1432052Y1344422
X1492000Y1335532
X1486154Y1319784
X1508000Y1327912
X1524000Y1371600
X1532000Y1375532
X1516000Y1380998
X1526032Y1392936
X1544001Y1391968
X1547366Y1354582
X1540000Y1458214
X1536000Y1480250
X1520750Y1490000
X1516126Y1486154
X1500124Y1480058
X1484122
X1452000Y1480000
X1436232Y1479942
X1428000Y1493520
X1404000Y1480000
X1388000Y1489202
X1372108Y1480058
X1396000Y1458000
X1424432Y1437386
X1460000Y1458000
X1476000Y1454404
X1475994Y1429766
X1508000Y1458214
X1524000Y1448054
X1536000Y1513999
X1544500Y1512500
X1568064Y1513999
X1561968Y1573999
X1536000
X1500000Y1508128
X1491234Y1506982
X1468000Y1496314
X1398064Y1394000
X1366000
X1312000Y1377000
X1299210Y1422654
X1260094Y1403096
X1260000Y1447000
X1144000Y1524000
X1083999
X1017350Y1323999
X991850
Y1253999
X1017350
X937260Y1293876
X911850Y1293999
X834644Y1293876
X834600Y1282192
Y1236000
Y1346000
X817626Y1435354
X827250Y1538986
X833750Y1563000
X814250Y1568450
X820750Y1578356
X801250Y1574800
X794750Y1562950
X911850Y1194000
X937350
X1098042Y1204468
X1157986Y1194500
X729750Y1545844
Y1569974
Y1608000
Y1750000
X707898Y1847596
X710184Y1885188
X748792Y1912500
X751078Y1968000
X708912Y1977500
X594250Y1946250
X594750Y1927000
X841756Y1951361
X820000Y1838500
X827278Y1746758
X817757Y1633851
X794766Y1630934
X801250Y1604264
X814250Y1594866
X813846Y1589024
X827278Y1607058
X1120000Y1596500
Y1714500
X1118064Y1773999
X1126000Y1783999
X1154000
X1166000Y1835404
X1164082Y1852422
X1152000Y1861936
Y1874000
X1151890Y1881886
X1160018
X1160000Y1874000
X1168000
X1176000
X1183894Y1874012
X1189750Y1873500
X1189482Y1852422
X1176000Y1863968
X1167892Y1882108
Y1890014
X1160018Y1889982
X1152000Y1890000
X1144000
X1135888Y1890113
X1128014Y1889987
X1119886Y1890014
X1112012
X1112000Y1898000
X1120000
X1119886Y1913890
X1112012
X1103884
Y1922018
X1112012
Y1929892
Y1937988
X1119886Y1938020
Y1945894
X1112012Y1945988
X1104106Y1945894
X1096010
Y1957832
X1096160Y1966032
X1103884Y1956148
X1111978Y1954022
X1114000Y1964000
X1124000Y1957500
X1128014Y1953768
Y1945894
Y1938020
X1128000Y1930000
X1120000
X1119886Y1922018
X1103918Y1930146
X1090478Y1918000
X1094232Y1912112
X1093978Y1897888
X1096010Y1890014
X1103884
X1103888Y1897888
X1103884Y1881886
X1104012Y1874012
X1112012
X1120000Y1874000
X1119886Y1881886
X1112012Y1882012
Y1865884
X1103884
X1093500Y1871750
X1089152Y1883918
X1088032Y1838452
X1044000Y1843999
X1034000Y1833999
X1016000Y1843999
X1006000Y1825658
Y1874012
X1016000Y1904000
X1044000
X1081520Y1925250
X1080306Y1934000
X1085962Y1938020
X1152000Y1938000
Y1930000
X1144016Y1929984
X1151982Y1922018
X1159701Y1929701
X1167892Y1929892
Y1922018
X1176018
X1175892Y1929892
X1176020Y1938020
Y1945894
X1183894
Y1954022
X1184000Y1964000
X1172000Y1966214
X1156000Y1964000
X1160018Y1959532
Y1945894
Y1938020
X1167892
X1167894Y1945894
X1151890
Y1953890
X1160000Y1914000
X1168000
X1175890Y1913890
X1176020Y1897888
X1168000Y1898000
X1160000
X1135886Y1881886
X1128014Y1874012
X1120000Y1863968
X1074000Y1783999
X1046000
X1034000Y1773999
X969010Y1862074
X973582Y1884680
X1016000Y1964000
X1044000
X1187958Y1938020
X1198372Y1904411
X1194797Y1892300
X1226000Y1904000
X1254000
X1242568Y1926000
X1263142Y1945894
X1254000Y1964000
X1226000
X1286002Y1918970
X1310950Y1895800
X1335024Y1857756
X1372616Y1811020
X1397254Y1769364
Y1733296
X1446276Y1726184
X1536000Y1694000
X1564000
X1564000Y1634000
X1542096
X1500632Y1640586
X1586000Y1753999
X1497330Y1913128
X1474978Y1908048
X1417066Y1924304
X1421000Y1932250
X1384554Y1898396
X1307084Y1799082
X1256032Y1843999
X1226000
X1196000Y1816000
X1194000Y1767903
X1224000Y1783999
X1333000Y1692500
X1305310Y1644396
X1589786Y1638046
X1607312Y1642872
X1616000Y1634000
X1644000
X1648460Y1626870
X1656334Y1625346
X1654556Y1638554
X1665224Y1633728
X1690064Y1634000
X1697482Y1632712
X1701038Y1642364
X1714000Y1634000
X1727200Y1636522
X1723500Y1649500
X1738122Y1664462
X1752707Y1667751
X1760220Y1667510
X1769000Y1666500
X1777000Y1666500
X1785000Y1666500
X1793000
X1801000Y1666500
X1808988Y1666494
Y1674512
X1801000Y1674500
X1792986Y1674622
X1793000Y1682500
X1799844Y1682496
X1801000Y1690500
X1792986Y1690624
X1793000Y1698500
X1785112Y1698388
Y1690388
X1785000Y1682500
X1777746Y1681988
X1777000Y1674500
X1785000
X1769000Y1682500
X1769000Y1690500
X1769000Y1698500
X1769000Y1706500
X1776984Y1706516
X1777000Y1714500
X1769110
X1769126Y1722374
X1776984
X1785112
Y1714500
X1793000
Y1706500
X1785000Y1706500
X1801000
X1809000Y1706500
X1809750Y1713750
X1817000Y1714500
X1824990
Y1722374
X1817116Y1722384
X1809000Y1722500
X1801114Y1722374
Y1714500
X1793000Y1722500
X1784750Y1730750
X1777000
X1769000Y1730500
X1761000Y1730500
Y1722500
X1750060Y1727200
X1750822Y1708658
X1757172
X1757574Y1695963
X1756664Y1685798
X1747774Y1690370
X1776984Y1690624
X1777002Y1698498
X1825000Y1698500
X1824990Y1690624
Y1706626
X1817000Y1706500
X1841000Y1706500
X1840500Y1714000
X1841000Y1722500
X1840992Y1730492
X1853000Y1733988
X1865000Y1730750
X1872996Y1730496
X1872874Y1722374
X1872996Y1714500
X1865122
X1865000Y1722500
X1856994Y1722374
X1849000Y1722500
Y1714500
X1848500Y1706000
X1841000Y1698500
Y1682500
X1833000Y1682500
X1841000Y1674500
Y1666500
X1849000
Y1674500
X1849120Y1682496
X1857000Y1682500
X1856994Y1674622
Y1666494
X1864868
X1873000Y1666500
X1881000
X1881000Y1674500
X1881000Y1682500
X1881000Y1690500
X1888998Y1690498
X1888997Y1682497
X1888998Y1674622
X1897000Y1674500
X1897000Y1666500
X1905000Y1666494
X1909064Y1674622
X1911096Y1686560
X1897000Y1682500
Y1698500
X1897000Y1706500
X1905000Y1706626
X1908750Y1716500
X1904937Y1722437
X1897000Y1722500
X1897063Y1714563
X1889000Y1714500
X1888998Y1722374
X1881000Y1722500
X1881000Y1714500
X1880362Y1705610
X1881000Y1698500
X1888000Y1697750
X1888236Y1705736
X1873000Y1706500
X1873000Y1698500
X1872870Y1690497
X1865000Y1690500
X1865122Y1682496
X1872995Y1682496
X1872996Y1674622
X1865000Y1674500
X1865122Y1650492
X1872996
Y1642618
X1880870
X1888998
X1889003Y1650497
X1897126Y1650492
X1905000
X1905195Y1642305
X1905762Y1634490
X1897000Y1634500
X1896750Y1626750
X1888941Y1626559
X1889000Y1618500
X1889000Y1610500
Y1602500
X1881124Y1602486
X1881000Y1594500
X1888998Y1594612
X1897126Y1602486
X1897000Y1610500
X1897012Y1618488
X1881000Y1618500
Y1610500
X1873000Y1610500
X1872996Y1618488
X1865000Y1618500
Y1626500
X1865000Y1634500
Y1642500
X1857000
X1849090Y1642580
X1842090
X1841000Y1650500
X1833000Y1650500
Y1642500
X1825000Y1642500
Y1650500
X1817000
X1809000
X1802130Y1650492
X1801118Y1642618
X1808988Y1642489
X1817000Y1642500
X1817116Y1634490
X1818089Y1627579
X1825116Y1626616
X1833000Y1626500
X1834090Y1618329
X1841090Y1618579
X1849120Y1618488
X1856994
Y1610614
Y1602506
X1849120Y1602486
X1849000Y1594500
X1857000Y1594500
X1864091Y1595328
X1865122Y1602486
X1873014
X1872996Y1594612
X1865000Y1610500
X1847840Y1611579
X1833113Y1610614
X1825000Y1610500
X1824990Y1618488
X1817116
Y1610614
X1808988Y1610360
Y1602486
Y1594612
X1801000Y1594500
X1793000Y1594500
X1785000Y1594500
X1784986Y1602486
X1777500Y1603000
X1777000Y1610500
X1785000Y1610500
X1785112Y1618488
X1793000Y1618500
X1801114Y1618488
X1808987
X1808988Y1626616
X1801000Y1626500
X1801000Y1634500
X1792986Y1634490
Y1626616
X1785112Y1626669
X1776984Y1626616
Y1634490
X1783986Y1634500
X1785000Y1642500
X1777000
X1776992Y1650492
X1769110
Y1642618
X1769000Y1634500
X1769110Y1626616
Y1618488
X1769000Y1610500
X1768985Y1602486
X1769110Y1594612
X1776984
X1793748Y1602486
X1792986Y1610360
X1801000Y1610500
X1777500Y1619000
X1760982Y1618488
X1757250Y1624250
X1748000Y1625250
X1741226Y1624020
X1749552Y1632458
X1751330Y1640200
X1760728Y1642364
X1760250Y1634250
X1760982Y1652016
X1754500Y1651750
X1785250Y1650500
X1793500Y1650000
X1817000Y1666500
X1825000Y1666500
Y1674500
X1817000
X1825250Y1634500
X1840090Y1635330
X1849120Y1634490
X1857000Y1634500
X1856994Y1626616
X1849000Y1626500
X1873000
X1872996Y1634490
X1881000Y1634500
X1888750Y1634750
X1896877Y1642623
X1880500Y1651000
X1888998Y1666494
X1914557Y1663541
X1921936Y1664000
X1924304Y1652524
X1931555Y1657604
X1946402Y1656842
X1947250Y1641250
X1966468Y1649222
X1972056Y1657350
X1983994Y1620520
X1979930Y1613154
X1933956Y1618996
X1926000Y1603999
X1907750Y1607750
X1907293Y1600207
X1906976Y1592636
X1912000Y1627500
X1913890Y1633728
X1856750Y1650500
X1849000Y1650500
X1840992Y1602486
Y1594508
X1824990Y1594612
Y1602486
X1817000Y1594500
X1754124Y1598422
X1754904Y1610500
X1732280Y1604518
X1689100Y1619758
X1676500Y1656500
X1676250Y1697750
X1690064Y1691968
X1707904
X1650492Y1693926
X1644000Y1694000
X1616000
X1604772Y1729994
X1604518Y1749552
X1623250Y1753750
X1656334Y1813814
X1734312Y1780032
X1778000Y1778000
X1798518Y1785874
X1788414Y1803146
X1785366Y1811782
X1785112Y1838706
X1841750Y1801750
X1867250Y1778500
X1889760Y1766570
X1889252Y1751330
X1897126Y1755394
X1918208Y1745932
X1917954Y1738376
X1917700Y1721612
X1921256Y1714756
X1926000Y1724000
X1905000Y1730500
X1881064Y1736030
X1865000Y1706500
X1824990Y1732534
X1816998Y1730502
X1808988Y1732534
X1800998Y1739624
X1795018Y1745996
X1816100Y1741170
X1835546Y1748018
X1767332Y1737614
X1884934Y1813306
X1933750Y1792500
X1947000Y1757250
X1900682Y1931670
X1595374Y1869694
X1631950Y1648968
X1986534Y1634500
X1989545Y1620686
X1990732Y1588904
X2032500Y1665500
Y1714500
X1639250Y2008000
X1635000Y2013500
X1523500Y2012000
X1519936Y1986788
X1508500Y1986750
X1528572Y2098294
X1447546Y2173732
X1412500Y2194500
X1385500
X1385500Y2142500
X1412500
X1272540Y2199894
X1254000Y2083999
X1223968
X1230064Y2023999
X1254000
X1184000
X1156000
X1156000Y2083999
X1184000
X1099820Y2167636
X867410Y2188972
X843800Y2192310
X816102Y2193790
X841800Y2251456
X872744Y2251202
X801878Y2269990
X841800Y2311310
Y2371310
X872800Y2350008
X872744Y2131314
X872800Y2104644
X841800Y2071310
Y2011310
X872744Y2011426
X872800Y1996000
X765556Y2101080
Y2168390
Y2241804
X739140Y2230374
X781558Y2295390
X765556Y2330950
X765564Y2350008
X1479042Y2391156
T03
X574600Y1040000
X600000
X1589600Y1273000
X1615000
X1640400
X1665800
Y1298400
X1640400
X1615000
X1589600
X1564200
Y1273000
X1538800
Y1298400
X1513400
Y1273000
X1488000
Y1298400
X1453000
X1427600
X1402200
X1376800
X1351400
X1326000
X1300600
X1275200
X1249800
X1224400
X1199000
Y1273000
X1224400
X1249800
X1275200
X1300600
X1326000
X1351400
X1376800
X1402200
X1427600
X1453000
X1444600Y1530000
X1470000
X1410000
X1384600
Y1555400
X1410000
Y1580800
X1384600
X1350000
Y1555400
Y1530000
X1324600
Y1555400
Y1580800
X1030000Y1450400
Y1425000
X1004600
Y1450400
X1072000Y1298400
Y1273000
X1097400
Y1298400
X1122800
Y1273000
X1148200
Y1298400
X1173600
Y1273000
X600000Y1250000
X574600
X934600Y1652000
Y1677400
Y1702800
Y1728200
Y1753600
Y1779000
Y1804400
Y1829800
X960000
Y1804400
Y1779000
Y1753600
Y1728200
Y1702800
Y1677400
Y1652000
Y1880000
X934600
Y1905400
X960000
Y1930800
X934600
Y1956200
X960000
X1324600Y1961800
Y1936400
Y1911000
Y1885600
Y1860200
Y1834800
Y1809400
Y1784000
Y1758600
Y1733200
Y1707800
Y1682400
Y1657000
Y1631600
Y1606200
X1350000
Y1631600
Y1657000
Y1682400
Y1707800
Y1733200
Y1758600
Y1784000
Y1809400
Y1834800
Y1860200
Y1885600
Y1911000
Y1936400
Y1961800
X1384600
Y1936400
Y1911000
Y1885600
Y1860200
Y1834800
Y1809400
Y1784000
Y1758600
Y1733200
Y1707800
Y1682400
Y1657000
Y1631600
Y1606200
X1410000
Y1631600
Y1657000
Y1682400
Y1707800
Y1733200
Y1758600
Y1784000
Y1809400
Y1834800
Y1860200
Y1885600
Y1911000
Y1936400
Y1961800
Y1987200
X1384600
Y2012600
X1410000
X1350000
Y1987200
X1324600
Y2012600
X1285400Y2200000
X1260000
Y2225400
X1285400
X1285600Y2280000
X1260200
X1234800
X1209400
Y2305400
X1234800
X1260200
X1285600
X1311000
Y2280000
X1336400
Y2305400
X1361800
Y2280000
X1387200
Y2305400
X1412600
Y2280000
Y2360000
X1387200
X1361800
X1336400
X1311000
X1285600
X1260200
X1234800
X1209400
X1200000Y2225400
Y2200000
X1225400
Y2225400
X1167000
X1141600
X1116200
X1090800
X1065400
X1040000
Y2200000
X1065400
X1090800
X1116200
X1141600
X1167000
X1158600Y2280000
X1133200
X1107800
X1082400
X1057000
X1031600
X1006200
X980800
X955400
X930000
Y2305400
X955400
X980800
X1006200
X1031600
X1057000
X1082400
X1107800
X1133200
X1158600
X1184000
Y2280000
Y2360000
X1158600
X1133200
X1107800
X1082400
X1057000
X1031600
X1006200
X980800
X955400
X930000
Y2225400
Y2200000
X955400
Y2225400
X980800
Y2200000
X1006200
Y2225400
X960000Y2083200
Y2057800
Y2032400
Y2007000
X934600
Y2032400
Y2057800
Y2083200
X930000Y2385400
X955400
X980800
X1006200
X1031600
X1057000
X1082400
X1107800
X1133200
X1158600
X1184000
X1209400
X1234800
X1260200
X1285600
X1311000
X1336400
X1361800
X1387200
X1412600
T04
X689200Y1040000
X714600
X740000
Y1250000
X714600
X689200
X642000Y1370000
X622000
X602000Y1410000
Y1430000
X664000Y1432500
Y1407500
T05
X607800Y1642450
Y1670150
Y1697850
Y1725550
X636200Y1739400
Y1711700
Y1684000
Y1656300
Y1628600
T06
X622000Y1559050
Y1808950
M30
