%FSLAX44Y44*%
%MOMM*%
G71*
G01*
G75*
G04 Layer_Physical_Order=7*
G04 Layer_Color=128*
%ADD10R,2.5000X1.2600*%
%ADD11R,2.5000X1.0000*%
%ADD12R,1.3000X1.3000*%
%ADD13R,2.6000X0.9500*%
%ADD14R,1.0000X1.0000*%
G04:AMPARAMS|DCode=15|XSize=1.8mm|YSize=2mm|CornerRadius=0mm|HoleSize=0mm|Usage=FLASHONLY|Rotation=180.000|XOffset=0mm|YOffset=0mm|HoleType=Round|Shape=Octagon|*
%AMOCTAGOND15*
4,1,8,0.4500,-1.0000,-0.4500,-1.0000,-0.9000,-0.5500,-0.9000,0.5500,-0.4500,1.0000,0.4500,1.0000,0.9000,0.5500,0.9000,-0.5500,0.4500,-1.0000,0.0*
%
%ADD15OCTAGOND15*%

%ADD16R,1.8000X2.0000*%
%ADD17O,0.4500X1.8000*%
%ADD18R,1.8000X1.1500*%
%ADD19R,0.9500X1.7000*%
%ADD20R,0.8000X0.8000*%
%ADD21R,1.3500X2.8000*%
%ADD22R,1.2000X2.6000*%
%ADD23R,0.7000X1.8000*%
%ADD24R,0.9500X2.6000*%
%ADD25C,0.3500*%
%ADD26R,1.3500X1.9000*%
%ADD27R,1.4000X2.1000*%
G04:AMPARAMS|DCode=28|XSize=1.5mm|YSize=0.35mm|CornerRadius=0.035mm|HoleSize=0mm|Usage=FLASHONLY|Rotation=0.000|XOffset=0mm|YOffset=0mm|HoleType=Round|Shape=RoundedRectangle|*
%AMROUNDEDRECTD28*
21,1,1.5000,0.2800,0,0,0.0*
21,1,1.4300,0.3500,0,0,0.0*
1,1,0.0700,0.7150,-0.1400*
1,1,0.0700,-0.7150,-0.1400*
1,1,0.0700,-0.7150,0.1400*
1,1,0.0700,0.7150,0.1400*
%
%ADD28ROUNDEDRECTD28*%
G04:AMPARAMS|DCode=29|XSize=1.5mm|YSize=1.2mm|CornerRadius=0.12mm|HoleSize=0mm|Usage=FLASHONLY|Rotation=0.000|XOffset=0mm|YOffset=0mm|HoleType=Round|Shape=RoundedRectangle|*
%AMROUNDEDRECTD29*
21,1,1.5000,0.9600,0,0,0.0*
21,1,1.2600,1.2000,0,0,0.0*
1,1,0.2400,0.6300,-0.4800*
1,1,0.2400,-0.6300,-0.4800*
1,1,0.2400,-0.6300,0.4800*
1,1,0.2400,0.6300,0.4800*
%
%ADD29ROUNDEDRECTD29*%
%ADD30R,0.8500X0.7000*%
%ADD31R,1.1176X0.6096*%
%ADD32R,1.1000X0.6000*%
%ADD33R,1.3000X2.2000*%
%ADD34O,0.5500X1.6000*%
%ADD35R,2.2000X1.2000*%
%ADD36R,2.0000X1.0000*%
%ADD37R,1.9000X1.3500*%
%ADD38C,0.3600*%
%ADD39C,0.1000*%
%ADD40C,0.2540*%
%ADD41C,1.5000*%
%ADD42C,1.5000*%
%ADD43O,4.0000X2.0000*%
%ADD44O,2.0000X4.0000*%
%ADD45O,2.0000X4.5000*%
%ADD46C,1.6000*%
%ADD47R,1.6000X1.6000*%
%ADD48R,1.5000X1.5000*%
G04:AMPARAMS|DCode=49|XSize=2.4mm|YSize=1.6mm|CornerRadius=0.4mm|HoleSize=0mm|Usage=FLASHONLY|Rotation=0.000|XOffset=0mm|YOffset=0mm|HoleType=Round|Shape=RoundedRectangle|*
%AMROUNDEDRECTD49*
21,1,2.4000,0.8000,0,0,0.0*
21,1,1.6000,1.6000,0,0,0.0*
1,1,0.8000,0.8000,-0.4000*
1,1,0.8000,-0.8000,-0.4000*
1,1,0.8000,-0.8000,0.4000*
1,1,0.8000,0.8000,0.4000*
%
%ADD49ROUNDEDRECTD49*%
%ADD50C,1.6900*%
%ADD51R,1.6900X1.6900*%
%ADD52C,4.7600*%
%ADD53R,1.5000X1.5000*%
%ADD54C,0.4000*%
%ADD55C,0.6000*%
%ADD56C,1.0160*%
%ADD57C,1.5080*%
%ADD58C,1.5080*%
%ADD59C,1.4080*%
%ADD60O,2.0080X1.3080*%
%ADD61C,1.5980*%
%ADD62C,3.7680*%
%ADD63C,0.7080*%
G36*
X566054Y1978794D02*
X568001Y1977988D01*
X569672Y1976706D01*
X570954Y1975034D01*
X571760Y1973088D01*
X572035Y1971000D01*
X571966D01*
X572035Y1909000D01*
X571760Y1906912D01*
X570954Y1904966D01*
X569672Y1903294D01*
X568001Y1902012D01*
X566054Y1901206D01*
X563966Y1900931D01*
Y1901000D01*
X526001D01*
Y1979000D01*
X563966Y1979069D01*
X566054Y1978794D01*
D02*
G37*
D56*
X563966Y1979069D02*
X566054Y1978794D01*
X568001Y1977988D01*
X569672Y1976706D01*
X570954Y1975034D01*
X571760Y1973088D01*
X572035Y1971000D01*
X571966D02*
X572035D01*
X571966D02*
X572035Y1909000D01*
X571760Y1906912D02*
X572035Y1909000D01*
X570954Y1904966D02*
X571760Y1906912D01*
X569672Y1903294D02*
X570954Y1904966D01*
X568001Y1902012D02*
X569672Y1903294D01*
X566054Y1901206D02*
X568001Y1902012D01*
X563966Y1900931D02*
X566054Y1901206D01*
X563966Y1900931D02*
Y1901000D01*
X526001D02*
X563966D01*
X526001D02*
Y1979000D01*
X563966Y1979069D01*
X2050000Y929000D02*
Y2459000D01*
X520000D02*
X2050000D01*
X520000Y929000D02*
Y2459000D01*
Y929000D02*
X2050000D01*
D57*
X664000Y1407500D02*
D03*
Y1432500D02*
D03*
X689200Y1040000D02*
D03*
X714600D02*
D03*
X740000D02*
D03*
X689200Y1250000D02*
D03*
X714600D02*
D03*
D58*
X622000Y1370000D02*
D03*
X642000D02*
D03*
D59*
X600000Y1040000D02*
D03*
X574600D02*
D03*
X600000Y1250000D02*
D03*
X574600D02*
D03*
X1444600Y1530000D02*
D03*
X1470000D02*
D03*
X960000Y1880000D02*
D03*
X934600D02*
D03*
X960000Y1905400D02*
D03*
X934600D02*
D03*
X960000Y1930800D02*
D03*
X934600D02*
D03*
X960000Y1956200D02*
D03*
Y2007000D02*
D03*
X934600D02*
D03*
X960000Y2032400D02*
D03*
X934600D02*
D03*
X960000Y2057800D02*
D03*
X934600D02*
D03*
X960000Y2083200D02*
D03*
X934600D02*
D03*
Y1829800D02*
D03*
Y1804400D02*
D03*
Y1779000D02*
D03*
X960000D02*
D03*
X934600Y1753600D02*
D03*
X960000D02*
D03*
X934600Y1728200D02*
D03*
X960000D02*
D03*
X934600Y1702800D02*
D03*
X960000D02*
D03*
X934600Y1677400D02*
D03*
Y1652000D02*
D03*
X1260000Y2200000D02*
D03*
Y2225400D02*
D03*
X1285400Y2200000D02*
D03*
X1200000D02*
D03*
Y2225400D02*
D03*
X1225400Y2200000D02*
D03*
Y2225400D02*
D03*
X1040000D02*
D03*
X1065400D02*
D03*
X1090800D02*
D03*
X1116200D02*
D03*
X1141600D02*
D03*
X1167000Y2200000D02*
D03*
Y2225400D02*
D03*
X930000Y2200000D02*
D03*
Y2225400D02*
D03*
X955400Y2200000D02*
D03*
Y2225400D02*
D03*
X980800Y2200000D02*
D03*
Y2225400D02*
D03*
X1006200Y2200000D02*
D03*
Y2225400D02*
D03*
X930000Y2280000D02*
D03*
Y2305400D02*
D03*
X955400Y2280000D02*
D03*
Y2305400D02*
D03*
X980800Y2280000D02*
D03*
Y2305400D02*
D03*
X1006200Y2280000D02*
D03*
Y2305400D02*
D03*
X1031600Y2280000D02*
D03*
Y2305400D02*
D03*
X1057000Y2280000D02*
D03*
Y2305400D02*
D03*
X1082400Y2280000D02*
D03*
Y2305400D02*
D03*
X1107800Y2280000D02*
D03*
Y2305400D02*
D03*
X1133200Y2280000D02*
D03*
Y2305400D02*
D03*
X1158600Y2280000D02*
D03*
Y2305400D02*
D03*
X1184000Y2280000D02*
D03*
Y2305400D02*
D03*
X1209400Y2280000D02*
D03*
X1234800D02*
D03*
Y2305400D02*
D03*
X1260200Y2280000D02*
D03*
Y2305400D02*
D03*
X1285600Y2280000D02*
D03*
Y2305400D02*
D03*
X1311000Y2280000D02*
D03*
Y2305400D02*
D03*
X1336400Y2280000D02*
D03*
Y2305400D02*
D03*
X1361800Y2280000D02*
D03*
Y2305400D02*
D03*
X1387200Y2280000D02*
D03*
Y2305400D02*
D03*
X1412600Y2280000D02*
D03*
Y2305400D02*
D03*
X930000Y2360000D02*
D03*
Y2385400D02*
D03*
X955400Y2360000D02*
D03*
Y2385400D02*
D03*
X980800Y2360000D02*
D03*
Y2385400D02*
D03*
X1006200Y2360000D02*
D03*
Y2385400D02*
D03*
X1031600Y2360000D02*
D03*
Y2385400D02*
D03*
X1057000Y2360000D02*
D03*
Y2385400D02*
D03*
X1082400Y2360000D02*
D03*
Y2385400D02*
D03*
X1107800Y2360000D02*
D03*
Y2385400D02*
D03*
X1133200Y2360000D02*
D03*
Y2385400D02*
D03*
X1158600Y2360000D02*
D03*
Y2385400D02*
D03*
X1184000Y2360000D02*
D03*
Y2385400D02*
D03*
X1209400Y2360000D02*
D03*
Y2385400D02*
D03*
X1234800Y2360000D02*
D03*
Y2385400D02*
D03*
X1260200Y2360000D02*
D03*
Y2385400D02*
D03*
X1285600Y2360000D02*
D03*
Y2385400D02*
D03*
X1311000Y2360000D02*
D03*
Y2385400D02*
D03*
X1336400Y2360000D02*
D03*
Y2385400D02*
D03*
X1361800Y2360000D02*
D03*
Y2385400D02*
D03*
X1387200Y2360000D02*
D03*
Y2385400D02*
D03*
X1412600Y2360000D02*
D03*
Y2385400D02*
D03*
X1350000Y1530000D02*
D03*
X1324600D02*
D03*
X1350000Y1555400D02*
D03*
X1324600D02*
D03*
X1350000Y1580800D02*
D03*
X1324600D02*
D03*
X1350000Y1606200D02*
D03*
X1324600D02*
D03*
X1350000Y1631600D02*
D03*
X1324600D02*
D03*
X1350000Y1657000D02*
D03*
X1324600D02*
D03*
X1350000Y1682400D02*
D03*
X1324600D02*
D03*
X1350000Y1707800D02*
D03*
X1324600D02*
D03*
X1350000Y1733200D02*
D03*
X1324600D02*
D03*
X1350000Y1758600D02*
D03*
X1324600D02*
D03*
X1350000Y1784000D02*
D03*
X1324600D02*
D03*
X1350000Y1809400D02*
D03*
X1324600D02*
D03*
X1350000Y1834800D02*
D03*
X1324600D02*
D03*
X1350000Y1860200D02*
D03*
X1324600D02*
D03*
X1350000Y1885600D02*
D03*
X1324600D02*
D03*
X1350000Y1911000D02*
D03*
X1324600D02*
D03*
X1350000Y1936400D02*
D03*
X1324600D02*
D03*
X1350000Y1961800D02*
D03*
X1324600D02*
D03*
X1350000Y1987200D02*
D03*
X1324600D02*
D03*
X1350000Y2012600D02*
D03*
X1324600D02*
D03*
X1665800Y1298400D02*
D03*
Y1273000D02*
D03*
X1640400Y1298400D02*
D03*
Y1273000D02*
D03*
X1615000Y1298400D02*
D03*
Y1273000D02*
D03*
X1589600Y1298400D02*
D03*
Y1273000D02*
D03*
X1564200Y1298400D02*
D03*
Y1273000D02*
D03*
X1538800Y1298400D02*
D03*
Y1273000D02*
D03*
X1513400Y1298400D02*
D03*
Y1273000D02*
D03*
X1488000Y1298400D02*
D03*
Y1273000D02*
D03*
X1072000D02*
D03*
Y1298400D02*
D03*
X1097400Y1273000D02*
D03*
Y1298400D02*
D03*
X1122800Y1273000D02*
D03*
Y1298400D02*
D03*
X1148200Y1273000D02*
D03*
Y1298400D02*
D03*
X1173600Y1273000D02*
D03*
Y1298400D02*
D03*
X1199000Y1273000D02*
D03*
Y1298400D02*
D03*
X1224400Y1273000D02*
D03*
Y1298400D02*
D03*
X1249800Y1273000D02*
D03*
Y1298400D02*
D03*
X1275200Y1273000D02*
D03*
Y1298400D02*
D03*
X1300600Y1273000D02*
D03*
Y1298400D02*
D03*
X1326000Y1273000D02*
D03*
Y1298400D02*
D03*
X1351400Y1273000D02*
D03*
Y1298400D02*
D03*
X1376800Y1273000D02*
D03*
Y1298400D02*
D03*
X1402200Y1273000D02*
D03*
Y1298400D02*
D03*
X1427600Y1273000D02*
D03*
Y1298400D02*
D03*
X1453000Y1273000D02*
D03*
Y1298400D02*
D03*
X1030000Y1425000D02*
D03*
X1004600D02*
D03*
X1030000Y1450400D02*
D03*
X1004600D02*
D03*
X1410000Y1530000D02*
D03*
X1384600D02*
D03*
X1410000Y1555400D02*
D03*
X1384600D02*
D03*
X1410000Y1580800D02*
D03*
X1384600D02*
D03*
X1410000Y1606200D02*
D03*
X1384600D02*
D03*
X1410000Y1631600D02*
D03*
X1384600D02*
D03*
X1410000Y1657000D02*
D03*
X1384600D02*
D03*
X1410000Y1682400D02*
D03*
X1384600D02*
D03*
X1410000Y1707800D02*
D03*
X1384600D02*
D03*
X1410000Y1733200D02*
D03*
X1384600D02*
D03*
X1410000Y1758600D02*
D03*
X1384600D02*
D03*
X1410000Y1784000D02*
D03*
X1384600D02*
D03*
X1410000Y1809400D02*
D03*
X1384600D02*
D03*
X1410000Y1834800D02*
D03*
X1384600D02*
D03*
X1410000Y1860200D02*
D03*
X1384600D02*
D03*
X1410000Y1885600D02*
D03*
X1384600D02*
D03*
X1410000Y1911000D02*
D03*
X1384600D02*
D03*
X1410000Y1936400D02*
D03*
X1384600D02*
D03*
X1410000Y1961800D02*
D03*
X1384600D02*
D03*
X1410000Y1987200D02*
D03*
X1384600D02*
D03*
X1410000Y2012600D02*
D03*
X1384600D02*
D03*
D60*
X542000Y1991000D02*
D03*
Y1889000D02*
D03*
X579001D02*
D03*
Y1991000D02*
D03*
D61*
X607800Y1725550D02*
D03*
X636200Y1711700D02*
D03*
X607800Y1697850D02*
D03*
X636200Y1684000D02*
D03*
X607800Y1670150D02*
D03*
X636200Y1656300D02*
D03*
X607800Y1642450D02*
D03*
X636200Y1628600D02*
D03*
D63*
X1833000Y1626500D02*
D03*
X1857000Y1642500D02*
D03*
X1645250Y1501500D02*
D03*
X1865000Y1634500D02*
D03*
X1901500Y1577250D02*
D03*
X1744750Y1502500D02*
D03*
X1881000Y1618500D02*
D03*
X1849120Y1618488D02*
D03*
X1841090Y1618579D02*
D03*
X1834090Y1618329D02*
D03*
X1824990Y1618488D02*
D03*
X1856994Y1602506D02*
D03*
X1849120Y1602486D02*
D03*
X1840992D02*
D03*
X1833113Y1610614D02*
D03*
X1856994Y1618488D02*
D03*
X1849000Y1626500D02*
D03*
X1849120Y1634490D02*
D03*
X1865122Y1602486D02*
D03*
X1865000Y1610500D02*
D03*
X1856994Y1626616D02*
D03*
X1849000Y1594500D02*
D03*
Y1586500D02*
D03*
X1856994Y1586484D02*
D03*
X1856740Y1571498D02*
D03*
X1851152Y1561846D02*
D03*
X1872996Y1618488D02*
D03*
X1873000Y1626500D02*
D03*
X1872996Y1634490D02*
D03*
X1587500Y1432250D02*
D03*
X1889000Y1618500D02*
D03*
X1870000Y1554000D02*
D03*
X1856486Y1554734D02*
D03*
X1863161Y1554551D02*
D03*
X1947250Y1641250D02*
D03*
X1734000Y1390250D02*
D03*
X1801000Y1666500D02*
D03*
X1818089Y1627579D02*
D03*
X1817116Y1634490D02*
D03*
X1842090Y1642580D02*
D03*
X1833000Y1650500D02*
D03*
X1809000Y1650500D02*
D03*
X1808988Y1642489D02*
D03*
X1825000Y1650500D02*
D03*
X1817000Y1642500D02*
D03*
X1792986Y1674622D02*
D03*
X1793000Y1666500D02*
D03*
X1808988Y1674512D02*
D03*
X1799844Y1682496D02*
D03*
X1801000Y1674500D02*
D03*
X1792986Y1690624D02*
D03*
X1801000Y1690500D02*
D03*
X1785000Y1682500D02*
D03*
X1785000Y1674500D02*
D03*
X1783986Y1634500D02*
D03*
X1848250Y1531250D02*
D03*
X1942750Y1501000D02*
D03*
X1979250Y1370750D02*
D03*
X1977500Y1379000D02*
D03*
X1964000Y1368044D02*
D03*
X1956000Y1375156D02*
D03*
X1723500Y1649500D02*
D03*
X1760220Y1667510D02*
D03*
X1752707Y1667751D02*
D03*
X1769000Y1666500D02*
D03*
X1777000Y1666500D02*
D03*
X1754500Y1651750D02*
D03*
X1785250Y1650500D02*
D03*
X1776992Y1650492D02*
D03*
X1776984Y1626616D02*
D03*
Y1594612D02*
D03*
X1781048Y1578356D02*
D03*
X1777548Y1568704D02*
D03*
X1943000Y1491000D02*
D03*
X957500Y1130500D02*
D03*
X1523500Y2012000D02*
D03*
X1639250Y2008000D02*
D03*
X748792Y1912500D02*
D03*
X1151890Y1881886D02*
D03*
X1144016Y1929984D02*
D03*
X1972818Y1234694D02*
D03*
X1284224Y1132078D02*
D03*
X813846Y1589024D02*
D03*
X801250Y1574800D02*
D03*
X814250Y1568450D02*
D03*
X794750Y1562950D02*
D03*
X794766Y1630934D02*
D03*
X801250Y1604264D02*
D03*
X820750Y1578356D02*
D03*
X827250Y1538986D02*
D03*
X765556Y2101080D02*
D03*
X867410Y2188972D02*
D03*
X872800Y2350008D02*
D03*
X765564D02*
D03*
X765556Y2168390D02*
D03*
X841800Y2251456D02*
D03*
X841756Y1951361D02*
D03*
X781558Y2295390D02*
D03*
X801878Y2269990D02*
D03*
X872744Y2011426D02*
D03*
X991100Y1188720D02*
D03*
X586348Y1176152D02*
D03*
X751078Y1968000D02*
D03*
X1767741Y1579019D02*
D03*
X1938782Y1581404D02*
D03*
X827278Y1746758D02*
D03*
Y1607058D02*
D03*
X834600Y1076750D02*
D03*
X937260Y974090D02*
D03*
X834600Y1084000D02*
D03*
X1985264Y1209548D02*
D03*
X1938020Y1209294D02*
D03*
X1874520Y1198118D02*
D03*
X1751330Y1194500D02*
D03*
X1696020D02*
D03*
X1578102Y1194562D02*
D03*
X1517904D02*
D03*
X1216976Y1194500D02*
D03*
X1904937Y1722437D02*
D03*
X1888236Y1705736D02*
D03*
X1880362Y1705610D02*
D03*
X1897126Y1755394D02*
D03*
X1708000Y1496164D02*
D03*
X1897126Y1602486D02*
D03*
X1719326Y1510030D02*
D03*
X1888941Y1626559D02*
D03*
X1913890Y1633728D02*
D03*
X1931924Y1345946D02*
D03*
X1905195Y1642305D02*
D03*
X1680464Y1370076D02*
D03*
X1428000Y1493520D02*
D03*
X1589786Y1638046D02*
D03*
X1738122Y1664462D02*
D03*
X1905000Y1666494D02*
D03*
X1631950Y1648968D02*
D03*
X1436232Y1479942D02*
D03*
X1476000Y1454404D02*
D03*
X1484122Y1480058D02*
D03*
X1889003Y1650497D02*
D03*
X1492000Y1335532D02*
D03*
X1475994Y1429766D02*
D03*
X1792986Y1565402D02*
D03*
X1856750Y1650500D02*
D03*
X1604772Y1729994D02*
D03*
X1424432Y1437386D02*
D03*
X1436000Y1386724D02*
D03*
X1749552Y1387348D02*
D03*
X1911096Y1686560D02*
D03*
X2032000Y1364742D02*
D03*
X1432052Y1344422D02*
D03*
X1183894Y1874012D02*
D03*
X1159701Y1929701D02*
D03*
X1183894Y1954022D02*
D03*
X1172000Y1966214D02*
D03*
X1103884Y1956148D02*
D03*
X1104106Y1945894D02*
D03*
X1128014Y1953768D02*
D03*
X1160018Y1889982D02*
D03*
X1167892Y1890014D02*
D03*
X1189482Y1852422D02*
D03*
X1164082D02*
D03*
X1167892Y1882108D02*
D03*
X1112012Y1929892D02*
D03*
Y1882012D02*
D03*
X1128014Y1889987D02*
D03*
X1103884Y1922018D02*
D03*
X1417066Y1924304D02*
D03*
X1081520Y1925250D02*
D03*
X1103918Y1930146D02*
D03*
X1085962Y1938020D02*
D03*
X1167892D02*
D03*
X1176018Y1922018D02*
D03*
X1175892Y1929892D02*
D03*
X1194797Y1892300D02*
D03*
X1103884Y1890014D02*
D03*
X1096010D02*
D03*
X1103888Y1897888D02*
D03*
X1305310Y1644396D02*
D03*
X1093978Y1897888D02*
D03*
X1119886Y1913890D02*
D03*
X1486154Y1319784D02*
D03*
X1112012Y1913890D02*
D03*
X1103884D02*
D03*
X1119886Y1922018D02*
D03*
X1924050Y1482090D02*
D03*
X1748000Y1345946D02*
D03*
X1508000Y1327912D02*
D03*
X1748000D02*
D03*
X1966468Y1649222D02*
D03*
X1744980Y1380998D02*
D03*
X1785620Y1351788D02*
D03*
X1937766Y1565402D02*
D03*
X1547366Y1354582D02*
D03*
X1780000Y1339088D02*
D03*
X1921256Y1714756D02*
D03*
X1764000Y1454404D02*
D03*
X1665224Y1633728D02*
D03*
X1748000Y1457960D02*
D03*
X1508000Y1458214D02*
D03*
X1500000Y1508128D02*
D03*
X1500124Y1480058D02*
D03*
X1740000Y1484816D02*
D03*
X1638046Y1554480D02*
D03*
X1905000Y1706626D02*
D03*
X1648460Y1626870D02*
D03*
X1620000Y1346000D02*
D03*
X1897063Y1714563D02*
D03*
X1596644Y1576070D02*
D03*
X1888998Y1690498D02*
D03*
X1975612Y1570482D02*
D03*
X1636014Y1345946D02*
D03*
X1395984D02*
D03*
X1881000Y1690500D02*
D03*
X1769110Y1714500D02*
D03*
X1447546Y2173732D02*
D03*
X1384554Y1898396D02*
D03*
X1785112Y1698388D02*
D03*
X1650492Y1693926D02*
D03*
X1757172Y1708658D02*
D03*
X1776984Y1690624D02*
D03*
X1792986Y1626616D02*
D03*
X1751330Y1640200D02*
D03*
X1654556Y1638554D02*
D03*
X1689100Y1619758D02*
D03*
X1263142Y1945894D02*
D03*
X1788922Y1580642D02*
D03*
X1695450Y1560576D02*
D03*
X1808988Y1602486D02*
D03*
X1797050Y1584452D02*
D03*
X1751076Y1494028D02*
D03*
X1824990Y1602486D02*
D03*
X1884426Y1523746D02*
D03*
X1990732Y1588904D02*
D03*
X1905508Y1521714D02*
D03*
X1889016Y1586484D02*
D03*
X1881124Y1602486D02*
D03*
X1983994Y1620520D02*
D03*
X1917954Y1738376D02*
D03*
X1884934Y1813306D02*
D03*
X1889252Y1751330D02*
D03*
X1272540Y2199894D02*
D03*
X1888998Y1722374D02*
D03*
X1872874D02*
D03*
X1865122Y1714500D02*
D03*
X1479042Y2391156D02*
D03*
X1856994Y1722374D02*
D03*
X1099820Y2167636D02*
D03*
X1824990Y1690624D02*
D03*
X1840992Y1730492D02*
D03*
X973582Y1884680D02*
D03*
X1824990Y1722374D02*
D03*
X1286002Y1918970D02*
D03*
X1824990Y1714500D02*
D03*
X1727200Y1636522D02*
D03*
X1808988Y1594612D02*
D03*
X1833118Y1584452D02*
D03*
X1500632Y1640586D02*
D03*
X1801114Y1618488D02*
D03*
X1861312Y1567952D02*
D03*
X1723898Y1580388D02*
D03*
X1881000Y1594500D02*
D03*
X1835546Y1748018D02*
D03*
X1816998Y1730502D02*
D03*
X1595374Y1869694D02*
D03*
X1801114Y1714500D02*
D03*
X1946402Y1656842D02*
D03*
X1956000Y1457960D02*
D03*
X2001520Y1540764D02*
D03*
X1901698Y1414018D02*
D03*
X1752092Y1533398D02*
D03*
X1721104Y1569974D02*
D03*
X1704594Y1536192D02*
D03*
X1690116Y1560830D02*
D03*
X1706372Y1565402D02*
D03*
X1948000Y1342390D02*
D03*
X1924000Y1346046D02*
D03*
X1916000Y1381428D02*
D03*
X1905762Y1345946D02*
D03*
X1899920Y1380236D02*
D03*
X1760982Y1652016D02*
D03*
X2011934Y1405250D02*
D03*
X1664970Y1519682D02*
D03*
X1776984Y1634490D02*
D03*
X1906270Y1583436D02*
D03*
X2020000Y1374648D02*
D03*
X1769110Y1626616D02*
D03*
X2011934Y1487170D02*
D03*
X2004060Y1450848D02*
D03*
X1760982Y1618488D02*
D03*
X1980000Y1480892D02*
D03*
X1768985Y1602486D02*
D03*
X1753210Y1581021D02*
D03*
X1870032Y1483614D02*
D03*
X1801118Y1642618D02*
D03*
X1697482Y1632712D02*
D03*
X1849882Y1441704D02*
D03*
X1876044Y1415796D02*
D03*
X1785112Y1626669D02*
D03*
X1883918Y1368044D02*
D03*
X1112012Y1937988D02*
D03*
Y1945988D02*
D03*
X765556Y2330950D02*
D03*
Y2241804D02*
D03*
X1996000Y1454404D02*
D03*
X1769110Y1618488D02*
D03*
X1900682Y1931670D02*
D03*
X1933956Y1618996D02*
D03*
X1684020Y1345946D02*
D03*
X1704594Y1553076D02*
D03*
X1907293Y1600207D02*
D03*
X1684000Y1457960D02*
D03*
X1883156Y1572768D02*
D03*
X1831594Y1522222D02*
D03*
X1866138Y1441958D02*
D03*
X1741226Y1624020D02*
D03*
X1853000Y1733988D02*
D03*
X1816100Y1741170D02*
D03*
X1881064Y1736030D02*
D03*
X1519936Y1986788D02*
D03*
X1872996Y1714500D02*
D03*
X1840992Y1594508D02*
D03*
X1808988Y1610360D02*
D03*
X1497330Y1913128D02*
D03*
X1609968Y1368000D02*
D03*
X1905762Y1634490D02*
D03*
X1128014Y1938020D02*
D03*
X1307084Y1799082D02*
D03*
X1468000Y1496314D02*
D03*
X1732000Y1345946D02*
D03*
X1937258Y1505966D02*
D03*
X1897012Y1618488D02*
D03*
X1198372Y1904411D02*
D03*
X1166000Y1835404D02*
D03*
X872744Y2251202D02*
D03*
X710184Y1885188D02*
D03*
X1385500Y2142500D02*
D03*
X1412500Y2194500D02*
D03*
X1978152Y1495298D02*
D03*
X1775714Y1383284D02*
D03*
X1760728Y1642364D02*
D03*
X1701038D02*
D03*
X1808734Y1468120D02*
D03*
X1996000Y1368044D02*
D03*
X1491234Y1506982D02*
D03*
X1607312Y1642872D02*
D03*
X1909064Y1674622D02*
D03*
X1725524Y1368044D02*
D03*
X1824990Y1706626D02*
D03*
X1808988Y1626616D02*
D03*
X1912340Y1498622D02*
D03*
X1656334Y1332230D02*
D03*
X1905000Y1650492D02*
D03*
X1540000Y1458214D02*
D03*
X1780000Y1453896D02*
D03*
X1850136Y1545082D02*
D03*
X1802130Y1560576D02*
D03*
X1792986Y1634490D02*
D03*
X1988000Y1508310D02*
D03*
X1732280Y1604518D02*
D03*
X1948000Y1484122D02*
D03*
X1808988Y1666494D02*
D03*
X1988000Y1380998D02*
D03*
X1931555Y1657604D02*
D03*
X1769110Y1650492D02*
D03*
X1802130D02*
D03*
X1924304Y1652524D02*
D03*
X1883664Y1555496D02*
D03*
X872800Y1996000D02*
D03*
X1914557Y1663541D02*
D03*
X1795018Y1745996D02*
D03*
X1397254Y1733296D02*
D03*
X1817000Y1714500D02*
D03*
X1604518Y1749552D02*
D03*
X1979930Y1613154D02*
D03*
X1888998Y1594612D02*
D03*
X1696466Y1507744D02*
D03*
X1623004Y1534470D02*
D03*
X1808987Y1618488D02*
D03*
X1784986Y1602486D02*
D03*
X1697228Y1574038D02*
D03*
X1860000Y1504229D02*
D03*
X1769110Y1594612D02*
D03*
X1868170Y1370076D02*
D03*
X1785112Y1618488D02*
D03*
X1628510Y1586092D02*
D03*
X1992122Y1498346D02*
D03*
X1425702Y1386954D02*
D03*
X1824990Y1732534D02*
D03*
X1747774Y1690370D02*
D03*
X1785112Y1722374D02*
D03*
X1692000Y1372064D02*
D03*
X1524000Y1371600D02*
D03*
X1764000D02*
D03*
X1772000Y1374140D02*
D03*
X1532000Y1375532D02*
D03*
X1372108Y1480058D02*
D03*
X1612000Y1480000D02*
D03*
X1808988Y1582425D02*
D03*
X1397254Y1769364D02*
D03*
X1801114Y1722374D02*
D03*
X1659890Y1345946D02*
D03*
X1785112Y1714500D02*
D03*
X969010Y1862074D02*
D03*
X1620266Y1480058D02*
D03*
X1388000Y1489202D02*
D03*
X1894032Y1371600D02*
D03*
X1516126Y1486154D02*
D03*
X1746402Y1489558D02*
D03*
X1792986Y1610360D02*
D03*
X1749552Y1632458D02*
D03*
X1656334Y1625346D02*
D03*
X1884000Y1484064D02*
D03*
X1793748Y1602486D02*
D03*
X1917700Y1721612D02*
D03*
X1741678Y1558544D02*
D03*
X1873014Y1602486D02*
D03*
X1989545Y1620686D02*
D03*
X1528572Y2098294D02*
D03*
X1776984Y1706516D02*
D03*
X1372616Y1811020D02*
D03*
X1793000Y1714500D02*
D03*
X1767332Y1737614D02*
D03*
X1724261Y1526939D02*
D03*
X1151890Y1953890D02*
D03*
X1798518Y1785874D02*
D03*
X2007616Y1554500D02*
D03*
X1524000Y1448054D02*
D03*
X1764000D02*
D03*
X1785112Y1838706D02*
D03*
X2039874Y1584452D02*
D03*
X1769110Y1642618D02*
D03*
X1872996Y1730496D02*
D03*
X1112012Y1865884D02*
D03*
X1696085Y1435735D02*
D03*
X1484000Y1388364D02*
D03*
X1176020Y1897888D02*
D03*
X1516000Y1380998D02*
D03*
X1972056Y1657350D02*
D03*
X1408064Y1373124D02*
D03*
X1644000Y1368000D02*
D03*
X1986534Y1634500D02*
D03*
X1766062Y1550162D02*
D03*
X1887982Y1542034D02*
D03*
X1260094Y1403096D02*
D03*
X1647952Y1537970D02*
D03*
X1090478Y1918000D02*
D03*
X1310950Y1895800D02*
D03*
X1187958Y1938020D02*
D03*
X1817116Y1722384D02*
D03*
X1335024Y1857756D02*
D03*
X1770888Y1480058D02*
D03*
X1124000Y1957500D02*
D03*
X1119886Y1938020D02*
D03*
X1915616Y1455968D02*
D03*
X1080306Y1934000D02*
D03*
X1710182Y1544066D02*
D03*
X1754124Y1598422D02*
D03*
X1906976Y1592636D02*
D03*
X1474978Y1908048D02*
D03*
X1707904Y1691968D02*
D03*
X1800998Y1739624D02*
D03*
X1785112Y1690388D02*
D03*
X1777002Y1698498D02*
D03*
X1757574Y1695963D02*
D03*
X1808988Y1732534D02*
D03*
X1119886Y1881886D02*
D03*
X1096010Y1945894D02*
D03*
X1112012Y1890014D02*
D03*
X1750060Y1727200D02*
D03*
X1167894Y1945894D02*
D03*
X1135886Y1881886D02*
D03*
X1112012Y1922018D02*
D03*
X1707904Y1573999D02*
D03*
X1750822Y1708658D02*
D03*
X1561968Y1573999D02*
D03*
X1119886Y1945894D02*
D03*
X1160018D02*
D03*
X1006000Y1825658D02*
D03*
X1446276Y1726184D02*
D03*
X1776984Y1722374D02*
D03*
X1128014Y1945894D02*
D03*
X1119886Y1890014D02*
D03*
X1094232Y1912112D02*
D03*
X1088032Y1838452D02*
D03*
X1176020Y1945894D02*
D03*
X1089152Y1883918D02*
D03*
X1103884Y1881886D02*
D03*
X1628000Y1368000D02*
D03*
X1388000Y1377188D02*
D03*
X1120000Y1863968D02*
D03*
X1135888Y1890113D02*
D03*
X1526032Y1392936D02*
D03*
X1176020Y1938020D02*
D03*
X1175890Y1913890D02*
D03*
X1096010Y1957832D02*
D03*
X1568064Y1513999D02*
D03*
X1104012Y1874012D02*
D03*
X1242568Y1926000D02*
D03*
X1103884Y1865884D02*
D03*
X1151982Y1922018D02*
D03*
X1160018Y1881886D02*
D03*
X1651000Y1247902D02*
D03*
X1255000Y1103122D02*
D03*
X1845310Y1181354D02*
D03*
X1256032Y1843999D02*
D03*
X1112012Y1874012D02*
D03*
X1128014D02*
D03*
X972312Y1061466D02*
D03*
X739140Y2230374D02*
D03*
X1111978Y1954022D02*
D03*
X1160018Y1959532D02*
D03*
X1006000Y1874012D02*
D03*
X1183894Y1945894D02*
D03*
X1151890D02*
D03*
X1379982Y1345946D02*
D03*
X1611936Y1394000D02*
D03*
X1167892Y1922018D02*
D03*
X1098042Y1204468D02*
D03*
X817626Y1435354D02*
D03*
X707898Y1847596D02*
D03*
X729750Y1545844D02*
D03*
X817757Y1633851D02*
D03*
X1817878Y1194562D02*
D03*
X816102Y2193790D02*
D03*
X872800Y2104644D02*
D03*
X834600Y1282192D02*
D03*
X1331406Y1201166D02*
D03*
X1277874Y1197102D02*
D03*
X814250Y1594866D02*
D03*
X729750Y1569974D02*
D03*
X872744Y2131314D02*
D03*
X1167892Y1929892D02*
D03*
X1157986Y1194500D02*
D03*
X1375726D02*
D03*
X1176000Y1863968D02*
D03*
X1160018Y1938020D02*
D03*
X937260Y1293876D02*
D03*
X834644D02*
D03*
X1299210Y1422654D02*
D03*
X1826006Y1544066D02*
D03*
X1824990Y1594612D02*
D03*
X1872996D02*
D03*
X720090Y1065784D02*
D03*
X795020Y1017778D02*
D03*
X1404000Y1480000D02*
D03*
X1652000Y1458000D02*
D03*
X834600Y1184000D02*
D03*
X937350Y1194000D02*
D03*
X1018100Y1188500D02*
D03*
X1017350Y1253999D02*
D03*
Y1323999D02*
D03*
X729750Y1750000D02*
D03*
X1312000Y1377000D02*
D03*
X1120000Y1596500D02*
D03*
X1366000Y1394000D02*
D03*
X1452000Y1368000D02*
D03*
X1436000Y1394000D02*
D03*
X1120000Y1714500D02*
D03*
X1460000Y1458000D02*
D03*
X1074000Y1783999D02*
D03*
X1044000Y1843999D02*
D03*
X1154000Y1783999D02*
D03*
X1224000D02*
D03*
X1044000Y1904000D02*
D03*
X1160000Y1874000D02*
D03*
X1168000D02*
D03*
X1120000Y1898000D02*
D03*
X1152000Y1890000D02*
D03*
X1160000Y1898000D02*
D03*
X1686000Y1394000D02*
D03*
X1160000Y1914000D02*
D03*
X1128000Y1930000D02*
D03*
X1044000Y1964000D02*
D03*
X1152000Y1930000D02*
D03*
X1700000Y1458000D02*
D03*
X1114000Y1964000D02*
D03*
X1564000Y1634000D02*
D03*
X1756000Y1394000D02*
D03*
X1254000Y1904000D02*
D03*
X1644000Y1573999D02*
D03*
X1184000Y1964000D02*
D03*
X1564000Y1694000D02*
D03*
X1644000Y1634000D02*
D03*
X1254000Y1964000D02*
D03*
X1184000Y2023999D02*
D03*
X1856000Y1394000D02*
D03*
X1644000Y1694000D02*
D03*
X1714000Y1634000D02*
D03*
X1254000Y2023999D02*
D03*
X1932000Y1368000D02*
D03*
X1184000Y2083999D02*
D03*
X1769000Y1610500D02*
D03*
X1785000Y1594500D02*
D03*
X1926000Y1394000D02*
D03*
X1793000Y1618500D02*
D03*
X1801000Y1610500D02*
D03*
X1254000Y2083999D02*
D03*
X1769000Y1698500D02*
D03*
X1761000Y1722500D02*
D03*
X1793000Y1698500D02*
D03*
X1996000Y1394000D02*
D03*
X1793000Y1722500D02*
D03*
X1809000Y1706500D02*
D03*
X1825000Y1698500D02*
D03*
X1897000Y1610500D02*
D03*
X1841000Y1698500D02*
D03*
Y1722500D02*
D03*
X1865000Y1706500D02*
D03*
X1897000Y1666500D02*
D03*
X1873000Y1698500D02*
D03*
X1897000D02*
D03*
X1881000Y1722500D02*
D03*
X1412500Y2142500D02*
D03*
X1897000Y1722500D02*
D03*
X2032500Y1585500D02*
D03*
X1385500Y2194500D02*
D03*
X2032500Y1665500D02*
D03*
Y1714500D02*
D03*
X937350Y1043999D02*
D03*
Y1114000D02*
D03*
X1030600Y1093000D02*
D03*
X1825000Y1674500D02*
D03*
X1841000Y1666500D02*
D03*
X1849000Y1650500D02*
D03*
Y1674500D02*
D03*
X1777000Y1610500D02*
D03*
X1801000Y1626500D02*
D03*
X1817000Y1666500D02*
D03*
X1777000Y1674500D02*
D03*
X1881000Y1714500D02*
D03*
X1897000Y1706500D02*
D03*
X1849000Y1714500D02*
D03*
X1865000Y1730750D02*
D03*
X1784750D02*
D03*
X1536000Y1480250D02*
D03*
X1383500Y1369000D02*
D03*
X594250Y1946250D02*
D03*
X1093500Y1871750D02*
D03*
X1387250Y1265500D02*
D03*
X1333000Y1692500D02*
D03*
X1788414Y1803146D02*
D03*
X1785366Y1811782D02*
D03*
X1889760Y1766570D02*
D03*
X1676250Y1697750D02*
D03*
X1623250Y1753750D02*
D03*
X1544500Y1512500D02*
D03*
X1988000Y1583000D02*
D03*
X1719750Y1345250D02*
D03*
X1933750Y1792500D02*
D03*
X1867250Y1778500D02*
D03*
X1947000Y1757250D02*
D03*
X1954500Y1481500D02*
D03*
X1960500Y1526250D02*
D03*
X1777000Y1642500D02*
D03*
X1817000Y1594500D02*
D03*
X1793000D02*
D03*
X1881000Y1610500D02*
D03*
X1888750Y1634750D02*
D03*
X1865000Y1642500D02*
D03*
X1785000D02*
D03*
X1833000D02*
D03*
X1897000Y1674500D02*
D03*
X1833000Y1682500D02*
D03*
X1777746Y1681988D02*
D03*
X1756664Y1685798D02*
D03*
X1769000Y1690500D02*
D03*
X1873000Y1706500D02*
D03*
X1817000D02*
D03*
X1785000D02*
D03*
X1769000D02*
D03*
X1777000Y1730750D02*
D03*
X1769126Y1722374D02*
D03*
X1769000Y1730500D02*
D03*
X1849000Y1722500D02*
D03*
X1472000Y1369500D02*
D03*
X1896750Y1626750D02*
D03*
X1840992Y1586508D02*
D03*
X1872996Y1586504D02*
D03*
X1865122Y1586484D02*
D03*
X1865000Y1690500D02*
D03*
X1865122Y1650492D02*
D03*
X1873000Y1666500D02*
D03*
X1872995Y1682496D02*
D03*
X1865122Y1682496D02*
D03*
X1872870Y1690497D02*
D03*
X1881000Y1682500D02*
D03*
X1841000D02*
D03*
X1849120Y1682496D02*
D03*
X1888997Y1682497D02*
D03*
X1896877Y1642623D02*
D03*
X1897126Y1650492D02*
D03*
X1856994Y1666494D02*
D03*
X1864868D02*
D03*
X1856994Y1674622D02*
D03*
X1865000Y1674500D02*
D03*
X1872996Y1674622D02*
D03*
X1881000Y1674500D02*
D03*
X1888998Y1674622D02*
D03*
Y1666494D02*
D03*
Y1642618D02*
D03*
X1880870D02*
D03*
X1857000Y1634500D02*
D03*
X1872996Y1650492D02*
D03*
Y1642618D02*
D03*
X1881000Y1634500D02*
D03*
X1793500Y1650000D02*
D03*
X1880500Y1651000D02*
D03*
X1840500Y1714000D02*
D03*
X1801000Y1706500D02*
D03*
X1888000Y1697750D02*
D03*
X1848500Y1706000D02*
D03*
X1908750Y1716500D02*
D03*
X1912000Y1627500D02*
D03*
X1840090Y1635330D02*
D03*
X1748000Y1625250D02*
D03*
X1817116Y1610614D02*
D03*
Y1618488D02*
D03*
X1825116Y1626616D02*
D03*
X1777500Y1619000D02*
D03*
X1757250Y1624250D02*
D03*
X1777500Y1603000D02*
D03*
X1864091Y1595328D02*
D03*
X1189750Y1873500D02*
D03*
X1520750Y1490000D02*
D03*
X1742000Y1565000D02*
D03*
X1653250Y1584000D02*
D03*
X1676500Y1656500D02*
D03*
X1421000Y1932250D02*
D03*
X1709000Y1481250D02*
D03*
X1809750Y1713750D02*
D03*
X1760250Y1634250D02*
D03*
X1734500Y1431000D02*
D03*
X1413250Y1378500D02*
D03*
X1781500Y1512250D02*
D03*
X1674250Y1392000D02*
D03*
X1825250Y1634500D02*
D03*
X1856994Y1610614D02*
D03*
X1847840Y1611579D02*
D03*
M02*
