%FSLAX44Y44*%
%MOMM*%
G71*
G01*
G75*
G04 Layer_Physical_Order=4*
G04 Layer_Color=16440176*
%ADD10R,2.5000X1.2600*%
%ADD11R,2.5000X1.0000*%
%ADD12R,1.3000X1.3000*%
%ADD13R,2.6000X0.9500*%
%ADD14R,1.0000X1.0000*%
G04:AMPARAMS|DCode=15|XSize=1.8mm|YSize=2mm|CornerRadius=0mm|HoleSize=0mm|Usage=FLASHONLY|Rotation=180.000|XOffset=0mm|YOffset=0mm|HoleType=Round|Shape=Octagon|*
%AMOCTAGOND15*
4,1,8,0.4500,-1.0000,-0.4500,-1.0000,-0.9000,-0.5500,-0.9000,0.5500,-0.4500,1.0000,0.4500,1.0000,0.9000,0.5500,0.9000,-0.5500,0.4500,-1.0000,0.0*
%
%ADD15OCTAGOND15*%

%ADD16R,1.8000X2.0000*%
%ADD17O,0.4500X1.8000*%
%ADD18R,1.8000X1.1500*%
%ADD19R,0.9500X1.7000*%
%ADD20R,0.8000X0.8000*%
%ADD21R,1.3500X2.8000*%
%ADD22R,1.2000X2.6000*%
%ADD23R,0.7000X1.8000*%
%ADD24R,0.9500X2.6000*%
%ADD25C,0.3500*%
%ADD26R,1.3500X1.9000*%
%ADD27R,1.4000X2.1000*%
G04:AMPARAMS|DCode=28|XSize=1.5mm|YSize=0.35mm|CornerRadius=0.035mm|HoleSize=0mm|Usage=FLASHONLY|Rotation=0.000|XOffset=0mm|YOffset=0mm|HoleType=Round|Shape=RoundedRectangle|*
%AMROUNDEDRECTD28*
21,1,1.5000,0.2800,0,0,0.0*
21,1,1.4300,0.3500,0,0,0.0*
1,1,0.0700,0.7150,-0.1400*
1,1,0.0700,-0.7150,-0.1400*
1,1,0.0700,-0.7150,0.1400*
1,1,0.0700,0.7150,0.1400*
%
%ADD28ROUNDEDRECTD28*%
G04:AMPARAMS|DCode=29|XSize=1.5mm|YSize=1.2mm|CornerRadius=0.12mm|HoleSize=0mm|Usage=FLASHONLY|Rotation=0.000|XOffset=0mm|YOffset=0mm|HoleType=Round|Shape=RoundedRectangle|*
%AMROUNDEDRECTD29*
21,1,1.5000,0.9600,0,0,0.0*
21,1,1.2600,1.2000,0,0,0.0*
1,1,0.2400,0.6300,-0.4800*
1,1,0.2400,-0.6300,-0.4800*
1,1,0.2400,-0.6300,0.4800*
1,1,0.2400,0.6300,0.4800*
%
%ADD29ROUNDEDRECTD29*%
%ADD30R,0.8500X0.7000*%
%ADD31R,1.1176X0.6096*%
%ADD32R,1.1000X0.6000*%
%ADD33R,1.3000X2.2000*%
%ADD34O,0.5500X1.6000*%
%ADD35R,2.2000X1.2000*%
%ADD36R,2.0000X1.0000*%
%ADD37R,1.9000X1.3500*%
%ADD38C,0.3600*%
%ADD39C,0.1000*%
%ADD40C,0.2540*%
%ADD41C,1.5000*%
%ADD42C,1.5000*%
%ADD43O,4.0000X2.0000*%
%ADD44O,2.0000X4.0000*%
%ADD45O,2.0000X4.5000*%
%ADD46C,1.6000*%
%ADD47R,1.6000X1.6000*%
%ADD48R,1.5000X1.5000*%
G04:AMPARAMS|DCode=49|XSize=2.4mm|YSize=1.6mm|CornerRadius=0.4mm|HoleSize=0mm|Usage=FLASHONLY|Rotation=0.000|XOffset=0mm|YOffset=0mm|HoleType=Round|Shape=RoundedRectangle|*
%AMROUNDEDRECTD49*
21,1,2.4000,0.8000,0,0,0.0*
21,1,1.6000,1.6000,0,0,0.0*
1,1,0.8000,0.8000,-0.4000*
1,1,0.8000,-0.8000,-0.4000*
1,1,0.8000,-0.8000,0.4000*
1,1,0.8000,0.8000,0.4000*
%
%ADD49ROUNDEDRECTD49*%
%ADD50C,1.6900*%
%ADD51R,1.6900X1.6900*%
%ADD52C,4.7600*%
%ADD53R,1.5000X1.5000*%
%ADD54C,0.4000*%
%ADD55C,0.6000*%
%ADD56C,1.0160*%
%ADD57C,1.5080*%
%ADD58C,1.5080*%
%ADD59C,1.4080*%
%ADD60O,2.0080X1.3080*%
%ADD61C,1.5980*%
%ADD62C,3.7680*%
%ADD63C,0.7080*%
D39*
X1833118Y1618382D02*
X1838750Y1624014D01*
X1833790Y1621882D02*
X1836750Y1624842D01*
Y1628200D01*
X1834364Y1630586D02*
X1836750Y1628200D01*
X1838750Y1624014D02*
Y1629028D01*
X1836364Y1631414D02*
X1838750Y1629028D01*
X1830490Y1616210D02*
Y1620703D01*
X1826168Y1622260D02*
X1828490Y1619938D01*
Y1617038D02*
Y1619938D01*
X1828415Y1616963D02*
X1828490Y1617038D01*
X1828415Y1612034D02*
Y1616963D01*
X1834500Y1588020D02*
Y1607051D01*
X1830415Y1616135D02*
X1831721Y1614829D01*
X1833848D01*
X1836613Y1612064D01*
X1831668Y1621882D02*
X1833790D01*
X1830415Y1616135D02*
X1830490Y1616210D01*
X1830415Y1616135D02*
Y1616135D01*
X1845310Y1614510D02*
Y1640851D01*
X1849000Y1626500D02*
X1849120Y1626380D01*
Y1623447D02*
Y1626380D01*
X1845310Y1640851D02*
X1845590Y1641130D01*
X1828415Y1612034D02*
X1828500Y1611950D01*
X1856994Y1626616D02*
X1861312Y1630934D01*
X1861499Y1606109D02*
Y1628073D01*
X1869440Y1584198D02*
Y1622044D01*
X1873758Y1626362D01*
X1624076Y1289324D02*
Y1405674D01*
X1430528Y1599222D02*
X1624076Y1405674D01*
X1430528Y1599222D02*
Y1640332D01*
X1889000Y1618500D02*
X1891316Y1620816D01*
X1889000Y1618500D02*
Y1618500D01*
X1885386Y1614876D02*
Y1629354D01*
X1886712Y1630680D01*
X1892498Y1623126D02*
Y1627448D01*
X1895300Y1630250D01*
X1920804Y1652964D02*
Y1655352D01*
X1928556Y1663104D01*
X1891316Y1620816D02*
Y1621944D01*
X1892498Y1623126D01*
X1895300Y1630250D02*
X1897700D01*
X1902262Y1634812D01*
Y1635940D01*
X1904312Y1637990D01*
X1905830D01*
X1920804Y1652964D01*
X1928556Y1663104D02*
X1934276D01*
X1941544Y1655836D01*
Y1646956D02*
Y1655836D01*
Y1646956D02*
X1947250Y1641250D01*
X1942740Y1667510D02*
X1951250Y1659000D01*
Y1530479D02*
Y1659000D01*
Y1530479D02*
X1989836Y1491893D01*
X1912112Y1667510D02*
X1942740D01*
X1958968Y1532392D02*
X1959106Y1532254D01*
X1962968Y1641546D02*
Y1650672D01*
Y1641546D02*
X1983994Y1620520D01*
X1960968Y1626782D02*
X2032000Y1555750D01*
X1960968Y1626782D02*
Y1651500D01*
X1958968Y1532392D02*
Y1652329D01*
X1959000Y1652361D02*
Y1657198D01*
X1958968Y1652329D02*
X1959000Y1652361D01*
X1960968Y1651500D02*
X1961000Y1651532D01*
Y1658026D01*
X1963000Y1650704D02*
Y1658855D01*
X1962968Y1650672D02*
X1963000Y1650704D01*
X1959610Y1662245D02*
Y1955292D01*
Y1662245D02*
X1963000Y1658855D01*
X1956308Y1662718D02*
X1961000Y1658026D01*
X1956308Y1662718D02*
Y1674368D01*
X1945132Y1671066D02*
X1959000Y1657198D01*
X1508760Y2406142D02*
X1959610Y1955292D01*
X1951736Y1678940D02*
X1956308Y1674368D01*
X1873500Y1552550D02*
Y1586000D01*
X1872996Y1552046D02*
X1873500Y1552550D01*
X1872996Y1549654D02*
Y1552046D01*
X1799550Y1631000D02*
X1801450D01*
X1802334Y1630116D02*
X1810438D01*
X1801450Y1631000D02*
X1802334Y1630116D01*
X1820500Y1602250D02*
Y1608932D01*
X1820616Y1609048D01*
Y1619938D01*
X1818566Y1621988D02*
X1820616Y1619938D01*
X1815902Y1621988D02*
X1818566D01*
X1812488Y1625402D02*
X1815902Y1621988D01*
X1812488Y1625402D02*
Y1628066D01*
X1810438Y1630116D02*
X1812488Y1628066D01*
X1814589Y1626130D02*
X1816639Y1624079D01*
X1808988Y1637668D02*
X1815000Y1631656D01*
X1808988Y1637668D02*
Y1642489D01*
X1815000Y1629440D02*
Y1631656D01*
X1814589Y1629029D02*
X1815000Y1629440D01*
X1814589Y1626130D02*
Y1629029D01*
X1816639Y1624079D02*
X1819538D01*
X1821490Y1622260D02*
X1826168D01*
X1833171Y1618329D02*
X1834090D01*
X1833118Y1618382D02*
X1833171Y1618329D01*
X1830490Y1620703D02*
X1831668Y1621882D01*
X1791766Y1606500D02*
X1810054D01*
X1812544Y1604010D01*
Y1569206D02*
Y1604010D01*
Y1569206D02*
X1846750Y1535000D01*
X1788922Y1609344D02*
X1791766Y1606500D01*
X1802384Y1598168D02*
X1805432Y1595120D01*
X1784096Y1598168D02*
X1802384D01*
X1781302Y1600962D02*
X1784096Y1598168D01*
X1805432Y1573490D02*
Y1595120D01*
X1820500Y1593050D02*
Y1602250D01*
X1819390Y1591941D02*
X1820500Y1593050D01*
X1819604Y1624146D02*
X1821490Y1622260D01*
Y1622260D01*
X1828500Y1593172D02*
Y1611950D01*
X1821500Y1586172D02*
X1828500Y1593172D01*
X1821500Y1574558D02*
Y1586172D01*
X1834364Y1638914D02*
X1836500Y1641050D01*
X1834500Y1607051D02*
X1836613Y1609164D01*
X1834500Y1588020D02*
X1836618Y1585902D01*
X1834500Y1580884D02*
X1836618Y1583002D01*
X1834500Y1568385D02*
Y1580884D01*
X1825752Y1655318D02*
X1829500Y1651570D01*
Y1649050D02*
Y1651570D01*
Y1649050D02*
X1831550Y1647000D01*
X1834070D01*
X1834500Y1646570D01*
X1845310Y1644310D02*
Y1654048D01*
Y1644310D02*
X1845590Y1644030D01*
Y1641130D02*
Y1644030D01*
X1836928Y1646350D02*
Y1652379D01*
Y1646350D02*
X1838500Y1644778D01*
Y1640222D02*
Y1644778D01*
X1836364Y1638086D02*
X1838500Y1640222D01*
X1834500Y1645950D02*
Y1646570D01*
Y1645950D02*
X1836500Y1643950D01*
Y1641050D02*
Y1643950D01*
X1836613Y1609164D02*
Y1612064D01*
X1836618Y1583002D02*
Y1585902D01*
X1834500Y1568385D02*
X1852303Y1550582D01*
X1852930Y1625346D02*
Y1726549D01*
X1861312Y1630934D02*
Y2022602D01*
X1868500Y1643964D02*
X1871472Y1646936D01*
X1868500Y1632026D02*
Y1643964D01*
X1830500Y1658807D02*
X1836928Y1652379D01*
X1824549Y1658807D02*
X1830500D01*
X1813068Y1660382D02*
X1821500Y1651950D01*
Y1651950D02*
Y1651950D01*
X1821500Y1651950D02*
X1821500Y1651950D01*
X1821500Y1649050D02*
Y1651950D01*
Y1649050D02*
X1823750Y1646800D01*
Y1646200D02*
Y1646800D01*
X1821500Y1643950D02*
X1823750Y1646200D01*
X1805344Y1659172D02*
X1812500Y1652016D01*
Y1639824D02*
Y1652016D01*
X1829500Y1669858D02*
X1845310Y1654048D01*
X1821500Y1574558D02*
X1846636Y1549422D01*
X1767252Y1670750D02*
X1800036D01*
X1758752Y1679250D02*
X1767252Y1670750D01*
X1800036D02*
X1801622Y1672336D01*
X1789430Y1678178D02*
Y1692656D01*
Y1678178D02*
X1792986Y1674622D01*
X1805344Y1659172D02*
Y1692056D01*
X1813068Y1660382D02*
Y1688236D01*
X1795346Y1702054D02*
X1805344Y1692056D01*
X1797304Y1704000D02*
X1813068Y1688236D01*
X1778500Y1662750D02*
X1790000Y1651250D01*
X1764980Y1662750D02*
X1778500D01*
X1790000Y1648550D02*
Y1651250D01*
X1819604Y1624146D02*
X1819604D01*
X1819538Y1624079D02*
X1819604Y1624146D01*
X1810437Y1621988D02*
X1814675Y1617750D01*
X1816378D01*
X1807538Y1621988D02*
X1810437D01*
X1807529Y1621979D02*
X1807538Y1621988D01*
X1807529Y1621979D02*
X1807529D01*
X1805178Y1624330D02*
X1807529Y1621979D01*
X1816378Y1617750D02*
X1817116Y1618488D01*
X1797500Y1633050D02*
Y1649120D01*
X1798630Y1650250D01*
X1797500Y1633050D02*
X1799550Y1631000D01*
X1780486Y1632734D02*
X1785112Y1628108D01*
X1780486Y1632734D02*
Y1636322D01*
X1778762Y1638046D02*
X1780486Y1636322D01*
X1789486Y1635940D02*
X1792376Y1638830D01*
Y1646174D01*
X1797500Y1625050D02*
Y1627052D01*
X1794436Y1630116D02*
X1797500Y1627052D01*
X1792410Y1630116D02*
X1794436D01*
X1789486Y1633040D02*
X1792410Y1630116D01*
X1803780Y1624330D02*
X1805178D01*
X1802450Y1623000D02*
X1803780Y1624330D01*
X1799550Y1623000D02*
X1802450D01*
X1797500Y1625050D02*
X1799550Y1623000D01*
X1788668Y1637950D02*
Y1643782D01*
X1787486Y1636768D02*
X1788668Y1637950D01*
X1787486Y1632212D02*
Y1636768D01*
Y1632212D02*
X1788668Y1631030D01*
Y1625600D02*
Y1631030D01*
X1789486Y1633040D02*
Y1635940D01*
X1791208Y1623060D02*
X1796034D01*
X1797558Y1621536D01*
X1788668Y1625600D02*
X1791208Y1623060D01*
X1798630Y1650250D02*
Y1651942D01*
X1800750Y1654062D01*
Y1666000D01*
X1819390Y1573610D02*
Y1591941D01*
Y1573610D02*
X1844636Y1548364D01*
Y1542222D02*
Y1548364D01*
Y1542222D02*
X1847276Y1539582D01*
X1853530D01*
X1828471Y1547622D02*
X1844750Y1531343D01*
X1846013Y1532909D02*
X1846591D01*
X1805432Y1573490D02*
X1846013Y1532909D01*
X1844750Y1529800D02*
Y1531343D01*
X1849450Y1535000D02*
X1880362Y1504088D01*
X1846750Y1535000D02*
X1849450D01*
X1880362Y1382268D02*
Y1504088D01*
X1876044Y1415796D02*
Y1501140D01*
X1849434Y1527750D02*
X1876044Y1501140D01*
X1846800Y1527750D02*
X1849434D01*
X1827022Y1547622D02*
X1828471D01*
X1846591Y1532909D02*
X1848250Y1531250D01*
X1844750Y1529800D02*
X1846800Y1527750D01*
X1853530Y1539582D02*
X1884000Y1509112D01*
Y1484064D02*
Y1509112D01*
X1828210Y1536018D02*
X1860000Y1504229D01*
X1975104Y1374648D02*
X2020000D01*
X1971040Y1378712D02*
X1975104Y1374648D01*
X1971040Y1378712D02*
Y1451610D01*
X1927606Y1495044D02*
X1971040Y1451610D01*
X1973580Y1395418D02*
X1988000Y1380998D01*
X1502121Y1913128D02*
X1757899Y1657350D01*
X1775083D01*
X1786450Y1646000D02*
X1788668Y1643782D01*
X1775083Y1657350D02*
X1780492Y1651942D01*
X1784500Y1646000D02*
X1786450D01*
X1780492Y1650008D02*
X1784500Y1646000D01*
X1780492Y1650008D02*
Y1651942D01*
X1747386Y1646936D02*
X1780540D01*
X1756354Y1638046D02*
X1778762D01*
X1779778Y1630172D02*
X1781048Y1628902D01*
X1751838Y1630172D02*
X1779778D01*
X1773428Y1593088D02*
X1780032Y1586484D01*
X1769110Y1584992D02*
X1784548Y1569554D01*
X1462532Y2171192D02*
X1817116Y1816608D01*
X1528572Y2098294D02*
X1773428Y1853438D01*
X1462532Y2171192D02*
Y2212594D01*
X1151890Y1881886D02*
X1155954Y1877822D01*
X1162304D01*
X1163574Y1879092D01*
Y1916176D01*
X1161288Y1918462D02*
X1163574Y1916176D01*
X1143000Y1918462D02*
X1161288D01*
X1139952Y1921510D02*
X1143000Y1918462D01*
X1139952Y1921510D02*
Y1973326D01*
X968248Y2145030D02*
X1139952Y1973326D01*
X968248Y2145030D02*
Y2237994D01*
X967994Y2238248D02*
X968248Y2237994D01*
X950976Y2238248D02*
X967994D01*
X946150Y2233422D02*
X950976Y2238248D01*
X946150Y2209250D02*
Y2233422D01*
Y2209250D02*
X955400Y2200000D01*
X781558Y2011559D02*
X841756Y1951361D01*
X781558Y2011559D02*
Y2295390D01*
X801878Y2082292D02*
Y2269990D01*
Y2082292D02*
X872744Y2011426D01*
X827278Y1607058D02*
Y1746758D01*
X834600Y1076750D02*
X937260Y974090D01*
X1122800Y1298400D02*
X1139190Y1282010D01*
Y1230376D02*
Y1282010D01*
Y1230376D02*
X1175066Y1194500D01*
X1216976D01*
X1913890Y1633728D02*
X1927860Y1647698D01*
Y1659580D01*
X1929384Y1661104D01*
X1933448D01*
X1935226Y1659326D01*
Y1656334D02*
Y1659326D01*
Y1656334D02*
X1939544Y1652016D01*
Y1615186D02*
Y1652016D01*
X1935226Y1610868D02*
X1939544Y1615186D01*
X1935226Y1575054D02*
Y1610868D01*
Y1575054D02*
X1941322Y1568958D01*
Y1520952D02*
Y1568958D01*
Y1520952D02*
X1976628Y1485646D01*
X1983232D01*
X1985264Y1483614D01*
Y1414916D02*
Y1483614D01*
Y1414916D02*
X2023500Y1376680D01*
Y1373180D02*
Y1376680D01*
X2006172Y1355852D02*
X2023500Y1373180D01*
X1941830Y1355852D02*
X2006172D01*
X1931924Y1345946D02*
X1941830Y1355852D01*
X1897126Y1650492D02*
Y1652524D01*
X1912112Y1667510D01*
X1989836Y1415812D02*
X2025500Y1380148D01*
Y1338938D02*
Y1380148D01*
X2017522Y1330960D02*
X2025500Y1338938D01*
X1753108Y1330960D02*
X2017522D01*
X1721104Y1362964D02*
X1753108Y1330960D01*
X1695450Y1362964D02*
X1721104D01*
X1888997Y1682497D02*
X1892554Y1678940D01*
X1951736D01*
X2032000Y1364742D02*
Y1555750D01*
X1183894Y1874012D02*
Y1912620D01*
X1178052Y1918462D02*
X1183894Y1912620D01*
X1173353Y1918462D02*
X1178052D01*
X1172210Y1919605D02*
X1173353Y1918462D01*
X1172210Y1919605D02*
Y1952244D01*
X1175512Y1955546D01*
Y2012950D01*
X1030986Y2157476D02*
X1175512Y2012950D01*
X1030986Y2157476D02*
Y2233676D01*
X989838Y2274824D02*
X1030986Y2233676D01*
X989838Y2274824D02*
Y2283968D01*
X984758Y2289048D02*
X989838Y2283968D01*
X976630Y2289048D02*
X984758D01*
X971550Y2283968D02*
X976630Y2289048D01*
X971550Y2209250D02*
Y2283968D01*
Y2209250D02*
X980800Y2200000D01*
X1125220Y1950974D02*
X1128014Y1953768D01*
X1119886Y1950974D02*
X1125220D01*
X1115568Y1946656D02*
X1119886Y1950974D01*
X1115568Y1944370D02*
Y1946656D01*
X1113536Y1942338D02*
X1115568Y1944370D01*
X1110234Y1942338D02*
X1113536D01*
X1107606Y1944966D02*
X1110234Y1942338D01*
X1107606Y1944966D02*
Y1948268D01*
X1106424Y1949450D02*
X1107606Y1948268D01*
X1076960Y1949450D02*
X1106424D01*
X1070356Y1942846D02*
X1076960Y1949450D01*
X1070356Y1651254D02*
Y1942846D01*
Y1651254D02*
X1292352Y1429258D01*
Y1368298D02*
Y1429258D01*
Y1368298D02*
X1338580Y1322070D01*
Y1288288D02*
Y1322070D01*
Y1288288D02*
X1343406Y1283462D01*
X1391738D01*
X1402200Y1273000D01*
X1393698Y1597102D02*
X1410000Y1580800D01*
X1393698Y1597102D02*
Y1617472D01*
X1388618Y1622552D02*
X1393698Y1617472D01*
X1308608Y1622552D02*
X1388618D01*
X1197864Y1733296D02*
X1308608Y1622552D01*
X1197864Y1733296D02*
Y1804670D01*
X1169670Y1832864D02*
X1197864Y1804670D01*
X1169670Y1832864D02*
Y1861312D01*
X1163320Y1867662D02*
X1169670Y1861312D01*
X1150112Y1867662D02*
X1163320D01*
X1147572Y1870202D02*
X1150112Y1867662D01*
X1147572Y1870202D02*
Y1907032D01*
X1129030Y1925574D02*
X1147572Y1907032D01*
X1108490Y1925574D02*
X1129030D01*
X1103918Y1930146D02*
X1108490Y1925574D01*
X1395618Y1515618D02*
X1410000Y1530000D01*
X1376680Y1515618D02*
X1395618D01*
X1363866Y1528432D02*
X1376680Y1515618D01*
X1363866Y1528432D02*
Y1560576D01*
X1359294Y1565148D02*
X1363866Y1560576D01*
X1295654Y1565148D02*
X1359294D01*
X1147064Y1713738D02*
X1295654Y1565148D01*
X1147064Y1713738D02*
Y1810512D01*
X1108456Y1849120D02*
X1147064Y1810512D01*
X1108456Y1849120D02*
Y1883664D01*
X1106170Y1885950D02*
X1108456Y1883664D01*
X1100892Y1885950D02*
X1106170D01*
X1100384Y1886458D02*
X1100892Y1885950D01*
X1100384Y1886458D02*
Y1922978D01*
X1098112Y1925250D02*
X1100384Y1922978D01*
X1086738Y1925250D02*
X1098112D01*
X1085652Y1926336D02*
X1086738Y1925250D01*
X1085652Y1926336D02*
Y1937710D01*
X1085962Y1938020D01*
X1340252Y1742948D02*
X1350000Y1733200D01*
X1318260Y1742948D02*
X1340252D01*
X1293368Y1767840D02*
X1318260Y1742948D01*
X1293368Y1767840D02*
Y1819312D01*
X1182788Y1929892D02*
X1293368Y1819312D01*
X1175892Y1929892D02*
X1182788D01*
X1335172Y1722628D02*
X1350000Y1707800D01*
X1320226Y1722628D02*
X1335172D01*
X1194797Y1848058D02*
X1320226Y1722628D01*
X1194797Y1848058D02*
Y1892300D01*
X1333648Y1546352D02*
X1350000Y1530000D01*
X1301496Y1546352D02*
X1333648D01*
X1137158Y1710690D02*
X1301496Y1546352D01*
X1137158Y1710690D02*
Y1814576D01*
X1100074Y1851660D02*
X1137158Y1814576D01*
X1100074Y1851660D02*
Y1882260D01*
X1096010Y1886324D02*
X1100074Y1882260D01*
X1096010Y1886324D02*
Y1890014D01*
X1093978Y1838198D02*
X1112266Y1819910D01*
Y1688592D02*
Y1819910D01*
Y1688592D02*
X1472184Y1328674D01*
Y1267968D02*
Y1328674D01*
Y1267968D02*
X1478280Y1261872D01*
X1498092D01*
X1499108Y1262888D01*
Y1274318D01*
X1506790Y1282000D01*
X1519936D01*
X1527988Y1273948D01*
Y1258392D02*
Y1273948D01*
Y1258392D02*
X1532128Y1254252D01*
X1647052D01*
X1665800Y1273000D01*
X1305310Y1644396D02*
X1426464D01*
X1430528Y1640332D01*
X1624076Y1289324D02*
X1640400Y1273000D01*
X1085596Y1889506D02*
X1093978Y1897888D01*
X1085596Y1881632D02*
Y1889506D01*
Y1881632D02*
X1086866Y1880362D01*
X1093216D01*
X1097534Y1843532D02*
X1133348Y1807718D01*
Y1675384D02*
Y1807718D01*
Y1675384D02*
X1367282Y1441450D01*
X1479000Y1264000D02*
X1497000D01*
Y1277036D01*
X1503965Y1284001D01*
X1604000D01*
X1615000Y1273000D01*
X1119886Y1913890D02*
X1140460Y1893316D01*
Y1841465D02*
Y1893316D01*
Y1841465D02*
X1188720Y1793206D01*
Y1733168D02*
Y1793206D01*
Y1733168D02*
X1301622Y1620266D01*
X1362456D01*
X1374140Y1608582D01*
Y1576832D02*
Y1608582D01*
Y1576832D02*
X1381506Y1569466D01*
X1448562D01*
X1453896Y1564132D01*
Y1504188D02*
Y1564132D01*
Y1504188D02*
X1577086Y1380998D01*
Y1292352D02*
Y1380998D01*
Y1292352D02*
X1581912Y1287526D01*
X1622298D01*
X1624076Y1285748D01*
Y1266190D02*
Y1285748D01*
X1621886Y1264000D02*
X1624076Y1266190D01*
X1598600Y1264000D02*
X1621886D01*
X1589600Y1273000D02*
X1598600Y1264000D01*
X1486154Y1319784D02*
Y1366266D01*
X1419098Y1433322D02*
X1486154Y1366266D01*
X1419098Y1433322D02*
Y1538224D01*
X1418082Y1539240D02*
X1419098Y1538224D01*
X1380998Y1539240D02*
X1418082D01*
X1375918Y1544320D02*
X1380998Y1539240D01*
X1375918Y1544320D02*
Y1551940D01*
X1361948Y1565910D02*
X1375918Y1551940D01*
X1361948Y1565910D02*
Y1586738D01*
X1357376Y1591310D02*
X1361948Y1586738D01*
X1275588Y1591310D02*
X1357376D01*
X1176528Y1690370D02*
X1275588Y1591310D01*
X1176528Y1690370D02*
Y1785620D01*
X1116330Y1845818D02*
X1176528Y1785620D01*
X1116330Y1845818D02*
Y1898650D01*
X1112012Y1902968D02*
X1116330Y1898650D01*
X1112012Y1902968D02*
Y1913890D01*
X1488000Y1273000D02*
X1497330Y1282330D01*
Y1365758D01*
X1468282Y1394807D02*
X1497330Y1365758D01*
X1468282Y1394807D02*
Y1441543D01*
X1423416Y1486408D02*
X1468282Y1441543D01*
X1423416Y1486408D02*
Y1555496D01*
X1412240Y1566672D02*
X1423416Y1555496D01*
X1373632Y1566672D02*
X1412240D01*
X1369568Y1570736D02*
X1373632Y1566672D01*
X1369568Y1570736D02*
Y1588008D01*
X1360424Y1597152D02*
X1369568Y1588008D01*
X1280922Y1597152D02*
X1360424D01*
X1178814Y1699260D02*
X1280922Y1597152D01*
X1178814Y1699260D02*
Y1795462D01*
X1124458Y1849819D02*
X1178814Y1795462D01*
X1124458Y1849819D02*
Y1901952D01*
X1115822Y1910588D02*
X1124458Y1901952D01*
X1115822Y1910588D02*
Y1917954D01*
X1119886Y1922018D01*
X1881124Y1673606D02*
Y1674616D01*
X1879600Y1638300D02*
X1884680Y1639316D01*
X1882958Y1545534D02*
X1891340D01*
X1924050Y1512824D01*
Y1482090D02*
Y1512824D01*
X1763832Y1734114D02*
Y1857446D01*
X1447546Y2173732D02*
X1763832Y1857446D01*
X1746320Y1703463D02*
X1765693D01*
X1361800Y2087982D02*
X1746320Y1703463D01*
X1361800Y2087982D02*
Y2280000D01*
X1336400Y2305400D02*
X1350020Y2319020D01*
X1373632D01*
X1377950Y2314702D01*
Y2213356D02*
Y2314702D01*
Y2213356D02*
X1663700Y1927606D01*
Y1802130D02*
Y1927606D01*
Y1802130D02*
X1757172Y1708658D01*
X1788160Y1693926D02*
X1789430Y1692656D01*
X1784096Y1693926D02*
X1788160D01*
X1781556Y1696466D02*
X1784096Y1693926D01*
X1781556Y1696466D02*
Y1701038D01*
X1780540Y1702054D02*
X1781556Y1701038D01*
X1774444Y1702054D02*
X1780540D01*
X1772412Y1704086D02*
X1774444Y1702054D01*
X1760672Y1710436D02*
X1770976D01*
X1754378Y1716730D02*
X1760672Y1710436D01*
X1754378Y1716730D02*
Y1755648D01*
X1745996Y1764030D02*
X1754378Y1755648D01*
X1745996Y1764030D02*
Y1856521D01*
X1442392Y2160125D02*
X1745996Y1856521D01*
X1442392Y2160125D02*
Y2228385D01*
X1401600Y2269177D02*
X1442392Y2228385D01*
X1401600Y2269177D02*
Y2315436D01*
X1393952Y2323084D02*
X1401600Y2315436D01*
X1303284Y2323084D02*
X1393952D01*
X1285600Y2305400D02*
X1303284Y2323084D01*
X1738828Y1679250D02*
X1758752D01*
X1419384Y1998694D02*
X1738828Y1679250D01*
X1371632Y1998694D02*
X1419384D01*
X1369060Y2001266D02*
X1371632Y1998694D01*
X1369060Y2001266D02*
Y2028698D01*
X1250950Y2146808D02*
X1369060Y2028698D01*
X1250950Y2146808D02*
Y2318258D01*
X1255776Y2323084D01*
X1263904D01*
X1270508Y2316480D01*
Y2306066D02*
Y2316480D01*
Y2306066D02*
X1285600Y2290974D01*
Y2280000D02*
Y2290974D01*
X1575308Y1717802D02*
X1654556Y1638554D01*
X1575308Y1717802D02*
Y1766062D01*
X1421130Y1920240D02*
X1575308Y1766062D01*
X1405890Y1920240D02*
X1421130D01*
X1399794Y1926336D02*
X1405890Y1920240D01*
X1399794Y1926336D02*
Y1959356D01*
X1384998Y1974152D02*
X1399794Y1959356D01*
X1317942Y1974152D02*
X1384998D01*
X1312672Y1979422D02*
X1317942Y1974152D01*
X1312672Y1979422D02*
Y2032762D01*
X1209400Y2136034D02*
X1312672Y2032762D01*
X1209400Y2136034D02*
Y2280000D01*
X1145550Y2292350D02*
X1158600Y2305400D01*
X1131570Y2292350D02*
X1145550D01*
X1123950Y2284730D02*
X1131570Y2292350D01*
X1123950Y2237740D02*
Y2284730D01*
Y2237740D02*
X1128776Y2232914D01*
Y2161794D02*
Y2232914D01*
Y2161794D02*
X1243330Y2047240D01*
Y2001520D02*
Y2047240D01*
Y2001520D02*
X1307592Y1937258D01*
Y1906016D02*
Y1937258D01*
Y1906016D02*
X1311656Y1901952D01*
X1393634D01*
X1401000Y1894586D01*
Y1880934D02*
Y1894586D01*
Y1880934D02*
X1406144Y1875790D01*
X1414272D01*
X1423670Y1866392D01*
Y1794764D02*
Y1866392D01*
Y1794764D02*
X1570482Y1647952D01*
Y1627632D02*
Y1647952D01*
Y1627632D02*
X1641602Y1556512D01*
X1696974D01*
X1701038Y1552448D01*
Y1487170D02*
Y1552448D01*
X1766824Y1606804D02*
X1772666D01*
X1765300Y1608328D02*
X1766824Y1606804D01*
X1765300Y1608328D02*
Y1619504D01*
X1761490Y1623314D02*
X1765300Y1619504D01*
X1685290Y1623568D02*
X1689100Y1619758D01*
X1685290Y1623568D02*
Y1708182D01*
X1417320Y1976152D02*
X1685290Y1708182D01*
X1341120Y1976152D02*
X1417320D01*
X1335024Y1982248D02*
X1341120Y1976152D01*
X1335024Y1982248D02*
Y2022602D01*
X1216152Y2141474D02*
X1335024Y2022602D01*
X1216152Y2141474D02*
Y2255520D01*
X1218438Y2257806D01*
Y2283968D01*
X1212088Y2290318D02*
X1218438Y2283968D01*
X1168918Y2290318D02*
X1212088D01*
X1158600Y2280000D02*
X1168918Y2290318D01*
X1133200Y2235052D02*
Y2280000D01*
X1132078Y2233930D02*
X1133200Y2235052D01*
X1132078Y2183892D02*
Y2233930D01*
Y2183892D02*
X1246378Y2069592D01*
Y2007870D02*
Y2069592D01*
Y2007870D02*
X1313688Y1940560D01*
Y1926336D02*
Y1940560D01*
Y1926336D02*
X1318260Y1921764D01*
X1389380D01*
X1395222Y1915922D01*
Y1903984D02*
Y1915922D01*
Y1903984D02*
X1399826Y1899380D01*
X1420876D01*
X1427226Y1893030D01*
Y1794510D02*
Y1893030D01*
Y1794510D02*
X1640500Y1581236D01*
Y1571752D02*
Y1581236D01*
Y1571752D02*
X1641770Y1570482D01*
X1685544D01*
X1695450Y1560576D01*
X1486154Y2397760D02*
X1861312Y2022602D01*
X1382014Y2397760D02*
X1486154D01*
X1377950Y2393696D02*
X1382014Y2397760D01*
X1377950Y2369250D02*
Y2393696D01*
Y2369250D02*
X1387200Y2360000D01*
X1900936Y1521714D02*
X1905508D01*
X1872996Y1549654D02*
X1900936Y1521714D01*
X1336400Y2385400D02*
X1352824Y2401824D01*
X1507174D01*
X1876552Y2032446D01*
X1864360Y1630934D02*
X1867408D01*
X1861499Y1606109D02*
X1865122Y1602486D01*
X1306342Y2406142D02*
X1508760D01*
X1285600Y2385400D02*
X1306342Y2406142D01*
X1914652Y1741678D02*
X1917954Y1738376D01*
X1914652Y1741678D02*
Y1997202D01*
X1507998Y2403856D02*
X1914652Y1997202D01*
X1326948Y2403856D02*
X1507998D01*
X1320852Y2397760D02*
X1326948Y2403856D01*
X1320852Y2376816D02*
Y2397760D01*
X1316736Y2372700D02*
X1320852Y2376816D01*
X1272900Y2372700D02*
X1316736D01*
X1260200Y2360000D02*
X1272900Y2372700D01*
X1884934Y1755648D02*
Y1813306D01*
Y1755648D02*
X1889252Y1751330D01*
X1354171Y2399792D02*
X1500694D01*
X1349248Y2394870D02*
X1354171Y2399792D01*
X1349248Y2351532D02*
Y2394870D01*
X1345184Y2347468D02*
X1349248Y2351532D01*
X1178560Y2347468D02*
X1345184D01*
X1174496Y2351532D02*
X1178560Y2347468D01*
X1174496Y2351532D02*
Y2396998D01*
X1168400Y2403094D02*
X1174496Y2396998D01*
X1150894Y2403094D02*
X1168400D01*
X1133200Y2385400D02*
X1150894Y2403094D01*
X1479042Y2299462D02*
Y2391156D01*
Y2299462D02*
X1856994Y1921510D01*
Y1722374D02*
Y1921510D01*
X1031600Y2360000D02*
X1047180Y2344420D01*
X1382518D01*
X1403600Y2323338D01*
Y2271526D02*
Y2323338D01*
Y2271526D02*
X1462532Y2212594D01*
X1817116Y1759458D02*
Y1816608D01*
Y1759458D02*
X1837436Y1739138D01*
Y1717294D02*
Y1739138D01*
X1286002Y1918970D02*
Y1947926D01*
X1239774Y1994154D02*
X1286002Y1947926D01*
X1239774Y1994154D02*
Y2045970D01*
X1105154Y2180590D02*
X1239774Y2045970D01*
X1105154Y2180590D02*
Y2257298D01*
X1091438Y2271014D02*
X1105154Y2257298D01*
X1091438Y2271014D02*
Y2309876D01*
X1085088Y2316226D02*
X1091438Y2309876D01*
X1024574Y2316226D02*
X1085088D01*
X980800Y2360000D02*
X1024574Y2316226D01*
X1384600Y1987200D02*
X1394094Y1996694D01*
X1415066D01*
X1491798Y1919962D01*
Y1912939D02*
Y1919962D01*
Y1912939D02*
X1678692Y1726045D01*
X1683429D01*
X1727200Y1682274D01*
Y1636522D02*
Y1682274D01*
X1851152Y1561846D02*
X1853184Y1563878D01*
X1817116Y1661160D02*
X1822958Y1655318D01*
X1825752D01*
X1852303Y1550582D02*
X1864720D01*
X1900898Y1514404D01*
X1910300D01*
X1919385Y1505319D01*
Y1478373D02*
Y1505319D01*
Y1478373D02*
X1939798Y1457960D01*
X1956000D01*
X1721104Y1564386D02*
X1752092Y1533398D01*
X1721104Y1564386D02*
Y1569974D01*
X1706372Y1565402D02*
X1713738Y1558036D01*
Y1486662D02*
Y1558036D01*
Y1486662D02*
X1858010Y1342390D01*
X1948000D01*
X1858518Y1345946D02*
X1905762D01*
X1844802Y1359662D02*
X1858518Y1345946D01*
X1844802Y1359662D02*
Y1428870D01*
X1853382Y1437450D01*
Y1446043D01*
X1745178Y1554247D02*
X1853382Y1446043D01*
X1741678Y1569557D02*
Y1583944D01*
X1726780Y1598842D02*
X1741678Y1583944D01*
X1726780Y1598842D02*
Y1626330D01*
X1747386Y1646936D01*
X1887220Y1380236D02*
X1899920D01*
X1873504Y1366520D02*
X1887220Y1380236D01*
X1865376Y1366520D02*
X1873504D01*
X1859788Y1372108D02*
X1865376Y1366520D01*
X1859788Y1372108D02*
Y1446530D01*
X1789938Y1516380D02*
X1859788Y1446530D01*
X1789938Y1516380D02*
Y1531620D01*
X1746758Y1574800D02*
X1789938Y1531620D01*
X1746758Y1574800D02*
Y1607566D01*
X1737614Y1616710D02*
X1746758Y1607566D01*
X1737614Y1616710D02*
Y1625600D01*
X1740916Y1628902D01*
X1746758Y1624584D01*
X1906270Y1544320D02*
Y1583436D01*
Y1544320D02*
X1927606Y1522984D01*
Y1495044D02*
Y1522984D01*
X1753210Y1576657D02*
Y1581021D01*
Y1576657D02*
X1846253Y1483614D01*
X1870032D01*
X1697482Y1600525D02*
Y1632712D01*
Y1600525D02*
X1725239Y1572768D01*
Y1568379D02*
Y1572768D01*
Y1568379D02*
X1774805Y1518813D01*
Y1511808D02*
Y1518813D01*
Y1511808D02*
X1844909Y1441704D01*
X1849882D01*
X1781302Y1600962D02*
Y1613408D01*
X1788160Y1586484D02*
X1827022Y1547622D01*
X1780032Y1586484D02*
X1788160D01*
X1773428Y1593088D02*
Y1597152D01*
X1771904Y1598676D02*
X1773428Y1597152D01*
X1761490Y1598676D02*
X1771904D01*
X1751330Y1608836D02*
X1761490Y1598676D01*
X1765300Y1622552D02*
X1772920D01*
X1776984Y1626616D01*
X1785112Y1626669D02*
Y1628108D01*
X1754830Y1636522D02*
X1756354Y1638046D01*
X1741678Y1636522D02*
X1754830D01*
X1734046Y1628890D02*
X1741678Y1636522D01*
X1734046Y1611730D02*
Y1628890D01*
Y1611730D02*
X1744592Y1601184D01*
Y1572768D02*
Y1601184D01*
X1747178Y1555076D02*
X1855625Y1446629D01*
Y1434329D02*
Y1446629D01*
X1852422Y1431126D02*
X1855625Y1434329D01*
X1852422Y1363726D02*
Y1431126D01*
Y1363726D02*
X1854289Y1361859D01*
X1877733D01*
X1883918Y1368044D01*
X930000Y2225400D02*
X939038Y2216362D01*
Y2164080D02*
Y2216362D01*
Y2164080D02*
X1108202Y1994916D01*
Y1951394D02*
Y1994916D01*
Y1951394D02*
X1112012Y1947584D01*
Y1945988D02*
Y1947584D01*
X765556Y2241804D02*
Y2330950D01*
X1900682Y1703070D02*
Y1931670D01*
X1899666Y1702054D02*
X1900682Y1703070D01*
X1893824Y1702054D02*
X1899666D01*
X1885442Y1672280D02*
Y1692148D01*
Y1672280D02*
X1887728Y1669994D01*
X1892554D01*
X1892808Y1669740D01*
X1866138Y1441958D02*
Y1444669D01*
X1819424Y1491383D02*
X1866138Y1444669D01*
X1819424Y1491383D02*
Y1505161D01*
X1749014Y1575571D02*
X1819424Y1505161D01*
X1749014Y1575571D02*
Y1616232D01*
X1741226Y1624020D02*
X1749014Y1616232D01*
X1785366Y1811782D02*
X1809242Y1787906D01*
Y1760220D02*
Y1787906D01*
Y1760220D02*
X1829562Y1739900D01*
X1804416Y1614932D02*
X1808988Y1610360D01*
X1799082Y1614932D02*
X1804416D01*
X1797558Y1616456D02*
X1799082Y1614932D01*
X1797558Y1616456D02*
Y1621536D01*
X1497330Y1913128D02*
X1502121D01*
X1929638Y1513586D02*
X1937258Y1505966D01*
X1929638Y1513586D02*
Y1613588D01*
X1924738Y1618488D02*
X1929638Y1613588D01*
X1897012Y1618488D02*
X1924738D01*
X872744Y2145056D02*
Y2251202D01*
Y2145056D02*
X934600Y2083200D01*
X1693564Y1634890D02*
X1701038Y1642364D01*
X1693564Y1583290D02*
Y1634890D01*
Y1583290D02*
X1808734Y1468120D01*
X1821434Y1703070D02*
X1824990Y1706626D01*
X1821434Y1661922D02*
Y1703070D01*
Y1661922D02*
X1824549Y1658807D01*
X1897436Y1498622D02*
X1912340D01*
X1854476Y1541582D02*
X1897436Y1498622D01*
X1848104Y1541582D02*
X1854476D01*
X1846636Y1543050D02*
X1848104Y1541582D01*
X1846636Y1543050D02*
Y1549422D01*
X1973580Y1395418D02*
Y1484595D01*
X1933194Y1524981D02*
X1973580Y1484595D01*
X1933194Y1524981D02*
Y1612952D01*
X1937456Y1617214D01*
Y1650152D01*
X1931555Y1656053D02*
X1937456Y1650152D01*
X1931555Y1656053D02*
Y1657604D01*
X1895856Y1626616D02*
X1897126D01*
X1894498Y1625258D02*
X1895856Y1626616D01*
X1894498Y1622298D02*
Y1625258D01*
X1893316Y1621116D02*
X1894498Y1622298D01*
X1893316Y1565148D02*
Y1621116D01*
X1883664Y1555496D02*
X1893316Y1565148D01*
X1324600Y1885600D02*
X1340866Y1869334D01*
X1357376D01*
X1362456Y1864254D01*
Y1786636D02*
Y1864254D01*
Y1786636D02*
X1377696Y1771396D01*
X1385824D01*
X1397254Y1759966D01*
Y1733296D02*
Y1759966D01*
X1594104Y1507744D02*
X1696466D01*
X1432306Y1669542D02*
X1594104Y1507744D01*
X1375918Y1669542D02*
X1432306D01*
X1371092Y1674368D02*
X1375918Y1669542D01*
X1371092Y1674368D02*
Y1737106D01*
X1363218Y1744980D02*
X1371092Y1737106D01*
X1320292Y1744980D02*
X1363218D01*
X1310640Y1754632D02*
X1320292Y1744980D01*
X1310640Y1754632D02*
Y1808226D01*
X1180338Y1938528D02*
X1310640Y1808226D01*
X1180338Y1938528D02*
Y2092452D01*
X1081786Y2191004D02*
X1180338Y2092452D01*
X1081786Y2191004D02*
Y2229814D01*
X1031600Y2280000D02*
X1081786Y2229814D01*
X1073150Y2296150D02*
X1082400Y2305400D01*
X1073150Y2259584D02*
Y2296150D01*
Y2259584D02*
X1102614Y2230120D01*
Y2173732D02*
Y2230120D01*
Y2173732D02*
X1224534Y2051812D01*
Y1971294D02*
Y2051812D01*
Y1971294D02*
X1326642Y1869186D01*
X1335786D01*
X1339596Y1865376D01*
Y1827784D02*
Y1865376D01*
Y1827784D02*
X1345184Y1822196D01*
X1354074D01*
X1359662Y1816608D01*
Y1761998D02*
Y1816608D01*
Y1761998D02*
X1375410Y1746250D01*
X1386840D01*
X1393698Y1739392D01*
Y1680464D02*
Y1739392D01*
Y1680464D02*
X1401064Y1673098D01*
X1484376D01*
X1623004Y1534470D01*
X1691132Y1574038D02*
X1697228D01*
X1430528Y1834642D02*
X1691132Y1574038D01*
X1430528Y1834642D02*
Y1897380D01*
X1426464Y1901444D02*
X1430528Y1897380D01*
X1402842Y1901444D02*
X1426464D01*
X1399286Y1905000D02*
X1402842Y1901444D01*
X1399286Y1905000D02*
Y1919224D01*
X1394968Y1923542D02*
X1399286Y1919224D01*
X1394968Y1923542D02*
Y1941322D01*
X1389888Y1946402D02*
X1394968Y1941322D01*
X1311910Y1946402D02*
X1389888D01*
X1291590Y1966722D02*
X1311910Y1946402D01*
X1291590Y1966722D02*
Y2030328D01*
X1184000Y2137918D02*
X1291590Y2030328D01*
X1184000Y2137918D02*
Y2280000D01*
X1803320Y1536018D02*
X1828210D01*
X1784548Y1554790D02*
X1803320Y1536018D01*
X1784548Y1554790D02*
Y1569554D01*
X1769110Y1584992D02*
Y1594612D01*
X1868170Y1370076D02*
X1880362Y1382268D01*
X1788922Y1609344D02*
Y1611884D01*
X1785112Y1615694D02*
X1788922Y1611884D01*
X1785112Y1615694D02*
Y1618488D01*
X1888998Y1674622D02*
X1891030D01*
X1792986Y1610360D02*
Y1611156D01*
X1788890Y1615253D02*
X1792986Y1611156D01*
X1788890Y1615253D02*
Y1619790D01*
X1786128Y1622552D02*
X1788890Y1619790D01*
X1784096Y1622552D02*
X1786128D01*
X1781048Y1625600D02*
X1784096Y1622552D01*
X1781048Y1625600D02*
Y1628902D01*
X1749552Y1632458D02*
X1751838Y1630172D01*
X1736146Y1564076D02*
X1741678Y1558544D01*
X1736146Y1564076D02*
Y1584396D01*
X1704538Y1616004D02*
X1736146Y1584396D01*
X1704538Y1616004D02*
Y1652778D01*
X1703324Y1653992D02*
X1704538Y1652778D01*
X1703324Y1653992D02*
Y1693051D01*
X1418223Y1978152D02*
X1703324Y1693051D01*
X1343914Y1978152D02*
X1418223D01*
X1338834Y1983232D02*
X1343914Y1978152D01*
X1338834Y1983232D02*
Y2055114D01*
X1234800Y2159148D02*
X1338834Y2055114D01*
X1234800Y2159148D02*
Y2280000D01*
X1776984Y1706516D02*
Y1707388D01*
X1798518Y1743710D02*
Y1785874D01*
X1817116Y1634490D02*
Y1635208D01*
X1812500Y1639824D02*
X1817116Y1635208D01*
X1781556Y1738122D02*
Y1835150D01*
X1785112Y1838706D01*
X1627886Y1503934D02*
X1696085Y1435735D01*
X1592580Y1503934D02*
X1627886D01*
X1430274Y1666240D02*
X1592580Y1503934D01*
X1327404Y1666240D02*
X1430274D01*
X1200658Y1792986D02*
X1327404Y1666240D01*
X1200658Y1792986D02*
Y1827022D01*
X1171702Y1855978D02*
X1200658Y1827022D01*
X1171702Y1855978D02*
Y1917192D01*
X1170432Y1918462D02*
X1171702Y1917192D01*
X1166368Y1918462D02*
X1170432D01*
X1164336Y1920494D02*
X1166368Y1918462D01*
X1164336Y1920494D02*
Y2009648D01*
X1028446Y2145538D02*
X1164336Y2009648D01*
X1028446Y2145538D02*
Y2232354D01*
X980800Y2280000D02*
X1028446Y2232354D01*
X1340517Y1691882D02*
X1350000Y1682400D01*
X1340517Y1691882D02*
Y1709514D01*
X1332992Y1717040D02*
X1340517Y1709514D01*
X1316990Y1717040D02*
X1332992D01*
X1180084Y1853946D02*
X1316990Y1717040D01*
X1180084Y1853946D02*
Y1893824D01*
X1176020Y1897888D02*
X1180084Y1893824D01*
X1310950Y1895800D02*
X1311950Y1894800D01*
X1393960D01*
X1399000Y1889760D01*
Y1874600D02*
Y1889760D01*
Y1874600D02*
X1400810Y1872790D01*
Y1691590D02*
Y1872790D01*
Y1691590D02*
X1410000Y1682400D01*
X1187958Y1938020D02*
X1250465D01*
X1315466Y1873019D01*
Y1831086D02*
Y1873019D01*
Y1831086D02*
X1326897Y1819655D01*
X1339744D01*
X1350000Y1809400D01*
X1856994Y1618488D02*
Y1621282D01*
X1849430Y1730049D02*
X1852930Y1726549D01*
X1849430Y1730049D02*
Y1885925D01*
X1403445Y2331910D02*
X1849430Y1885925D01*
X1403445Y2331910D02*
Y2369155D01*
X1387200Y2385400D02*
X1403445Y2369155D01*
X1327352Y2289048D02*
X1336400Y2280000D01*
X1305814Y2289048D02*
X1327352D01*
X1300734Y2283968D02*
X1305814Y2289048D01*
X1300734Y2126488D02*
Y2283968D01*
Y2126488D02*
X1399540Y2027682D01*
Y2009140D02*
Y2027682D01*
Y2009140D02*
X1405128Y2003552D01*
X1422400D01*
X1726489Y1699463D01*
X1762303D01*
X1782283Y1690388D02*
X1785112D01*
X1767586Y1702054D02*
X1771484D01*
X1766995Y1701463D02*
X1767586Y1702054D01*
X1736681Y1701463D02*
X1766995D01*
X1311000Y2127144D02*
X1736681Y1701463D01*
X1311000Y2127144D02*
Y2280000D01*
X1260200Y2305400D02*
X1273048Y2292552D01*
Y2206492D02*
Y2292552D01*
Y2206492D02*
X1276040Y2203500D01*
Y2143054D02*
Y2203500D01*
Y2143054D02*
X1374648Y2044446D01*
Y2007616D02*
Y2044446D01*
Y2007616D02*
X1381570Y2000694D01*
X1422430D01*
X1727161Y1695963D01*
X1757574D01*
X1387200Y2305400D02*
X1399600Y2293000D01*
Y2200088D02*
Y2293000D01*
Y2200088D02*
X1739646Y1860042D01*
Y1737614D02*
Y1860042D01*
Y1737614D02*
X1750060Y1727200D01*
X1788414Y1803146D02*
X1804670Y1786890D01*
Y1718056D02*
Y1786890D01*
X1744218Y1708658D02*
X1750822D01*
X1374394Y2078482D02*
X1744218Y1708658D01*
X1374394Y2078482D02*
Y2292806D01*
X1361800Y2305400D02*
X1374394Y2292806D01*
X1418408Y1282192D02*
X1427600Y1273000D01*
X1397508Y1282192D02*
X1418408D01*
X1393190Y1286510D02*
X1397508Y1282192D01*
X1393190Y1286510D02*
Y1310386D01*
X1344168Y1359408D02*
X1393190Y1310386D01*
X1344168Y1359408D02*
Y1400556D01*
X1089660Y1655064D02*
X1344168Y1400556D01*
X1089660Y1655064D02*
Y1782572D01*
X1076706Y1795526D02*
X1089660Y1782572D01*
X1076706Y1795526D02*
Y1937766D01*
X1081024Y1942084D01*
X1092505D01*
X1100887Y1933702D01*
X1120648D01*
X1123442Y1936496D01*
Y1941322D01*
X1128014Y1945894D01*
X1082294Y1900174D02*
X1094232Y1912112D01*
X1082294Y1830070D02*
Y1900174D01*
Y1830070D02*
X1109472Y1802892D01*
Y1666748D02*
Y1802892D01*
Y1666748D02*
X1416558Y1359662D01*
Y1286871D02*
Y1359662D01*
Y1286871D02*
X1418941Y1284487D01*
X1436361D01*
X1442974Y1277874D01*
Y1255776D02*
Y1277874D01*
Y1255776D02*
X1449832Y1248918D01*
X1489318D01*
X1513400Y1273000D01*
X1340252Y1768348D02*
X1350000Y1758600D01*
X1316736Y1768348D02*
X1340252D01*
X1312672Y1772412D02*
X1316736Y1768348D01*
X1312672Y1772412D02*
Y1855896D01*
X1242568Y1926000D02*
X1312672Y1855896D01*
X1148080Y1925921D02*
X1151982Y1922018D01*
X1148080Y1925921D02*
Y1968754D01*
X993394Y2123440D02*
X1148080Y1968754D01*
X993394Y2123440D02*
Y2212806D01*
X980800Y2225400D02*
X993394Y2212806D01*
X955400Y2225400D02*
X964438Y2216362D01*
Y2144776D02*
Y2216362D01*
Y2144776D02*
X1137920Y1971294D01*
Y1919986D02*
Y1971294D01*
Y1919986D02*
X1155954Y1901952D01*
Y1885950D02*
Y1901952D01*
Y1885950D02*
X1160018Y1881886D01*
X1062990Y1239520D02*
X1098042Y1204468D01*
X1062990Y1239520D02*
Y1289390D01*
X1072000Y1298400D01*
X872744Y2131314D02*
X925576Y2078482D01*
Y2016024D02*
Y2078482D01*
Y2016024D02*
X934600Y2007000D01*
X1109218Y1243268D02*
X1157986Y1194500D01*
X1109218Y1243268D02*
Y1286582D01*
X1097400Y1298400D02*
X1109218Y1286582D01*
X1155954Y1942084D02*
X1160018Y1938020D01*
X1155954Y1942084D02*
Y1957578D01*
X1151382Y1962150D02*
X1155954Y1957578D01*
X1151382Y1962150D02*
Y1985518D01*
X1023112Y2113788D02*
X1151382Y1985518D01*
X1023112Y2113788D02*
Y2208488D01*
X1006200Y2225400D02*
X1023112Y2208488D01*
X1776362Y1610500D02*
X1777000D01*
X1772666Y1606804D02*
X1776362Y1610500D01*
X1873620Y1626500D02*
X1873758Y1626362D01*
X1873000Y1626500D02*
X1873620D01*
X1817000Y1666500D02*
X1817116Y1666384D01*
Y1661160D02*
Y1666384D01*
X1801622Y1672336D02*
Y1674368D01*
X1801490Y1674500D02*
X1801622Y1674368D01*
X1801000Y1674500D02*
X1801490D01*
X1781250Y1737816D02*
X1781556Y1738122D01*
X1093216Y1880362D02*
X1097534Y1876044D01*
Y1843532D02*
Y1876044D01*
X1093978Y1838198D02*
Y1871978D01*
X1093750Y1871750D02*
X1093978Y1871978D01*
X1093500Y1871750D02*
X1093750D01*
X1544500Y1512500D02*
Y1513914D01*
X1695450Y1362964D01*
X1872996Y1586504D02*
X1873500Y1586000D01*
X1868678Y1774978D02*
X1870750Y1777050D01*
Y2029750D01*
X1868500Y2032000D02*
X1870750Y2029750D01*
X1500694Y2399792D02*
X1868678Y2031808D01*
X1989836Y1415812D02*
Y1491893D01*
X1992122Y1498346D02*
Y1500128D01*
X1986550Y1504810D02*
X1987440D01*
X1992122Y1500128D01*
X1960496Y1532254D02*
X1977402Y1515348D01*
X1959106Y1532254D02*
X1960496D01*
X1977402Y1513958D02*
Y1515348D01*
Y1513958D02*
X1986550Y1504810D01*
X1848750Y1594750D02*
X1848982D01*
X1881000Y1610500D02*
X1881010D01*
X1885386Y1614876D01*
X1848750Y1594750D02*
X1849000Y1594500D01*
X1849000D01*
X1892808Y1633608D02*
Y1669740D01*
X1886712Y1630680D02*
X1889880D01*
X1892808Y1633608D01*
X1867408Y1630934D02*
X1868500Y1632026D01*
X1785000Y1642476D02*
Y1642500D01*
X1780540Y1646936D02*
X1785000Y1642476D01*
X1760220Y1667510D02*
X1764980Y1662750D01*
X1898450Y1671000D02*
X1898516Y1671066D01*
X1945132D01*
X1894652Y1671000D02*
X1898450D01*
X1891030Y1674622D02*
X1894652Y1671000D01*
X1881008Y1674500D02*
X1881124Y1674616D01*
X1881000Y1674500D02*
X1881008D01*
X1829500Y1683950D02*
X1829562Y1684012D01*
Y1739900D01*
X1829500Y1669858D02*
Y1683950D01*
X1865000Y1690500D02*
Y1690500D01*
X1868678Y1694178D01*
X1771484Y1702054D02*
X1775040Y1698498D01*
X1777002D01*
X1777673Y1694998D02*
X1782283Y1690388D01*
X1766768Y1694998D02*
X1777673D01*
X1762303Y1699463D02*
X1766768Y1694998D01*
X1784096Y1702054D02*
X1795346D01*
X1781250Y1704900D02*
Y1737816D01*
Y1704900D02*
X1784096Y1702054D01*
X1765693Y1703463D02*
X1768856Y1706626D01*
X1769232Y1706250D01*
X1770976Y1710436D02*
X1772750Y1708662D01*
Y1704800D02*
Y1708662D01*
X1772412Y1704086D02*
Y1704462D01*
X1772750Y1704800D01*
X1769000Y1706250D02*
X1769232D01*
X1769000D02*
Y1706500D01*
X1773428Y1710944D02*
X1776984Y1707388D01*
X1773428Y1710944D02*
Y1853438D01*
X1763832Y1734114D02*
X1765554Y1732392D01*
X1765500Y1718110D02*
X1769110Y1714500D01*
X1765500Y1731950D02*
X1765554Y1732004D01*
Y1732392D01*
X1765500Y1718110D02*
Y1731950D01*
X1405000Y1441450D02*
X1479000Y1367450D01*
X1367282Y1441450D02*
X1405000D01*
X1479000Y1264000D02*
Y1367450D01*
X1896992Y1626750D02*
X1897126Y1626616D01*
X1896750Y1626750D02*
X1896992D01*
X1856740Y1571498D02*
X1869440Y1584198D01*
X1868678Y1694178D02*
Y1774978D01*
X1861499Y1628073D02*
X1864360Y1630934D01*
X1852930Y1625346D02*
X1856994Y1621282D01*
X1881124Y1673606D02*
X1884680Y1670050D01*
Y1639316D02*
Y1670050D01*
X1877314Y1551178D02*
X1882958Y1545534D01*
X1875536Y1646936D02*
X1876552Y1647952D01*
Y2032446D01*
X1871472Y1646936D02*
X1875536D01*
X1877314Y1636014D02*
X1879600Y1638300D01*
X1877314Y1551178D02*
Y1636014D01*
X1790000Y1648550D02*
X1792376Y1646174D01*
X1840500Y1714000D02*
Y1714230D01*
X1837436Y1717294D02*
X1840500Y1714230D01*
X1797304Y1742496D02*
X1798518Y1743710D01*
X1797304Y1704000D02*
Y1742496D01*
X1891538Y1699768D02*
X1893824Y1702054D01*
X1885442Y1692148D02*
X1887544Y1694250D01*
X1889450D01*
X1891538Y1696338D01*
Y1699768D01*
X1746758Y1624584D02*
X1747424Y1625250D01*
X1748000D01*
X1751330Y1608836D02*
Y1623630D01*
X1751500Y1623800D01*
Y1623992D01*
X1755648Y1628140D01*
X1776984Y1617726D02*
X1781302Y1613408D01*
X1776984Y1617726D02*
X1777500Y1618242D01*
Y1619000D01*
X1757250Y1624250D02*
X1758186Y1623314D01*
X1761490D01*
X1845310Y1598422D02*
X1848982Y1594750D01*
X1741678Y1569557D02*
X1742735Y1568500D01*
X1743450D01*
X1745500Y1566450D01*
Y1563550D02*
Y1566450D01*
X1745178Y1563228D02*
X1745500Y1563550D01*
X1745178Y1554247D02*
Y1563228D01*
X1747178Y1555076D02*
Y1562400D01*
X1747500Y1562722D01*
Y1569860D01*
X1744592Y1572768D02*
X1747500Y1569860D01*
X1701038Y1487170D02*
X1707642Y1480566D01*
X1708326Y1481250D01*
X1709000D01*
X1804670Y1718056D02*
X1808988Y1713738D01*
X1809000Y1713750D01*
X1809750D01*
X1755648Y1628140D02*
X1759712D01*
X1765300Y1622552D01*
X1836364Y1631414D02*
Y1638086D01*
X1834364Y1630586D02*
Y1638914D01*
X1821500Y1641000D02*
Y1643950D01*
X1825116Y1626616D02*
X1830500Y1632000D01*
X1823750Y1638750D02*
X1827500D01*
X1821500Y1641000D02*
X1823750Y1638750D01*
X1829750Y1632750D02*
X1830500Y1632000D01*
X1829750Y1632750D02*
Y1636500D01*
X1827500Y1638750D02*
X1829750Y1636500D01*
X1849120Y1623447D02*
X1853184Y1619383D01*
Y1563878D02*
Y1619383D01*
X1845310Y1598422D02*
Y1607240D01*
X1843750Y1608800D02*
X1845310Y1607240D01*
X1843750Y1608800D02*
Y1612950D01*
X1845310Y1614510D01*
D41*
X664000Y1407500D02*
D03*
Y1432500D02*
D03*
D42*
X622000Y1370000D02*
D03*
X642000D02*
D03*
X602000Y1430000D02*
D03*
Y1410000D02*
D03*
X934600Y2007000D02*
D03*
Y2083200D02*
D03*
X930000Y2225400D02*
D03*
X955400Y2200000D02*
D03*
Y2225400D02*
D03*
X980800Y2200000D02*
D03*
Y2225400D02*
D03*
X1006200D02*
D03*
X980800Y2280000D02*
D03*
X1031600D02*
D03*
X1082400Y2305400D02*
D03*
X1133200Y2280000D02*
D03*
X1158600D02*
D03*
Y2305400D02*
D03*
X1184000Y2280000D02*
D03*
X1209400D02*
D03*
X1234800D02*
D03*
X1260200Y2305400D02*
D03*
X1285600Y2280000D02*
D03*
Y2305400D02*
D03*
X1311000Y2280000D02*
D03*
X1336400D02*
D03*
Y2305400D02*
D03*
X1361800Y2280000D02*
D03*
Y2305400D02*
D03*
X1387200D02*
D03*
X980800Y2360000D02*
D03*
X1031600D02*
D03*
X1133200Y2385400D02*
D03*
X1260200Y2360000D02*
D03*
X1285600Y2385400D02*
D03*
X1336400D02*
D03*
X1387200Y2360000D02*
D03*
Y2385400D02*
D03*
X1350000Y1682400D02*
D03*
Y1707800D02*
D03*
Y1733200D02*
D03*
Y1758600D02*
D03*
Y1809400D02*
D03*
X1324600Y1885600D02*
D03*
X1665800Y1273000D02*
D03*
X1640400D02*
D03*
X1615000D02*
D03*
X1589600D02*
D03*
X1513400D02*
D03*
X1072000Y1298400D02*
D03*
X1097400D02*
D03*
X1122800D02*
D03*
X1402200Y1273000D02*
D03*
X1427600D02*
D03*
X1410000Y1580800D02*
D03*
Y1682400D02*
D03*
X1384600Y1987200D02*
D03*
D43*
X632000Y1370000D02*
D03*
D44*
X602000Y1420000D02*
D03*
D45*
X664000D02*
D03*
D48*
X1488000Y1273000D02*
D03*
D53*
X1350000Y1530000D02*
D03*
X1410000D02*
D03*
D54*
X1834090Y1618329D02*
D03*
X1856994Y1618488D02*
D03*
X1849000Y1626500D02*
D03*
X1865122Y1602486D02*
D03*
X1856994Y1626616D02*
D03*
X1849000Y1594500D02*
D03*
X1856740Y1571498D02*
D03*
X1851152Y1561846D02*
D03*
X1873000Y1626500D02*
D03*
X1889000Y1618500D02*
D03*
X1947250Y1641250D02*
D03*
X1801000Y1666500D02*
D03*
X1817116Y1634490D02*
D03*
X1808988Y1642489D02*
D03*
X1792986Y1674622D02*
D03*
X1801000Y1674500D02*
D03*
X1848250Y1531250D02*
D03*
X1760220Y1667510D02*
D03*
X1776984Y1626616D02*
D03*
X1151890Y1881886D02*
D03*
X841756Y1951361D02*
D03*
X781558Y2295390D02*
D03*
X801878Y2269990D02*
D03*
X872744Y2011426D02*
D03*
X827278Y1746758D02*
D03*
Y1607058D02*
D03*
X834600Y1076750D02*
D03*
X937260Y974090D02*
D03*
X1216976Y1194500D02*
D03*
X1913890Y1633728D02*
D03*
X1931924Y1345946D02*
D03*
X2032000Y1364742D02*
D03*
X1183894Y1874012D02*
D03*
X1128014Y1953768D02*
D03*
X1103918Y1930146D02*
D03*
X1085962Y1938020D02*
D03*
X1175892Y1929892D02*
D03*
X1194797Y1892300D02*
D03*
X1096010Y1890014D02*
D03*
X1305310Y1644396D02*
D03*
X1093978Y1897888D02*
D03*
X1119886Y1913890D02*
D03*
X1486154Y1319784D02*
D03*
X1112012Y1913890D02*
D03*
X1119886Y1922018D02*
D03*
X1924050Y1482090D02*
D03*
X1769110Y1714500D02*
D03*
X1447546Y2173732D02*
D03*
X1757172Y1708658D02*
D03*
X1654556Y1638554D02*
D03*
X1689100Y1619758D02*
D03*
X1695450Y1560576D02*
D03*
X1905508Y1521714D02*
D03*
X1983994Y1620520D02*
D03*
X1917954Y1738376D02*
D03*
X1884934Y1813306D02*
D03*
X1889252Y1751330D02*
D03*
X1479042Y2391156D02*
D03*
X1856994Y1722374D02*
D03*
X1286002Y1918970D02*
D03*
X1727200Y1636522D02*
D03*
X1956000Y1457960D02*
D03*
X1752092Y1533398D02*
D03*
X1721104Y1569974D02*
D03*
X1706372Y1565402D02*
D03*
X1948000Y1342390D02*
D03*
X1905762Y1345946D02*
D03*
X1899920Y1380236D02*
D03*
X1906270Y1583436D02*
D03*
X2020000Y1374648D02*
D03*
X1753210Y1581021D02*
D03*
X1870032Y1483614D02*
D03*
X1697482Y1632712D02*
D03*
X1849882Y1441704D02*
D03*
X1876044Y1415796D02*
D03*
X1785112Y1626669D02*
D03*
X1883918Y1368044D02*
D03*
X1112012Y1945988D02*
D03*
X765556Y2330950D02*
D03*
Y2241804D02*
D03*
X1900682Y1931670D02*
D03*
X1866138Y1441958D02*
D03*
X1741226Y1624020D02*
D03*
X1808988Y1610360D02*
D03*
X1497330Y1913128D02*
D03*
X1937258Y1505966D02*
D03*
X1897012Y1618488D02*
D03*
X872744Y2251202D02*
D03*
X1701038Y1642364D02*
D03*
X1808734Y1468120D02*
D03*
X1824990Y1706626D02*
D03*
X1912340Y1498622D02*
D03*
X1988000Y1380998D02*
D03*
X1931555Y1657604D02*
D03*
X1883664Y1555496D02*
D03*
X1397254Y1733296D02*
D03*
X1696466Y1507744D02*
D03*
X1623004Y1534470D02*
D03*
X1697228Y1574038D02*
D03*
X1860000Y1504229D02*
D03*
X1769110Y1594612D02*
D03*
X1868170Y1370076D02*
D03*
X1785112Y1618488D02*
D03*
X1992122Y1498346D02*
D03*
X1792986Y1610360D02*
D03*
X1749552Y1632458D02*
D03*
X1884000Y1484064D02*
D03*
X1741678Y1558544D02*
D03*
X1528572Y2098294D02*
D03*
X1776984Y1706516D02*
D03*
X1798518Y1785874D02*
D03*
X1785112Y1838706D02*
D03*
X1696085Y1435735D02*
D03*
X1176020Y1897888D02*
D03*
X1310950Y1895800D02*
D03*
X1187958Y1938020D02*
D03*
X1785112Y1690388D02*
D03*
X1777002Y1698498D02*
D03*
X1757574Y1695963D02*
D03*
X1750060Y1727200D02*
D03*
X1750822Y1708658D02*
D03*
X1128014Y1945894D02*
D03*
X1094232Y1912112D02*
D03*
X1242568Y1926000D02*
D03*
X1151982Y1922018D02*
D03*
X1160018Y1881886D02*
D03*
X1098042Y1204468D02*
D03*
X872744Y2131314D02*
D03*
X1157986Y1194500D02*
D03*
X1160018Y1938020D02*
D03*
X1777000Y1610500D02*
D03*
X1817000Y1666500D02*
D03*
X1093500Y1871750D02*
D03*
X1788414Y1803146D02*
D03*
X1785366Y1811782D02*
D03*
X1544500Y1512500D02*
D03*
X1881000Y1610500D02*
D03*
X1785000Y1642500D02*
D03*
X1769000Y1706500D02*
D03*
X1896750Y1626750D02*
D03*
X1872996Y1586504D02*
D03*
X1865000Y1690500D02*
D03*
X1888997Y1682497D02*
D03*
X1897126Y1650492D02*
D03*
X1881000Y1674500D02*
D03*
X1888998Y1674622D02*
D03*
X1840500Y1714000D02*
D03*
X1748000Y1625250D02*
D03*
X1817116Y1618488D02*
D03*
X1825116Y1626616D02*
D03*
X1777500Y1619000D02*
D03*
X1757250Y1624250D02*
D03*
X1709000Y1481250D02*
D03*
X1809750Y1713750D02*
D03*
M02*
