%FSLAX44Y44*%
%MOMM*%
G71*
G01*
G75*
G04 Layer_Color=8388736*
%ADD10C,0.3600*%
%ADD11R,1.9000X1.3500*%
%ADD12R,2.0000X1.0000*%
%ADD13R,2.2000X1.2000*%
%ADD14R,1.4000X2.1000*%
%ADD15O,0.5500X1.6000*%
%ADD16R,1.3000X2.2000*%
%ADD17R,1.1000X0.6000*%
%ADD18R,1.1176X0.6096*%
%ADD19R,0.8500X0.7000*%
G04:AMPARAMS|DCode=20|XSize=1.5mm|YSize=1.2mm|CornerRadius=0.12mm|HoleSize=0mm|Usage=FLASHONLY|Rotation=0.000|XOffset=0mm|YOffset=0mm|HoleType=Round|Shape=RoundedRectangle|*
%AMROUNDEDRECTD20*
21,1,1.5000,0.9600,0,0,0.0*
21,1,1.2600,1.2000,0,0,0.0*
1,1,0.2400,0.6300,-0.4800*
1,1,0.2400,-0.6300,-0.4800*
1,1,0.2400,-0.6300,0.4800*
1,1,0.2400,0.6300,0.4800*
%
%ADD20ROUNDEDRECTD20*%
G04:AMPARAMS|DCode=21|XSize=1.5mm|YSize=0.35mm|CornerRadius=0.035mm|HoleSize=0mm|Usage=FLASHONLY|Rotation=0.000|XOffset=0mm|YOffset=0mm|HoleType=Round|Shape=RoundedRectangle|*
%AMROUNDEDRECTD21*
21,1,1.5000,0.2800,0,0,0.0*
21,1,1.4300,0.3500,0,0,0.0*
1,1,0.0700,0.7150,-0.1400*
1,1,0.0700,-0.7150,-0.1400*
1,1,0.0700,-0.7150,0.1400*
1,1,0.0700,0.7150,0.1400*
%
%ADD21ROUNDEDRECTD21*%
%ADD22R,0.7000X1.8000*%
%ADD23R,1.3500X1.9000*%
%ADD24R,0.9500X1.7000*%
%ADD25C,0.3500*%
%ADD26R,0.9500X2.6000*%
%ADD27R,1.2000X2.6000*%
%ADD28R,0.8000X0.8000*%
%ADD29R,1.3500X2.8000*%
%ADD30R,1.8000X1.1500*%
%ADD31O,0.4500X1.8000*%
%ADD32R,1.8000X2.0000*%
G04:AMPARAMS|DCode=33|XSize=1.8mm|YSize=2mm|CornerRadius=0mm|HoleSize=0mm|Usage=FLASHONLY|Rotation=180.000|XOffset=0mm|YOffset=0mm|HoleType=Round|Shape=Octagon|*
%AMOCTAGOND33*
4,1,8,0.4500,-1.0000,-0.4500,-1.0000,-0.9000,-0.5500,-0.9000,0.5500,-0.4500,1.0000,0.4500,1.0000,0.9000,0.5500,0.9000,-0.5500,0.4500,-1.0000,0.0*
%
%ADD33OCTAGOND33*%

%ADD34R,1.0000X1.0000*%
%ADD35R,2.6000X0.9500*%
%ADD36R,1.3000X1.3000*%
%ADD37R,2.5000X1.2600*%
%ADD38R,2.5000X1.0000*%
%ADD39C,0.1000*%
%ADD40C,0.2540*%
%ADD41C,1.5000*%
%ADD42R,1.5000X1.5000*%
%ADD43R,1.5000X1.5000*%
%ADD44C,4.7600*%
%ADD45R,1.6900X1.6900*%
%ADD46C,1.6900*%
G04:AMPARAMS|DCode=47|XSize=2.4mm|YSize=1.6mm|CornerRadius=0.4mm|HoleSize=0mm|Usage=FLASHONLY|Rotation=0.000|XOffset=0mm|YOffset=0mm|HoleType=Round|Shape=RoundedRectangle|*
%AMROUNDEDRECTD47*
21,1,2.4000,0.8000,0,0,0.0*
21,1,1.6000,1.6000,0,0,0.0*
1,1,0.8000,0.8000,-0.4000*
1,1,0.8000,-0.8000,-0.4000*
1,1,0.8000,-0.8000,0.4000*
1,1,0.8000,0.8000,0.4000*
%
%ADD47ROUNDEDRECTD47*%
%ADD48R,1.6000X1.6000*%
%ADD49C,1.6000*%
%ADD50O,2.0000X4.5000*%
%ADD51O,2.0000X4.0000*%
%ADD52O,4.0000X2.0000*%
%ADD53C,1.5000*%
%ADD54C,2.4000*%
%ADD55C,0.4000*%
%ADD56C,0.6000*%
%ADD57C,1.0160*%
%ADD58C,1.4080*%
%ADD59C,3.7680*%
%ADD60C,1.5980*%
%ADD61C,2.0080*%
%ADD62C,1.5080*%
%ADD63C,1.5080*%
%ADD64C,2.5080*%
%ADD65C,0.7080*%
%ADD66C,0.2500*%
%ADD67C,0.6000*%
%ADD68C,0.2000*%
%ADD69C,0.0500*%
%ADD70C,0.1500*%
%ADD71R,1.5240X3.8100*%
%ADD72C,0.5200*%
%ADD73R,2.1040X1.5540*%
%ADD74R,2.2040X1.2040*%
%ADD75R,2.4040X1.4040*%
%ADD76R,1.6040X2.3040*%
%ADD77O,0.7540X1.8040*%
%ADD78R,1.5040X2.4040*%
%ADD79R,1.3040X0.8040*%
%ADD80R,1.3216X0.8136*%
%ADD81R,1.0540X0.9040*%
G04:AMPARAMS|DCode=82|XSize=1.704mm|YSize=1.404mm|CornerRadius=0.222mm|HoleSize=0mm|Usage=FLASHONLY|Rotation=0.000|XOffset=0mm|YOffset=0mm|HoleType=Round|Shape=RoundedRectangle|*
%AMROUNDEDRECTD82*
21,1,1.7040,0.9600,0,0,0.0*
21,1,1.2600,1.4040,0,0,0.0*
1,1,0.4440,0.6300,-0.4800*
1,1,0.4440,-0.6300,-0.4800*
1,1,0.4440,-0.6300,0.4800*
1,1,0.4440,0.6300,0.4800*
%
%ADD82ROUNDEDRECTD82*%
G04:AMPARAMS|DCode=83|XSize=1.704mm|YSize=0.554mm|CornerRadius=0.137mm|HoleSize=0mm|Usage=FLASHONLY|Rotation=0.000|XOffset=0mm|YOffset=0mm|HoleType=Round|Shape=RoundedRectangle|*
%AMROUNDEDRECTD83*
21,1,1.7040,0.2800,0,0,0.0*
21,1,1.4300,0.5540,0,0,0.0*
1,1,0.2740,0.7150,-0.1400*
1,1,0.2740,-0.7150,-0.1400*
1,1,0.2740,-0.7150,0.1400*
1,1,0.2740,0.7150,0.1400*
%
%ADD83ROUNDEDRECTD83*%
%ADD84R,0.9040X2.0040*%
%ADD85R,1.5540X2.1040*%
%ADD86R,1.1540X1.9040*%
%ADD87C,0.5100*%
%ADD88R,1.1540X2.8040*%
%ADD89R,1.4040X2.8040*%
%ADD90R,1.0040X1.0040*%
%ADD91R,1.5540X3.0040*%
%ADD92R,2.0040X1.3540*%
%ADD93O,0.6540X2.0040*%
%ADD94R,2.0040X2.2040*%
G04:AMPARAMS|DCode=95|XSize=2.004mm|YSize=2.204mm|CornerRadius=0mm|HoleSize=0mm|Usage=FLASHONLY|Rotation=180.000|XOffset=0mm|YOffset=0mm|HoleType=Round|Shape=Octagon|*
%AMOCTAGOND95*
4,1,8,0.5010,-1.1020,-0.5010,-1.1020,-1.0020,-0.6010,-1.0020,0.6010,-0.5010,1.1020,0.5010,1.1020,1.0020,0.6010,1.0020,-0.6010,0.5010,-1.1020,0.0*
%
%ADD95OCTAGOND95*%

%ADD96R,1.2040X1.2040*%
%ADD97R,2.8040X1.1540*%
%ADD98R,1.5040X1.5040*%
%ADD99R,2.7040X1.4640*%
%ADD100R,2.7040X1.2040*%
%ADD101C,1.7040*%
%ADD102R,1.7040X1.7040*%
%ADD103R,1.7040X1.7040*%
%ADD104C,4.9640*%
%ADD105R,1.8940X1.8940*%
%ADD106C,1.8940*%
G04:AMPARAMS|DCode=107|XSize=2.604mm|YSize=1.804mm|CornerRadius=0.502mm|HoleSize=0mm|Usage=FLASHONLY|Rotation=0.000|XOffset=0mm|YOffset=0mm|HoleType=Round|Shape=RoundedRectangle|*
%AMROUNDEDRECTD107*
21,1,2.6040,0.8000,0,0,0.0*
21,1,1.6000,1.8040,0,0,0.0*
1,1,1.0040,0.8000,-0.4000*
1,1,1.0040,-0.8000,-0.4000*
1,1,1.0040,-0.8000,0.4000*
1,1,1.0040,0.8000,0.4000*
%
%ADD107ROUNDEDRECTD107*%
%ADD108R,1.8040X1.8040*%
%ADD109C,1.8040*%
%ADD110O,2.2040X4.7040*%
%ADD111O,2.2040X4.2040*%
%ADD112O,4.2040X2.2040*%
%ADD113C,1.7040*%
%ADD114C,2.6040*%
%ADD115C,0.5000*%
D71*
X581880Y1939998D02*
D03*
D72*
X1901000Y1590500D02*
D03*
X1893000D02*
D03*
X1885000D02*
D03*
X1877000D02*
D03*
X1869000D02*
D03*
X1861000D02*
D03*
X1853000D02*
D03*
X1845000D02*
D03*
X1837000D02*
D03*
X1829000D02*
D03*
X1821000D02*
D03*
X1813000D02*
D03*
X1805000D02*
D03*
X1797000D02*
D03*
X1789000D02*
D03*
X1781000D02*
D03*
X1773000D02*
D03*
X1765000D02*
D03*
X1901000Y1598500D02*
D03*
X1893000D02*
D03*
X1885000D02*
D03*
X1877000D02*
D03*
X1869000D02*
D03*
X1861000D02*
D03*
X1853000D02*
D03*
X1845000D02*
D03*
X1837000D02*
D03*
X1829000D02*
D03*
X1821000D02*
D03*
X1813000D02*
D03*
X1805000D02*
D03*
X1797000D02*
D03*
X1789000D02*
D03*
X1781000D02*
D03*
X1773000D02*
D03*
X1765000D02*
D03*
X1901000Y1606500D02*
D03*
X1893000D02*
D03*
X1885000D02*
D03*
X1877000D02*
D03*
X1869000D02*
D03*
X1861000D02*
D03*
X1853000D02*
D03*
X1845000D02*
D03*
X1837000D02*
D03*
X1829000D02*
D03*
X1821000D02*
D03*
X1813000D02*
D03*
X1805000D02*
D03*
X1797000D02*
D03*
X1789000D02*
D03*
X1781000D02*
D03*
X1773000D02*
D03*
X1765000D02*
D03*
X1901000Y1614500D02*
D03*
X1893000D02*
D03*
X1885000D02*
D03*
X1877000D02*
D03*
X1869000D02*
D03*
X1861000D02*
D03*
X1853000D02*
D03*
X1845000D02*
D03*
X1837000D02*
D03*
X1829000D02*
D03*
X1821000D02*
D03*
X1813000D02*
D03*
X1805000D02*
D03*
X1797000D02*
D03*
X1789000D02*
D03*
X1781000D02*
D03*
X1773000D02*
D03*
X1765000D02*
D03*
X1901000Y1622500D02*
D03*
X1893000D02*
D03*
X1885000D02*
D03*
X1877000D02*
D03*
X1869000D02*
D03*
X1861000D02*
D03*
X1853000D02*
D03*
X1845000D02*
D03*
X1837000D02*
D03*
X1829000D02*
D03*
X1821000D02*
D03*
X1813000D02*
D03*
X1805000D02*
D03*
X1797000D02*
D03*
X1789000D02*
D03*
X1781000D02*
D03*
X1773000D02*
D03*
X1765000D02*
D03*
X1901000Y1630500D02*
D03*
X1893000D02*
D03*
X1885000D02*
D03*
X1877000D02*
D03*
X1869000D02*
D03*
X1861000D02*
D03*
X1853000D02*
D03*
X1845000D02*
D03*
X1837000D02*
D03*
X1829000D02*
D03*
X1821000D02*
D03*
X1813000D02*
D03*
X1805000D02*
D03*
X1797000D02*
D03*
X1789000D02*
D03*
X1781000D02*
D03*
X1773000D02*
D03*
X1765000D02*
D03*
X1901000Y1638500D02*
D03*
X1893000D02*
D03*
X1885000D02*
D03*
X1877000D02*
D03*
X1869000D02*
D03*
X1861000D02*
D03*
X1853000D02*
D03*
X1845000D02*
D03*
X1837000D02*
D03*
X1829000D02*
D03*
X1821000D02*
D03*
X1813000D02*
D03*
X1805000D02*
D03*
X1797000D02*
D03*
X1789000D02*
D03*
X1781000D02*
D03*
X1773000D02*
D03*
X1765000D02*
D03*
X1901000Y1646500D02*
D03*
X1893000D02*
D03*
X1885000D02*
D03*
X1877000D02*
D03*
X1869000D02*
D03*
X1861000D02*
D03*
X1853000D02*
D03*
X1845000D02*
D03*
X1837000D02*
D03*
X1829000D02*
D03*
X1821000D02*
D03*
X1813000D02*
D03*
X1805000D02*
D03*
X1797000D02*
D03*
X1789000D02*
D03*
X1781000D02*
D03*
X1773000D02*
D03*
X1765000D02*
D03*
X1901000Y1654500D02*
D03*
X1893000D02*
D03*
X1885000D02*
D03*
X1877000D02*
D03*
X1869000D02*
D03*
X1861000D02*
D03*
X1853000D02*
D03*
X1845000D02*
D03*
X1837000D02*
D03*
X1829000D02*
D03*
X1821000D02*
D03*
X1813000D02*
D03*
X1805000D02*
D03*
X1797000D02*
D03*
X1789000D02*
D03*
X1781000D02*
D03*
X1773000D02*
D03*
X1765000D02*
D03*
X1901000Y1662500D02*
D03*
X1893000D02*
D03*
X1885000D02*
D03*
X1877000D02*
D03*
X1869000D02*
D03*
X1861000D02*
D03*
X1853000D02*
D03*
X1845000D02*
D03*
X1837000D02*
D03*
X1829000D02*
D03*
X1821000D02*
D03*
X1813000D02*
D03*
X1805000D02*
D03*
X1797000D02*
D03*
X1789000D02*
D03*
X1781000D02*
D03*
X1773000D02*
D03*
X1765000D02*
D03*
X1901000Y1670500D02*
D03*
X1893000D02*
D03*
X1885000D02*
D03*
X1877000D02*
D03*
X1869000D02*
D03*
X1861000D02*
D03*
X1853000D02*
D03*
X1845000D02*
D03*
X1837000D02*
D03*
X1829000D02*
D03*
X1821000D02*
D03*
X1813000D02*
D03*
X1805000D02*
D03*
X1797000D02*
D03*
X1789000D02*
D03*
X1781000D02*
D03*
X1773000D02*
D03*
X1765000D02*
D03*
X1901000Y1678500D02*
D03*
X1893000D02*
D03*
X1885000D02*
D03*
X1877000D02*
D03*
X1869000D02*
D03*
X1861000D02*
D03*
X1853000D02*
D03*
X1845000D02*
D03*
X1837000D02*
D03*
X1829000D02*
D03*
X1821000D02*
D03*
X1813000D02*
D03*
X1805000D02*
D03*
X1797000D02*
D03*
X1789000D02*
D03*
X1781000D02*
D03*
X1773000D02*
D03*
X1765000D02*
D03*
X1901000Y1686500D02*
D03*
X1893000D02*
D03*
X1885000D02*
D03*
X1877000D02*
D03*
X1869000D02*
D03*
X1861000D02*
D03*
X1853000D02*
D03*
X1845000D02*
D03*
X1837000D02*
D03*
X1829000D02*
D03*
X1821000D02*
D03*
X1813000D02*
D03*
X1805000D02*
D03*
X1797000D02*
D03*
X1789000D02*
D03*
X1781000D02*
D03*
X1773000D02*
D03*
X1765000D02*
D03*
X1901000Y1694500D02*
D03*
X1893000D02*
D03*
X1885000D02*
D03*
X1877000D02*
D03*
X1869000D02*
D03*
X1861000D02*
D03*
X1853000D02*
D03*
X1845000D02*
D03*
X1837000D02*
D03*
X1829000D02*
D03*
X1821000D02*
D03*
X1813000D02*
D03*
X1805000D02*
D03*
X1797000D02*
D03*
X1789000D02*
D03*
X1781000D02*
D03*
X1773000D02*
D03*
X1765000D02*
D03*
X1901000Y1702500D02*
D03*
X1893000D02*
D03*
X1885000D02*
D03*
X1877000D02*
D03*
X1869000D02*
D03*
X1861000D02*
D03*
X1853000D02*
D03*
X1845000D02*
D03*
X1837000D02*
D03*
X1829000D02*
D03*
X1821000D02*
D03*
X1813000D02*
D03*
X1805000D02*
D03*
X1797000D02*
D03*
X1789000D02*
D03*
X1781000D02*
D03*
X1773000D02*
D03*
X1765000D02*
D03*
X1901000Y1710500D02*
D03*
X1893000D02*
D03*
X1885000D02*
D03*
X1877000D02*
D03*
X1869000D02*
D03*
X1861000D02*
D03*
X1853000D02*
D03*
X1845000D02*
D03*
X1837000D02*
D03*
X1829000D02*
D03*
X1821000D02*
D03*
X1813000D02*
D03*
X1805000D02*
D03*
X1797000D02*
D03*
X1789000D02*
D03*
X1781000D02*
D03*
X1773000D02*
D03*
X1765000D02*
D03*
X1901000Y1718500D02*
D03*
X1893000D02*
D03*
X1885000D02*
D03*
X1877000D02*
D03*
X1869000D02*
D03*
X1861000D02*
D03*
X1853000D02*
D03*
X1845000D02*
D03*
X1837000D02*
D03*
X1829000D02*
D03*
X1821000D02*
D03*
X1813000D02*
D03*
X1805000D02*
D03*
X1797000D02*
D03*
X1789000D02*
D03*
X1781000D02*
D03*
X1773000D02*
D03*
X1765000D02*
D03*
X1901000Y1726500D02*
D03*
X1893000D02*
D03*
X1885000D02*
D03*
X1877000D02*
D03*
X1869000D02*
D03*
X1861000D02*
D03*
X1853000D02*
D03*
X1845000D02*
D03*
X1837000D02*
D03*
X1829000D02*
D03*
X1821000D02*
D03*
X1813000D02*
D03*
X1805000D02*
D03*
X1797000D02*
D03*
X1789000D02*
D03*
X1781000D02*
D03*
X1773000D02*
D03*
X1765000D02*
D03*
D73*
X2020000Y1554500D02*
D03*
Y1585500D02*
D03*
Y1634500D02*
D03*
Y1665500D02*
D03*
Y1745500D02*
D03*
Y1714500D02*
D03*
D74*
X820000Y1420150D02*
D03*
Y1394750D02*
D03*
Y1445550D02*
D03*
D75*
X880000Y1452550D02*
D03*
Y1407500D02*
D03*
D76*
X1075000Y1701000D02*
D03*
Y1610000D02*
D03*
X1120000D02*
D03*
Y1701000D02*
D03*
X1135000Y975000D02*
D03*
Y1066000D02*
D03*
X1090000D02*
D03*
Y975000D02*
D03*
X1255000D02*
D03*
Y1066000D02*
D03*
X1210000D02*
D03*
Y975000D02*
D03*
X1375000D02*
D03*
Y1066000D02*
D03*
X1330000D02*
D03*
Y975000D02*
D03*
X1495000D02*
D03*
Y1066000D02*
D03*
X1450000D02*
D03*
Y975000D02*
D03*
X1615000D02*
D03*
Y1066000D02*
D03*
X1570000D02*
D03*
Y975000D02*
D03*
X1735000D02*
D03*
Y1066000D02*
D03*
X1690000D02*
D03*
Y975000D02*
D03*
X1855000D02*
D03*
Y1066000D02*
D03*
X1810000D02*
D03*
Y975000D02*
D03*
X1975000D02*
D03*
Y1066000D02*
D03*
X1930000D02*
D03*
Y975000D02*
D03*
D77*
X2020000Y1469000D02*
D03*
X2012000D02*
D03*
X2004000D02*
D03*
X1996000D02*
D03*
X1988000D02*
D03*
X1980000D02*
D03*
X1972000D02*
D03*
X1964000D02*
D03*
X1956000D02*
D03*
X1948000D02*
D03*
X1940000D02*
D03*
X1932000D02*
D03*
X1924000D02*
D03*
X1916000D02*
D03*
X1908000D02*
D03*
X1900000D02*
D03*
X1892000D02*
D03*
X1884000D02*
D03*
X1876000D02*
D03*
X1868000D02*
D03*
X1860000D02*
D03*
X1852000D02*
D03*
X2020000Y1357000D02*
D03*
X2012000D02*
D03*
X2004000D02*
D03*
X1996000D02*
D03*
X1988000D02*
D03*
X1980000D02*
D03*
X1972000D02*
D03*
X1964000D02*
D03*
X1956000D02*
D03*
X1948000D02*
D03*
X1940000D02*
D03*
X1932000D02*
D03*
X1924000D02*
D03*
X1916000D02*
D03*
X1908000D02*
D03*
X1900000D02*
D03*
X1892000D02*
D03*
X1884000D02*
D03*
X1876000D02*
D03*
X1868000D02*
D03*
X1860000D02*
D03*
X1852000D02*
D03*
X1780000Y1469000D02*
D03*
X1772000D02*
D03*
X1764000D02*
D03*
X1756000D02*
D03*
X1748000D02*
D03*
X1740000D02*
D03*
X1732000D02*
D03*
X1724000D02*
D03*
X1716000D02*
D03*
X1708000D02*
D03*
X1700000D02*
D03*
X1692000D02*
D03*
X1684000D02*
D03*
X1676000D02*
D03*
X1668000D02*
D03*
X1660000D02*
D03*
X1652000D02*
D03*
X1644000D02*
D03*
X1636000D02*
D03*
X1628000D02*
D03*
X1620000D02*
D03*
X1612000D02*
D03*
X1780000Y1357000D02*
D03*
X1772000D02*
D03*
X1764000D02*
D03*
X1756000D02*
D03*
X1748000D02*
D03*
X1740000D02*
D03*
X1732000D02*
D03*
X1724000D02*
D03*
X1716000D02*
D03*
X1708000D02*
D03*
X1700000D02*
D03*
X1692000D02*
D03*
X1684000D02*
D03*
X1676000D02*
D03*
X1668000D02*
D03*
X1660000D02*
D03*
X1652000D02*
D03*
X1644000D02*
D03*
X1636000D02*
D03*
X1628000D02*
D03*
X1620000D02*
D03*
X1612000D02*
D03*
X1540000Y1469000D02*
D03*
X1532000D02*
D03*
X1524000D02*
D03*
X1516000D02*
D03*
X1508000D02*
D03*
X1500000D02*
D03*
X1492000D02*
D03*
X1484000D02*
D03*
X1476000D02*
D03*
X1468000D02*
D03*
X1460000D02*
D03*
X1452000D02*
D03*
X1444000D02*
D03*
X1436000D02*
D03*
X1428000D02*
D03*
X1420000D02*
D03*
X1412000D02*
D03*
X1404000D02*
D03*
X1396000D02*
D03*
X1388000D02*
D03*
X1380000D02*
D03*
X1372000D02*
D03*
X1540000Y1357000D02*
D03*
X1532000D02*
D03*
X1524000D02*
D03*
X1516000D02*
D03*
X1508000D02*
D03*
X1500000D02*
D03*
X1492000D02*
D03*
X1484000D02*
D03*
X1476000D02*
D03*
X1468000D02*
D03*
X1460000D02*
D03*
X1452000D02*
D03*
X1444000D02*
D03*
X1436000D02*
D03*
X1428000D02*
D03*
X1420000D02*
D03*
X1412000D02*
D03*
X1404000D02*
D03*
X1396000D02*
D03*
X1388000D02*
D03*
X1380000D02*
D03*
X1372000D02*
D03*
D78*
X1111000Y1430000D02*
D03*
X1149000D02*
D03*
D79*
X743500Y1847500D02*
D03*
Y1857500D02*
D03*
X716500Y1847500D02*
D03*
Y1857500D02*
D03*
D80*
X717500Y1987000D02*
D03*
Y1968000D02*
D03*
Y1977500D02*
D03*
X742500Y1968000D02*
D03*
Y1987000D02*
D03*
D81*
X737750Y1912500D02*
D03*
X722250D02*
D03*
D82*
X582001Y1963500D02*
D03*
Y1916500D02*
D03*
D83*
Y1953000D02*
D03*
Y1946500D02*
D03*
Y1940000D02*
D03*
Y1933500D02*
D03*
Y1927000D02*
D03*
D84*
X729750Y1530000D02*
D03*
Y1558000D02*
D03*
X820000Y1710000D02*
D03*
Y1738000D02*
D03*
X729750Y1620000D02*
D03*
Y1648000D02*
D03*
Y1710000D02*
D03*
Y1738000D02*
D03*
X820000Y1798500D02*
D03*
Y1826500D02*
D03*
X834600Y1196000D02*
D03*
Y1224000D02*
D03*
Y1306000D02*
D03*
Y1334000D02*
D03*
Y986000D02*
D03*
Y1014000D02*
D03*
Y1096000D02*
D03*
Y1124000D02*
D03*
D85*
X872800Y2143810D02*
D03*
X841800D02*
D03*
X872800Y2083810D02*
D03*
X841800D02*
D03*
X872800Y2023810D02*
D03*
X841800D02*
D03*
X872800Y1963810D02*
D03*
X841800D02*
D03*
X872800Y2383810D02*
D03*
X841800D02*
D03*
X872800Y2323810D02*
D03*
X841800D02*
D03*
X872800Y2263810D02*
D03*
X841800D02*
D03*
D86*
X843800Y2203810D02*
D03*
X870800D02*
D03*
X991100Y1200000D02*
D03*
X1018100D02*
D03*
X1385500Y2154000D02*
D03*
X1412500D02*
D03*
Y2206000D02*
D03*
X1385500D02*
D03*
D87*
X1100000Y1950000D02*
D03*
X1108000D02*
D03*
X1116000D02*
D03*
X1124000D02*
D03*
X1132000D02*
D03*
X1140000D02*
D03*
X1148000D02*
D03*
X1156000D02*
D03*
X1164000D02*
D03*
X1172000D02*
D03*
X1180000D02*
D03*
X1100000Y1942000D02*
D03*
X1108000D02*
D03*
X1116000D02*
D03*
X1124000D02*
D03*
X1132000D02*
D03*
X1140000D02*
D03*
X1148000D02*
D03*
X1156000D02*
D03*
X1164000D02*
D03*
X1172000D02*
D03*
X1180000D02*
D03*
X1100000Y1934000D02*
D03*
X1108000D02*
D03*
X1116000D02*
D03*
X1124000D02*
D03*
X1132000D02*
D03*
X1140000D02*
D03*
X1148000D02*
D03*
X1156000D02*
D03*
X1164000D02*
D03*
X1172000D02*
D03*
X1180000D02*
D03*
X1100000Y1926000D02*
D03*
X1108000D02*
D03*
X1116000D02*
D03*
X1124000D02*
D03*
X1132000D02*
D03*
X1140000D02*
D03*
X1148000D02*
D03*
X1156000D02*
D03*
X1164000D02*
D03*
X1172000D02*
D03*
X1180000D02*
D03*
X1100000Y1918000D02*
D03*
X1108000D02*
D03*
X1116000D02*
D03*
X1124000D02*
D03*
X1132000D02*
D03*
X1140000D02*
D03*
X1148000D02*
D03*
X1156000D02*
D03*
X1164000D02*
D03*
X1172000D02*
D03*
X1180000D02*
D03*
X1100000Y1910000D02*
D03*
X1108000D02*
D03*
X1116000D02*
D03*
X1124000D02*
D03*
X1132000D02*
D03*
X1140000D02*
D03*
X1148000D02*
D03*
X1156000D02*
D03*
X1164000D02*
D03*
X1172000D02*
D03*
X1180000D02*
D03*
X1100000Y1902000D02*
D03*
X1108000D02*
D03*
X1116000D02*
D03*
X1124000D02*
D03*
X1132000D02*
D03*
X1140000D02*
D03*
X1148000D02*
D03*
X1156000D02*
D03*
X1164000D02*
D03*
X1172000D02*
D03*
X1180000D02*
D03*
X1100000Y1894000D02*
D03*
X1108000D02*
D03*
X1116000D02*
D03*
X1124000D02*
D03*
X1132000D02*
D03*
X1140000D02*
D03*
X1148000D02*
D03*
X1156000D02*
D03*
X1164000D02*
D03*
X1172000D02*
D03*
X1180000D02*
D03*
X1100000Y1886000D02*
D03*
X1108000D02*
D03*
X1116000D02*
D03*
X1124000D02*
D03*
X1132000D02*
D03*
X1140000D02*
D03*
X1148000D02*
D03*
X1156000D02*
D03*
X1164000D02*
D03*
X1172000D02*
D03*
X1180000D02*
D03*
X1100000Y1878000D02*
D03*
X1108000D02*
D03*
X1116000D02*
D03*
X1124000D02*
D03*
X1132000D02*
D03*
X1140000D02*
D03*
X1148000D02*
D03*
X1156000D02*
D03*
X1164000D02*
D03*
X1172000D02*
D03*
X1180000D02*
D03*
X1100000Y1870000D02*
D03*
X1108000D02*
D03*
X1116000D02*
D03*
X1124000D02*
D03*
X1132000D02*
D03*
X1140000D02*
D03*
X1148000D02*
D03*
X1156000D02*
D03*
X1164000D02*
D03*
X1172000D02*
D03*
X1180000D02*
D03*
D88*
X1166000Y1790000D02*
D03*
X1194000D02*
D03*
X1086000D02*
D03*
X1114000D02*
D03*
X1006000D02*
D03*
X1034000D02*
D03*
X1006000Y1850000D02*
D03*
X1034000D02*
D03*
D89*
X991850Y1270000D02*
D03*
X1017350D02*
D03*
X911850Y1210000D02*
D03*
X937350D02*
D03*
X991850Y1340000D02*
D03*
X1017350D02*
D03*
X911850Y1310000D02*
D03*
X937350D02*
D03*
X911850Y1130000D02*
D03*
X937350D02*
D03*
X911850Y1060000D02*
D03*
X937350D02*
D03*
X911850Y990000D02*
D03*
X937350D02*
D03*
D90*
X587500Y1190000D02*
D03*
X572500D02*
D03*
X587500Y980000D02*
D03*
X572500D02*
D03*
X1620500Y1999000D02*
D03*
X1635500D02*
D03*
X1508500Y1998000D02*
D03*
X1523500D02*
D03*
D91*
X1030600Y1110000D02*
D03*
X998600D02*
D03*
X1030600Y990000D02*
D03*
X998600D02*
D03*
D92*
X1110000Y1223500D02*
D03*
Y1194500D02*
D03*
X1170000Y1223500D02*
D03*
Y1194500D02*
D03*
X1230000Y1223500D02*
D03*
Y1194500D02*
D03*
X1290000Y1223500D02*
D03*
Y1194500D02*
D03*
X1350000Y1223500D02*
D03*
Y1194500D02*
D03*
X1410000Y1223500D02*
D03*
Y1194500D02*
D03*
X1470000Y1223500D02*
D03*
Y1194500D02*
D03*
X1530000Y1223500D02*
D03*
Y1194500D02*
D03*
X1590000Y1223500D02*
D03*
Y1194500D02*
D03*
X1650000Y1223500D02*
D03*
Y1194500D02*
D03*
X1710000Y1223500D02*
D03*
Y1194500D02*
D03*
X1770000Y1223500D02*
D03*
Y1194500D02*
D03*
X1830000Y1223500D02*
D03*
Y1194500D02*
D03*
X1890000Y1223500D02*
D03*
Y1194500D02*
D03*
X1950000Y1223500D02*
D03*
Y1194500D02*
D03*
X2010000Y1223500D02*
D03*
Y1194500D02*
D03*
D93*
X794750Y1551000D02*
D03*
X801250D02*
D03*
X807750D02*
D03*
X814250D02*
D03*
X820750D02*
D03*
X827250D02*
D03*
X833750D02*
D03*
X840250D02*
D03*
X794750Y1619000D02*
D03*
X801250D02*
D03*
X807750D02*
D03*
X814250D02*
D03*
X820750D02*
D03*
X827250D02*
D03*
X833750D02*
D03*
X840250D02*
D03*
D94*
X1260000Y1434000D02*
D03*
X1312000Y1390000D02*
D03*
X1260000D02*
D03*
D95*
X1312000Y1434000D02*
D03*
D96*
X1316000Y1439000D02*
D03*
D97*
X1100000Y1524000D02*
D03*
Y1496000D02*
D03*
X1160000D02*
D03*
Y1524000D02*
D03*
D98*
X1081000Y1148000D02*
D03*
Y1124000D02*
D03*
X1141000Y1148000D02*
D03*
Y1124000D02*
D03*
X1201000Y1148000D02*
D03*
Y1124000D02*
D03*
X1261000Y1148000D02*
D03*
Y1124000D02*
D03*
X1321000Y1148000D02*
D03*
Y1124000D02*
D03*
X1381000Y1148000D02*
D03*
Y1124000D02*
D03*
X1441000Y1148000D02*
D03*
Y1124000D02*
D03*
X1501000Y1148000D02*
D03*
Y1124000D02*
D03*
X1561000Y1148000D02*
D03*
Y1124000D02*
D03*
X1621000Y1148000D02*
D03*
Y1124000D02*
D03*
X1681000Y1148000D02*
D03*
Y1124000D02*
D03*
X1741000Y1148000D02*
D03*
Y1124000D02*
D03*
X1801000Y1148000D02*
D03*
Y1124000D02*
D03*
X1861000Y1148000D02*
D03*
Y1124000D02*
D03*
X1921000Y1148000D02*
D03*
Y1124000D02*
D03*
X1981000Y1148000D02*
D03*
Y1124000D02*
D03*
D99*
X750000Y2350000D02*
D03*
Y2330950D02*
D03*
Y2311900D02*
D03*
Y2295390D02*
D03*
Y2269990D02*
D03*
Y2244590D02*
D03*
Y2101080D02*
D03*
Y2117590D02*
D03*
Y2142990D02*
D03*
Y2219190D02*
D03*
Y2193790D02*
D03*
Y2168390D02*
D03*
D100*
Y2087110D02*
D03*
D101*
X1384600Y2012600D02*
D03*
X1410000D02*
D03*
X1384600Y1987200D02*
D03*
X1410000D02*
D03*
X1384600Y1961800D02*
D03*
X1410000D02*
D03*
X1384600Y1936400D02*
D03*
X1410000D02*
D03*
X1384600Y1911000D02*
D03*
X1410000D02*
D03*
X1384600Y1885600D02*
D03*
X1410000D02*
D03*
X1384600Y1860200D02*
D03*
X1410000D02*
D03*
X1384600Y1834800D02*
D03*
X1410000D02*
D03*
X1384600Y1809400D02*
D03*
X1410000D02*
D03*
X1384600Y1784000D02*
D03*
X1410000D02*
D03*
X1384600Y1758600D02*
D03*
X1410000D02*
D03*
X1384600Y1733200D02*
D03*
X1410000D02*
D03*
X1384600Y1707800D02*
D03*
X1410000D02*
D03*
X1384600Y1682400D02*
D03*
X1410000D02*
D03*
X1384600Y1657000D02*
D03*
X1410000D02*
D03*
X1384600Y1631600D02*
D03*
X1410000D02*
D03*
X1384600Y1606200D02*
D03*
X1410000D02*
D03*
X1384600Y1580800D02*
D03*
X1410000D02*
D03*
X1384600Y1555400D02*
D03*
X1410000D02*
D03*
X1384600Y1530000D02*
D03*
X1004600Y1450400D02*
D03*
X1030000D02*
D03*
X1004600Y1425000D02*
D03*
X1453000Y1298400D02*
D03*
Y1273000D02*
D03*
X1427600Y1298400D02*
D03*
Y1273000D02*
D03*
X1402200Y1298400D02*
D03*
Y1273000D02*
D03*
X1376800Y1298400D02*
D03*
Y1273000D02*
D03*
X1351400Y1298400D02*
D03*
Y1273000D02*
D03*
X1326000Y1298400D02*
D03*
Y1273000D02*
D03*
X1300600Y1298400D02*
D03*
Y1273000D02*
D03*
X1275200Y1298400D02*
D03*
Y1273000D02*
D03*
X1249800Y1298400D02*
D03*
Y1273000D02*
D03*
X1224400Y1298400D02*
D03*
Y1273000D02*
D03*
X1199000Y1298400D02*
D03*
Y1273000D02*
D03*
X1173600Y1298400D02*
D03*
Y1273000D02*
D03*
X1148200Y1298400D02*
D03*
Y1273000D02*
D03*
X1122800Y1298400D02*
D03*
Y1273000D02*
D03*
X1097400Y1298400D02*
D03*
Y1273000D02*
D03*
X1072000Y1298400D02*
D03*
X1488000D02*
D03*
X1513400Y1273000D02*
D03*
Y1298400D02*
D03*
X1538800Y1273000D02*
D03*
Y1298400D02*
D03*
X1564200Y1273000D02*
D03*
Y1298400D02*
D03*
X1589600Y1273000D02*
D03*
Y1298400D02*
D03*
X1615000Y1273000D02*
D03*
Y1298400D02*
D03*
X1640400Y1273000D02*
D03*
Y1298400D02*
D03*
X1665800Y1273000D02*
D03*
Y1298400D02*
D03*
X1324600Y2012600D02*
D03*
X1350000D02*
D03*
X1324600Y1987200D02*
D03*
X1350000D02*
D03*
X1324600Y1961800D02*
D03*
X1350000D02*
D03*
X1324600Y1936400D02*
D03*
X1350000D02*
D03*
X1324600Y1911000D02*
D03*
X1350000D02*
D03*
X1324600Y1885600D02*
D03*
X1350000D02*
D03*
X1324600Y1860200D02*
D03*
X1350000D02*
D03*
X1324600Y1834800D02*
D03*
X1350000D02*
D03*
X1324600Y1809400D02*
D03*
X1350000D02*
D03*
X1324600Y1784000D02*
D03*
X1350000D02*
D03*
X1324600Y1758600D02*
D03*
X1350000D02*
D03*
X1324600Y1733200D02*
D03*
X1350000D02*
D03*
X1324600Y1707800D02*
D03*
X1350000D02*
D03*
X1324600Y1682400D02*
D03*
X1350000D02*
D03*
X1324600Y1657000D02*
D03*
X1350000D02*
D03*
X1324600Y1631600D02*
D03*
X1350000D02*
D03*
X1324600Y1606200D02*
D03*
X1350000D02*
D03*
X1324600Y1580800D02*
D03*
X1350000D02*
D03*
X1324600Y1555400D02*
D03*
X1350000D02*
D03*
X1324600Y1530000D02*
D03*
X1412600Y2385400D02*
D03*
Y2360000D02*
D03*
X1387200Y2385400D02*
D03*
Y2360000D02*
D03*
X1361800Y2385400D02*
D03*
Y2360000D02*
D03*
X1336400Y2385400D02*
D03*
Y2360000D02*
D03*
X1311000Y2385400D02*
D03*
Y2360000D02*
D03*
X1285600Y2385400D02*
D03*
Y2360000D02*
D03*
X1260200Y2385400D02*
D03*
Y2360000D02*
D03*
X1234800Y2385400D02*
D03*
Y2360000D02*
D03*
X1209400Y2385400D02*
D03*
Y2360000D02*
D03*
X1184000Y2385400D02*
D03*
Y2360000D02*
D03*
X1158600Y2385400D02*
D03*
Y2360000D02*
D03*
X1133200Y2385400D02*
D03*
Y2360000D02*
D03*
X1107800Y2385400D02*
D03*
Y2360000D02*
D03*
X1082400Y2385400D02*
D03*
Y2360000D02*
D03*
X1057000Y2385400D02*
D03*
Y2360000D02*
D03*
X1031600Y2385400D02*
D03*
Y2360000D02*
D03*
X1006200Y2385400D02*
D03*
Y2360000D02*
D03*
X980800Y2385400D02*
D03*
Y2360000D02*
D03*
X955400Y2385400D02*
D03*
Y2360000D02*
D03*
X930000Y2385400D02*
D03*
X1412600Y2305400D02*
D03*
Y2280000D02*
D03*
X1387200Y2305400D02*
D03*
Y2280000D02*
D03*
X1361800Y2305400D02*
D03*
Y2280000D02*
D03*
X1336400Y2305400D02*
D03*
Y2280000D02*
D03*
X1311000Y2305400D02*
D03*
Y2280000D02*
D03*
X1285600Y2305400D02*
D03*
Y2280000D02*
D03*
X1260200Y2305400D02*
D03*
Y2280000D02*
D03*
X1234800Y2305400D02*
D03*
Y2280000D02*
D03*
X1209400Y2305400D02*
D03*
Y2280000D02*
D03*
X1184000Y2305400D02*
D03*
Y2280000D02*
D03*
X1158600Y2305400D02*
D03*
Y2280000D02*
D03*
X1133200Y2305400D02*
D03*
Y2280000D02*
D03*
X1107800Y2305400D02*
D03*
Y2280000D02*
D03*
X1082400Y2305400D02*
D03*
Y2280000D02*
D03*
X1057000Y2305400D02*
D03*
Y2280000D02*
D03*
X1031600Y2305400D02*
D03*
Y2280000D02*
D03*
X1006200Y2305400D02*
D03*
Y2280000D02*
D03*
X980800Y2305400D02*
D03*
Y2280000D02*
D03*
X955400Y2305400D02*
D03*
Y2280000D02*
D03*
X930000Y2305400D02*
D03*
X1006200Y2225400D02*
D03*
Y2200000D02*
D03*
X980800Y2225400D02*
D03*
Y2200000D02*
D03*
X955400Y2225400D02*
D03*
Y2200000D02*
D03*
X930000Y2225400D02*
D03*
X1167000D02*
D03*
Y2200000D02*
D03*
X1141600Y2225400D02*
D03*
Y2200000D02*
D03*
X1116200Y2225400D02*
D03*
Y2200000D02*
D03*
X1090800Y2225400D02*
D03*
Y2200000D02*
D03*
X1065400Y2225400D02*
D03*
Y2200000D02*
D03*
X1040000Y2225400D02*
D03*
X1225400D02*
D03*
Y2200000D02*
D03*
X1200000Y2225400D02*
D03*
X1285400D02*
D03*
Y2200000D02*
D03*
X1260000Y2225400D02*
D03*
X934600Y1652000D02*
D03*
X960000Y1677400D02*
D03*
X934600D02*
D03*
X960000Y1702800D02*
D03*
X934600D02*
D03*
X960000Y1728200D02*
D03*
X934600D02*
D03*
X960000Y1753600D02*
D03*
X934600D02*
D03*
X960000Y1779000D02*
D03*
X934600D02*
D03*
X960000Y1804400D02*
D03*
X934600D02*
D03*
X960000Y1829800D02*
D03*
X934600D02*
D03*
Y2083200D02*
D03*
X960000D02*
D03*
X934600Y2057800D02*
D03*
X960000D02*
D03*
X934600Y2032400D02*
D03*
X960000D02*
D03*
X934600Y2007000D02*
D03*
Y1956200D02*
D03*
X960000D02*
D03*
X934600Y1930800D02*
D03*
X960000D02*
D03*
X934600Y1905400D02*
D03*
X960000D02*
D03*
X934600Y1880000D02*
D03*
X1444600Y1530000D02*
D03*
X600000Y1250000D02*
D03*
Y1040000D02*
D03*
X602000Y1410000D02*
D03*
Y1430000D02*
D03*
X642000Y1370000D02*
D03*
X622000D02*
D03*
D102*
X1410000Y1530000D02*
D03*
X1030000Y1425000D02*
D03*
X1350000Y1530000D02*
D03*
X960000Y1652000D02*
D03*
Y2007000D02*
D03*
Y1880000D02*
D03*
D103*
X1072000Y1273000D02*
D03*
X1488000D02*
D03*
X930000Y2360000D02*
D03*
Y2280000D02*
D03*
Y2200000D02*
D03*
X1040000D02*
D03*
X1200000D02*
D03*
X1260000D02*
D03*
X1470000Y1530000D02*
D03*
X574600Y1250000D02*
D03*
Y1040000D02*
D03*
D104*
X622000Y1808950D02*
D03*
Y1559050D02*
D03*
D105*
X636200Y1628600D02*
D03*
D106*
X607800Y1642450D02*
D03*
X636200Y1656300D02*
D03*
X607800Y1670150D02*
D03*
X636200Y1684000D02*
D03*
X607800Y1697850D02*
D03*
X636200Y1711700D02*
D03*
X607800Y1725550D02*
D03*
X636200Y1739400D02*
D03*
D107*
X579001Y1991000D02*
D03*
Y1889000D02*
D03*
X542000D02*
D03*
Y1991000D02*
D03*
D108*
X740000Y1250000D02*
D03*
Y1040000D02*
D03*
D109*
X714600Y1250000D02*
D03*
X689200D02*
D03*
X714600Y1040000D02*
D03*
X689200D02*
D03*
D110*
X664000Y1420000D02*
D03*
D111*
X602000D02*
D03*
D112*
X632000Y1370000D02*
D03*
D113*
X664000Y1432500D02*
D03*
Y1407500D02*
D03*
D114*
X538750Y947000D02*
D03*
X2031500D02*
D03*
X2032000Y2440750D02*
D03*
X537750Y2441500D02*
D03*
D115*
X1674250Y1392000D02*
D03*
X1413250Y1378500D02*
D03*
X1734500Y1431000D02*
D03*
X1943000Y1491000D02*
D03*
X1785250Y1650500D02*
D03*
X1723500Y1649500D02*
D03*
X1977500Y1379000D02*
D03*
X1801000Y1666500D02*
D03*
X1734000Y1390250D02*
D03*
X1947250Y1641250D02*
D03*
X1587500Y1432250D02*
D03*
X1881000Y1618500D02*
D03*
X1744750Y1502500D02*
D03*
X1857000Y1642500D02*
D03*
M02*
