%FSLAX44Y44*%
%MOMM*%
G71*
G01*
G75*
G04 Layer_Physical_Order=6*
G04 Layer_Color=16737945*
%ADD10C,0.3600*%
%ADD11R,1.9000X1.3500*%
%ADD12R,2.0000X1.0000*%
%ADD13R,2.2000X1.2000*%
%ADD14R,1.4000X2.1000*%
%ADD15O,0.5500X1.6000*%
%ADD16R,1.3000X2.2000*%
%ADD17R,1.1000X0.6000*%
%ADD18R,1.1176X0.6096*%
%ADD19R,0.8500X0.7000*%
G04:AMPARAMS|DCode=20|XSize=1.5mm|YSize=1.2mm|CornerRadius=0.12mm|HoleSize=0mm|Usage=FLASHONLY|Rotation=0.000|XOffset=0mm|YOffset=0mm|HoleType=Round|Shape=RoundedRectangle|*
%AMROUNDEDRECTD20*
21,1,1.5000,0.9600,0,0,0.0*
21,1,1.2600,1.2000,0,0,0.0*
1,1,0.2400,0.6300,-0.4800*
1,1,0.2400,-0.6300,-0.4800*
1,1,0.2400,-0.6300,0.4800*
1,1,0.2400,0.6300,0.4800*
%
%ADD20ROUNDEDRECTD20*%
G04:AMPARAMS|DCode=21|XSize=1.5mm|YSize=0.35mm|CornerRadius=0.035mm|HoleSize=0mm|Usage=FLASHONLY|Rotation=0.000|XOffset=0mm|YOffset=0mm|HoleType=Round|Shape=RoundedRectangle|*
%AMROUNDEDRECTD21*
21,1,1.5000,0.2800,0,0,0.0*
21,1,1.4300,0.3500,0,0,0.0*
1,1,0.0700,0.7150,-0.1400*
1,1,0.0700,-0.7150,-0.1400*
1,1,0.0700,-0.7150,0.1400*
1,1,0.0700,0.7150,0.1400*
%
%ADD21ROUNDEDRECTD21*%
%ADD22R,0.7000X1.8000*%
%ADD23R,1.3500X1.9000*%
%ADD24R,0.9500X1.7000*%
%ADD25C,0.3500*%
%ADD26R,0.9500X2.6000*%
%ADD27R,1.2000X2.6000*%
%ADD28R,0.8000X0.8000*%
%ADD29R,1.3500X2.8000*%
%ADD30R,1.8000X1.1500*%
%ADD31O,0.4500X1.8000*%
%ADD32R,1.8000X2.0000*%
G04:AMPARAMS|DCode=33|XSize=1.8mm|YSize=2mm|CornerRadius=0mm|HoleSize=0mm|Usage=FLASHONLY|Rotation=180.000|XOffset=0mm|YOffset=0mm|HoleType=Round|Shape=Octagon|*
%AMOCTAGOND33*
4,1,8,0.4500,-1.0000,-0.4500,-1.0000,-0.9000,-0.5500,-0.9000,0.5500,-0.4500,1.0000,0.4500,1.0000,0.9000,0.5500,0.9000,-0.5500,0.4500,-1.0000,0.0*
%
%ADD33OCTAGOND33*%

%ADD34R,1.0000X1.0000*%
%ADD35R,2.6000X0.9500*%
%ADD36R,1.3000X1.3000*%
%ADD37R,2.5000X1.2600*%
%ADD38R,2.5000X1.0000*%
%ADD39C,0.1000*%
%ADD40C,0.2540*%
%ADD41C,1.5000*%
%ADD42R,1.5000X1.5000*%
%ADD43R,1.5000X1.5000*%
%ADD44C,4.7600*%
%ADD45R,1.6900X1.6900*%
%ADD46C,1.6900*%
G04:AMPARAMS|DCode=47|XSize=2.4mm|YSize=1.6mm|CornerRadius=0.4mm|HoleSize=0mm|Usage=FLASHONLY|Rotation=0.000|XOffset=0mm|YOffset=0mm|HoleType=Round|Shape=RoundedRectangle|*
%AMROUNDEDRECTD47*
21,1,2.4000,0.8000,0,0,0.0*
21,1,1.6000,1.6000,0,0,0.0*
1,1,0.8000,0.8000,-0.4000*
1,1,0.8000,-0.8000,-0.4000*
1,1,0.8000,-0.8000,0.4000*
1,1,0.8000,0.8000,0.4000*
%
%ADD47ROUNDEDRECTD47*%
%ADD48R,1.6000X1.6000*%
%ADD49C,1.6000*%
%ADD50O,2.0000X4.5000*%
%ADD51O,2.0000X4.0000*%
%ADD52O,4.0000X2.0000*%
%ADD53C,1.5000*%
%ADD54C,0.4000*%
%ADD55C,0.6000*%
%ADD56C,1.0160*%
%ADD57C,1.4080*%
%ADD58C,3.7680*%
%ADD59C,1.5980*%
%ADD60C,2.0080*%
%ADD61C,1.5080*%
%ADD62C,1.5080*%
%ADD63C,0.7080*%
D39*
X1850673Y1605883D02*
X1850673D01*
X1850570Y1605986D02*
X1850673Y1605883D01*
X1843278Y1608074D02*
X1851152D01*
X1850673Y1605883D02*
X1850832Y1606042D01*
X1847670Y1605986D02*
X1850570D01*
X1846434Y1604750D02*
X1847670Y1605986D01*
X1844972Y1604750D02*
X1846434D01*
X1850832Y1606042D02*
X1890776D01*
X1843680D02*
X1844972Y1604750D01*
X1779408Y1606042D02*
X1843680D01*
X1836928Y1614424D02*
X1843278Y1608074D01*
X1851152D02*
X1853184Y1610106D01*
Y1612138D01*
X1778950Y1606500D02*
X1779408Y1606042D01*
X1851070Y1598250D02*
X1853184Y1596136D01*
X1847300Y1598250D02*
X1851070D01*
X1847218Y1598168D02*
X1847300Y1598250D01*
X1845310Y1598168D02*
X1847218D01*
X1846326Y1590040D02*
X1849120Y1587246D01*
X1833626Y1590040D02*
X1846326D01*
X1853184Y1612138D02*
X1855216Y1614170D01*
X1840992Y1602486D02*
X1845310Y1598168D01*
X1776476Y1517142D02*
X1781368Y1512250D01*
X1781500D01*
X1413500Y1377750D02*
X1415250Y1376000D01*
X1527518D01*
X1530550Y1379032D01*
X1682532D01*
X1734500Y1431000D01*
X1810512Y1726438D02*
X1813250Y1723700D01*
Y1712300D02*
Y1723700D01*
X1812544Y1711594D02*
X1813250Y1712300D01*
X1812544Y1710944D02*
Y1711594D01*
X1420550Y1932250D02*
X1421000D01*
X1420368Y1932432D02*
X1420550Y1932250D01*
X1652580Y1584000D02*
X1653250D01*
X1652524Y1583944D02*
X1652580Y1584000D01*
X1742000Y1564098D02*
Y1565000D01*
X1741678Y1563776D02*
X1742000Y1564098D01*
X1755361Y1606329D02*
X1762760Y1598930D01*
X1805432D02*
X1808988Y1602486D01*
X1898448Y1622500D02*
X1929638Y1591310D01*
X1769110Y1618488D02*
X1773122Y1622500D01*
X1818089Y1627504D02*
Y1627579D01*
X1818085Y1627500D02*
X1818089Y1627504D01*
X1817248Y1627500D02*
X1818085D01*
X1814576Y1638808D02*
X1829562D01*
X1812544Y1640840D02*
X1814576Y1638808D01*
X1840025Y1635330D02*
X1840090D01*
X1840000Y1635305D02*
X1840025Y1635330D01*
X1840000Y1635250D02*
Y1635305D01*
X1841700Y1639000D02*
X1841892Y1638808D01*
X1839550Y1639000D02*
X1841700D01*
X1839300Y1639250D02*
X1839550Y1639000D01*
X1838550Y1639250D02*
X1839300D01*
X1838108Y1638808D02*
X1838550Y1639250D01*
X1836674Y1638808D02*
X1838108D01*
X1840000Y1635250D02*
X1840500Y1634750D01*
X1833880Y1634490D02*
X1840240D01*
X1840500Y1634750D01*
X1848500Y1706000D02*
X1848730D01*
X1849120Y1705610D01*
X1804670Y1704848D02*
Y1716278D01*
X1802384Y1718564D02*
X1804670Y1716278D01*
Y1704848D02*
X1818894Y1690624D01*
X1791462Y1702816D02*
X1800352D01*
X1789430Y1704848D02*
X1791462Y1702816D01*
X1877060Y1638808D02*
X1880870Y1642618D01*
X1868678Y1646936D02*
X1898396D01*
X1901444Y1643888D01*
X1868678Y1678178D02*
X1925583D01*
X1888998Y1690498D02*
X1921025D01*
X1847652Y1569522D02*
X1860550Y1582420D01*
Y1589278D01*
X1829562Y1638808D02*
X1833880Y1634490D01*
X1849120Y1722620D02*
Y1727906D01*
X1849000Y1722500D02*
X1849120Y1722620D01*
X1838960Y1718818D02*
X1851152D01*
X1836674Y1721104D02*
X1838960Y1718818D01*
X1767586Y1718564D02*
X1802384D01*
X1765046Y1721104D02*
X1767586Y1718564D01*
X1765046Y1721104D02*
Y1734114D01*
X1730622Y1702562D02*
X1780938D01*
X1500752Y1932432D02*
X1730622Y1702562D01*
X1784984Y1706500D02*
X1785000D01*
X1784858Y1706626D02*
X1784984Y1706500D01*
X1784858Y1704340D02*
Y1706626D01*
X1812544Y1710944D02*
X1816988Y1706500D01*
X1817000D01*
X1768945Y1690500D02*
X1769000D01*
X1768822Y1690624D02*
X1768945Y1690500D01*
X1759677Y1681480D02*
X1768822Y1690624D01*
X1786836Y1694888D02*
X1788668Y1696720D01*
X1783662Y1694888D02*
X1786836D01*
X1783050Y1695500D02*
X1783662Y1694888D01*
X1778954Y1695500D02*
X1783050D01*
X1778452Y1694998D02*
X1778954Y1695500D01*
X1775552Y1694998D02*
X1778452D01*
X1775050Y1695500D02*
X1775552Y1694998D01*
X1770950Y1695500D02*
X1775050D01*
X1770450Y1695000D02*
X1770950Y1695500D01*
X1767550Y1695000D02*
X1770450D01*
X1767050Y1695500D02*
X1767550Y1695000D01*
X1764334Y1695500D02*
X1767050D01*
X1758188Y1689354D02*
X1764334Y1695500D01*
X1767840Y1686814D02*
X1789176D01*
X1760308Y1679282D02*
X1767840Y1686814D01*
X1789176D02*
X1792986Y1690624D01*
X1833118Y1682618D02*
Y1719580D01*
X1833000Y1682500D02*
X1833118Y1682618D01*
X1785000Y1674500D02*
Y1674510D01*
X1785112Y1674622D01*
X1865000Y1674500D02*
X1868678Y1678178D01*
X1925583D02*
X1942282Y1661478D01*
X1777000Y1666500D02*
X1777250Y1666250D01*
Y1666482D01*
X1832982Y1642500D02*
X1836674Y1638808D01*
X1832982Y1642500D02*
X1833000D01*
X1811500Y1589000D02*
X1817000Y1594501D01*
Y1594500D02*
Y1594501D01*
X1853184Y1592580D02*
Y1596136D01*
X1933702Y1792548D02*
Y1888998D01*
Y1792548D02*
X1933750Y1792500D01*
X1988000Y1583000D02*
Y1583290D01*
X1988146Y1583436D01*
X1848428Y1755394D02*
X1897126D01*
X1387022Y1265500D02*
X1387250D01*
X1386332Y1266190D02*
X1387022Y1265500D01*
X1088000Y1882766D02*
X1089152Y1883918D01*
X1088000Y1868967D02*
X1091532Y1865435D01*
X1090000Y1877918D02*
X1093968Y1881886D01*
X1090000Y1870300D02*
Y1877918D01*
X1088000Y1868967D02*
Y1882766D01*
X1092717Y1868250D02*
X1093532Y1867435D01*
X1092050Y1868250D02*
X1092717D01*
X1090000Y1870300D02*
X1092050Y1868250D01*
X1849000Y1586500D02*
Y1587126D01*
X1849120Y1587246D01*
X1199000Y1298400D02*
X1211580Y1285820D01*
Y1247902D02*
Y1285820D01*
Y1247902D02*
X1251712Y1207770D01*
X1362456D01*
X1375726Y1194500D01*
X1148200Y1298400D02*
X1160780Y1285820D01*
Y1259840D02*
Y1285820D01*
Y1259840D02*
X1223518Y1197102D01*
X1277874D01*
X1235202Y1201166D02*
X1331406D01*
X1186252Y1250116D02*
X1235202Y1201166D01*
X1186252Y1250116D02*
Y1285748D01*
X1173600Y1298400D02*
X1186252Y1285748D01*
X816102Y2161342D02*
X872800Y2104644D01*
X816102Y2161342D02*
Y2193790D01*
X1337458Y1847342D02*
X1350000Y1834800D01*
X1277366Y1847342D02*
X1337458D01*
X1206363Y1918345D02*
X1277366Y1847342D01*
X1171565Y1918345D02*
X1206363D01*
X1167892Y1922018D02*
X1171565Y1918345D01*
X915162Y2051838D02*
X934600Y2032400D01*
X915162Y2051838D02*
Y2054352D01*
X739140Y2230374D02*
X915162Y2054352D01*
X1640400Y1298400D02*
X1655318Y1283482D01*
X1743182D01*
X1845310Y1181354D01*
X1103884Y1865884D02*
X1104773Y1864995D01*
Y1841119D02*
Y1864995D01*
Y1841119D02*
X1276096Y1669796D01*
X1337204D01*
X1350000Y1657000D01*
X1100328Y1870328D02*
X1104012Y1874012D01*
X1100328Y1827784D02*
Y1870328D01*
Y1827784D02*
X1287272Y1640840D01*
X1340760D01*
X1350000Y1631600D01*
X960000Y2083200D02*
X970642D01*
X1096010Y1957832D01*
X1171448Y1933448D02*
X1176020Y1938020D01*
X1171448Y1928368D02*
Y1933448D01*
X1168908Y1925828D02*
X1171448Y1928368D01*
X1166368Y1925828D02*
X1168908D01*
X1164082Y1923542D02*
X1166368Y1925828D01*
X1164082Y1912112D02*
Y1923542D01*
Y1912112D02*
X1166114Y1910080D01*
X1191262D01*
X1192872Y1911690D01*
X1204732D01*
X1319626Y1796796D01*
X1337204D01*
X1350000Y1784000D01*
X1135888Y1890113D02*
X1140305Y1885696D01*
X1169924D01*
X1171956Y1883664D01*
Y1845056D02*
Y1883664D01*
Y1845056D02*
X1273860Y1743152D01*
X1400048D01*
X1410000Y1733200D01*
X1093968Y1881886D02*
X1103884D01*
X1093532Y1809180D02*
Y1867435D01*
Y1809180D02*
X1282954Y1619758D01*
X1336442D01*
X1350000Y1606200D01*
X1091532Y1807624D02*
Y1865435D01*
Y1807624D02*
X1282700Y1616456D01*
X1328928D01*
X1335024Y1610360D01*
Y1603248D02*
Y1610360D01*
Y1603248D02*
X1341120Y1597152D01*
X1355090D01*
X1359154Y1593088D01*
Y1564554D02*
Y1593088D01*
X1350000Y1555400D02*
X1359154Y1564554D01*
X1397254Y1644346D02*
X1410000Y1631600D01*
X1377696Y1644346D02*
X1397254D01*
X1372920Y1649122D02*
X1377696Y1644346D01*
X1372920Y1649122D02*
Y1702258D01*
X1357630Y1717548D02*
X1372920Y1702258D01*
X1265682Y1717548D02*
X1357630D01*
X1124458Y1858772D02*
X1265682Y1717548D01*
X1124458Y1858772D02*
Y1915160D01*
X1121664Y1917954D02*
X1124458Y1915160D01*
X1117600Y1917954D02*
X1121664D01*
X1113536Y1922018D02*
X1117600Y1917954D01*
X1112012Y1922018D02*
X1113536D01*
X1132332Y1885440D02*
X1135886Y1881886D01*
X1132332Y1885440D02*
Y1891792D01*
X1134364Y1893824D01*
X1172464D01*
X1179830Y1886458D01*
X1198428D01*
X1311886Y1773000D01*
X1399000D01*
X1410000Y1784000D01*
X1789430Y1704848D02*
Y1708912D01*
X1787398Y1710944D02*
X1789430Y1708912D01*
X1766316Y1710944D02*
X1787398D01*
X1750060Y1727200D02*
X1766316Y1710944D01*
X1324600Y1961800D02*
X1333648Y1952752D01*
X1574800D01*
X1793494Y1734058D01*
X1802384D01*
X1804934Y1736608D01*
X1816090D01*
X1821829Y1730869D01*
Y1730248D02*
Y1730869D01*
Y1730248D02*
X1823045Y1729032D01*
X1823666D01*
X1833118Y1719580D01*
X1791875Y1739624D02*
X1800998D01*
X1560460Y1971040D02*
X1791875Y1739624D01*
X1315466Y1971040D02*
X1560460D01*
X1183386Y2103120D02*
X1315466Y1971040D01*
X1183386Y2103120D02*
Y2247900D01*
X1178560Y2252726D02*
X1183386Y2247900D01*
X1076452Y2252726D02*
X1178560D01*
X1070062Y2259116D02*
X1076452Y2252726D01*
X1070062Y2259116D02*
Y2328204D01*
X1065530Y2332736D02*
X1070062Y2328204D01*
X982664Y2332736D02*
X1065530D01*
X955400Y2360000D02*
X982664Y2332736D01*
X1474978Y1908048D02*
X1510538D01*
X1737106Y1681480D01*
X1759677D01*
X1077270Y1930964D02*
X1080306Y1934000D01*
X1077270Y1922500D02*
Y1930964D01*
Y1922500D02*
X1080262Y1919508D01*
Y1778762D02*
Y1919508D01*
Y1778762D02*
X1312672Y1546352D01*
X1400952D01*
X1410000Y1555400D01*
X1834642Y1678432D02*
X1837182Y1680972D01*
Y1700784D01*
X1838452Y1702054D01*
X1927352D01*
X1972056Y1657350D01*
X1384600Y1834800D02*
X1393840Y1844040D01*
X1455674D01*
X1655660Y1644054D01*
X1660056D01*
X1683511Y1620599D01*
Y1614071D02*
Y1620599D01*
Y1614071D02*
X1702157Y1595425D01*
X1736762D01*
X1743297Y1588890D01*
X1760448D01*
X1764337Y1585000D01*
X1791478D02*
X1795582Y1580896D01*
X1800550D01*
X1806138Y1586484D01*
X1830070D01*
X1833626Y1590040D01*
X1372616Y1804416D02*
Y1811020D01*
Y1804416D02*
X1377188Y1799844D01*
X1488186D01*
X1696605Y1591425D01*
X1732432D01*
X1739000Y1584858D01*
X1756571D01*
X1766573Y1574856D01*
X1777548D01*
X1781048Y1578356D01*
X1373600Y1900000D02*
X1384600Y1911000D01*
X1373600Y1875314D02*
Y1900000D01*
Y1875314D02*
X1379474Y1869440D01*
X1448428D01*
X1667447Y1650421D01*
Y1644205D02*
Y1650421D01*
Y1644205D02*
X1687696Y1623956D01*
X1693395D01*
X1717925Y1599425D01*
X1741293D01*
X1747829Y1592890D01*
X1762196D01*
X1766086Y1589000D01*
X1361800Y2360000D02*
X1373292D01*
X1444244Y2289048D01*
X1854078Y1856486D02*
X1982978Y1727586D01*
Y1627253D02*
Y1727586D01*
Y1627253D02*
X1989545Y1620686D01*
X1107800Y2305400D02*
X1122426Y2290774D01*
Y2275840D02*
Y2290774D01*
Y2275840D02*
X1128268Y2269998D01*
X1362930D01*
X1856232Y1827022D02*
X1911604Y1771650D01*
Y1727708D02*
Y1771650D01*
Y1727708D02*
X1917700Y1721612D01*
X1397254Y1752854D02*
Y1769364D01*
Y1752854D02*
X1404112Y1745996D01*
X1521968D01*
X1678539Y1589425D01*
X1730338D01*
X1742243Y1577520D01*
X1751984D01*
X1756664Y1572840D01*
X1799404D01*
X1808988Y1582425D01*
X1734820Y1690370D02*
X1747774D01*
X1504530Y1920660D02*
X1734820Y1690370D01*
X1400340Y1920660D02*
X1504530D01*
X1384600Y1936400D02*
X1400340Y1920660D01*
X930000Y2360000D02*
X970980Y2319020D01*
X1060704D01*
X1066038Y2313686D01*
Y2248154D02*
Y2313686D01*
Y2248154D02*
X1074420Y2239772D01*
Y2177034D02*
Y2239772D01*
Y2177034D02*
X1174750Y2076704D01*
Y2069592D02*
Y2076704D01*
Y2069592D02*
X1319276Y1925066D01*
X1392428D01*
X1400556Y1916938D01*
Y1906016D02*
Y1916938D01*
Y1906016D02*
X1404620Y1901952D01*
X1449070D01*
X1465778Y1918660D01*
X1503482D01*
X1735328Y1686814D01*
X1749552D01*
X1752092Y1689354D01*
X1758188D01*
X1788668Y1696720D02*
Y1700530D01*
X1784858Y1704340D02*
X1788668Y1700530D01*
X1979930Y1613154D02*
Y1706372D01*
X1850147Y1836155D02*
X1979930Y1706372D01*
X1374648Y2261108D02*
Y2316672D01*
X1369568Y2321752D02*
X1374648Y2316672D01*
X1349248Y2321752D02*
X1369568D01*
X1311000Y2360000D02*
X1349248Y2321752D01*
X1384600Y1682400D02*
X1398474Y1668526D01*
X1461516D01*
X1549908Y1580134D01*
X1716278D01*
X1724892Y1571520D01*
X1747191D01*
X1762905Y1555806D01*
X1790130D01*
X1800400Y1566076D01*
X1836586D01*
X1928038Y1654087D02*
Y1665270D01*
X1802130Y1560576D02*
X1840738D01*
X1850136Y1551178D01*
Y1545082D02*
Y1551178D01*
X1964436Y1509014D02*
X1978152Y1495298D01*
X1307084Y1799082D02*
Y1802836D01*
X1200230Y1909690D02*
X1307084Y1802836D01*
X1194872Y1909690D02*
X1200230D01*
X1192467Y1907286D02*
X1194872Y1909690D01*
X1157224Y1907286D02*
X1192467D01*
X1128014Y1936496D02*
X1157224Y1907286D01*
X1128014Y1936496D02*
Y1938020D01*
X1901444Y1638808D02*
X1905762Y1634490D01*
X1901444Y1638808D02*
Y1643888D01*
X1865122Y1650492D02*
X1868678Y1646936D01*
X1869440Y1710944D02*
X1872996Y1714500D01*
X1863344Y1710944D02*
X1869440D01*
X1861312Y1712976D02*
X1863344Y1710944D01*
X1861312Y1712976D02*
Y1723898D01*
X1855700Y1729510D02*
X1861312Y1723898D01*
X1851152Y1729510D02*
X1855700D01*
X1836930Y1743732D02*
X1851152Y1729510D01*
X1827000Y1743732D02*
X1836930D01*
X1583944Y1986788D02*
X1827000Y1743732D01*
X1519936Y1986788D02*
X1583944D01*
X1836855Y1740171D02*
X1849120Y1727906D01*
X1827513Y1740171D02*
X1836855D01*
X1589532Y1978152D02*
X1827513Y1740171D01*
X1333648Y1978152D02*
X1589532D01*
X1324600Y1987200D02*
X1333648Y1978152D01*
X1459738Y2372614D02*
X1900682Y1931670D01*
X1298214Y2372614D02*
X1459738D01*
X1285600Y2360000D02*
X1298214Y2372614D01*
X1929638Y1458976D02*
Y1591310D01*
Y1458976D02*
X1934210Y1454404D01*
X1996000D01*
X1112012Y1937988D02*
X1115568Y1941544D01*
Y1955800D01*
X930000Y2141368D02*
X1115568Y1955800D01*
X930000Y2141368D02*
Y2200000D01*
X1760982Y1612900D02*
Y1618488D01*
Y1612900D02*
X1767840Y1606042D01*
X1890776D02*
X1892554Y1604264D01*
Y1487505D02*
Y1604264D01*
Y1487505D02*
X1929211Y1450848D01*
X2004060D01*
X1903476Y1586230D02*
X1906270Y1583436D01*
X1903476Y1586230D02*
Y1609344D01*
X1898650Y1614170D02*
X1903476Y1609344D01*
X1780557Y1614004D02*
X1780977Y1614424D01*
X1765610Y1614932D02*
X1766538Y1614004D01*
X1765610Y1614932D02*
Y1628958D01*
X1766824Y1630172D01*
X1772666D01*
X1776984Y1634490D01*
X1664970Y1514812D02*
Y1519682D01*
Y1514812D02*
X1733478Y1446304D01*
X1738348D01*
X1821942Y1362710D01*
X2007616D02*
X2011934Y1367028D01*
Y1405250D01*
X1741678Y1563776D02*
X1803234Y1502220D01*
Y1462620D02*
Y1502220D01*
Y1462620D02*
X1864293Y1401561D01*
X1895867D01*
X1916000Y1381428D01*
X1924000Y1346046D02*
X1931720Y1338326D01*
X2015490Y1339596D01*
Y1464056D01*
X2011680Y1467866D02*
X2015490Y1464056D01*
X1942592Y1467866D02*
X2011680D01*
X1938528Y1471930D02*
X1942592Y1467866D01*
X1938528Y1471930D02*
Y1502212D01*
X1941266Y1504950D01*
Y1570990D01*
X1935226Y1577030D02*
X1941266Y1570990D01*
X1935226Y1577030D02*
Y1583944D01*
X1939544Y1588262D01*
Y1621028D01*
X1842008Y1375156D02*
X1956000D01*
X1794002Y1423162D02*
X1842008Y1375156D01*
X1794002Y1423162D02*
Y1506238D01*
X1751602Y1548638D02*
X1794002Y1506238D01*
X1702308Y1548638D02*
X1751602D01*
X1690116Y1560830D02*
X1702308Y1548638D01*
X1595374Y1869694D02*
X1652201D01*
X1795457Y1726438D01*
X1810512D01*
X1324600Y1936400D02*
X1335600Y1947400D01*
X1577323D01*
X1795690Y1729034D01*
X1815529D01*
X1816998Y1730502D01*
X1826105Y1748018D02*
X1835546D01*
X1574126Y1999996D02*
X1826105Y1748018D01*
X1337204Y1999996D02*
X1574126D01*
X1324600Y2012600D02*
X1337204Y1999996D01*
X1881133Y1586747D02*
Y1594367D01*
X1874012Y1579626D02*
X1881133Y1586747D01*
X1874012Y1552448D02*
Y1579626D01*
X1863146Y1541582D02*
X1874012Y1552448D01*
X1848668Y1541582D02*
X1863146D01*
X1842628Y1547622D02*
X1848668Y1541582D01*
X1770634Y1547622D02*
X1842628D01*
X1769618Y1546606D02*
X1770634Y1547622D01*
X1763776Y1546606D02*
X1769618D01*
X1762506Y1547876D02*
X1763776Y1546606D01*
X1762506Y1547876D02*
Y1553377D01*
X1746362Y1569520D02*
X1762506Y1553377D01*
X1730810Y1569520D02*
X1746362D01*
X1727708Y1566418D02*
X1730810Y1569520D01*
X1717040Y1566418D02*
X1727708D01*
X1713992Y1569466D02*
X1717040Y1566418D01*
X1619504Y1569466D02*
X1713992D01*
X1612392Y1576578D02*
X1619504Y1569466D01*
X1602232Y1576578D02*
X1612392D01*
X1597152Y1571498D02*
X1602232Y1576578D01*
X1580388Y1571498D02*
X1597152D01*
X1525778Y1516888D02*
X1580388Y1571498D01*
X1397712Y1516888D02*
X1525778D01*
X1384600Y1530000D02*
X1397712Y1516888D01*
X1442466Y1698752D02*
X1500632Y1640586D01*
X1393648Y1698752D02*
X1442466D01*
X1384600Y1707800D02*
X1393648Y1698752D01*
X1384600Y1733200D02*
X1400506Y1717294D01*
X1451864D01*
X1481836Y1687322D01*
X1573784D01*
X1674078Y1587028D01*
X1728292D01*
X1739799Y1575520D01*
X1749938D01*
X1754632Y1570826D01*
X1757545D01*
X1763168Y1565204D01*
X1784548D02*
X1788612Y1569268D01*
X1817934D01*
X1833118Y1584452D01*
X1687557Y1638554D02*
X1717390D01*
X1452099Y1874012D02*
X1687557Y1638554D01*
X1396188Y1874012D02*
X1452099D01*
X1384600Y1885600D02*
X1396188Y1874012D01*
X1805376Y1591000D02*
X1808988Y1594612D01*
X1754028Y1604106D02*
X1767134Y1591000D01*
X1746075Y1604106D02*
X1754028D01*
X1727200Y1622982D02*
X1746075Y1604106D01*
X1727200Y1622982D02*
Y1636522D01*
X1006200Y2360000D02*
X1023050Y2343150D01*
X1070356D01*
X1073150Y2340356D01*
Y2263561D02*
Y2340356D01*
Y2263561D02*
X1081191Y2255520D01*
X1184656D01*
X1188720Y2251456D01*
Y2104136D02*
Y2251456D01*
Y2104136D02*
X1316736Y1976120D01*
X1587500D01*
X1836674Y1726946D01*
Y1721104D02*
Y1726946D01*
X1851152Y1718818D02*
X1852676Y1717294D01*
Y1709166D02*
Y1717294D01*
X1849120Y1705610D02*
X1852676Y1709166D01*
X1818894Y1690624D02*
X1824990D01*
X1734114Y1765046D02*
X1765046Y1734114D01*
X1680464Y1765046D02*
X1734114D01*
X1500110Y1945400D02*
X1680464Y1765046D01*
X1377696Y1945400D02*
X1500110D01*
X1359695Y1927400D02*
X1377696Y1945400D01*
X1320800Y1927400D02*
X1359695D01*
X1233678Y2014522D02*
X1320800Y1927400D01*
X1233678Y2014522D02*
Y2039620D01*
X1105662Y2167636D02*
X1233678Y2039620D01*
X1099820Y2167636D02*
X1105662D01*
X1888998Y1722374D02*
Y1742186D01*
X1900626Y1753814D01*
Y1762810D01*
X1893329Y1770107D02*
X1900626Y1762810D01*
X1839741Y1770107D02*
X1893329D01*
X1425448Y2184400D02*
X1839741Y1770107D01*
X1288034Y2184400D02*
X1425448D01*
X1272540Y2199894D02*
X1288034Y2184400D01*
X1847088Y1851152D02*
X1884934Y1813306D01*
X1396238Y2242346D02*
Y2327656D01*
X1376172Y2347722D02*
X1396238Y2327656D01*
X1331214Y2347722D02*
X1376172D01*
X1325880Y2353056D02*
X1331214Y2347722D01*
X1325880Y2353056D02*
Y2363978D01*
X1320800Y2369058D02*
X1325880Y2363978D01*
X1298448Y2369058D02*
X1320800D01*
X1295400Y2366010D02*
X1298448Y2369058D01*
X1295400Y2356866D02*
Y2366010D01*
X1288288Y2349754D02*
X1295400Y2356866D01*
X1245046Y2349754D02*
X1288288D01*
X1234800Y2360000D02*
X1245046Y2349754D01*
X1311000Y2385400D02*
X1328694Y2403094D01*
X1438910D01*
X1995045Y1846959D01*
Y1587121D02*
Y1846959D01*
X1991360Y1583436D02*
X1995045Y1587121D01*
X1988146Y1583436D02*
X1991360D01*
X1336400Y2360000D02*
X1345458Y2369058D01*
X1453642D01*
X1933702Y1888998D01*
X1412600Y2360000D02*
X1452880Y2319720D01*
Y2264918D02*
Y2319720D01*
Y2264918D02*
X1993045Y1724753D01*
Y1591217D02*
Y1724753D01*
X1990732Y1588904D02*
X1993045Y1591217D01*
X1878076Y1530096D02*
X1884426Y1523746D01*
X1878076Y1530096D02*
Y1558798D01*
X1886656Y1567378D01*
Y1574292D01*
X1884680Y1576268D02*
X1886656Y1574292D01*
X1884680Y1576268D02*
Y1597152D01*
X1883664Y1598168D02*
X1884680Y1597152D01*
X1871472Y1598168D02*
X1883664D01*
X1869098Y1595794D02*
X1871472Y1598168D01*
X1869098Y1590460D02*
Y1595794D01*
X1865122Y1586484D02*
X1869098Y1590460D01*
X1852478Y1554734D02*
X1856486D01*
X1859280Y1590548D02*
X1860550Y1589278D01*
X1717294Y1494028D02*
X1751076D01*
X1697736Y1513586D02*
X1717294Y1494028D01*
X1677924Y1513586D02*
X1697736D01*
X1668272Y1523238D02*
X1677924Y1513586D01*
X1628394Y1523238D02*
X1668272D01*
X1578356Y1473200D02*
X1628394Y1523238D01*
X1292606Y1473200D02*
X1578356D01*
X998728Y1767078D02*
X1292606Y1473200D01*
X998728Y1767078D02*
Y1806194D01*
X943610Y1861312D02*
X998728Y1806194D01*
X943610Y1861312D02*
Y2102358D01*
X920750Y2125218D02*
X943610Y2102358D01*
X920750Y2125218D02*
Y2259584D01*
X925068Y2263902D01*
X961390D01*
X971550Y2274062D01*
Y2296150D01*
X980800Y2305400D01*
X1694434Y1517142D02*
X1776476D01*
X1659128Y1552448D02*
X1694434Y1517142D01*
X1650492Y1552448D02*
X1659128D01*
X1598930Y1500886D02*
X1650492Y1552448D01*
X1306830Y1500886D02*
X1598930D01*
X1064514Y1743202D02*
X1306830Y1500886D01*
X1064514Y1743202D02*
Y1937766D01*
X1068832Y1942084D01*
X1093216D01*
X1100836Y1934464D01*
X1121410D01*
X1123442Y1936496D01*
Y1948180D01*
X1120394Y1951228D02*
X1123442Y1948180D01*
X1120394Y1951228D02*
Y1974088D01*
X992124Y2102358D02*
X1120394Y1974088D01*
X992124Y2102358D02*
Y2265924D01*
X1006200Y2280000D01*
X1022350Y2296150D02*
X1031600Y2305400D01*
X1022350Y2199894D02*
Y2296150D01*
Y2199894D02*
X1247648Y1974596D01*
X1251712D01*
X1282453Y1943855D01*
Y1907025D02*
Y1943855D01*
Y1907025D02*
X1288288Y1901190D01*
X1365250D01*
X1371600Y1894840D01*
Y1859788D02*
Y1894840D01*
Y1859788D02*
X1381760Y1849628D01*
X1453134D01*
X1612296Y1690466D01*
X1618111D01*
X1685511Y1623067D01*
Y1617121D02*
Y1623067D01*
Y1617121D02*
X1705206Y1597425D01*
X1739151D01*
X1745686Y1590890D01*
X1761368D01*
X1765257Y1587000D01*
X1794502D02*
X1797050Y1584452D01*
X1048000Y2296400D02*
X1057000Y2305400D01*
X1048000Y2271000D02*
Y2296400D01*
Y2271000D02*
X1056386Y2262614D01*
Y2178050D02*
Y2262614D01*
Y2178050D02*
X1314196Y1920240D01*
X1390945D01*
X1393600Y1917584D01*
Y1906016D02*
Y1917584D01*
X1389536Y1901952D02*
X1393600Y1906016D01*
X1381252Y1901952D02*
X1389536D01*
X1375600Y1896300D02*
X1381252Y1901952D01*
X1375600Y1880424D02*
Y1896300D01*
Y1880424D02*
X1384044Y1871980D01*
X1450086D01*
X1684566Y1637500D01*
Y1630500D02*
Y1637500D01*
Y1630500D02*
X1688704Y1626362D01*
X1711960D01*
X1734368Y1625346D02*
X1753385Y1606329D01*
X1755361D01*
X1082400Y2280000D02*
X1104086Y2258314D01*
X1211072D01*
X1215644Y2253742D01*
Y2214880D02*
Y2253742D01*
Y2214880D02*
X1221486Y2209038D01*
X1235456D01*
X1248664Y2195830D01*
Y2186432D02*
Y2195830D01*
Y2186432D02*
X1255014Y2180082D01*
X1426718D01*
X1840230Y1766570D01*
X1889760D01*
X1786564Y1583000D02*
X1788922Y1580642D01*
X1758739Y1586858D02*
X1762597Y1583000D01*
X1741074Y1586858D02*
X1758739D01*
X1734507Y1593425D02*
X1741074Y1586858D01*
X1697907Y1593425D02*
X1734507D01*
X1658056Y1633276D02*
X1697907Y1593425D01*
X1658056Y1633276D02*
Y1640840D01*
X1656842Y1642054D02*
X1658056Y1640840D01*
X1653342Y1642054D02*
X1656842D01*
X1476756Y1818640D02*
X1653342Y1642054D01*
X1377188Y1818640D02*
X1476756D01*
X1367941Y1827887D02*
X1377188Y1818640D01*
X1367941Y1827887D02*
Y1869797D01*
X1361440Y1876298D02*
X1367941Y1869797D01*
X1271524Y1876298D02*
X1361440D01*
X1263142Y1884680D02*
X1271524Y1876298D01*
X1263142Y1884680D02*
Y1945894D01*
X1420368Y1932432D02*
X1500752D01*
X1780938Y1702562D02*
X1785112Y1698388D01*
X1730141Y1679282D02*
X1760308D01*
X1511027Y1898396D02*
X1730141Y1679282D01*
X1384554Y1898396D02*
X1511027D01*
X1975612Y1570482D02*
Y1631866D01*
X1961155Y1646322D02*
X1975612Y1631866D01*
X1961155Y1646322D02*
Y1650368D01*
X1921025Y1690498D02*
X1961155Y1650368D01*
X1101235Y1890014D02*
X1103884D01*
X1097679Y1893570D02*
X1101235Y1890014D01*
X1090168Y1893570D02*
X1097679D01*
X1082294Y1885696D02*
X1090168Y1893570D01*
X1082294Y1797304D02*
Y1885696D01*
Y1797304D02*
X1282446Y1597152D01*
X1333648D01*
X1350000Y1580800D01*
X1336442Y1873758D02*
X1350000Y1860200D01*
X1261872Y1873758D02*
X1336442D01*
X1213612Y1922018D02*
X1261872Y1873758D01*
X1176018Y1922018D02*
X1213612D01*
X1398270Y1617930D02*
X1410000Y1606200D01*
X1398270Y1617930D02*
Y1638046D01*
X1395476Y1640840D02*
X1398270Y1638046D01*
X1373632Y1640840D02*
X1395476D01*
X1369060Y1645412D02*
X1373632Y1640840D01*
X1369060Y1645412D02*
Y1690624D01*
X1361440Y1698244D02*
X1369060Y1690624D01*
X1258316Y1698244D02*
X1361440D01*
X1116330Y1840230D02*
X1258316Y1698244D01*
X1116330Y1840230D02*
Y1890776D01*
X1113536Y1893570D02*
X1116330Y1890776D01*
X1102614Y1893570D02*
X1113536D01*
X1100328Y1895856D02*
X1102614Y1893570D01*
X1100328Y1895856D02*
Y1918888D01*
X1093966Y1925250D02*
X1100328Y1918888D01*
X1081520Y1925250D02*
X1093966D01*
X1128014Y1889987D02*
Y1895856D01*
X1133856Y1901698D01*
X1192545D01*
X1319243Y1775000D01*
X1356662D01*
X1378458Y1796796D01*
X1414526D01*
X1419098Y1792224D01*
Y1767698D02*
Y1792224D01*
X1410000Y1758600D02*
X1419098Y1767698D01*
X1108329Y1878330D02*
X1112012Y1882012D01*
X1103122Y1878330D02*
X1108329D01*
X1098296Y1873504D02*
X1103122Y1878330D01*
X1098296Y1817370D02*
Y1873504D01*
Y1817370D02*
X1293114Y1622552D01*
X1361694D01*
X1371346Y1612900D01*
Y1572768D02*
Y1612900D01*
Y1572768D02*
X1375918Y1568196D01*
X1431804D01*
X1470000Y1530000D01*
X1164082Y1878298D02*
X1167892Y1882108D01*
X1164082Y1852422D02*
Y1878298D01*
X960000Y2032400D02*
X1042442Y1949958D01*
X1100042D01*
X1104106Y1945894D01*
X1101852Y1954116D02*
X1103884Y1956148D01*
X1063684Y1954116D02*
X1101852D01*
X960000Y2057800D02*
X1063684Y1954116D01*
X1155700Y1933702D02*
X1159701Y1929701D01*
X1150112Y1933702D02*
X1155700D01*
X1148080Y1935734D02*
X1150112Y1933702D01*
X1148080Y1935734D02*
Y2058120D01*
X1006200Y2200000D02*
X1148080Y2058120D01*
X1788922Y1561338D02*
X1792986Y1565402D01*
X1760630Y1561338D02*
X1788922D01*
X1748448Y1573520D02*
X1760630Y1561338D01*
X1737359Y1573520D02*
X1748448D01*
X1726935Y1583944D02*
X1737359Y1573520D01*
X1652524Y1583944D02*
X1726935D01*
X1200000Y2200000D02*
X1224490Y2175510D01*
X1428312D01*
X1848428Y1755394D01*
X1190752Y2216152D02*
X1200000Y2225400D01*
X1190752Y2164588D02*
Y2216152D01*
Y2164588D02*
X1211834Y2143506D01*
X1319276D01*
X1457960Y2004822D01*
X1574038D01*
X1786178Y1792682D01*
X1805736D01*
X1858888Y1739530D01*
X1883410D01*
X1884564Y1738376D01*
Y1709408D02*
Y1738376D01*
Y1709408D02*
X1888236Y1705736D01*
X1225400Y2225400D02*
X1238206Y2212594D01*
X1403604D01*
X1796034Y1820164D01*
X1855216D01*
X1902626Y1772754D01*
Y1749062D02*
Y1772754D01*
X1900682Y1747118D02*
X1902626Y1749062D01*
X1900682Y1726692D02*
Y1747118D01*
Y1726692D02*
X1904937Y1722437D01*
X1224400Y1298400D02*
X1239400Y1283400D01*
X1383854D01*
X1386332Y1280922D01*
Y1266190D02*
Y1280922D01*
X1249800Y1298400D02*
X1262800Y1285400D01*
X1385960D01*
X1391200Y1280160D01*
Y1262000D02*
Y1280160D01*
Y1262000D02*
X1458638Y1194562D01*
X1517904D01*
X1275200Y1298400D02*
X1286200Y1287400D01*
X1390024D01*
X1393200Y1284224D01*
Y1268816D02*
Y1284224D01*
Y1268816D02*
X1398016Y1264000D01*
X1508664D01*
X1578102Y1194562D01*
X1326000Y1298400D02*
X1335000Y1289400D01*
X1516030D01*
X1525270Y1280160D01*
Y1251204D02*
Y1280160D01*
Y1251204D02*
X1532128Y1244346D01*
X1646174D01*
X1696020Y1194500D01*
X1351400Y1298400D02*
X1360592Y1307592D01*
X1519936D01*
X1528064Y1299464D01*
Y1293368D02*
Y1299464D01*
Y1293368D02*
X1532128Y1289304D01*
X1623822D01*
X1627632Y1285494D01*
Y1267968D02*
Y1285494D01*
Y1267968D02*
X1631696Y1263904D01*
X1681926D01*
X1751330Y1194500D01*
X765564Y2350008D02*
X872800D01*
X777212Y1589024D02*
X827250Y1538986D01*
X703476Y1589024D02*
X777212D01*
X636200Y1656300D02*
X703476Y1589024D01*
X802132Y1578356D02*
X820750D01*
X696488Y1684000D02*
X802132Y1578356D01*
X636200Y1684000D02*
X696488D01*
X727850Y1697850D02*
X794766Y1630934D01*
X607800Y1697850D02*
X727850D01*
X1444244Y2197608D02*
Y2289048D01*
X1785366Y1856486D02*
X1854078D01*
X1787433Y1851152D02*
X1847088D01*
X1799601Y1836155D02*
X1850147D01*
X1805905Y1827022D02*
X1856232D01*
X1444244Y2197608D02*
X1785366Y1856486D01*
X1396238Y2242346D02*
X1787433Y1851152D01*
X1362930Y2269998D02*
X1805905Y1827022D01*
X1374648Y2261108D02*
X1799601Y1836155D01*
X1948000Y1484122D02*
X1948500Y1484622D01*
Y1633625D01*
X1928038Y1654087D02*
X1948500Y1633625D01*
X1943000Y1491000D02*
Y1496053D01*
X1946290Y1499343D01*
Y1623710D01*
X1909250Y1660750D02*
X1946290Y1623710D01*
X1908842Y1656500D02*
X1943266Y1622076D01*
X1906072Y1654500D02*
X1939544Y1621028D01*
X1922059Y1671250D02*
X1928038Y1665270D01*
X1807300Y1671250D02*
X1807538Y1671012D01*
X1815300Y1671250D02*
X1815550Y1671000D01*
X1823300Y1671250D02*
X1823550Y1671000D01*
X1826449D01*
X1826699Y1671250D01*
X1839300D01*
X1839550Y1671000D01*
X1842449D01*
X1842699Y1671250D01*
X1847300D01*
X1847550Y1671000D01*
X1850449D01*
X1850699Y1671250D01*
X1855416D01*
X1855544Y1671122D01*
X1858444D01*
X1858572Y1671250D01*
X1863300D01*
X1863550Y1671000D01*
X1866450D01*
X1866700Y1671250D01*
X1871418D01*
X1871546Y1671122D01*
X1874446D01*
X1874574Y1671250D01*
X1879300D01*
X1879550Y1671000D01*
X1882450D01*
X1882700Y1671250D01*
X1887420D01*
X1887548Y1671122D01*
X1890448D01*
X1890576Y1671250D01*
X1895300D01*
X1895550Y1671000D01*
X1898450D01*
X1898700Y1671250D01*
X1907486D01*
X1907614Y1671122D01*
X1910514D01*
X1910642Y1671250D01*
X1922059D01*
X1777250Y1666482D02*
X1789732Y1654000D01*
X1773500Y1653984D02*
X1776992Y1650492D01*
X1762432Y1670248D02*
Y1678432D01*
Y1670248D02*
X1763720Y1668960D01*
Y1663780D02*
Y1668960D01*
Y1663780D02*
X1773500Y1654000D01*
X1775800Y1670250D02*
X1776750D01*
X1773500Y1667950D02*
X1775800Y1670250D01*
X1773500Y1658933D02*
X1780492Y1651942D01*
X1604518Y1749552D02*
X1709070Y1645000D01*
X1793450D02*
X1795386Y1646936D01*
X1717390Y1638554D02*
X1721837Y1643000D01*
X1711960Y1626362D02*
X1726598Y1641000D01*
X1721837Y1643000D02*
X1749180D01*
X1749880Y1643700D01*
X1752780D01*
X1748351Y1645000D02*
X1749052Y1645700D01*
X1753608D01*
X1754309Y1645000D01*
X1758414D02*
X1759278Y1645864D01*
X1762178D01*
X1763042Y1645000D01*
X1766542D01*
X1767660Y1646118D01*
X1770560D01*
X1771678Y1645000D01*
X1774550D01*
X1775550Y1646000D01*
X1778450D01*
X1779450Y1645000D01*
X1782550D01*
X1783550Y1646000D01*
X1786450D01*
X1787450Y1645000D01*
X1793450D01*
X1709070D02*
X1748351D01*
X1754309D02*
X1758414D01*
X1752780Y1643700D02*
X1757926Y1638554D01*
X1726598Y1641000D02*
X1727672D01*
X1734368Y1634304D01*
Y1625346D02*
Y1634304D01*
X1757926Y1638554D02*
X1806194D01*
X1763168Y1565204D02*
X1784548D01*
X1762760Y1598930D02*
X1805432D01*
X1767840Y1606042D02*
X1775592D01*
X1776050Y1606500D01*
X1778950D01*
X1766538Y1614004D02*
X1780557D01*
X1762597Y1583000D02*
X1786564D01*
X1764337Y1585000D02*
X1791478D01*
X1765257Y1587000D02*
X1794502D01*
X1766086Y1589000D02*
X1811500D01*
X1767134Y1591000D02*
X1805376D01*
X1783808Y1651942D02*
X1785250Y1650500D01*
X1780492Y1651942D02*
X1783808D01*
X1776750Y1670250D02*
X1777000Y1670000D01*
X1773500Y1658933D02*
Y1667950D01*
X1821942Y1362710D02*
X2007616D01*
X1808734Y1468120D02*
X1895924D01*
X1996000Y1368044D01*
X1942750Y1501000D02*
X1943266Y1501516D01*
Y1572334D01*
X1943250Y1572351D02*
X1943266Y1572334D01*
X1943250Y1572351D02*
Y1622000D01*
X1808750Y1666750D02*
X1814750Y1660750D01*
X1777000Y1670000D02*
X1786449D01*
X1788500Y1667950D01*
X1799300Y1671250D02*
X1799550Y1671000D01*
X1802450D01*
X1802700Y1671250D01*
X1807300D01*
X1804500Y1687152D02*
Y1698668D01*
X1800352Y1702816D02*
X1804500Y1698668D01*
X1762432Y1678432D02*
X1834642D01*
X1799844Y1682496D02*
X1804500Y1687152D01*
X1785112Y1674622D02*
X1788612Y1671122D01*
X1788500Y1666050D02*
Y1667950D01*
X1815550Y1671000D02*
X1818449D01*
X1807538Y1671012D02*
X1810438D01*
X1810676Y1671250D02*
X1815300D01*
X1810438Y1671012D02*
X1810676Y1671250D01*
X1818699D02*
X1823300D01*
X1818449Y1671000D02*
X1818699Y1671250D01*
X1788500Y1666050D02*
X1798050Y1656500D01*
X1794564Y1671250D02*
X1799300D01*
X1794436Y1671122D02*
X1794564Y1671250D01*
X1788612Y1671122D02*
X1794436D01*
X1841892Y1638808D02*
X1877060D01*
X1795386Y1646936D02*
X1810512D01*
X1812544Y1644904D01*
Y1640840D02*
Y1644904D01*
X1789732Y1654000D02*
X1817654D01*
X1818154Y1654500D01*
X1806194Y1638554D02*
X1817248Y1627500D01*
X1814750Y1660750D02*
X1909250D01*
X1818154Y1654500D02*
X1906072D01*
X1798050Y1656500D02*
X1908842D01*
X1942282Y1653968D02*
Y1661478D01*
Y1653968D02*
X1964436Y1631814D01*
Y1509014D02*
Y1631814D01*
X1855216Y1614170D02*
X1898650D01*
X1847652Y1559560D02*
Y1569522D01*
Y1559560D02*
X1852478Y1554734D01*
X1853184Y1592580D02*
X1855216Y1590548D01*
X1859280D01*
X1836586Y1566076D02*
X1856994Y1586484D01*
X1780977Y1614424D02*
X1836928D01*
X1909454Y1618996D02*
X1933956D01*
X1898200Y1630250D02*
X1909454Y1618996D01*
X1869000Y1630250D02*
X1898200D01*
X1864500Y1634750D02*
X1869000Y1630250D01*
X1773122Y1622500D02*
X1898448D01*
D41*
X1384600Y1936400D02*
D03*
Y1911000D02*
D03*
Y1885600D02*
D03*
Y1834800D02*
D03*
X1410000Y1784000D02*
D03*
Y1758600D02*
D03*
X1384600Y1733200D02*
D03*
X1410000D02*
D03*
X1384600Y1707800D02*
D03*
Y1682400D02*
D03*
X1410000Y1631600D02*
D03*
Y1606200D02*
D03*
Y1555400D02*
D03*
X1384600Y1530000D02*
D03*
X1351400Y1298400D02*
D03*
X1326000D02*
D03*
X1275200D02*
D03*
X1249800D02*
D03*
X1224400D02*
D03*
X1199000D02*
D03*
X1173600D02*
D03*
X1148200D02*
D03*
X1640400D02*
D03*
X1324600Y2012600D02*
D03*
Y1987200D02*
D03*
Y1961800D02*
D03*
Y1936400D02*
D03*
X1350000Y1860200D02*
D03*
Y1834800D02*
D03*
Y1784000D02*
D03*
Y1657000D02*
D03*
Y1631600D02*
D03*
Y1606200D02*
D03*
Y1580800D02*
D03*
Y1555400D02*
D03*
X1412600Y2360000D02*
D03*
X1361800D02*
D03*
X1336400D02*
D03*
X1311000Y2385400D02*
D03*
Y2360000D02*
D03*
X1285600D02*
D03*
X1234800D02*
D03*
X1006200D02*
D03*
X955400D02*
D03*
X1107800Y2305400D02*
D03*
X1082400Y2280000D02*
D03*
X1057000Y2305400D02*
D03*
X1031600D02*
D03*
X1006200Y2280000D02*
D03*
X980800Y2305400D02*
D03*
X1006200Y2200000D02*
D03*
X1225400Y2225400D02*
D03*
X1200000D02*
D03*
X960000Y2083200D02*
D03*
Y2057800D02*
D03*
X934600Y2032400D02*
D03*
X960000D02*
D03*
X602000Y1410000D02*
D03*
Y1430000D02*
D03*
X642000Y1370000D02*
D03*
X622000D02*
D03*
D43*
X930000Y2360000D02*
D03*
Y2200000D02*
D03*
X1200000D02*
D03*
X1470000Y1530000D02*
D03*
D46*
X636200Y1656300D02*
D03*
Y1684000D02*
D03*
X607800Y1697850D02*
D03*
D50*
X664000Y1420000D02*
D03*
D51*
X602000D02*
D03*
D52*
X632000Y1370000D02*
D03*
D53*
X664000Y1432500D02*
D03*
Y1407500D02*
D03*
D54*
X1781500Y1512250D02*
D03*
X1413250Y1378500D02*
D03*
X1734500Y1431000D02*
D03*
X1421000Y1932250D02*
D03*
X1653250Y1584000D02*
D03*
X1742000Y1565000D02*
D03*
X1840090Y1635330D02*
D03*
X1848500Y1706000D02*
D03*
X1880870Y1642618D02*
D03*
X1865000Y1674500D02*
D03*
X1865122Y1650492D02*
D03*
Y1586484D02*
D03*
X1849000Y1722500D02*
D03*
X1785000Y1706500D02*
D03*
X1817000D02*
D03*
X1769000Y1690500D02*
D03*
X1833000Y1682500D02*
D03*
Y1642500D02*
D03*
X1817000Y1594500D02*
D03*
X1933750Y1792500D02*
D03*
X1988000Y1583000D02*
D03*
X1889760Y1766570D02*
D03*
X1387250Y1265500D02*
D03*
X1375726Y1194500D02*
D03*
X1277874Y1197102D02*
D03*
X1331406Y1201166D02*
D03*
X872800Y2104644D02*
D03*
X816102Y2193790D02*
D03*
X1167892Y1922018D02*
D03*
X739140Y2230374D02*
D03*
X1845310Y1181354D02*
D03*
X1103884Y1865884D02*
D03*
X1104012Y1874012D02*
D03*
X1096010Y1957832D02*
D03*
X1176020Y1938020D02*
D03*
X1135888Y1890113D02*
D03*
X1103884Y1881886D02*
D03*
X1089152Y1883918D02*
D03*
X1112012Y1922018D02*
D03*
X1135886Y1881886D02*
D03*
X1750060Y1727200D02*
D03*
X1800998Y1739624D02*
D03*
X1474978Y1908048D02*
D03*
X1080306Y1934000D02*
D03*
X1972056Y1657350D02*
D03*
X1372616Y1811020D02*
D03*
X1989545Y1620686D02*
D03*
X1917700Y1721612D02*
D03*
X1397254Y1769364D02*
D03*
X1808988Y1582425D02*
D03*
X1747774Y1690370D02*
D03*
X1979930Y1613154D02*
D03*
X1604518Y1749552D02*
D03*
X1808988Y1666494D02*
D03*
X1948000Y1484122D02*
D03*
X1802130Y1560576D02*
D03*
X1850136Y1545082D02*
D03*
X1996000Y1368044D02*
D03*
X1808734Y1468120D02*
D03*
X1978152Y1495298D02*
D03*
X1307084Y1799082D02*
D03*
X1128014Y1938020D02*
D03*
X1905762Y1634490D02*
D03*
X1872996Y1714500D02*
D03*
X1519936Y1986788D02*
D03*
X1933956Y1618996D02*
D03*
X1900682Y1931670D02*
D03*
X1769110Y1618488D02*
D03*
X1996000Y1454404D02*
D03*
X1112012Y1937988D02*
D03*
X1760982Y1618488D02*
D03*
X2004060Y1450848D02*
D03*
X1906270Y1583436D02*
D03*
X1776984Y1634490D02*
D03*
X1664970Y1519682D02*
D03*
X2011934Y1405250D02*
D03*
X1916000Y1381428D02*
D03*
X1924000Y1346046D02*
D03*
X1690116Y1560830D02*
D03*
X1595374Y1869694D02*
D03*
X1816998Y1730502D02*
D03*
X1835546Y1748018D02*
D03*
X1881000Y1594500D02*
D03*
X1500632Y1640586D02*
D03*
X1833118Y1584452D02*
D03*
X1808988Y1594612D02*
D03*
X1727200Y1636522D02*
D03*
X1824990Y1690624D02*
D03*
X1099820Y2167636D02*
D03*
X1888998Y1722374D02*
D03*
X1272540Y2199894D02*
D03*
X1884934Y1813306D02*
D03*
X1990732Y1588904D02*
D03*
X1884426Y1523746D02*
D03*
X1751076Y1494028D02*
D03*
X1797050Y1584452D02*
D03*
X1808988Y1602486D02*
D03*
X1788922Y1580642D02*
D03*
X1263142Y1945894D02*
D03*
X1785112Y1698388D02*
D03*
X1384554Y1898396D02*
D03*
X1975612Y1570482D02*
D03*
X1888998Y1690498D02*
D03*
X1103884Y1890014D02*
D03*
X1176018Y1922018D02*
D03*
X1081520Y1925250D02*
D03*
X1128014Y1889987D02*
D03*
X1112012Y1882012D02*
D03*
X1167892Y1882108D02*
D03*
X1164082Y1852422D02*
D03*
X1104106Y1945894D02*
D03*
X1103884Y1956148D02*
D03*
X1159701Y1929701D02*
D03*
X1792986Y1565402D02*
D03*
X1897126Y1755394D02*
D03*
X1888236Y1705736D02*
D03*
X1904937Y1722437D02*
D03*
X1517904Y1194562D02*
D03*
X1578102D02*
D03*
X1696020Y1194500D02*
D03*
X1751330D02*
D03*
X765564Y2350008D02*
D03*
X872800D02*
D03*
X827250Y1538986D02*
D03*
X820750Y1578356D02*
D03*
X794766Y1630934D02*
D03*
X1943000Y1491000D02*
D03*
X1781048Y1578356D02*
D03*
X1776992Y1650492D02*
D03*
X1785250Y1650500D02*
D03*
X1777000Y1666500D02*
D03*
X1956000Y1375156D02*
D03*
X1942750Y1501000D02*
D03*
X1785000Y1674500D02*
D03*
X1792986Y1690624D02*
D03*
X1799844Y1682496D02*
D03*
X1818089Y1627579D02*
D03*
X1856486Y1554734D02*
D03*
X1856994Y1586484D02*
D03*
X1849000Y1586500D02*
D03*
X1840992Y1602486D02*
D03*
X1865000Y1634500D02*
D03*
M02*
