%FSLAX44Y44*%
%MOMM*%
G71*
G01*
G75*
G04 Layer_Physical_Order=8*
G04 Layer_Color=16711680*
%ADD10R,2.5000X1.2600*%
%ADD11R,2.5000X1.0000*%
%ADD12R,1.3000X1.3000*%
%ADD13R,2.6000X0.9500*%
%ADD14R,1.0000X1.0000*%
G04:AMPARAMS|DCode=15|XSize=1.8mm|YSize=2mm|CornerRadius=0mm|HoleSize=0mm|Usage=FLASHONLY|Rotation=180.000|XOffset=0mm|YOffset=0mm|HoleType=Round|Shape=Octagon|*
%AMOCTAGOND15*
4,1,8,0.4500,-1.0000,-0.4500,-1.0000,-0.9000,-0.5500,-0.9000,0.5500,-0.4500,1.0000,0.4500,1.0000,0.9000,0.5500,0.9000,-0.5500,0.4500,-1.0000,0.0*
%
%ADD15OCTAGOND15*%

%ADD16R,1.8000X2.0000*%
%ADD17O,0.4500X1.8000*%
%ADD18R,1.8000X1.1500*%
%ADD19R,0.9500X1.7000*%
%ADD20R,0.8000X0.8000*%
%ADD21R,1.3500X2.8000*%
%ADD22R,1.2000X2.6000*%
%ADD23R,0.7000X1.8000*%
%ADD24R,0.9500X2.6000*%
%ADD25C,0.3500*%
%ADD26R,1.3500X1.9000*%
%ADD27R,1.4000X2.1000*%
G04:AMPARAMS|DCode=28|XSize=1.5mm|YSize=0.35mm|CornerRadius=0.035mm|HoleSize=0mm|Usage=FLASHONLY|Rotation=0.000|XOffset=0mm|YOffset=0mm|HoleType=Round|Shape=RoundedRectangle|*
%AMROUNDEDRECTD28*
21,1,1.5000,0.2800,0,0,0.0*
21,1,1.4300,0.3500,0,0,0.0*
1,1,0.0700,0.7150,-0.1400*
1,1,0.0700,-0.7150,-0.1400*
1,1,0.0700,-0.7150,0.1400*
1,1,0.0700,0.7150,0.1400*
%
%ADD28ROUNDEDRECTD28*%
G04:AMPARAMS|DCode=29|XSize=1.5mm|YSize=1.2mm|CornerRadius=0.12mm|HoleSize=0mm|Usage=FLASHONLY|Rotation=0.000|XOffset=0mm|YOffset=0mm|HoleType=Round|Shape=RoundedRectangle|*
%AMROUNDEDRECTD29*
21,1,1.5000,0.9600,0,0,0.0*
21,1,1.2600,1.2000,0,0,0.0*
1,1,0.2400,0.6300,-0.4800*
1,1,0.2400,-0.6300,-0.4800*
1,1,0.2400,-0.6300,0.4800*
1,1,0.2400,0.6300,0.4800*
%
%ADD29ROUNDEDRECTD29*%
%ADD30R,0.8500X0.7000*%
%ADD31R,1.1176X0.6096*%
%ADD32R,1.1000X0.6000*%
%ADD33R,1.3000X2.2000*%
%ADD34O,0.5500X1.6000*%
%ADD35R,2.2000X1.2000*%
%ADD36R,2.0000X1.0000*%
%ADD37R,1.9000X1.3500*%
%ADD38C,0.3600*%
%ADD39C,0.1000*%
%ADD40C,0.2540*%
%ADD41C,1.5000*%
%ADD42C,1.5000*%
%ADD43O,4.0000X2.0000*%
%ADD44O,2.0000X4.0000*%
%ADD45O,2.0000X4.5000*%
%ADD46C,1.6000*%
%ADD47R,1.6000X1.6000*%
%ADD48R,1.5000X1.5000*%
G04:AMPARAMS|DCode=49|XSize=2.4mm|YSize=1.6mm|CornerRadius=0.4mm|HoleSize=0mm|Usage=FLASHONLY|Rotation=0.000|XOffset=0mm|YOffset=0mm|HoleType=Round|Shape=RoundedRectangle|*
%AMROUNDEDRECTD49*
21,1,2.4000,0.8000,0,0,0.0*
21,1,1.6000,1.6000,0,0,0.0*
1,1,0.8000,0.8000,-0.4000*
1,1,0.8000,-0.8000,-0.4000*
1,1,0.8000,-0.8000,0.4000*
1,1,0.8000,0.8000,0.4000*
%
%ADD49ROUNDEDRECTD49*%
%ADD50C,1.6900*%
%ADD51R,1.6900X1.6900*%
%ADD52C,4.7600*%
%ADD53R,1.5000X1.5000*%
%ADD54C,0.4000*%
%ADD55C,0.6000*%
%ADD56C,1.0160*%
%ADD57C,1.5080*%
%ADD58C,1.5080*%
%ADD59C,1.4080*%
%ADD60O,2.0080X1.3080*%
%ADD61C,1.5980*%
%ADD62C,3.7680*%
%ADD63C,0.7080*%
D13*
X1630000Y1516000D02*
D03*
Y1544000D02*
D03*
X1690000Y1516000D02*
D03*
Y1544000D02*
D03*
X1750000Y1516000D02*
D03*
Y1544001D02*
D03*
X1810000Y1516000D02*
D03*
Y1544001D02*
D03*
X1870000Y1516000D02*
D03*
Y1544000D02*
D03*
X1680000Y1794001D02*
D03*
Y1766000D02*
D03*
X1740000Y1794000D02*
D03*
Y1766000D02*
D03*
X1800000Y1794000D02*
D03*
Y1766000D02*
D03*
X1870000Y1794001D02*
D03*
Y1766000D02*
D03*
D24*
X1536000Y1650000D02*
D03*
X1564000D02*
D03*
X1536000Y1530000D02*
D03*
X1564000D02*
D03*
X1536000Y1590000D02*
D03*
X1564000D02*
D03*
X1536000Y1710000D02*
D03*
X1564000D02*
D03*
X1586000Y1770000D02*
D03*
X1614000D02*
D03*
X1616000Y1710000D02*
D03*
X1644000D02*
D03*
X1616000Y1650000D02*
D03*
X1644000D02*
D03*
X1616000Y1590000D02*
D03*
X1644000D02*
D03*
X1686000Y1710000D02*
D03*
X1714000D02*
D03*
X1016000Y1860000D02*
D03*
X1044000D02*
D03*
X1016000Y1920000D02*
D03*
X1044000D02*
D03*
X1016000Y1980000D02*
D03*
X1044000D02*
D03*
X1086000D02*
D03*
X1114000D02*
D03*
X1156000D02*
D03*
X1184000D02*
D03*
X1156000Y2040000D02*
D03*
X1184000D02*
D03*
X1156000Y2100000D02*
D03*
X1184000D02*
D03*
X1226000D02*
D03*
X1254000D02*
D03*
X1226000Y2040000D02*
D03*
X1254000D02*
D03*
X1226000Y1980000D02*
D03*
X1254000D02*
D03*
X1226000Y1920000D02*
D03*
X1254000D02*
D03*
X1226000Y1860000D02*
D03*
X1254000D02*
D03*
X1196000Y1800000D02*
D03*
X1224000D02*
D03*
X1046000D02*
D03*
X1074000D02*
D03*
X1126000D02*
D03*
X1154000D02*
D03*
X1394000Y1410000D02*
D03*
X1366000D02*
D03*
X1464000D02*
D03*
X1436000D02*
D03*
X1544001D02*
D03*
X1516000D02*
D03*
X1644000D02*
D03*
X1616000D02*
D03*
X1714000D02*
D03*
X1686000D02*
D03*
X1784000D02*
D03*
X1756000D02*
D03*
X1884000D02*
D03*
X1856000D02*
D03*
X1954000D02*
D03*
X1926000D02*
D03*
X2024000D02*
D03*
X1996000D02*
D03*
X1686000Y1650000D02*
D03*
X1714000D02*
D03*
X1686000Y1590000D02*
D03*
X1714000D02*
D03*
X1926000Y1500000D02*
D03*
X1954000D02*
D03*
X1926000Y1810000D02*
D03*
X1954000D02*
D03*
X1926000Y1740000D02*
D03*
X1954000D02*
D03*
X1926000Y1680000D02*
D03*
X1954000D02*
D03*
X1926000Y1620000D02*
D03*
X1954000D02*
D03*
X1926000Y1560000D02*
D03*
X1954000D02*
D03*
D39*
X1826000Y1556000D02*
X1827562Y1557562D01*
Y1583846D01*
X1831458Y1587741D01*
X1845500Y1627950D02*
X1847550Y1630000D01*
X1849580D01*
X1853500Y1633920D01*
Y1635950D01*
X1857000Y1639450D01*
Y1642500D01*
X1850136Y1622044D02*
X1853438Y1625346D01*
X1850262Y1621988D02*
X1850570D01*
X1841464Y1598008D02*
X1845620Y1602164D01*
X1839542Y1598008D02*
X1841464D01*
X1837492Y1595958D02*
X1839542Y1598008D01*
X1837492Y1592758D02*
Y1595958D01*
X1833435Y1605986D02*
X1840992Y1613543D01*
X1823540Y1605986D02*
X1833435D01*
X1833458Y1599901D02*
X1839542Y1605986D01*
X1833458Y1595958D02*
Y1599901D01*
X1821490Y1603936D02*
X1823540Y1605986D01*
X1833458Y1595958D02*
X1833500Y1595915D01*
Y1584834D02*
Y1595915D01*
X1833118Y1584452D02*
X1833500Y1584834D01*
X1829562Y1575946D02*
X1836618Y1583002D01*
X1829562Y1554480D02*
Y1575946D01*
X1844548Y1577970D02*
Y1590952D01*
X1840230Y1573652D02*
X1844548Y1577970D01*
X1840230Y1547622D02*
Y1573652D01*
X1840992Y1577242D02*
Y1586508D01*
X1833239Y1569489D02*
X1840992Y1577242D01*
X1833239Y1545965D02*
Y1569489D01*
X1852676Y1646676D02*
X1856500Y1650500D01*
X1852676Y1638750D02*
Y1646676D01*
X1848430Y1638750D02*
X1852676D01*
X1845620Y1635940D02*
X1848430Y1638750D01*
X1845620Y1633250D02*
Y1635940D01*
X1843360Y1630990D02*
X1845620Y1633250D01*
X1839490Y1630990D02*
X1843360D01*
X1838995Y1630495D02*
X1839490Y1630990D01*
X1838995Y1622079D02*
Y1630495D01*
X1806614Y1622594D02*
X1835714D01*
X1833000Y1625250D02*
X1835500Y1622750D01*
X1833000Y1625250D02*
Y1626500D01*
X1902714Y1580986D02*
X1905000Y1578700D01*
X1902714Y1573514D02*
X1905000Y1575800D01*
X1902714Y1544828D02*
Y1573514D01*
Y1580986D02*
Y1631442D01*
X1905000Y1575800D02*
Y1578700D01*
X1895348Y1537462D02*
X1902714Y1544828D01*
X1837436Y1619932D02*
Y1620520D01*
Y1619932D02*
X1837590Y1619779D01*
Y1616879D02*
Y1619779D01*
X1806448Y1614678D02*
X1835388D01*
X1856994Y1602506D02*
X1860570Y1598930D01*
X1837436Y1620520D02*
X1838995Y1622079D01*
X1835388Y1614678D02*
X1837590Y1616879D01*
X1849120Y1602486D02*
X1852676Y1598930D01*
Y1583182D02*
Y1598930D01*
X1842593Y1573099D02*
X1852676Y1583182D01*
X1858066Y1563426D02*
X1862892D01*
X1844802Y1550162D02*
X1858066Y1563426D01*
X1869500Y1612163D02*
X1872996Y1615660D01*
X1869500Y1601051D02*
Y1612163D01*
X1868932Y1614424D02*
Y1628866D01*
X1865122Y1610614D02*
X1868932Y1614424D01*
X1870066Y1630000D02*
X1873642D01*
X1892554Y1576070D02*
Y1644904D01*
X1870000Y1553516D02*
X1892554Y1576070D01*
X1891284Y1646174D02*
X1892554Y1644904D01*
X1841083Y1618579D02*
X1841090D01*
X1840992Y1618488D02*
X1841083Y1618579D01*
X1814932Y1660500D02*
X1884435D01*
X1788778Y1662500D02*
X1882972D01*
X1801000Y1627010D02*
X1813306Y1639316D01*
X1805051Y1628233D02*
X1815627Y1638808D01*
X1813306Y1639316D02*
Y1658874D01*
X1841412Y1656500D02*
X1882778D01*
X1839348Y1658500D02*
X1883607D01*
X1791716Y1670558D02*
X1858772D01*
X1844802Y1678178D02*
X1849120Y1682496D01*
X1781048Y1678178D02*
X1844802D01*
X1775968Y1686306D02*
X1876806D01*
X1836928Y1652016D02*
X1841412Y1656500D01*
X1836928Y1640840D02*
Y1652016D01*
X1789430Y1668272D02*
X1791716Y1670558D01*
X1794699Y1695250D02*
X1823300D01*
X1786449Y1663000D02*
X1789430Y1665981D01*
X1784922Y1663000D02*
X1786449D01*
X1778764Y1656842D02*
X1784922Y1663000D01*
X1787278Y1661000D02*
X1788778Y1662500D01*
X1785750Y1661000D02*
X1787278D01*
X1780540Y1655790D02*
X1785750Y1661000D01*
X1794449Y1695000D02*
X1794699Y1695250D01*
X1791550Y1695000D02*
X1794449D01*
X1791300Y1695250D02*
X1791550Y1695000D01*
X1786924Y1695250D02*
X1791300D01*
X1780486Y1620964D02*
X1781000Y1620450D01*
X1780486Y1620964D02*
Y1635950D01*
X1780540Y1636004D02*
Y1655790D01*
X1780486Y1635950D02*
X1780540Y1636004D01*
X1844802Y1532752D02*
Y1550162D01*
X1844750Y1532700D02*
X1844802Y1532752D01*
X1844750Y1529800D02*
Y1532700D01*
Y1529800D02*
X1844802Y1529748D01*
Y1526540D02*
Y1529748D01*
X1842593Y1532128D02*
Y1573099D01*
X1837989Y1527524D02*
X1842593Y1532128D01*
X1836928Y1518666D02*
X1844802Y1526540D01*
X1780000Y1453896D02*
X1863566Y1537462D01*
X1895348D01*
X1973500Y1377000D02*
X1979000Y1371500D01*
X1959106Y1377000D02*
X1973500D01*
X1966000Y1390500D02*
X1977500Y1379000D01*
X1953629Y1390500D02*
X1966000D01*
X1957450Y1378656D02*
X1959106Y1377000D01*
X1954550Y1378656D02*
X1957450D01*
X1951972Y1376078D02*
X1954550Y1378656D01*
X1947672Y1376078D02*
X1951972D01*
X1772666Y1664208D02*
Y1683004D01*
X1770436Y1661978D02*
X1772666Y1664208D01*
X1754620Y1651750D02*
X1759712Y1656842D01*
X1754500Y1651750D02*
X1754620D01*
X1780540Y1586484D02*
Y1597914D01*
X1789430Y1665981D02*
Y1668272D01*
X1759712Y1656842D02*
X1778764D01*
X1938250Y1385500D02*
X1947672Y1376078D01*
X1938250Y1385500D02*
Y1496250D01*
X1943000Y1491000D02*
Y1491750D01*
Y1401129D02*
Y1491000D01*
Y1401129D02*
X1953629Y1390500D01*
X1836928Y1790446D02*
Y1825322D01*
X1399794Y2262456D02*
X1836928Y1825322D01*
X1399794Y2262456D02*
Y2389632D01*
X1738376Y1784096D02*
Y1794000D01*
X1735074Y1488440D02*
X1746504D01*
X1516000Y1397000D02*
X1521968D01*
X1954000Y1560068D02*
X1954022D01*
X1954000D02*
Y1620000D01*
Y1560000D02*
Y1560068D01*
X960000Y1702800D02*
X1028446Y1771246D01*
Y1820672D01*
X1071372Y1863598D01*
Y1897888D01*
X1075436Y1901952D01*
X1115984D01*
X1144016Y1929984D01*
X813846Y1589024D02*
X843534D01*
X847598Y1593088D01*
Y1691998D01*
X934600Y1779000D01*
X861568Y1680568D02*
X934600Y1753600D01*
X861568Y1578864D02*
Y1680568D01*
X857504Y1574800D02*
X861568Y1578864D01*
X801250Y1574800D02*
X857504D01*
X814250Y1568450D02*
X890778D01*
X895096Y1572768D01*
Y1688696D01*
X934600Y1728200D01*
X636200Y1628600D02*
X733400D01*
X934600Y1829800D01*
X765556Y2168390D02*
X841800Y2244634D01*
Y2251456D01*
X1863161Y1554551D02*
Y1560647D01*
X1884934Y1622552D02*
X1888941Y1626559D01*
X1428000Y1493520D02*
X1452892Y1518412D01*
X1495806D01*
X1547368Y1569974D01*
X1584960D01*
X1589786Y1574800D01*
Y1638046D01*
X1622298Y1639316D02*
X1631950Y1648968D01*
X1622298Y1566672D02*
Y1639316D01*
X1571752Y1516126D02*
X1622298Y1566672D01*
X1571752Y1483360D02*
Y1516126D01*
X1564640Y1476248D02*
X1571752Y1483360D01*
X1439926Y1476248D02*
X1564640D01*
X1436232Y1479942D02*
X1439926Y1476248D01*
X1880108Y1650492D02*
X1884426Y1646174D01*
X1891284D01*
X1475994Y1429766D02*
X1530096D01*
X1606485Y1506155D01*
Y1548030D01*
X1628936Y1570482D01*
X1646174D01*
X1652524Y1576832D01*
X1792986Y1565402D02*
X1805432Y1577848D01*
Y1613662D01*
X1572260Y1697482D02*
X1604772Y1729994D01*
X1572260Y1609344D02*
Y1697482D01*
X1568196Y1605280D02*
X1572260Y1609344D01*
X1514348Y1605280D02*
X1568196D01*
X1453642Y1544574D02*
X1514348Y1605280D01*
X1453642Y1525016D02*
Y1544574D01*
X1424432Y1495806D02*
X1453642Y1525016D01*
X1424432Y1437386D02*
Y1495806D01*
X1160018Y1889982D02*
X1163574Y1886427D01*
Y1863090D02*
Y1886427D01*
X1160526Y1860042D02*
X1163574Y1863090D01*
X1160526Y1818386D02*
Y1860042D01*
Y1818386D02*
X1186688Y1792224D01*
Y1726438D02*
Y1792224D01*
Y1726438D02*
X1304036Y1609090D01*
Y1445514D02*
Y1609090D01*
Y1445514D02*
X1360424Y1389126D01*
Y1282024D02*
Y1389126D01*
X1351400Y1273000D02*
X1360424Y1282024D01*
X1166288Y1890851D02*
X1167892Y1890014D01*
X1163574Y1893570D02*
X1166288Y1890851D01*
X1158240Y1893570D02*
X1163574D01*
X1156462Y1891792D02*
X1158240Y1893570D01*
X1156462Y1818386D02*
Y1891792D01*
Y1818386D02*
X1168400Y1806448D01*
Y1720596D02*
Y1806448D01*
Y1720596D02*
X1284224Y1604772D01*
Y1282024D02*
Y1604772D01*
X1275200Y1273000D02*
X1284224Y1282024D01*
X1337142Y1974342D02*
X1350000Y1987200D01*
X1270000Y1974342D02*
X1337142D01*
X1245616Y1949958D02*
X1270000Y1974342D01*
X1166368Y1949958D02*
X1245616D01*
X1164336Y1947926D02*
X1166368Y1949958D01*
X1164336Y1941576D02*
Y1947926D01*
Y1941576D02*
X1167892Y1938020D01*
X1841754Y1801876D02*
Y1802638D01*
Y1801876D02*
X1849630Y1794001D01*
X1870000D01*
X1785620Y1351788D02*
X1797050D01*
X1802638Y1357376D01*
Y1379728D01*
X1861114Y1438204D01*
X1887276D01*
X1901952Y1452880D01*
Y1524762D01*
X1912112Y1534922D01*
X1927098D01*
X1937766Y1545590D01*
Y1565402D01*
X1864614Y1682496D02*
X1865122D01*
X1860550Y1678432D02*
X1864614Y1682496D01*
X1638046Y1554480D02*
X1671574Y1588008D01*
Y1662430D01*
X1694688Y1685544D01*
X1716786D01*
X1721866Y1690624D01*
Y1727200D01*
X1735836Y1741170D01*
X1780286D01*
X1795018Y1726438D01*
X1851406D01*
X1852676Y1715008D02*
X1857248Y1710436D01*
X1901190D01*
X1905000Y1706626D01*
X1863344Y1718564D02*
X1908556D01*
X1861058Y1720850D02*
X1863344Y1718564D01*
X1861058Y1720850D02*
Y1747520D01*
X1854962Y1753616D02*
X1861058Y1747520D01*
X1659890Y1725168D02*
X1688338Y1753616D01*
X1659890Y1581369D02*
Y1725168D01*
X1646971Y1568450D02*
X1659890Y1581369D01*
X1633728Y1568450D02*
X1646971D01*
X1614932Y1549654D02*
X1633728Y1568450D01*
X1614932Y1499616D02*
Y1549654D01*
X1606468Y1491152D02*
X1614932Y1499616D01*
X1606468Y1359532D02*
Y1491152D01*
Y1359532D02*
X1620000Y1346000D01*
X1644000Y1368000D02*
X1650492Y1374492D01*
Y1447682D01*
X1709501Y1506691D01*
Y1538107D01*
X1734146Y1562752D01*
Y1591652D01*
X1726780Y1599018D02*
X1734146Y1591652D01*
X1726780Y1599018D02*
Y1621448D01*
X1734146Y1628814D01*
Y1640247D01*
X1755877Y1661978D01*
X1770436D01*
X1853438Y1629156D02*
X1855216Y1630934D01*
X1866392D01*
X1650492Y1693926D02*
Y1944222D01*
X1387200Y2207514D02*
X1650492Y1944222D01*
X1387200Y2207514D02*
Y2280000D01*
X1722882Y1495806D02*
Y1515618D01*
X1733296Y1526032D01*
Y1551432D01*
X1734312Y1552448D01*
X1754632D01*
X1771396Y1569212D01*
Y1577340D01*
X1780540Y1586484D01*
X1905254Y1766570D02*
X1912112Y1759712D01*
X1889760Y1766570D02*
X1905254D01*
X1777492Y1555016D02*
X1820672D01*
X1824990Y1559334D01*
Y1587556D01*
X1828490Y1591056D01*
Y1598986D01*
X1824990Y1602486D02*
X1828490Y1598986D01*
X930000Y2280000D02*
X943610Y2266390D01*
Y1515872D02*
Y2266390D01*
Y1515872D02*
X948182Y1511300D01*
X1106170D01*
X1262380Y1355090D01*
Y1266698D02*
Y1355090D01*
Y1266698D02*
X1267968Y1261110D01*
X1643634D01*
X1650492Y1267968D01*
Y1331690D01*
X1657128Y1338326D01*
X1667256D01*
X1714500Y1385570D01*
X1737614D01*
X1743964Y1391920D01*
X1751076D01*
X1753108Y1389888D01*
X1757680D01*
X1772412Y1404620D01*
Y1466217D01*
X1789029Y1482834D01*
Y1519936D01*
X1796617Y1527524D01*
X1837989D01*
X1927098Y1663446D02*
X1930400D01*
X1933702Y1666748D01*
Y1793494D01*
X1107800Y2385400D02*
X1116858Y2394458D01*
X1394968D01*
X1399794Y2389632D01*
X1836928Y1790446D02*
X1840992Y1786382D01*
X1881632D01*
X1884564Y1783450D01*
Y1734065D02*
Y1783450D01*
X1872874Y1722374D02*
X1884564Y1734065D01*
X1801114Y1618488D02*
X1802508D01*
X1863344Y1590548D02*
X1865686D01*
X1861312Y1588516D02*
X1863344Y1590548D01*
X1754074Y1688388D02*
X1756664Y1685798D01*
X1754074Y1688388D02*
Y1698956D01*
X1766062Y1710944D01*
X1797558D01*
X1801114Y1714500D01*
X1833372Y1650492D02*
Y1652524D01*
X1901190Y1675892D02*
X1906016Y1680718D01*
X1912112D01*
X1914652Y1683258D01*
X1914144Y1848104D02*
X1921256Y1855216D01*
X1966722D01*
X2001520Y1820418D01*
Y1540764D02*
Y1820418D01*
X1704404Y1619448D02*
X1752707Y1667751D01*
X1704404Y1567370D02*
Y1619448D01*
Y1567370D02*
X1706372Y1565402D01*
X1741678Y1563776D02*
Y1605026D01*
X1751330Y1614678D01*
X1770888D01*
X1772666Y1616456D01*
Y1639134D01*
X1776150Y1642618D01*
X1751584Y1629410D02*
X1762252D01*
X1764538Y1631696D01*
Y1648460D01*
X1760982Y1652016D02*
X1764538Y1648460D01*
X1828320Y1518666D02*
X1836928D01*
X1824736Y1522250D02*
X1828320Y1518666D01*
X1795500Y1522250D02*
X1824736D01*
X1795500Y1477492D02*
Y1522250D01*
X1776476Y1458468D02*
X1795500Y1477492D01*
X1776476Y1393444D02*
Y1458468D01*
X1760474Y1377442D02*
X1776476Y1393444D01*
X1715516Y1377442D02*
X1760474D01*
X1684020Y1345946D02*
X1715516Y1377442D01*
X955400Y2280000D02*
X964438Y2270962D01*
Y2170938D02*
Y2270962D01*
Y2170938D02*
X1068070Y2067306D01*
X1319276D01*
X1359154Y2027428D01*
Y1533144D02*
Y2027428D01*
Y1533144D02*
X1407668Y1484630D01*
Y1385824D02*
Y1484630D01*
X1497584Y1335278D02*
X1649984D01*
X1655120Y1340414D01*
X1666042D01*
X1713230Y1387602D01*
X1721612D01*
X1746250Y1412240D01*
Y1451102D01*
X1751584Y1456436D01*
Y1476248D01*
X1797304Y1535684D02*
X1828292D01*
X1840230Y1547622D01*
X1752930Y1681714D02*
X1759712D01*
X1752074Y1682570D02*
X1752930Y1681714D01*
X1749552Y1693926D02*
X1752074Y1691404D01*
X1740663Y1693926D02*
X1749552D01*
X1711454Y1664716D02*
X1740663Y1693926D01*
X1707896Y1664716D02*
X1711454D01*
X1706880Y1663700D02*
X1707896Y1664716D01*
X1706880Y1629177D02*
Y1663700D01*
X1693240Y1615537D02*
X1706880Y1629177D01*
X1688809Y1615537D02*
X1693240D01*
X1675130Y1601858D02*
X1688809Y1615537D01*
X1675130Y1504950D02*
Y1601858D01*
X1631696Y1461516D02*
X1675130Y1504950D01*
X1631696Y1389728D02*
Y1461516D01*
X1609968Y1368000D02*
X1631696Y1389728D01*
X1902714Y1631442D02*
X1905762Y1634490D01*
X1198372Y1867776D02*
Y1904411D01*
X1166000Y1835404D02*
X1198372Y1867776D01*
X955400Y2305400D02*
X970788Y2290012D01*
Y2246630D02*
Y2290012D01*
Y2246630D02*
X975360Y2242058D01*
X1053338D01*
X1056386Y2239010D01*
Y2191004D02*
Y2239010D01*
Y2191004D02*
X1132586Y2114804D01*
X1286002D01*
X1374394Y2026412D01*
Y1901952D02*
Y2026412D01*
Y1901952D02*
X1381506Y1894840D01*
X1388618D01*
X1393698Y1889760D01*
Y1507998D02*
Y1889760D01*
Y1507998D02*
X1418844Y1482852D01*
Y1430528D02*
Y1482852D01*
Y1430528D02*
X1424432Y1424940D01*
X1471930D01*
X1509776Y1387094D01*
Y1345184D02*
Y1387094D01*
Y1345184D02*
X1513840Y1341120D01*
X1623822D01*
X1637284Y1354582D01*
X1644198D01*
X1656334Y1342446D01*
X1662232D01*
X1688062Y1368276D01*
Y1374880D01*
X1703006Y1389824D01*
X1719516D01*
X1742948Y1413256D01*
Y1470914D01*
X1795899Y1537716D02*
X1824990D01*
X1833239Y1545965D01*
X1491234Y1506982D02*
X1550416Y1566164D01*
X1595068D01*
X1607312Y1578408D01*
Y1642872D01*
X1725524Y1368044D02*
X1776554D01*
X1793240Y1384730D01*
Y1425448D01*
X1871726Y1503934D01*
X1885696D01*
X1893316Y1511554D01*
Y1525975D01*
X1911858Y1544517D01*
Y1628394D01*
X1656334Y1332230D02*
X1660398Y1336294D01*
X1683004D01*
X1706880Y1360170D01*
X1789938D01*
X1795272Y1365504D01*
Y1410462D01*
X1855978Y1471168D01*
X1891538D01*
X1895602Y1475232D01*
Y1524254D01*
X1914652Y1543304D01*
Y1570736D01*
X1920748Y1576832D01*
Y1590802D01*
X1918716Y1592834D02*
X1920748Y1590802D01*
X1918716Y1592834D02*
Y1636776D01*
X1905000Y1650492D02*
X1918716Y1636776D01*
X1791462Y1560576D02*
X1802130D01*
X1789430Y1562608D02*
X1791462Y1560576D01*
X1789430Y1562608D02*
Y1568450D01*
X1792986Y1572006D01*
Y1584198D01*
X1789430Y1587754D02*
X1792986Y1584198D01*
X1789430Y1587754D02*
Y1630934D01*
X1792986Y1634490D01*
X872800Y1996000D02*
X934600Y2057800D01*
X1694688Y1428242D02*
X1713738D01*
X1692402Y1430528D02*
X1694688Y1428242D01*
X1692402Y1430528D02*
Y1468882D01*
X1703429Y1479909D01*
Y1484779D01*
X1715770Y1497120D01*
Y1537377D01*
X1733381Y1554988D01*
X1747266D01*
X1763268Y1570990D01*
Y1604264D01*
X1765808Y1606804D01*
X1826000Y1509904D02*
Y1513968D01*
X1823968Y1516000D02*
X1826000Y1513968D01*
X1810000Y1516000D02*
X1823968D01*
X1747774Y1679956D02*
Y1690370D01*
Y1679956D02*
X1760220Y1667510D01*
X1659890Y1345946D02*
X1668018Y1354074D01*
Y1461516D01*
X1711501Y1504999D01*
Y1537257D01*
X1736908Y1562664D01*
Y1625290D01*
X1747661Y1636044D01*
X1758667D01*
X1605840Y1571967D02*
X1607872D01*
X1609904Y1573999D01*
X1613408D01*
X1616000Y1576591D01*
Y1590000D01*
X1651000Y1630680D02*
X1656334Y1625346D01*
X1651000Y1630680D02*
Y1663700D01*
X1635506Y1679194D02*
X1651000Y1663700D01*
X1635506Y1679194D02*
Y1781556D01*
X1533906Y1883156D02*
X1635506Y1781556D01*
X1475232Y1883156D02*
X1533906D01*
X1468628Y1889760D02*
X1475232Y1883156D01*
X1468628Y1889760D02*
Y1981962D01*
X1313688Y2136902D02*
X1468628Y1981962D01*
X1187704Y2136902D02*
X1313688D01*
X1126744Y2197862D02*
X1187704Y2136902D01*
X1126744Y2197862D02*
Y2261056D01*
X1107800Y2280000D02*
X1126744Y2261056D01*
X1793748Y1602486D02*
X1797050Y1605788D01*
Y1621536D01*
X1805051Y1624005D02*
Y1628233D01*
X1915840Y1484000D02*
X1920550D01*
X1922140Y1485590D01*
X1926000D01*
Y1500000D01*
X1788936Y1718564D02*
X1793000Y1714500D01*
X1775714Y1718564D02*
X1788936D01*
X1762417Y1557020D02*
X1816608D01*
X1755648Y1550251D02*
X1762417Y1557020D01*
X1735500Y1550251D02*
X1755648D01*
X1735500Y1525270D02*
Y1550251D01*
X1870000Y1516000D02*
X1886000D01*
X1766062Y1546286D02*
Y1550162D01*
X1763776Y1544001D02*
X1766062Y1546286D01*
X1750000Y1544001D02*
X1763776D01*
X1706001Y1511936D02*
Y1513968D01*
X1703969Y1516000D02*
X1706001Y1513968D01*
X1690000Y1516000D02*
X1703969D01*
X1885630Y1542034D02*
X1887982D01*
X1883664Y1544000D02*
X1885630Y1542034D01*
X1870000Y1544000D02*
X1883664D01*
X1688592Y1634000D02*
X1690064D01*
X1686000Y1636592D02*
X1688592Y1634000D01*
X1686000Y1636592D02*
Y1650000D01*
X1647952Y1537970D02*
Y1541968D01*
X1645920Y1544000D02*
X1647952Y1541968D01*
X1630000Y1544000D02*
X1645920D01*
X1706118Y1544066D02*
X1710182D01*
X1706052Y1544000D02*
X1706118Y1544066D01*
X1690000Y1544000D02*
X1706052D01*
X1474978Y1908048D02*
Y2065222D01*
X1260200Y2280000D02*
X1474978Y2065222D01*
X1707904Y1691968D02*
X1709936Y1694000D01*
X1711280D01*
X1714000Y1696720D01*
Y1710000D01*
X1227328Y2023999D02*
X1230064D01*
X1226000Y2025327D02*
X1227328Y2023999D01*
X1226000Y2025327D02*
Y2040000D01*
X1918208Y1745932D02*
Y1769894D01*
X1926000Y1777687D01*
Y1810000D01*
X1766001Y1518224D02*
Y1522096D01*
X1763776Y1516000D02*
X1766001Y1518224D01*
X1750000Y1516000D02*
X1763776D01*
X1643968D02*
X1646000Y1513968D01*
X1630000Y1516000D02*
X1643968D01*
X1954000Y1396032D02*
X1956032Y1394000D01*
X1954000Y1396032D02*
Y1410000D01*
X1223968Y2083999D02*
X1226000Y2086031D01*
Y2100000D01*
X1707904Y1573999D02*
X1711968D01*
X1714000Y1576031D01*
Y1590000D01*
X1561968Y1573999D02*
X1564000Y1576031D01*
Y1590000D01*
X1921936Y1664000D02*
X1923968D01*
X1926000Y1666032D01*
Y1680000D01*
X1155700Y1941576D02*
X1160018Y1945894D01*
X1036320Y1941576D02*
X1155700D01*
X1032002Y1937258D02*
X1036320Y1941576D01*
X1032002Y1851660D02*
Y1937258D01*
X1006000Y1825658D02*
X1032002Y1851660D01*
X1690064Y1691968D02*
Y1692528D01*
X1686000Y1696592D02*
X1690064Y1692528D01*
X1686000Y1696592D02*
Y1710000D01*
X1614000Y1755440D02*
X1615440Y1753999D01*
X1614000Y1755440D02*
Y1770000D01*
X1395984Y1394000D02*
X1398064D01*
X1394000Y1395983D02*
X1395984Y1394000D01*
X1394000Y1395983D02*
Y1410000D01*
X1088032Y1838452D02*
X1135888D01*
X1148080Y1850644D01*
Y1915668D01*
X1150366Y1917954D01*
X1169670D01*
X1171956Y1920240D01*
Y1941830D01*
X1176020Y1945894D01*
X1521968Y1397000D02*
X1526032Y1392936D01*
X1516000Y1397000D02*
Y1410000D01*
X1566672Y1513999D02*
X1568064D01*
X1564000Y1516672D02*
X1566672Y1513999D01*
X1564000Y1516672D02*
Y1530000D01*
X1734312Y1780032D02*
X1738376Y1784096D01*
Y1794000D02*
X1740000D01*
X1538224Y1634000D02*
X1542096D01*
X1536000Y1636224D02*
X1538224Y1634000D01*
X1536000Y1636224D02*
Y1650000D01*
X1544001Y1391968D02*
Y1410000D01*
X2024000Y1391968D02*
Y1410000D01*
X1683968Y1573999D02*
X1686000Y1576031D01*
Y1590000D01*
X1254000Y1846031D02*
X1256032Y1843999D01*
X1254000Y1846031D02*
Y1860000D01*
X1611936Y1394000D02*
X1613408D01*
X1616000Y1396592D01*
Y1410000D01*
X729750Y1545844D02*
X817757Y1633851D01*
X1086944Y1966032D02*
X1096160D01*
X1086000Y1966976D02*
X1086944Y1966032D01*
X1086000Y1966976D02*
Y1980000D01*
X1656334Y1813814D02*
X1656586D01*
X1676400Y1794001D01*
X1680000D01*
X1778000Y1778000D02*
Y1788160D01*
X1783840Y1794000D01*
X1800000D01*
X1825941Y1544001D02*
X1826006Y1544066D01*
X1810000Y1544001D02*
X1825941D01*
X1680000Y1766000D02*
X1740000D01*
X1954000Y1500000D02*
Y1508252D01*
X1740000Y1766000D02*
X1800000D01*
X1870000D01*
X1954000Y1620000D02*
Y1680000D01*
Y1740000D01*
Y1810000D01*
X1046000Y1783999D02*
Y1800000D01*
X1016000Y1843999D02*
Y1860000D01*
X1126000Y1783999D02*
Y1800000D01*
X1016000Y1904000D02*
Y1920000D01*
Y1964000D02*
Y1980000D01*
X1196000Y1800000D02*
Y1816000D01*
X1226000Y1843999D02*
Y1860000D01*
X1156000Y1964000D02*
Y1980000D01*
X1226000Y1904000D02*
Y1920000D01*
X1156000Y2023999D02*
Y2040000D01*
X1226000Y1964000D02*
Y1980000D01*
X1464000Y1394000D02*
Y1410000D01*
X1156000Y2083999D02*
Y2100000D01*
X1536000Y1513999D02*
Y1530000D01*
Y1573999D02*
Y1590000D01*
Y1694000D02*
Y1710000D01*
X1616000Y1634000D02*
Y1650000D01*
X1644000Y1394000D02*
Y1410000D01*
X1586000Y1753999D02*
Y1770000D01*
X1616000Y1694000D02*
Y1710000D01*
X1714000Y1394000D02*
Y1410000D01*
X1784000Y1394000D02*
Y1410000D01*
X1884000Y1394000D02*
Y1410000D01*
X1926000Y1543999D02*
Y1560000D01*
X1926000Y1603999D02*
Y1620000D01*
Y1724000D02*
Y1740000D01*
X1366000Y1394000D02*
Y1410000D01*
X1436000Y1394000D02*
Y1410000D01*
X1074000Y1783999D02*
Y1800000D01*
X1044000Y1843999D02*
Y1860000D01*
X1154000Y1783999D02*
Y1800000D01*
X1224000Y1783999D02*
Y1800000D01*
X1044000Y1904000D02*
Y1920000D01*
X1686000Y1394000D02*
Y1410000D01*
X1044000Y1964000D02*
Y1980000D01*
X1114000Y1964000D02*
Y1980000D01*
X1564000Y1634000D02*
Y1650000D01*
X1756000Y1394000D02*
Y1410000D01*
X1254000Y1904000D02*
Y1920000D01*
X1644000Y1573999D02*
Y1590000D01*
X1184000Y1964000D02*
Y1980000D01*
X1564000Y1694000D02*
Y1710000D01*
X1644000Y1634000D02*
Y1650000D01*
X1254000Y1964000D02*
Y1980000D01*
X1184000Y2023999D02*
Y2040000D01*
X1856000Y1394000D02*
Y1410000D01*
X1644000Y1694000D02*
Y1710000D01*
X1714000Y1634000D02*
Y1650000D01*
X1254000Y2023999D02*
Y2040000D01*
X1184000Y2083999D02*
Y2100000D01*
X1926000Y1394000D02*
Y1410000D01*
X1254000Y2083999D02*
Y2100000D01*
X1996000Y1394000D02*
Y1410000D01*
X1765808Y1606804D02*
X1778254D01*
X1868932Y1628866D02*
X1870066Y1630000D01*
X1801000Y1626500D02*
Y1627010D01*
X1797050Y1621536D02*
X1798514Y1623000D01*
X1804046D01*
X1805051Y1624005D01*
X1833364Y1650500D02*
X1833372Y1650492D01*
X1833000Y1650500D02*
X1833364D01*
X1777364Y1674750D02*
X1777492Y1674622D01*
X1776750Y1674750D02*
X1777364D01*
X1776500Y1674500D02*
X1776750Y1674750D01*
X1776500Y1674250D02*
Y1674500D01*
X1777492Y1674622D02*
X1781048Y1678178D01*
X1688338Y1753616D02*
X1854962D01*
X1623000Y1753999D02*
X1623250Y1753750D01*
X1615440Y1753999D02*
X1623000D01*
X1870000Y1553516D02*
Y1554000D01*
X1933702Y1793494D02*
X1933750Y1793446D01*
Y1792500D02*
Y1793446D01*
X1870000Y1766000D02*
Y1775750D01*
X1867250Y1778500D02*
X1870000Y1775750D01*
X1952750Y1830250D02*
X1954000Y1829000D01*
X1946250Y1830250D02*
X1952750D01*
X1954000Y1810000D02*
Y1829000D01*
X1946250Y1757750D02*
Y1830250D01*
X1938250Y1496250D02*
X1942750Y1500750D01*
X1954000Y1482250D02*
Y1500000D01*
Y1508252D02*
X1954022D01*
Y1560068D01*
X1776150Y1642618D02*
X1776268Y1642500D01*
X1777000D01*
X1862892Y1563426D02*
X1877500Y1578034D01*
X1876750Y1590595D02*
Y1612717D01*
Y1590595D02*
X1877500Y1589845D01*
Y1578034D02*
Y1589845D01*
X1876750Y1612717D02*
X1877500Y1613467D01*
X1863161Y1560647D02*
X1884934Y1582420D01*
Y1622552D01*
X1888744Y1634744D02*
X1888750Y1634750D01*
X1889000D01*
X1888750Y1634500D02*
X1889000Y1634750D01*
X1888750Y1634500D02*
X1888750D01*
X1888750D02*
Y1634750D01*
X1834896Y1638808D02*
X1836928Y1640840D01*
X1876806Y1686306D02*
X1881124Y1690624D01*
X1772666Y1683004D02*
X1775968Y1686306D01*
X1752074Y1682570D02*
Y1691404D01*
X1759712Y1681714D02*
X1762252Y1684254D01*
Y1690878D01*
X1766624Y1695250D01*
X1767300D01*
X1767550Y1695000D01*
X1770450D01*
X1770699Y1695250D01*
X1775300D01*
X1775552Y1694998D01*
X1778452D01*
X1778703Y1695250D01*
X1783300D01*
X1783662Y1694888D01*
X1786562D01*
X1786924Y1695250D01*
X1823300D02*
X1823550Y1695000D01*
X1826449D01*
X1826699Y1695250D01*
X1839300D01*
X1839550Y1695000D01*
X1842449D01*
X1842699Y1695250D01*
X1773174Y1721104D02*
X1775714Y1718564D01*
X1773174Y1721104D02*
Y1731772D01*
X1767332Y1737614D02*
X1773174Y1731772D01*
X1851406Y1726438D02*
X1852676Y1725168D01*
Y1715008D02*
Y1725168D01*
X1861312Y1567952D02*
Y1588516D01*
X1840992Y1594508D02*
X1844548Y1590952D01*
X1805432Y1613662D02*
X1806448Y1614678D01*
X1802508Y1618488D02*
X1806614Y1622594D01*
X1872996Y1594612D02*
Y1597554D01*
X1869500Y1601051D02*
X1872996Y1597554D01*
Y1615660D02*
Y1618488D01*
X1877500Y1613467D02*
Y1622250D01*
X1888744Y1633494D02*
Y1634744D01*
X1872996Y1618488D02*
Y1621546D01*
X1842699Y1695250D02*
X1868116D01*
X1872870Y1690497D01*
X1853438Y1625346D02*
Y1629156D01*
X1858772Y1670558D02*
X1860550Y1672336D01*
Y1678432D01*
X1869186Y1638808D02*
X1872996Y1642618D01*
X1866392Y1630934D02*
X1869186Y1633728D01*
Y1638808D01*
X1877500Y1622250D02*
X1888744Y1633494D01*
X1917700Y1667510D02*
Y1721612D01*
Y1667510D02*
X1918208Y1667002D01*
X1884680Y1664208D02*
Y1695196D01*
X1892554Y1662176D02*
Y1689100D01*
X1890522Y1660144D02*
X1892554Y1662176D01*
X1901190Y1664716D02*
Y1675892D01*
X1894586Y1658112D02*
X1901190Y1664716D01*
X1918208Y1661922D02*
Y1667002D01*
X1912366Y1656080D02*
X1918208Y1661922D01*
X1917649Y1653997D02*
X1927098Y1663446D01*
X1813500Y1560128D02*
X1816608Y1557020D01*
X1813500Y1606998D02*
X1817116Y1610614D01*
X1840992Y1613543D02*
Y1618488D01*
X1821490Y1598260D02*
Y1603936D01*
Y1598260D02*
X1825000Y1594750D01*
X1869812Y1666500D02*
X1873000D01*
X1866318Y1669994D02*
X1869812Y1666500D01*
X1863418Y1669994D02*
X1866318D01*
X1860174Y1666750D02*
X1863418Y1669994D01*
X1857250Y1666750D02*
X1860174D01*
X1880108Y1650492D02*
X1880500Y1650884D01*
Y1651000D01*
X1881950Y1654500D02*
X1882453Y1653997D01*
X1917649D01*
X1882778Y1656500D02*
X1883198Y1656080D01*
X1912366D01*
X1883607Y1658500D02*
X1883995Y1658112D01*
X1894586D01*
X1884435Y1660500D02*
X1884791Y1660144D01*
X1890522D01*
X1882972Y1662500D02*
X1884680Y1664208D01*
X1878076Y1654500D02*
X1881950D01*
X1833372Y1652524D02*
X1839348Y1658500D01*
X1813306Y1658874D02*
X1814932Y1660500D01*
X1884680Y1695196D02*
X1887982Y1698498D01*
X1888000Y1698480D01*
Y1697750D02*
Y1698480D01*
X1908556Y1718564D02*
X1908750Y1718370D01*
Y1716500D02*
Y1718370D01*
X1912112Y1718088D02*
X1912250Y1717950D01*
X1912112Y1718088D02*
Y1759712D01*
X1914144Y1718884D02*
Y1848104D01*
Y1718884D02*
X1914652Y1718376D01*
X1912250Y1708796D02*
Y1717950D01*
X1892554Y1689100D02*
X1912250Y1708796D01*
X1914652Y1683258D02*
Y1718376D01*
X1911858Y1628394D02*
X1912000Y1628252D01*
Y1627500D02*
Y1628252D01*
X1747424Y1625250D02*
X1748000D01*
X1747424D02*
X1751584Y1629410D01*
X1813500Y1560128D02*
Y1606998D01*
X1815627Y1638808D02*
X1834896D01*
X1781000Y1609550D02*
Y1620450D01*
X1778254Y1606804D02*
X1781000Y1609550D01*
X1775968Y1602486D02*
X1780540Y1597914D01*
X1775968Y1602486D02*
X1776482Y1603000D01*
X1777500D01*
X1860570Y1598930D02*
X1861980D01*
X1863672Y1598986D02*
X1865714D01*
X1867591Y1592453D02*
Y1597109D01*
X1865714Y1598986D02*
X1867591Y1597109D01*
X1865686Y1590548D02*
X1867591Y1592453D01*
X1741678Y1563776D02*
X1742000Y1564098D01*
Y1565000D01*
X1652524Y1576832D02*
Y1583944D01*
X1652580Y1584000D01*
X1653250D01*
X1708326Y1481250D02*
X1709000D01*
X1708326D02*
X1722882Y1495806D01*
X1760250Y1634250D02*
X1760460D01*
X1758667Y1636044D02*
X1760460Y1634250D01*
X1449612Y1383250D02*
X1497584Y1335278D01*
X1437450Y1383224D02*
X1437476Y1383250D01*
X1449612D01*
X1410268Y1383224D02*
X1437450D01*
X1407668Y1385824D02*
X1410268Y1383224D01*
X1836618Y1583002D02*
Y1591868D01*
X1837500Y1592750D01*
X1825082Y1550000D02*
X1829562Y1554480D01*
X1823621Y1550251D02*
X1823872Y1550000D01*
X1825082D01*
X1779294Y1550251D02*
X1823621D01*
X1824485Y1556000D02*
X1826000D01*
X1821500Y1553016D02*
X1824485Y1556000D01*
X1779232Y1553016D02*
X1821500D01*
X1771858Y1545642D02*
X1779232Y1553016D01*
X1769500Y1547024D02*
X1777492Y1555016D01*
X1769500Y1523546D02*
X1769500Y1523546D01*
X1769500Y1523546D02*
Y1547024D01*
X1769500Y1512453D02*
Y1523546D01*
X1751076Y1494028D02*
X1769500Y1512453D01*
X1778000Y1510800D02*
X1778250Y1510550D01*
X1776000Y1517817D02*
X1795899Y1537716D01*
X1778250Y1502914D02*
Y1510550D01*
X1778000Y1510800D02*
Y1516380D01*
X1797304Y1535684D01*
X1776000Y1503966D02*
Y1517817D01*
X1751584Y1476248D02*
X1778250Y1502914D01*
X1742948Y1470914D02*
X1776000Y1503966D01*
X1774000Y1544956D02*
X1779294Y1550251D01*
X1771858Y1511608D02*
Y1545642D01*
X1754576Y1494326D02*
X1771858Y1511608D01*
X1774000Y1505750D02*
Y1544956D01*
X1754576Y1490826D02*
Y1494326D01*
X1733000Y1469250D02*
X1754576Y1490826D01*
X1735328Y1431672D02*
X1736750Y1433094D01*
Y1468500D01*
X1774000Y1505750D01*
X1713738Y1428242D02*
X1731000Y1445504D01*
Y1484366D01*
X1735074Y1488440D01*
X1696085Y1435735D02*
X1729000Y1468650D01*
Y1518770D01*
X1735500Y1525270D01*
X1733000Y1444676D02*
Y1469250D01*
X1714566Y1426242D02*
X1733000Y1444676D01*
X1710371Y1426242D02*
X1714566D01*
X1692250Y1408122D02*
X1710371Y1426242D01*
X1692250Y1395300D02*
Y1408122D01*
X1687450Y1390500D02*
X1692250Y1395300D01*
X1684550Y1390500D02*
X1687450D01*
X1683050Y1392000D02*
X1684550Y1390500D01*
X1674750Y1392000D02*
X1683050D01*
X1873642Y1630000D02*
X1877000Y1633358D01*
Y1653424D01*
X1878076Y1654500D01*
X1879000Y1632750D02*
X1881000Y1634750D01*
X1879000Y1627550D02*
Y1632750D01*
X1872996Y1621546D02*
X1879000Y1627550D01*
X1861980Y1598930D02*
X1862050Y1599000D01*
X1863658D01*
X1863672Y1598986D01*
X1831458Y1587741D02*
Y1600730D01*
X1845500Y1614772D01*
Y1627950D01*
X1845620Y1602164D02*
Y1603936D01*
X1839542Y1605986D02*
X1842442D01*
X1844503Y1608047D01*
X1847670Y1605986D02*
X1850570D01*
X1850673Y1605883D02*
X1853340Y1608551D01*
X1849947Y1607986D02*
X1851340Y1609379D01*
X1845620Y1603936D02*
X1847670Y1605986D01*
X1850570D02*
X1850673Y1605883D01*
X1850673D01*
X1853340Y1608551D02*
Y1619218D01*
X1844503Y1608047D02*
X1844503D01*
X1851340Y1609379D02*
Y1614359D01*
X1844503Y1608047D02*
X1844564Y1607986D01*
X1849947D01*
X1849500Y1616200D02*
X1851340Y1614359D01*
X1850570Y1621988D02*
X1853340Y1619218D01*
D41*
X664000Y1407500D02*
D03*
Y1432500D02*
D03*
D42*
X622000Y1370000D02*
D03*
X642000D02*
D03*
X602000Y1430000D02*
D03*
Y1410000D02*
D03*
X600000Y1040000D02*
D03*
Y1250000D02*
D03*
X1444600Y1530000D02*
D03*
X934600Y1880000D02*
D03*
X960000Y1905400D02*
D03*
X934600D02*
D03*
X960000Y1930800D02*
D03*
X934600D02*
D03*
X960000Y1956200D02*
D03*
X934600D02*
D03*
Y2007000D02*
D03*
X960000Y2032400D02*
D03*
X934600D02*
D03*
X960000Y2057800D02*
D03*
X934600D02*
D03*
X960000Y2083200D02*
D03*
X934600D02*
D03*
Y1829800D02*
D03*
X960000D02*
D03*
X934600Y1804400D02*
D03*
X960000D02*
D03*
X934600Y1779000D02*
D03*
X960000D02*
D03*
X934600Y1753600D02*
D03*
X960000D02*
D03*
X934600Y1728200D02*
D03*
X960000D02*
D03*
X934600Y1702800D02*
D03*
X960000D02*
D03*
X934600Y1677400D02*
D03*
X960000D02*
D03*
X934600Y1652000D02*
D03*
X1260000Y2225400D02*
D03*
X1285400Y2200000D02*
D03*
Y2225400D02*
D03*
X1200000D02*
D03*
X1225400Y2200000D02*
D03*
Y2225400D02*
D03*
X1040000D02*
D03*
X1065400Y2200000D02*
D03*
Y2225400D02*
D03*
X1090800Y2200000D02*
D03*
Y2225400D02*
D03*
X1116200Y2200000D02*
D03*
Y2225400D02*
D03*
X1141600Y2200000D02*
D03*
Y2225400D02*
D03*
X1167000Y2200000D02*
D03*
Y2225400D02*
D03*
X930000D02*
D03*
X955400Y2200000D02*
D03*
Y2225400D02*
D03*
X980800Y2200000D02*
D03*
Y2225400D02*
D03*
X1006200Y2200000D02*
D03*
Y2225400D02*
D03*
X930000Y2305400D02*
D03*
X955400Y2280000D02*
D03*
Y2305400D02*
D03*
X980800Y2280000D02*
D03*
Y2305400D02*
D03*
X1006200Y2280000D02*
D03*
Y2305400D02*
D03*
X1031600Y2280000D02*
D03*
Y2305400D02*
D03*
X1057000Y2280000D02*
D03*
Y2305400D02*
D03*
X1082400Y2280000D02*
D03*
Y2305400D02*
D03*
X1107800Y2280000D02*
D03*
Y2305400D02*
D03*
X1133200Y2280000D02*
D03*
Y2305400D02*
D03*
X1158600Y2280000D02*
D03*
Y2305400D02*
D03*
X1184000Y2280000D02*
D03*
Y2305400D02*
D03*
X1209400Y2280000D02*
D03*
Y2305400D02*
D03*
X1234800Y2280000D02*
D03*
Y2305400D02*
D03*
X1260200Y2280000D02*
D03*
Y2305400D02*
D03*
X1285600Y2280000D02*
D03*
Y2305400D02*
D03*
X1311000Y2280000D02*
D03*
Y2305400D02*
D03*
X1336400Y2280000D02*
D03*
Y2305400D02*
D03*
X1361800Y2280000D02*
D03*
Y2305400D02*
D03*
X1387200Y2280000D02*
D03*
Y2305400D02*
D03*
X1412600Y2280000D02*
D03*
Y2305400D02*
D03*
X930000Y2385400D02*
D03*
X955400Y2360000D02*
D03*
Y2385400D02*
D03*
X980800Y2360000D02*
D03*
Y2385400D02*
D03*
X1006200Y2360000D02*
D03*
Y2385400D02*
D03*
X1031600Y2360000D02*
D03*
Y2385400D02*
D03*
X1057000Y2360000D02*
D03*
Y2385400D02*
D03*
X1082400Y2360000D02*
D03*
Y2385400D02*
D03*
X1107800Y2360000D02*
D03*
Y2385400D02*
D03*
X1133200Y2360000D02*
D03*
Y2385400D02*
D03*
X1158600Y2360000D02*
D03*
Y2385400D02*
D03*
X1184000Y2360000D02*
D03*
Y2385400D02*
D03*
X1209400Y2360000D02*
D03*
Y2385400D02*
D03*
X1234800Y2360000D02*
D03*
Y2385400D02*
D03*
X1260200Y2360000D02*
D03*
Y2385400D02*
D03*
X1285600Y2360000D02*
D03*
Y2385400D02*
D03*
X1311000Y2360000D02*
D03*
Y2385400D02*
D03*
X1336400Y2360000D02*
D03*
Y2385400D02*
D03*
X1361800Y2360000D02*
D03*
Y2385400D02*
D03*
X1387200Y2360000D02*
D03*
Y2385400D02*
D03*
X1412600Y2360000D02*
D03*
Y2385400D02*
D03*
X1324600Y1530000D02*
D03*
X1350000Y1555400D02*
D03*
X1324600D02*
D03*
X1350000Y1580800D02*
D03*
X1324600D02*
D03*
X1350000Y1606200D02*
D03*
X1324600D02*
D03*
X1350000Y1631600D02*
D03*
X1324600D02*
D03*
X1350000Y1657000D02*
D03*
X1324600D02*
D03*
X1350000Y1682400D02*
D03*
X1324600D02*
D03*
X1350000Y1707800D02*
D03*
X1324600D02*
D03*
X1350000Y1733200D02*
D03*
X1324600D02*
D03*
X1350000Y1758600D02*
D03*
X1324600D02*
D03*
X1350000Y1784000D02*
D03*
X1324600D02*
D03*
X1350000Y1809400D02*
D03*
X1324600D02*
D03*
X1350000Y1834800D02*
D03*
X1324600D02*
D03*
X1350000Y1860200D02*
D03*
X1324600D02*
D03*
X1350000Y1885600D02*
D03*
X1324600D02*
D03*
X1350000Y1911000D02*
D03*
X1324600D02*
D03*
X1350000Y1936400D02*
D03*
X1324600D02*
D03*
X1350000Y1961800D02*
D03*
X1324600D02*
D03*
X1350000Y1987200D02*
D03*
X1324600D02*
D03*
X1350000Y2012600D02*
D03*
X1324600D02*
D03*
X1665800Y1298400D02*
D03*
Y1273000D02*
D03*
X1640400Y1298400D02*
D03*
Y1273000D02*
D03*
X1615000Y1298400D02*
D03*
Y1273000D02*
D03*
X1589600Y1298400D02*
D03*
Y1273000D02*
D03*
X1564200Y1298400D02*
D03*
Y1273000D02*
D03*
X1538800Y1298400D02*
D03*
Y1273000D02*
D03*
X1513400Y1298400D02*
D03*
Y1273000D02*
D03*
X1488000Y1298400D02*
D03*
X1072000D02*
D03*
X1097400Y1273000D02*
D03*
Y1298400D02*
D03*
X1122800Y1273000D02*
D03*
Y1298400D02*
D03*
X1148200Y1273000D02*
D03*
Y1298400D02*
D03*
X1173600Y1273000D02*
D03*
Y1298400D02*
D03*
X1199000Y1273000D02*
D03*
Y1298400D02*
D03*
X1224400Y1273000D02*
D03*
Y1298400D02*
D03*
X1249800Y1273000D02*
D03*
Y1298400D02*
D03*
X1275200Y1273000D02*
D03*
Y1298400D02*
D03*
X1300600Y1273000D02*
D03*
Y1298400D02*
D03*
X1326000Y1273000D02*
D03*
Y1298400D02*
D03*
X1351400Y1273000D02*
D03*
Y1298400D02*
D03*
X1376800Y1273000D02*
D03*
Y1298400D02*
D03*
X1402200Y1273000D02*
D03*
Y1298400D02*
D03*
X1427600Y1273000D02*
D03*
Y1298400D02*
D03*
X1453000Y1273000D02*
D03*
Y1298400D02*
D03*
X1004600Y1425000D02*
D03*
X1030000Y1450400D02*
D03*
X1004600D02*
D03*
X1384600Y1530000D02*
D03*
X1410000Y1555400D02*
D03*
X1384600D02*
D03*
X1410000Y1580800D02*
D03*
X1384600D02*
D03*
X1410000Y1606200D02*
D03*
X1384600D02*
D03*
X1410000Y1631600D02*
D03*
X1384600D02*
D03*
X1410000Y1657000D02*
D03*
X1384600D02*
D03*
X1410000Y1682400D02*
D03*
X1384600D02*
D03*
X1410000Y1707800D02*
D03*
X1384600D02*
D03*
X1410000Y1733200D02*
D03*
X1384600D02*
D03*
X1410000Y1758600D02*
D03*
X1384600D02*
D03*
X1410000Y1784000D02*
D03*
X1384600D02*
D03*
X1410000Y1809400D02*
D03*
X1384600D02*
D03*
X1410000Y1834800D02*
D03*
X1384600D02*
D03*
X1410000Y1860200D02*
D03*
X1384600D02*
D03*
X1410000Y1885600D02*
D03*
X1384600D02*
D03*
X1410000Y1911000D02*
D03*
X1384600D02*
D03*
X1410000Y1936400D02*
D03*
X1384600D02*
D03*
X1410000Y1961800D02*
D03*
X1384600D02*
D03*
X1410000Y1987200D02*
D03*
X1384600D02*
D03*
X1410000Y2012600D02*
D03*
X1384600D02*
D03*
D43*
X632000Y1370000D02*
D03*
D44*
X602000Y1420000D02*
D03*
D45*
X664000D02*
D03*
D46*
X689200Y1040000D02*
D03*
X714600D02*
D03*
X689200Y1250000D02*
D03*
X714600D02*
D03*
D47*
X740000Y1040000D02*
D03*
Y1250000D02*
D03*
D48*
X574600Y1040000D02*
D03*
Y1250000D02*
D03*
X1470000Y1530000D02*
D03*
X1260000Y2200000D02*
D03*
X1200000D02*
D03*
X1040000D02*
D03*
X930000D02*
D03*
Y2280000D02*
D03*
Y2360000D02*
D03*
X1488000Y1273000D02*
D03*
X1072000D02*
D03*
D49*
X542000Y1991000D02*
D03*
Y1889000D02*
D03*
X579001D02*
D03*
Y1991000D02*
D03*
D50*
X636200Y1739400D02*
D03*
X607800Y1725550D02*
D03*
X636200Y1711700D02*
D03*
X607800Y1697850D02*
D03*
X636200Y1684000D02*
D03*
X607800Y1670150D02*
D03*
X636200Y1656300D02*
D03*
X607800Y1642450D02*
D03*
D51*
X636200Y1628600D02*
D03*
D52*
X622000Y1559050D02*
D03*
Y1808950D02*
D03*
D53*
X960000Y1880000D02*
D03*
Y2007000D02*
D03*
Y1652000D02*
D03*
X1350000Y1530000D02*
D03*
X1030000Y1425000D02*
D03*
X1410000Y1530000D02*
D03*
D54*
X1833000Y1626500D02*
D03*
X1857000Y1642500D02*
D03*
X1645250Y1501500D02*
D03*
X1865000Y1634500D02*
D03*
X1901500Y1577250D02*
D03*
X1744750Y1502500D02*
D03*
X1881000Y1618500D02*
D03*
X1849120Y1618488D02*
D03*
X1841090Y1618579D02*
D03*
X1834090Y1618329D02*
D03*
X1824990Y1618488D02*
D03*
X1856994Y1602506D02*
D03*
X1849120Y1602486D02*
D03*
X1840992D02*
D03*
X1833113Y1610614D02*
D03*
X1856994Y1618488D02*
D03*
X1849000Y1626500D02*
D03*
X1849120Y1634490D02*
D03*
X1865122Y1602486D02*
D03*
X1865000Y1610500D02*
D03*
X1856994Y1626616D02*
D03*
X1857000Y1594500D02*
D03*
X1849000Y1594500D02*
D03*
Y1586500D02*
D03*
X1856994Y1586484D02*
D03*
X1856740Y1571498D02*
D03*
X1851152Y1561846D02*
D03*
X1873000Y1610500D02*
D03*
X1872996Y1618488D02*
D03*
X1873000Y1626500D02*
D03*
X1872996Y1634490D02*
D03*
X1587500Y1432250D02*
D03*
X1889000Y1618500D02*
D03*
X1870000Y1554000D02*
D03*
X1856486Y1554734D02*
D03*
X1863161Y1554551D02*
D03*
X1947250Y1641250D02*
D03*
X1734000Y1390250D02*
D03*
X1801000Y1666500D02*
D03*
X1818089Y1627579D02*
D03*
X1817116Y1634490D02*
D03*
X1849090Y1642580D02*
D03*
X1842090D02*
D03*
X1833000Y1650500D02*
D03*
X1809000Y1650500D02*
D03*
X1808988Y1642489D02*
D03*
X1817000Y1650500D02*
D03*
X1825000D02*
D03*
X1817000Y1642500D02*
D03*
X1841000Y1650500D02*
D03*
X1792986Y1674622D02*
D03*
X1793000Y1666500D02*
D03*
X1808988Y1674512D02*
D03*
X1817000Y1674500D02*
D03*
X1799844Y1682496D02*
D03*
X1801000Y1674500D02*
D03*
X1793000Y1682500D02*
D03*
X1792986Y1690624D02*
D03*
X1801000Y1690500D02*
D03*
X1785000Y1682500D02*
D03*
X1785000Y1674500D02*
D03*
X1785000Y1666500D02*
D03*
X1783986Y1634500D02*
D03*
X1848250Y1531250D02*
D03*
X1942750Y1501000D02*
D03*
X1979250Y1370750D02*
D03*
X1977500Y1379000D02*
D03*
X1964000Y1368044D02*
D03*
X1956000Y1375156D02*
D03*
X1723500Y1649500D02*
D03*
X1760220Y1667510D02*
D03*
X1752707Y1667751D02*
D03*
X1769000Y1666500D02*
D03*
X1777000Y1666500D02*
D03*
X1754500Y1651750D02*
D03*
X1785250Y1650500D02*
D03*
X1776992Y1650492D02*
D03*
X1776984Y1626616D02*
D03*
Y1594612D02*
D03*
X1781048Y1578356D02*
D03*
X1777548Y1568704D02*
D03*
X1943000Y1491000D02*
D03*
X1635000Y2013500D02*
D03*
X1508500Y1986750D02*
D03*
X1523500Y2012000D02*
D03*
X1639250Y2008000D02*
D03*
X748792Y1912500D02*
D03*
X1151890Y1881886D02*
D03*
X1144016Y1929984D02*
D03*
X1972818Y1234694D02*
D03*
X1284224Y1132078D02*
D03*
X813846Y1589024D02*
D03*
X801250Y1574800D02*
D03*
X814250Y1568450D02*
D03*
X794750Y1562950D02*
D03*
X794766Y1630934D02*
D03*
X801250Y1604264D02*
D03*
X820750Y1578356D02*
D03*
X827250Y1538986D02*
D03*
X765556Y2101080D02*
D03*
X867410Y2188972D02*
D03*
X872800Y2350008D02*
D03*
X765564D02*
D03*
X765556Y2168390D02*
D03*
X841800Y2251456D02*
D03*
X841756Y1951361D02*
D03*
X781558Y2295390D02*
D03*
X801878Y2269990D02*
D03*
X872744Y2011426D02*
D03*
X991100Y1188720D02*
D03*
X586348Y1176152D02*
D03*
X751078Y1968000D02*
D03*
X1767741Y1579019D02*
D03*
X1938782Y1581404D02*
D03*
X827278Y1746758D02*
D03*
Y1607058D02*
D03*
X834600Y1076750D02*
D03*
X937260Y974090D02*
D03*
X834600Y1084000D02*
D03*
X1985264Y1209548D02*
D03*
X1938020Y1209294D02*
D03*
X1874520Y1198118D02*
D03*
X1751330Y1194500D02*
D03*
X1696020D02*
D03*
X1578102Y1194562D02*
D03*
X1517904D02*
D03*
X1216976Y1194500D02*
D03*
X1904937Y1722437D02*
D03*
X1888236Y1705736D02*
D03*
X1880362Y1705610D02*
D03*
X1897126Y1755394D02*
D03*
X1708000Y1496164D02*
D03*
X1897126Y1602486D02*
D03*
X1719326Y1510030D02*
D03*
X1888941Y1626559D02*
D03*
X1913890Y1633728D02*
D03*
X1931924Y1345946D02*
D03*
X1905195Y1642305D02*
D03*
X1680464Y1370076D02*
D03*
X1428000Y1493520D02*
D03*
X1589786Y1638046D02*
D03*
X1738122Y1664462D02*
D03*
X1905000Y1666494D02*
D03*
X1631950Y1648968D02*
D03*
X1436232Y1479942D02*
D03*
X1476000Y1454404D02*
D03*
X1484122Y1480058D02*
D03*
X1889003Y1650497D02*
D03*
X1492000Y1335532D02*
D03*
X1475994Y1429766D02*
D03*
X1792986Y1565402D02*
D03*
X1856750Y1650500D02*
D03*
X1604772Y1729994D02*
D03*
X1424432Y1437386D02*
D03*
X1436000Y1386724D02*
D03*
X1749552Y1387348D02*
D03*
X1911096Y1686560D02*
D03*
X2032000Y1364742D02*
D03*
X1432052Y1344422D02*
D03*
X1183894Y1874012D02*
D03*
X1159701Y1929701D02*
D03*
X1183894Y1954022D02*
D03*
X1172000Y1966214D02*
D03*
X1103884Y1956148D02*
D03*
X1104106Y1945894D02*
D03*
X1128014Y1953768D02*
D03*
X1160018Y1889982D02*
D03*
X1167892Y1890014D02*
D03*
X1189482Y1852422D02*
D03*
X1164082D02*
D03*
X1167892Y1882108D02*
D03*
X1112012Y1929892D02*
D03*
Y1882012D02*
D03*
X1128014Y1889987D02*
D03*
X1103884Y1922018D02*
D03*
X1417066Y1924304D02*
D03*
X1081520Y1925250D02*
D03*
X1103918Y1930146D02*
D03*
X1085962Y1938020D02*
D03*
X1167892D02*
D03*
X1176018Y1922018D02*
D03*
X1175892Y1929892D02*
D03*
X1194797Y1892300D02*
D03*
X1103884Y1890014D02*
D03*
X1096010D02*
D03*
X1103888Y1897888D02*
D03*
X1305310Y1644396D02*
D03*
X1093978Y1897888D02*
D03*
X1119886Y1913890D02*
D03*
X1486154Y1319784D02*
D03*
X1112012Y1913890D02*
D03*
X1103884D02*
D03*
X1119886Y1922018D02*
D03*
X1924050Y1482090D02*
D03*
X1748000Y1345946D02*
D03*
X1508000Y1327912D02*
D03*
X1748000D02*
D03*
X1966468Y1649222D02*
D03*
X1744980Y1380998D02*
D03*
X1785620Y1351788D02*
D03*
X1937766Y1565402D02*
D03*
X1547366Y1354582D02*
D03*
X1780000Y1339088D02*
D03*
X1921256Y1714756D02*
D03*
X1764000Y1454404D02*
D03*
X1665224Y1633728D02*
D03*
X1748000Y1457960D02*
D03*
X1508000Y1458214D02*
D03*
X1500000Y1508128D02*
D03*
X1500124Y1480058D02*
D03*
X1740000Y1484816D02*
D03*
X1638046Y1554480D02*
D03*
X1905000Y1706626D02*
D03*
X1648460Y1626870D02*
D03*
X1620000Y1346000D02*
D03*
X1897063Y1714563D02*
D03*
X1596644Y1576070D02*
D03*
X1888998Y1690498D02*
D03*
X1975612Y1570482D02*
D03*
X1636014Y1345946D02*
D03*
X1395984D02*
D03*
X1881000Y1690500D02*
D03*
X1769110Y1714500D02*
D03*
X1447546Y2173732D02*
D03*
X1384554Y1898396D02*
D03*
X1785112Y1698388D02*
D03*
X1650492Y1693926D02*
D03*
X1757172Y1708658D02*
D03*
X1776984Y1690624D02*
D03*
X1792986Y1626616D02*
D03*
X1751330Y1640200D02*
D03*
X1654556Y1638554D02*
D03*
X1689100Y1619758D02*
D03*
X1263142Y1945894D02*
D03*
X1788922Y1580642D02*
D03*
X1695450Y1560576D02*
D03*
X1808988Y1602486D02*
D03*
X1797050Y1584452D02*
D03*
X1751076Y1494028D02*
D03*
X1824990Y1602486D02*
D03*
X1884426Y1523746D02*
D03*
X1990732Y1588904D02*
D03*
X1905508Y1521714D02*
D03*
X1889016Y1586484D02*
D03*
X1881124Y1602486D02*
D03*
X1983994Y1620520D02*
D03*
X1917954Y1738376D02*
D03*
X1884934Y1813306D02*
D03*
X1889252Y1751330D02*
D03*
X1272540Y2199894D02*
D03*
X1888998Y1722374D02*
D03*
X1872874D02*
D03*
X1865122Y1714500D02*
D03*
X1479042Y2391156D02*
D03*
X1856994Y1722374D02*
D03*
X1099820Y2167636D02*
D03*
X1824990Y1690624D02*
D03*
X1840992Y1730492D02*
D03*
X973582Y1884680D02*
D03*
X1824990Y1722374D02*
D03*
X1286002Y1918970D02*
D03*
X1824990Y1714500D02*
D03*
X1727200Y1636522D02*
D03*
X1808988Y1594612D02*
D03*
X1833118Y1584452D02*
D03*
X1500632Y1640586D02*
D03*
X1801114Y1618488D02*
D03*
X1861312Y1567952D02*
D03*
X1723898Y1580388D02*
D03*
X1881000Y1594500D02*
D03*
X1835546Y1748018D02*
D03*
X1816998Y1730502D02*
D03*
X1595374Y1869694D02*
D03*
X1801114Y1714500D02*
D03*
X1946402Y1656842D02*
D03*
X1956000Y1457960D02*
D03*
X2001520Y1540764D02*
D03*
X1901698Y1414018D02*
D03*
X1752092Y1533398D02*
D03*
X1721104Y1569974D02*
D03*
X1704594Y1536192D02*
D03*
X1690116Y1560830D02*
D03*
X1706372Y1565402D02*
D03*
X1948000Y1342390D02*
D03*
X1924000Y1346046D02*
D03*
X1916000Y1381428D02*
D03*
X1905762Y1345946D02*
D03*
X1899920Y1380236D02*
D03*
X1760982Y1652016D02*
D03*
X2011934Y1405250D02*
D03*
X1664970Y1519682D02*
D03*
X1776984Y1634490D02*
D03*
X1906270Y1583436D02*
D03*
X2020000Y1374648D02*
D03*
X1769110Y1626616D02*
D03*
X2011934Y1487170D02*
D03*
X2004060Y1450848D02*
D03*
X1760982Y1618488D02*
D03*
X1980000Y1480892D02*
D03*
X1768985Y1602486D02*
D03*
X1753210Y1581021D02*
D03*
X1870032Y1483614D02*
D03*
X1801118Y1642618D02*
D03*
X1697482Y1632712D02*
D03*
X1849882Y1441704D02*
D03*
X1876044Y1415796D02*
D03*
X1785112Y1626669D02*
D03*
X1883918Y1368044D02*
D03*
X1112012Y1937988D02*
D03*
Y1945988D02*
D03*
X765556Y2330950D02*
D03*
Y2241804D02*
D03*
X1996000Y1454404D02*
D03*
X1769110Y1618488D02*
D03*
X1900682Y1931670D02*
D03*
X1933956Y1618996D02*
D03*
X1684020Y1345946D02*
D03*
X1704594Y1553076D02*
D03*
X1907293Y1600207D02*
D03*
X1684000Y1457960D02*
D03*
X1883156Y1572768D02*
D03*
X1831594Y1522222D02*
D03*
X1866138Y1441958D02*
D03*
X1741226Y1624020D02*
D03*
X1853000Y1733988D02*
D03*
X1816100Y1741170D02*
D03*
X1881064Y1736030D02*
D03*
X1519936Y1986788D02*
D03*
X1872996Y1714500D02*
D03*
X1840992Y1594508D02*
D03*
X1808988Y1610360D02*
D03*
X1497330Y1913128D02*
D03*
X1609968Y1368000D02*
D03*
X1905762Y1634490D02*
D03*
X1128014Y1938020D02*
D03*
X1307084Y1799082D02*
D03*
X1468000Y1496314D02*
D03*
X1732000Y1345946D02*
D03*
X1937258Y1505966D02*
D03*
X1897012Y1618488D02*
D03*
X1198372Y1904411D02*
D03*
X1166000Y1835404D02*
D03*
X872744Y2251202D02*
D03*
X710184Y1885188D02*
D03*
X1385500Y2142500D02*
D03*
X1412500Y2194500D02*
D03*
X1978152Y1495298D02*
D03*
X1775714Y1383284D02*
D03*
X1760728Y1642364D02*
D03*
X1701038D02*
D03*
X1808734Y1468120D02*
D03*
X1996000Y1368044D02*
D03*
X1491234Y1506982D02*
D03*
X1607312Y1642872D02*
D03*
X1909064Y1674622D02*
D03*
X1725524Y1368044D02*
D03*
X1824990Y1706626D02*
D03*
X1808988Y1626616D02*
D03*
X1912340Y1498622D02*
D03*
X1656334Y1332230D02*
D03*
X1905000Y1650492D02*
D03*
X1700000Y1343968D02*
D03*
X1540000Y1458214D02*
D03*
X1780000Y1453896D02*
D03*
X1850136Y1545082D02*
D03*
X1802130Y1560576D02*
D03*
X1792986Y1634490D02*
D03*
X1988000Y1508310D02*
D03*
X1732280Y1604518D02*
D03*
X1948000Y1484122D02*
D03*
X1808988Y1666494D02*
D03*
X1988000Y1380998D02*
D03*
X1931555Y1657604D02*
D03*
X1769110Y1650492D02*
D03*
X1802130D02*
D03*
X1924304Y1652524D02*
D03*
X1883664Y1555496D02*
D03*
X872800Y1996000D02*
D03*
X1914557Y1663541D02*
D03*
X1795018Y1745996D02*
D03*
X1397254Y1733296D02*
D03*
X1817000Y1714500D02*
D03*
X1604518Y1749552D02*
D03*
X1979930Y1613154D02*
D03*
X1888998Y1594612D02*
D03*
X1696466Y1507744D02*
D03*
X1623004Y1534470D02*
D03*
X1808987Y1618488D02*
D03*
X1784986Y1602486D02*
D03*
X1697228Y1574038D02*
D03*
X1826000Y1509904D02*
D03*
X1860000Y1504229D02*
D03*
X1769110Y1594612D02*
D03*
X1868170Y1370076D02*
D03*
X1785112Y1618488D02*
D03*
X1628510Y1586092D02*
D03*
X1992122Y1498346D02*
D03*
X1425702Y1386954D02*
D03*
X1824990Y1732534D02*
D03*
X1747774Y1690370D02*
D03*
X1785112Y1722374D02*
D03*
X1692000Y1372064D02*
D03*
X1524000Y1371600D02*
D03*
X1764000D02*
D03*
X1772000Y1374140D02*
D03*
X1532000Y1375532D02*
D03*
X1372108Y1480058D02*
D03*
X1612000Y1480000D02*
D03*
X1808988Y1582425D02*
D03*
X1397254Y1769364D02*
D03*
X1801114Y1722374D02*
D03*
X1659890Y1345946D02*
D03*
X1785112Y1714500D02*
D03*
X969010Y1862074D02*
D03*
X1605840Y1571967D02*
D03*
X1620266Y1480058D02*
D03*
X1388000Y1489202D02*
D03*
X1894032Y1371600D02*
D03*
X1516126Y1486154D02*
D03*
X1746402Y1489558D02*
D03*
X1792986Y1610360D02*
D03*
X1749552Y1632458D02*
D03*
X1656334Y1625346D02*
D03*
X1884000Y1484064D02*
D03*
X1793748Y1602486D02*
D03*
X1917700Y1721612D02*
D03*
X1741678Y1558544D02*
D03*
X1915840Y1484000D02*
D03*
X1873014Y1602486D02*
D03*
X1989545Y1620686D02*
D03*
X1528572Y2098294D02*
D03*
X1776984Y1706516D02*
D03*
X1372616Y1811020D02*
D03*
X1793000Y1714500D02*
D03*
X1767332Y1737614D02*
D03*
X1724261Y1526939D02*
D03*
X1151890Y1953890D02*
D03*
X1798518Y1785874D02*
D03*
X2007616Y1554500D02*
D03*
X1524000Y1448054D02*
D03*
X1764000D02*
D03*
X1785112Y1838706D02*
D03*
X2039874Y1584452D02*
D03*
X1769110Y1642618D02*
D03*
X1872996Y1730496D02*
D03*
X1112012Y1865884D02*
D03*
X1696085Y1435735D02*
D03*
X1484000Y1388364D02*
D03*
X1176020Y1897888D02*
D03*
X1516000Y1380998D02*
D03*
X1886000Y1516000D02*
D03*
X1917192Y1580404D02*
D03*
X1972056Y1657350D02*
D03*
X1408064Y1373124D02*
D03*
X1644000Y1368000D02*
D03*
X1986534Y1634500D02*
D03*
X1766062Y1550162D02*
D03*
X1706001Y1511936D02*
D03*
X1887982Y1542034D02*
D03*
X1690064Y1634000D02*
D03*
X1260094Y1403096D02*
D03*
X1647952Y1537970D02*
D03*
X1090478Y1918000D02*
D03*
X1310950Y1895800D02*
D03*
X1187958Y1938020D02*
D03*
X1817116Y1722384D02*
D03*
X1335024Y1857756D02*
D03*
X1770888Y1480058D02*
D03*
X1124000Y1957500D02*
D03*
X1119886Y1938020D02*
D03*
X1915616Y1455968D02*
D03*
X1080306Y1934000D02*
D03*
X1710182Y1544066D02*
D03*
X1754124Y1598422D02*
D03*
X1906976Y1592636D02*
D03*
X1474978Y1908048D02*
D03*
X1754904Y1610500D02*
D03*
X1707904Y1691968D02*
D03*
X1800998Y1739624D02*
D03*
X1785112Y1690388D02*
D03*
X1777002Y1698498D02*
D03*
X1757574Y1695963D02*
D03*
X1808988Y1732534D02*
D03*
X1119886Y1881886D02*
D03*
X1096010Y1945894D02*
D03*
X1112012Y1890014D02*
D03*
X1750060Y1727200D02*
D03*
X1230064Y2023999D02*
D03*
X1167894Y1945894D02*
D03*
X1918208Y1745932D02*
D03*
X1135886Y1881886D02*
D03*
X1112012Y1922018D02*
D03*
X1766001Y1522096D02*
D03*
X1646000Y1513968D02*
D03*
X1758968Y1576340D02*
D03*
X1956032Y1394000D02*
D03*
X1934032Y1480000D02*
D03*
X1223968Y2083999D02*
D03*
X1707904Y1573999D02*
D03*
X1750822Y1708658D02*
D03*
X1561968Y1573999D02*
D03*
X1921936Y1664000D02*
D03*
X1119886Y1945894D02*
D03*
X1160018D02*
D03*
X1006000Y1825658D02*
D03*
X1446276Y1726184D02*
D03*
X1776984Y1722374D02*
D03*
X1128014Y1945894D02*
D03*
X1119886Y1890014D02*
D03*
X1094232Y1912112D02*
D03*
X1690064Y1691968D02*
D03*
X1398064Y1394000D02*
D03*
X1088032Y1838452D02*
D03*
X1176020Y1945894D02*
D03*
X1089152Y1883918D02*
D03*
X1103884Y1881886D02*
D03*
X1628000Y1368000D02*
D03*
X1388000Y1377188D02*
D03*
X1120000Y1863968D02*
D03*
X1135888Y1890113D02*
D03*
X1526032Y1392936D02*
D03*
X1176020Y1938020D02*
D03*
X1175890Y1913890D02*
D03*
X1096010Y1957832D02*
D03*
X1568064Y1513999D02*
D03*
X1734312Y1780032D02*
D03*
X1104012Y1874012D02*
D03*
X1542096Y1634000D02*
D03*
X1544001Y1391968D02*
D03*
X2024000D02*
D03*
X1694032Y1480000D02*
D03*
X1118064Y1773999D02*
D03*
X1194000Y1767903D02*
D03*
X1242568Y1926000D02*
D03*
X1103884Y1865884D02*
D03*
X1152000Y1861936D02*
D03*
X1683968Y1573999D02*
D03*
X1136936Y1114500D02*
D03*
X1151982Y1922018D02*
D03*
X1160018Y1881886D02*
D03*
X1651000Y1247902D02*
D03*
X1255000Y1103122D02*
D03*
X1845310Y1181354D02*
D03*
X1256032Y1843999D02*
D03*
X1112012Y1874012D02*
D03*
X1128014D02*
D03*
X972312Y1061466D02*
D03*
X739140Y2230374D02*
D03*
X1111978Y1954022D02*
D03*
X1160018Y1959532D02*
D03*
X1006000Y1874012D02*
D03*
X1183894Y1945894D02*
D03*
X1151890D02*
D03*
X1379982Y1345946D02*
D03*
X1611936Y1394000D02*
D03*
X1167892Y1922018D02*
D03*
X1098042Y1204468D02*
D03*
X817626Y1435354D02*
D03*
X707898Y1847596D02*
D03*
X729750Y1545844D02*
D03*
X817757Y1633851D02*
D03*
X1096160Y1966032D02*
D03*
X1817878Y1194562D02*
D03*
X816102Y2193790D02*
D03*
X872800Y2104644D02*
D03*
X834600Y1282192D02*
D03*
X1331406Y1201166D02*
D03*
X1277874Y1197102D02*
D03*
X814250Y1594866D02*
D03*
X729750Y1569974D02*
D03*
X872744Y2131314D02*
D03*
X1167892Y1929892D02*
D03*
X1157986Y1194500D02*
D03*
X1375726D02*
D03*
X1176000Y1863968D02*
D03*
X1160018Y1938020D02*
D03*
X937260Y1293876D02*
D03*
X834644D02*
D03*
X1656334Y1813814D02*
D03*
X1778000Y1778000D02*
D03*
X1299210Y1422654D02*
D03*
X1826006Y1544066D02*
D03*
X1824990Y1594612D02*
D03*
X1872996D02*
D03*
X720090Y1065784D02*
D03*
X795020Y1017778D02*
D03*
X587500Y1183000D02*
D03*
X729750Y1608000D02*
D03*
X834600Y1346000D02*
D03*
X833750Y1563000D02*
D03*
X834600Y1236000D02*
D03*
X911850Y1293999D02*
D03*
Y1194000D02*
D03*
X834600Y1136000D02*
D03*
X991850Y1323999D02*
D03*
Y1253999D02*
D03*
X911850Y1114000D02*
D03*
X587500Y973000D02*
D03*
X820000Y1838500D02*
D03*
X834600Y1026000D02*
D03*
X911850Y1043999D02*
D03*
X1083999Y1524000D02*
D03*
X911850Y974000D02*
D03*
X1081000Y1114500D02*
D03*
X1144000Y1524000D02*
D03*
X1034000Y1773999D02*
D03*
X708912Y1977500D02*
D03*
X1046000Y1783999D02*
D03*
X998600Y973000D02*
D03*
X1090000Y1079500D02*
D03*
X1016000Y1843999D02*
D03*
X1034000Y1833999D02*
D03*
X1126000Y1783999D02*
D03*
X1016000Y1904000D02*
D03*
X841800Y2011310D02*
D03*
X1260000Y1447000D02*
D03*
X1090000Y961500D02*
D03*
X1201000Y1114500D02*
D03*
X1120000Y1874000D02*
D03*
X1016000Y1964000D02*
D03*
X1210000Y1079500D02*
D03*
X1112000Y1898000D02*
D03*
X1196000Y1816000D02*
D03*
X841800Y2071310D02*
D03*
X1152000Y1874000D02*
D03*
X1144000Y1890000D02*
D03*
X1261000Y1114500D02*
D03*
X1120000Y1930000D02*
D03*
X1176000Y1874000D02*
D03*
X1168000Y1898000D02*
D03*
Y1914000D02*
D03*
X1152000Y1938000D02*
D03*
X1210000Y961500D02*
D03*
X1226000Y1843999D02*
D03*
X1321000Y1114500D02*
D03*
X1156000Y1964000D02*
D03*
X1396000Y1458000D02*
D03*
X1226000Y1904000D02*
D03*
X1404000Y1480000D02*
D03*
X1330000Y1079500D02*
D03*
X843800Y2192310D02*
D03*
X1156000Y2023999D02*
D03*
X1381000Y1114500D02*
D03*
X1226000Y1964000D02*
D03*
X1452000Y1480000D02*
D03*
X1330000Y961500D02*
D03*
X1460000Y1346000D02*
D03*
X1464000Y1394000D02*
D03*
X1156000Y2083999D02*
D03*
X1441000Y1114500D02*
D03*
X1450000Y1079500D02*
D03*
X841800Y2311310D02*
D03*
X1536000Y1513999D02*
D03*
X1501000Y1114500D02*
D03*
X1536000Y1573999D02*
D03*
X1450000Y961500D02*
D03*
X1536000Y1694000D02*
D03*
X841800Y2371310D02*
D03*
X1561000Y1114500D02*
D03*
X1570000Y1079500D02*
D03*
X1636000Y1458000D02*
D03*
X1616000Y1634000D02*
D03*
X1644000Y1394000D02*
D03*
X1586000Y1753999D02*
D03*
X1652000Y1458000D02*
D03*
X1616000Y1694000D02*
D03*
X1621000Y1114500D02*
D03*
X1570000Y961500D02*
D03*
X1714000Y1394000D02*
D03*
X1681000Y1114500D02*
D03*
X1690000Y1079500D02*
D03*
Y961500D02*
D03*
X1741000Y1114500D02*
D03*
X1784000Y1394000D02*
D03*
X1769000Y1634500D02*
D03*
X1761000Y1730500D02*
D03*
X1785000Y1610500D02*
D03*
X1777000Y1714500D02*
D03*
X1801000Y1594500D02*
D03*
Y1634500D02*
D03*
X1793000Y1706500D02*
D03*
X1801000Y1114500D02*
D03*
X1809000Y1722500D02*
D03*
X1825000Y1666500D02*
D03*
X1810000Y1079500D02*
D03*
X1849000Y1666500D02*
D03*
X1841000Y1706500D02*
D03*
X1865000Y1618500D02*
D03*
X1884000Y1394000D02*
D03*
X1810000Y961500D02*
D03*
X1861000Y1114500D02*
D03*
X1865000Y1722500D02*
D03*
X1889000Y1602500D02*
D03*
Y1610500D02*
D03*
X1881000Y1698500D02*
D03*
X1897000Y1634500D02*
D03*
X1889000Y1714500D02*
D03*
X1897000Y1682500D02*
D03*
X1926000Y1543999D02*
D03*
X1905000Y1730500D02*
D03*
X1926000Y1603999D02*
D03*
X1940000Y1346000D02*
D03*
X1921000Y1114500D02*
D03*
X1926000Y1724000D02*
D03*
X1930000Y1079500D02*
D03*
Y961500D02*
D03*
X1981000Y1114500D02*
D03*
X834600Y1184000D02*
D03*
X937350Y1194000D02*
D03*
X1018100Y1188500D02*
D03*
X1017350Y1253999D02*
D03*
Y1323999D02*
D03*
X729750Y1750000D02*
D03*
X1312000Y1377000D02*
D03*
X1120000Y1596500D02*
D03*
X1366000Y1394000D02*
D03*
X1452000Y1368000D02*
D03*
X1436000Y1394000D02*
D03*
X1120000Y1714500D02*
D03*
X1460000Y1458000D02*
D03*
X1074000Y1783999D02*
D03*
X1044000Y1843999D02*
D03*
X1154000Y1783999D02*
D03*
X1224000D02*
D03*
X1044000Y1904000D02*
D03*
X1160000Y1874000D02*
D03*
X1168000D02*
D03*
X1120000Y1898000D02*
D03*
X1152000Y1890000D02*
D03*
X1160000Y1898000D02*
D03*
X1686000Y1394000D02*
D03*
X1160000Y1914000D02*
D03*
X1128000Y1930000D02*
D03*
X1044000Y1964000D02*
D03*
X1152000Y1930000D02*
D03*
X1700000Y1458000D02*
D03*
X1114000Y1964000D02*
D03*
X1564000Y1634000D02*
D03*
X1756000Y1394000D02*
D03*
X1254000Y1904000D02*
D03*
X1644000Y1573999D02*
D03*
X1184000Y1964000D02*
D03*
X1564000Y1694000D02*
D03*
X1644000Y1634000D02*
D03*
X1254000Y1964000D02*
D03*
X1184000Y2023999D02*
D03*
X1856000Y1394000D02*
D03*
X1644000Y1694000D02*
D03*
X1714000Y1634000D02*
D03*
X1254000Y2023999D02*
D03*
X1932000Y1368000D02*
D03*
X1184000Y2083999D02*
D03*
X1769000Y1610500D02*
D03*
X1785000Y1594500D02*
D03*
X1926000Y1394000D02*
D03*
X1793000Y1618500D02*
D03*
X1801000Y1610500D02*
D03*
X1254000Y2083999D02*
D03*
X1769000Y1698500D02*
D03*
X1761000Y1722500D02*
D03*
X1793000Y1698500D02*
D03*
X1996000Y1394000D02*
D03*
X1793000Y1722500D02*
D03*
X1809000Y1706500D02*
D03*
X1825000Y1698500D02*
D03*
X1897000Y1610500D02*
D03*
X1841000Y1698500D02*
D03*
Y1722500D02*
D03*
X1865000Y1706500D02*
D03*
X1897000Y1666500D02*
D03*
X1873000Y1698500D02*
D03*
X1897000D02*
D03*
X1881000Y1722500D02*
D03*
X1412500Y2142500D02*
D03*
X1897000Y1722500D02*
D03*
X2032500Y1585500D02*
D03*
X1385500Y2194500D02*
D03*
X2032500Y1665500D02*
D03*
Y1714500D02*
D03*
X937350Y1043999D02*
D03*
Y1114000D02*
D03*
X1030600Y1093000D02*
D03*
X1825000Y1674500D02*
D03*
X1841000Y1666500D02*
D03*
X1849000Y1650500D02*
D03*
Y1674500D02*
D03*
X1777000Y1610500D02*
D03*
X1801000Y1626500D02*
D03*
X1817000Y1666500D02*
D03*
X1777000Y1674500D02*
D03*
X1881000Y1714500D02*
D03*
X1897000Y1706500D02*
D03*
X1849000Y1714500D02*
D03*
X1865000Y1730750D02*
D03*
X1784750D02*
D03*
X1863750Y1457250D02*
D03*
X1536000Y1480250D02*
D03*
X1383500Y1369000D02*
D03*
X594250Y1946250D02*
D03*
X1093500Y1871750D02*
D03*
X1387250Y1265500D02*
D03*
X1333000Y1692500D02*
D03*
X1788414Y1803146D02*
D03*
X1785366Y1811782D02*
D03*
X1889760Y1766570D02*
D03*
X1676250Y1697750D02*
D03*
X1623250Y1753750D02*
D03*
X1544500Y1512500D02*
D03*
X1988000Y1583000D02*
D03*
X1719750Y1345250D02*
D03*
X1933750Y1792500D02*
D03*
X1841750Y1801750D02*
D03*
X1867250Y1778500D02*
D03*
X1947000Y1757250D02*
D03*
X1954500Y1481500D02*
D03*
X1960500Y1526250D02*
D03*
X1777000Y1642500D02*
D03*
X1817000Y1594500D02*
D03*
X1793000D02*
D03*
X1881000Y1610500D02*
D03*
X1888750Y1634750D02*
D03*
X1865000Y1642500D02*
D03*
X1785000D02*
D03*
X1833000D02*
D03*
X1897000Y1674500D02*
D03*
X1833000Y1682500D02*
D03*
X1777746Y1681988D02*
D03*
X1756664Y1685798D02*
D03*
X1769000Y1682500D02*
D03*
X1769000Y1690500D02*
D03*
X1873000Y1706500D02*
D03*
X1817000D02*
D03*
X1785000D02*
D03*
X1769000D02*
D03*
X1777000Y1730750D02*
D03*
X1769126Y1722374D02*
D03*
X1769000Y1730500D02*
D03*
X1849000Y1722500D02*
D03*
X1472000Y1369500D02*
D03*
X1907750Y1607750D02*
D03*
X1896750Y1626750D02*
D03*
X1840992Y1586508D02*
D03*
X1872996Y1586504D02*
D03*
X1865122Y1586484D02*
D03*
X1865000Y1690500D02*
D03*
X1865122Y1650492D02*
D03*
X1873000Y1666500D02*
D03*
X1872995Y1682496D02*
D03*
X1865122Y1682496D02*
D03*
X1872870Y1690497D02*
D03*
X1881000Y1682500D02*
D03*
X1841000Y1674500D02*
D03*
Y1682500D02*
D03*
X1849120Y1682496D02*
D03*
X1881000Y1666500D02*
D03*
X1888997Y1682497D02*
D03*
X1865000Y1626500D02*
D03*
X1896877Y1642623D02*
D03*
X1897126Y1650492D02*
D03*
X1856994Y1666494D02*
D03*
X1864868D02*
D03*
X1857000Y1682500D02*
D03*
X1856994Y1674622D02*
D03*
X1865000Y1674500D02*
D03*
X1872996Y1674622D02*
D03*
X1881000Y1674500D02*
D03*
X1888998Y1674622D02*
D03*
Y1666494D02*
D03*
Y1642618D02*
D03*
X1880870D02*
D03*
X1857000Y1634500D02*
D03*
X1872996Y1650492D02*
D03*
Y1642618D02*
D03*
X1881000Y1634500D02*
D03*
X1793500Y1650000D02*
D03*
X1880500Y1651000D02*
D03*
X1840500Y1714000D02*
D03*
X1801000Y1706500D02*
D03*
X1888000Y1697750D02*
D03*
X1848500Y1706000D02*
D03*
X1908750Y1716500D02*
D03*
X1912000Y1627500D02*
D03*
X1840090Y1635330D02*
D03*
X1748000Y1625250D02*
D03*
X1825000Y1610500D02*
D03*
X1817116Y1610614D02*
D03*
Y1618488D02*
D03*
X1825116Y1626616D02*
D03*
X1777500Y1619000D02*
D03*
X1757250Y1624250D02*
D03*
X1777500Y1603000D02*
D03*
X1864091Y1595328D02*
D03*
X594750Y1927000D02*
D03*
X1189750Y1873500D02*
D03*
X1520750Y1490000D02*
D03*
X1742000Y1565000D02*
D03*
X1653250Y1584000D02*
D03*
X1676500Y1656500D02*
D03*
X1421000Y1932250D02*
D03*
X1709000Y1481250D02*
D03*
X1809750Y1713750D02*
D03*
X1760250Y1634250D02*
D03*
X1734500Y1431000D02*
D03*
X1413250Y1378500D02*
D03*
X1781500Y1512250D02*
D03*
X1674250Y1392000D02*
D03*
X1825000Y1642500D02*
D03*
X1825250Y1634500D02*
D03*
X1856994Y1610614D02*
D03*
X1847840Y1611579D02*
D03*
D55*
X957500Y1130500D02*
D03*
M02*
