%FSLAX44Y44*%
%MOMM*%
G71*
G01*
G75*
G04 Layer_Color=8421504*
%ADD10R,2.5000X1.2600*%
%ADD11R,2.5000X1.0000*%
%ADD12R,1.3000X1.3000*%
%ADD13R,2.6000X0.9500*%
%ADD14R,1.0000X1.0000*%
G04:AMPARAMS|DCode=15|XSize=1.8mm|YSize=2mm|CornerRadius=0mm|HoleSize=0mm|Usage=FLASHONLY|Rotation=180.000|XOffset=0mm|YOffset=0mm|HoleType=Round|Shape=Octagon|*
%AMOCTAGOND15*
4,1,8,0.4500,-1.0000,-0.4500,-1.0000,-0.9000,-0.5500,-0.9000,0.5500,-0.4500,1.0000,0.4500,1.0000,0.9000,0.5500,0.9000,-0.5500,0.4500,-1.0000,0.0*
%
%ADD15OCTAGOND15*%

%ADD16R,1.8000X2.0000*%
%ADD17O,0.4500X1.8000*%
%ADD18R,1.8000X1.1500*%
%ADD19R,0.9500X1.7000*%
%ADD20R,0.8000X0.8000*%
%ADD21R,1.3500X2.8000*%
%ADD22R,1.2000X2.6000*%
%ADD23R,0.7000X1.8000*%
%ADD24R,0.9500X2.6000*%
%ADD25C,0.3500*%
%ADD26R,1.3500X1.9000*%
%ADD27R,1.4000X2.1000*%
G04:AMPARAMS|DCode=28|XSize=1.5mm|YSize=0.35mm|CornerRadius=0.035mm|HoleSize=0mm|Usage=FLASHONLY|Rotation=0.000|XOffset=0mm|YOffset=0mm|HoleType=Round|Shape=RoundedRectangle|*
%AMROUNDEDRECTD28*
21,1,1.5000,0.2800,0,0,0.0*
21,1,1.4300,0.3500,0,0,0.0*
1,1,0.0700,0.7150,-0.1400*
1,1,0.0700,-0.7150,-0.1400*
1,1,0.0700,-0.7150,0.1400*
1,1,0.0700,0.7150,0.1400*
%
%ADD28ROUNDEDRECTD28*%
G04:AMPARAMS|DCode=29|XSize=1.5mm|YSize=1.2mm|CornerRadius=0.12mm|HoleSize=0mm|Usage=FLASHONLY|Rotation=0.000|XOffset=0mm|YOffset=0mm|HoleType=Round|Shape=RoundedRectangle|*
%AMROUNDEDRECTD29*
21,1,1.5000,0.9600,0,0,0.0*
21,1,1.2600,1.2000,0,0,0.0*
1,1,0.2400,0.6300,-0.4800*
1,1,0.2400,-0.6300,-0.4800*
1,1,0.2400,-0.6300,0.4800*
1,1,0.2400,0.6300,0.4800*
%
%ADD29ROUNDEDRECTD29*%
%ADD30R,0.8500X0.7000*%
%ADD31R,1.1176X0.6096*%
%ADD32R,1.1000X0.6000*%
%ADD33R,1.3000X2.2000*%
%ADD34O,0.5500X1.6000*%
%ADD35R,2.2000X1.2000*%
%ADD36R,2.0000X1.0000*%
%ADD37R,1.9000X1.3500*%
%ADD38C,0.3600*%
%ADD39C,0.1000*%
%ADD40C,0.2540*%
%ADD41C,1.5000*%
%ADD42C,1.5000*%
%ADD43O,4.0000X2.0000*%
%ADD44O,2.0000X4.0000*%
%ADD45O,2.0000X4.5000*%
%ADD46C,1.6000*%
%ADD47R,1.6000X1.6000*%
%ADD48R,1.5000X1.5000*%
G04:AMPARAMS|DCode=49|XSize=2.4mm|YSize=1.6mm|CornerRadius=0.4mm|HoleSize=0mm|Usage=FLASHONLY|Rotation=0.000|XOffset=0mm|YOffset=0mm|HoleType=Round|Shape=RoundedRectangle|*
%AMROUNDEDRECTD49*
21,1,2.4000,0.8000,0,0,0.0*
21,1,1.6000,1.6000,0,0,0.0*
1,1,0.8000,0.8000,-0.4000*
1,1,0.8000,-0.8000,-0.4000*
1,1,0.8000,-0.8000,0.4000*
1,1,0.8000,0.8000,0.4000*
%
%ADD49ROUNDEDRECTD49*%
%ADD50C,1.6900*%
%ADD51R,1.6900X1.6900*%
%ADD52C,4.7600*%
%ADD53R,1.5000X1.5000*%
%ADD54C,0.4000*%
%ADD55C,0.6000*%
%ADD56C,1.0160*%
%ADD57C,1.5080*%
%ADD58C,1.5080*%
%ADD59C,1.4080*%
%ADD60O,2.0080X1.3080*%
%ADD61C,1.5980*%
%ADD62C,3.7680*%
%ADD63C,0.7080*%
%ADD64C,0.2500*%
%ADD65C,0.6000*%
%ADD66C,0.2000*%
%ADD67C,0.0500*%
%ADD68C,0.1500*%
D10*
X750000Y2168390D02*
D03*
Y2193790D02*
D03*
Y2219190D02*
D03*
Y2142990D02*
D03*
Y2117590D02*
D03*
Y2101080D02*
D03*
Y2244590D02*
D03*
Y2269990D02*
D03*
Y2295390D02*
D03*
Y2311900D02*
D03*
Y2330950D02*
D03*
Y2350000D02*
D03*
D11*
Y2087110D02*
D03*
D12*
X1981000Y1124000D02*
D03*
Y1148000D02*
D03*
X1921000Y1124000D02*
D03*
Y1148000D02*
D03*
X1861000Y1124000D02*
D03*
Y1148000D02*
D03*
X1801000Y1124000D02*
D03*
Y1148000D02*
D03*
X1741000Y1124000D02*
D03*
Y1148000D02*
D03*
X1681000Y1124000D02*
D03*
Y1148000D02*
D03*
X1621000Y1124000D02*
D03*
Y1148000D02*
D03*
X1561000Y1124000D02*
D03*
Y1148000D02*
D03*
X1501000Y1124000D02*
D03*
Y1148000D02*
D03*
X1441000Y1124000D02*
D03*
Y1148000D02*
D03*
X1381000Y1124000D02*
D03*
Y1148000D02*
D03*
X1321000Y1124000D02*
D03*
Y1148000D02*
D03*
X1261000Y1124000D02*
D03*
Y1148000D02*
D03*
X1201000Y1124000D02*
D03*
Y1148000D02*
D03*
X1141000Y1124000D02*
D03*
Y1148000D02*
D03*
X1081000Y1124000D02*
D03*
Y1148000D02*
D03*
D13*
X1160000Y1524000D02*
D03*
Y1496000D02*
D03*
X1100000D02*
D03*
Y1524000D02*
D03*
D14*
X1316000Y1439000D02*
D03*
D15*
X1312000Y1434000D02*
D03*
D16*
X1260000Y1390000D02*
D03*
X1312000D02*
D03*
X1260000Y1434000D02*
D03*
D17*
X840250Y1619000D02*
D03*
X833750D02*
D03*
X827250D02*
D03*
X820750D02*
D03*
X814250D02*
D03*
X807750D02*
D03*
X801250D02*
D03*
X794750D02*
D03*
X840250Y1551000D02*
D03*
X833750D02*
D03*
X827250D02*
D03*
X820750D02*
D03*
X814250D02*
D03*
X807750D02*
D03*
X801250D02*
D03*
X794750D02*
D03*
D18*
X2010000Y1194500D02*
D03*
Y1223500D02*
D03*
X1950000Y1194500D02*
D03*
Y1223500D02*
D03*
X1890000Y1194500D02*
D03*
Y1223500D02*
D03*
X1830000Y1194500D02*
D03*
Y1223500D02*
D03*
X1770000Y1194500D02*
D03*
Y1223500D02*
D03*
X1710000Y1194500D02*
D03*
Y1223500D02*
D03*
X1650000Y1194500D02*
D03*
Y1223500D02*
D03*
X1590000Y1194500D02*
D03*
Y1223500D02*
D03*
X1530000Y1194500D02*
D03*
Y1223500D02*
D03*
X1470000Y1194500D02*
D03*
Y1223500D02*
D03*
X1410000Y1194500D02*
D03*
Y1223500D02*
D03*
X1350000Y1194500D02*
D03*
Y1223500D02*
D03*
X1290000Y1194500D02*
D03*
Y1223500D02*
D03*
X1230000Y1194500D02*
D03*
Y1223500D02*
D03*
X1170000Y1194500D02*
D03*
Y1223500D02*
D03*
X1110000Y1194500D02*
D03*
Y1223500D02*
D03*
D19*
X1385500Y2206000D02*
D03*
X1412500D02*
D03*
Y2154000D02*
D03*
X1385500D02*
D03*
X1018100Y1200000D02*
D03*
X991100D02*
D03*
X870800Y2203810D02*
D03*
X843800D02*
D03*
D20*
X1523500Y1998000D02*
D03*
X1508500D02*
D03*
X1635500Y1999000D02*
D03*
X1620500D02*
D03*
X572500Y980000D02*
D03*
X587500D02*
D03*
X572500Y1190000D02*
D03*
X587500D02*
D03*
D21*
X998600Y990000D02*
D03*
X1030600D02*
D03*
X998600Y1110000D02*
D03*
X1030600D02*
D03*
D22*
X937350Y990000D02*
D03*
X911850D02*
D03*
X937350Y1060000D02*
D03*
X911850D02*
D03*
X937350Y1130000D02*
D03*
X911850D02*
D03*
X937350Y1310000D02*
D03*
X911850D02*
D03*
X1017350Y1340000D02*
D03*
X991850D02*
D03*
X937350Y1210000D02*
D03*
X911850D02*
D03*
X1017350Y1270000D02*
D03*
X991850D02*
D03*
D23*
X834600Y1124000D02*
D03*
Y1096000D02*
D03*
Y1014000D02*
D03*
Y986000D02*
D03*
Y1334000D02*
D03*
Y1306000D02*
D03*
Y1224000D02*
D03*
Y1196000D02*
D03*
X820000Y1826500D02*
D03*
Y1798500D02*
D03*
X729750Y1738000D02*
D03*
Y1710000D02*
D03*
Y1648000D02*
D03*
Y1620000D02*
D03*
X820000Y1738000D02*
D03*
Y1710000D02*
D03*
X729750Y1558000D02*
D03*
Y1530000D02*
D03*
D24*
X1034000Y1850000D02*
D03*
X1006000D02*
D03*
X1034000Y1790000D02*
D03*
X1006000D02*
D03*
X1114000D02*
D03*
X1086000D02*
D03*
X1194000D02*
D03*
X1166000D02*
D03*
D25*
X1180000Y1870000D02*
D03*
X1172000D02*
D03*
X1164000D02*
D03*
X1156000D02*
D03*
X1148000D02*
D03*
X1140000D02*
D03*
X1132000D02*
D03*
X1124000D02*
D03*
X1116000D02*
D03*
X1108000D02*
D03*
X1100000D02*
D03*
X1180000Y1878000D02*
D03*
X1172000D02*
D03*
X1164000D02*
D03*
X1156000D02*
D03*
X1148000D02*
D03*
X1140000D02*
D03*
X1132000D02*
D03*
X1124000D02*
D03*
X1116000D02*
D03*
X1108000D02*
D03*
X1100000D02*
D03*
X1180000Y1886000D02*
D03*
X1172000D02*
D03*
X1164000D02*
D03*
X1156000D02*
D03*
X1148000D02*
D03*
X1140000D02*
D03*
X1132000D02*
D03*
X1124000D02*
D03*
X1116000D02*
D03*
X1108000D02*
D03*
X1100000D02*
D03*
X1180000Y1894000D02*
D03*
X1172000D02*
D03*
X1164000D02*
D03*
X1156000D02*
D03*
X1148000D02*
D03*
X1140000D02*
D03*
X1132000D02*
D03*
X1124000D02*
D03*
X1116000D02*
D03*
X1108000D02*
D03*
X1100000D02*
D03*
X1180000Y1902000D02*
D03*
X1172000D02*
D03*
X1164000D02*
D03*
X1156000D02*
D03*
X1148000D02*
D03*
X1140000D02*
D03*
X1132000D02*
D03*
X1124000D02*
D03*
X1116000D02*
D03*
X1108000D02*
D03*
X1100000D02*
D03*
X1180000Y1910000D02*
D03*
X1172000D02*
D03*
X1164000D02*
D03*
X1156000D02*
D03*
X1148000D02*
D03*
X1140000D02*
D03*
X1132000D02*
D03*
X1124000D02*
D03*
X1116000D02*
D03*
X1108000D02*
D03*
X1100000D02*
D03*
X1180000Y1918000D02*
D03*
X1172000D02*
D03*
X1164000D02*
D03*
X1156000D02*
D03*
X1148000D02*
D03*
X1140000D02*
D03*
X1132000D02*
D03*
X1124000D02*
D03*
X1116000D02*
D03*
X1108000D02*
D03*
X1100000D02*
D03*
X1180000Y1926000D02*
D03*
X1172000D02*
D03*
X1164000D02*
D03*
X1156000D02*
D03*
X1148000D02*
D03*
X1140000D02*
D03*
X1132000D02*
D03*
X1124000D02*
D03*
X1116000D02*
D03*
X1108000D02*
D03*
X1100000D02*
D03*
X1180000Y1934000D02*
D03*
X1172000D02*
D03*
X1164000D02*
D03*
X1156000D02*
D03*
X1148000D02*
D03*
X1140000D02*
D03*
X1132000D02*
D03*
X1124000D02*
D03*
X1116000D02*
D03*
X1108000D02*
D03*
X1100000D02*
D03*
X1180000Y1942000D02*
D03*
X1172000D02*
D03*
X1164000D02*
D03*
X1156000D02*
D03*
X1148000D02*
D03*
X1140000D02*
D03*
X1132000D02*
D03*
X1124000D02*
D03*
X1116000D02*
D03*
X1108000D02*
D03*
X1100000D02*
D03*
X1180000Y1950000D02*
D03*
X1172000D02*
D03*
X1164000D02*
D03*
X1156000D02*
D03*
X1148000D02*
D03*
X1140000D02*
D03*
X1132000D02*
D03*
X1124000D02*
D03*
X1116000D02*
D03*
X1108000D02*
D03*
X1100000D02*
D03*
D26*
X841800Y2263810D02*
D03*
X872800D02*
D03*
X841800Y2323810D02*
D03*
X872800D02*
D03*
X841800Y2383810D02*
D03*
X872800D02*
D03*
X841800Y1963810D02*
D03*
X872800D02*
D03*
X841800Y2023810D02*
D03*
X872800D02*
D03*
X841800Y2083810D02*
D03*
X872800D02*
D03*
X841800Y2143810D02*
D03*
X872800D02*
D03*
D27*
X1930000Y975000D02*
D03*
Y1066000D02*
D03*
X1975000D02*
D03*
Y975000D02*
D03*
X1810000D02*
D03*
Y1066000D02*
D03*
X1855000D02*
D03*
Y975000D02*
D03*
X1690000D02*
D03*
Y1066000D02*
D03*
X1735000D02*
D03*
Y975000D02*
D03*
X1570000D02*
D03*
Y1066000D02*
D03*
X1615000D02*
D03*
Y975000D02*
D03*
X1450000D02*
D03*
Y1066000D02*
D03*
X1495000D02*
D03*
Y975000D02*
D03*
X1330000D02*
D03*
Y1066000D02*
D03*
X1375000D02*
D03*
Y975000D02*
D03*
X1210000D02*
D03*
Y1066000D02*
D03*
X1255000D02*
D03*
Y975000D02*
D03*
X1090000D02*
D03*
Y1066000D02*
D03*
X1135000D02*
D03*
Y975000D02*
D03*
X1120000Y1701000D02*
D03*
Y1610000D02*
D03*
X1075000D02*
D03*
Y1701000D02*
D03*
D28*
X582001Y1927000D02*
D03*
Y1933500D02*
D03*
Y1940000D02*
D03*
Y1946500D02*
D03*
Y1953000D02*
D03*
D29*
Y1916500D02*
D03*
Y1963500D02*
D03*
D30*
X722250Y1912500D02*
D03*
X737750D02*
D03*
D31*
X742500Y1987000D02*
D03*
Y1968000D02*
D03*
X717500Y1977500D02*
D03*
Y1968000D02*
D03*
Y1987000D02*
D03*
D32*
X716500Y1857500D02*
D03*
Y1847500D02*
D03*
X743500Y1857500D02*
D03*
Y1847500D02*
D03*
D33*
X1149000Y1430000D02*
D03*
X1111000D02*
D03*
D34*
X1372000Y1357000D02*
D03*
X1380000D02*
D03*
X1388000D02*
D03*
X1396000D02*
D03*
X1404000D02*
D03*
X1412000D02*
D03*
X1420000D02*
D03*
X1428000D02*
D03*
X1436000D02*
D03*
X1444000D02*
D03*
X1452000D02*
D03*
X1460000D02*
D03*
X1468000D02*
D03*
X1476000D02*
D03*
X1484000D02*
D03*
X1492000D02*
D03*
X1500000D02*
D03*
X1508000D02*
D03*
X1516000D02*
D03*
X1524000D02*
D03*
X1532000D02*
D03*
X1540000D02*
D03*
X1372000Y1469000D02*
D03*
X1380000D02*
D03*
X1388000D02*
D03*
X1396000D02*
D03*
X1404000D02*
D03*
X1412000D02*
D03*
X1420000D02*
D03*
X1428000D02*
D03*
X1436000D02*
D03*
X1444000D02*
D03*
X1452000D02*
D03*
X1460000D02*
D03*
X1468000D02*
D03*
X1476000D02*
D03*
X1484000D02*
D03*
X1492000D02*
D03*
X1500000D02*
D03*
X1508000D02*
D03*
X1516000D02*
D03*
X1524000D02*
D03*
X1532000D02*
D03*
X1540000D02*
D03*
X1612000Y1357000D02*
D03*
X1620000D02*
D03*
X1628000D02*
D03*
X1636000D02*
D03*
X1644000D02*
D03*
X1652000D02*
D03*
X1660000D02*
D03*
X1668000D02*
D03*
X1676000D02*
D03*
X1684000D02*
D03*
X1692000D02*
D03*
X1700000D02*
D03*
X1708000D02*
D03*
X1716000D02*
D03*
X1724000D02*
D03*
X1732000D02*
D03*
X1740000D02*
D03*
X1748000D02*
D03*
X1756000D02*
D03*
X1764000D02*
D03*
X1772000D02*
D03*
X1780000D02*
D03*
X1612000Y1469000D02*
D03*
X1620000D02*
D03*
X1628000D02*
D03*
X1636000D02*
D03*
X1644000D02*
D03*
X1652000D02*
D03*
X1660000D02*
D03*
X1668000D02*
D03*
X1676000D02*
D03*
X1684000D02*
D03*
X1692000D02*
D03*
X1700000D02*
D03*
X1708000D02*
D03*
X1716000D02*
D03*
X1724000D02*
D03*
X1732000D02*
D03*
X1740000D02*
D03*
X1748000D02*
D03*
X1756000D02*
D03*
X1764000D02*
D03*
X1772000D02*
D03*
X1780000D02*
D03*
X1852000Y1357000D02*
D03*
X1860000D02*
D03*
X1868000D02*
D03*
X1876000D02*
D03*
X1884000D02*
D03*
X1892000D02*
D03*
X1900000D02*
D03*
X1908000D02*
D03*
X1916000D02*
D03*
X1924000D02*
D03*
X1932000D02*
D03*
X1940000D02*
D03*
X1948000D02*
D03*
X1956000D02*
D03*
X1964000D02*
D03*
X1972000D02*
D03*
X1980000D02*
D03*
X1988000D02*
D03*
X1996000D02*
D03*
X2004000D02*
D03*
X2012000D02*
D03*
X2020000D02*
D03*
X1852000Y1469000D02*
D03*
X1860000D02*
D03*
X1868000D02*
D03*
X1876000D02*
D03*
X1884000D02*
D03*
X1892000D02*
D03*
X1900000D02*
D03*
X1908000D02*
D03*
X1916000D02*
D03*
X1924000D02*
D03*
X1932000D02*
D03*
X1940000D02*
D03*
X1948000D02*
D03*
X1956000D02*
D03*
X1964000D02*
D03*
X1972000D02*
D03*
X1980000D02*
D03*
X1988000D02*
D03*
X1996000D02*
D03*
X2004000D02*
D03*
X2012000D02*
D03*
X2020000D02*
D03*
D35*
X880000Y1407500D02*
D03*
Y1452550D02*
D03*
D36*
X820000Y1445550D02*
D03*
Y1394750D02*
D03*
Y1420150D02*
D03*
D37*
X2020000Y1714500D02*
D03*
Y1745500D02*
D03*
Y1665500D02*
D03*
Y1634500D02*
D03*
Y1585500D02*
D03*
Y1554500D02*
D03*
D38*
X1765000Y1726500D02*
D03*
X1773000D02*
D03*
X1781000D02*
D03*
X1789000D02*
D03*
X1797000D02*
D03*
X1805000D02*
D03*
X1813000D02*
D03*
X1821000D02*
D03*
X1829000D02*
D03*
X1837000D02*
D03*
X1845000D02*
D03*
X1853000D02*
D03*
X1861000D02*
D03*
X1869000D02*
D03*
X1877000D02*
D03*
X1885000D02*
D03*
X1893000D02*
D03*
X1901000D02*
D03*
X1765000Y1718500D02*
D03*
X1773000D02*
D03*
X1781000D02*
D03*
X1789000D02*
D03*
X1797000D02*
D03*
X1805000D02*
D03*
X1813000D02*
D03*
X1821000D02*
D03*
X1829000D02*
D03*
X1837000D02*
D03*
X1845000D02*
D03*
X1853000D02*
D03*
X1861000D02*
D03*
X1869000D02*
D03*
X1877000D02*
D03*
X1885000D02*
D03*
X1893000D02*
D03*
X1901000D02*
D03*
X1765000Y1710500D02*
D03*
X1773000D02*
D03*
X1781000D02*
D03*
X1789000D02*
D03*
X1797000D02*
D03*
X1805000D02*
D03*
X1813000D02*
D03*
X1821000D02*
D03*
X1829000D02*
D03*
X1837000D02*
D03*
X1845000D02*
D03*
X1853000D02*
D03*
X1861000D02*
D03*
X1869000D02*
D03*
X1877000D02*
D03*
X1885000D02*
D03*
X1893000D02*
D03*
X1901000D02*
D03*
X1765000Y1702500D02*
D03*
X1773000D02*
D03*
X1781000D02*
D03*
X1789000D02*
D03*
X1797000D02*
D03*
X1805000D02*
D03*
X1813000D02*
D03*
X1821000D02*
D03*
X1829000D02*
D03*
X1837000D02*
D03*
X1845000D02*
D03*
X1853000D02*
D03*
X1861000D02*
D03*
X1869000D02*
D03*
X1877000D02*
D03*
X1885000D02*
D03*
X1893000D02*
D03*
X1901000D02*
D03*
X1765000Y1694500D02*
D03*
X1773000D02*
D03*
X1781000D02*
D03*
X1789000D02*
D03*
X1797000D02*
D03*
X1805000D02*
D03*
X1813000D02*
D03*
X1821000D02*
D03*
X1829000D02*
D03*
X1837000D02*
D03*
X1845000D02*
D03*
X1853000D02*
D03*
X1861000D02*
D03*
X1869000D02*
D03*
X1877000D02*
D03*
X1885000D02*
D03*
X1893000D02*
D03*
X1901000D02*
D03*
X1765000Y1686500D02*
D03*
X1773000D02*
D03*
X1781000D02*
D03*
X1789000D02*
D03*
X1797000D02*
D03*
X1805000D02*
D03*
X1813000D02*
D03*
X1821000D02*
D03*
X1829000D02*
D03*
X1837000D02*
D03*
X1845000D02*
D03*
X1853000D02*
D03*
X1861000D02*
D03*
X1869000D02*
D03*
X1877000D02*
D03*
X1885000D02*
D03*
X1893000D02*
D03*
X1901000D02*
D03*
X1765000Y1678500D02*
D03*
X1773000D02*
D03*
X1781000D02*
D03*
X1789000D02*
D03*
X1797000D02*
D03*
X1805000D02*
D03*
X1813000D02*
D03*
X1821000D02*
D03*
X1829000D02*
D03*
X1837000D02*
D03*
X1845000D02*
D03*
X1853000D02*
D03*
X1861000D02*
D03*
X1869000D02*
D03*
X1877000D02*
D03*
X1885000D02*
D03*
X1893000D02*
D03*
X1901000D02*
D03*
X1765000Y1670500D02*
D03*
X1773000D02*
D03*
X1781000D02*
D03*
X1789000D02*
D03*
X1797000D02*
D03*
X1805000D02*
D03*
X1813000D02*
D03*
X1821000D02*
D03*
X1829000D02*
D03*
X1837000D02*
D03*
X1845000D02*
D03*
X1853000D02*
D03*
X1861000D02*
D03*
X1869000D02*
D03*
X1877000D02*
D03*
X1885000D02*
D03*
X1893000D02*
D03*
X1901000D02*
D03*
X1765000Y1662500D02*
D03*
X1773000D02*
D03*
X1781000D02*
D03*
X1789000D02*
D03*
X1797000D02*
D03*
X1805000D02*
D03*
X1813000D02*
D03*
X1821000D02*
D03*
X1829000D02*
D03*
X1837000D02*
D03*
X1845000D02*
D03*
X1853000D02*
D03*
X1861000D02*
D03*
X1869000D02*
D03*
X1877000D02*
D03*
X1885000D02*
D03*
X1893000D02*
D03*
X1901000D02*
D03*
X1765000Y1654500D02*
D03*
X1773000D02*
D03*
X1781000D02*
D03*
X1789000D02*
D03*
X1797000D02*
D03*
X1805000D02*
D03*
X1813000D02*
D03*
X1821000D02*
D03*
X1829000D02*
D03*
X1837000D02*
D03*
X1845000D02*
D03*
X1853000D02*
D03*
X1861000D02*
D03*
X1869000D02*
D03*
X1877000D02*
D03*
X1885000D02*
D03*
X1893000D02*
D03*
X1901000D02*
D03*
X1765000Y1646500D02*
D03*
X1773000D02*
D03*
X1781000D02*
D03*
X1789000D02*
D03*
X1797000D02*
D03*
X1805000D02*
D03*
X1813000D02*
D03*
X1821000D02*
D03*
X1829000D02*
D03*
X1837000D02*
D03*
X1845000D02*
D03*
X1853000D02*
D03*
X1861000D02*
D03*
X1869000D02*
D03*
X1877000D02*
D03*
X1885000D02*
D03*
X1893000D02*
D03*
X1901000D02*
D03*
X1765000Y1638500D02*
D03*
X1773000D02*
D03*
X1781000D02*
D03*
X1789000D02*
D03*
X1797000D02*
D03*
X1805000D02*
D03*
X1813000D02*
D03*
X1821000D02*
D03*
X1829000D02*
D03*
X1837000D02*
D03*
X1845000D02*
D03*
X1853000D02*
D03*
X1861000D02*
D03*
X1869000D02*
D03*
X1877000D02*
D03*
X1885000D02*
D03*
X1893000D02*
D03*
X1901000D02*
D03*
X1765000Y1630500D02*
D03*
X1773000D02*
D03*
X1781000D02*
D03*
X1789000D02*
D03*
X1797000D02*
D03*
X1805000D02*
D03*
X1813000D02*
D03*
X1821000D02*
D03*
X1829000D02*
D03*
X1837000D02*
D03*
X1845000D02*
D03*
X1853000D02*
D03*
X1861000D02*
D03*
X1869000D02*
D03*
X1877000D02*
D03*
X1885000D02*
D03*
X1893000D02*
D03*
X1901000D02*
D03*
X1765000Y1622500D02*
D03*
X1773000D02*
D03*
X1781000D02*
D03*
X1789000D02*
D03*
X1797000D02*
D03*
X1805000D02*
D03*
X1813000D02*
D03*
X1821000D02*
D03*
X1829000D02*
D03*
X1837000D02*
D03*
X1845000D02*
D03*
X1853000D02*
D03*
X1861000D02*
D03*
X1869000D02*
D03*
X1877000D02*
D03*
X1885000D02*
D03*
X1893000D02*
D03*
X1901000D02*
D03*
X1765000Y1614500D02*
D03*
X1773000D02*
D03*
X1781000D02*
D03*
X1789000D02*
D03*
X1797000D02*
D03*
X1805000D02*
D03*
X1813000D02*
D03*
X1821000D02*
D03*
X1829000D02*
D03*
X1837000D02*
D03*
X1845000D02*
D03*
X1853000D02*
D03*
X1861000D02*
D03*
X1869000D02*
D03*
X1877000D02*
D03*
X1885000D02*
D03*
X1893000D02*
D03*
X1901000D02*
D03*
X1765000Y1606500D02*
D03*
X1773000D02*
D03*
X1781000D02*
D03*
X1789000D02*
D03*
X1797000D02*
D03*
X1805000D02*
D03*
X1813000D02*
D03*
X1821000D02*
D03*
X1829000D02*
D03*
X1837000D02*
D03*
X1845000D02*
D03*
X1853000D02*
D03*
X1861000D02*
D03*
X1869000D02*
D03*
X1877000D02*
D03*
X1885000D02*
D03*
X1893000D02*
D03*
X1901000D02*
D03*
X1765000Y1598500D02*
D03*
X1773000D02*
D03*
X1781000D02*
D03*
X1789000D02*
D03*
X1797000D02*
D03*
X1805000D02*
D03*
X1813000D02*
D03*
X1821000D02*
D03*
X1829000D02*
D03*
X1837000D02*
D03*
X1845000D02*
D03*
X1853000D02*
D03*
X1861000D02*
D03*
X1869000D02*
D03*
X1877000D02*
D03*
X1885000D02*
D03*
X1893000D02*
D03*
X1901000D02*
D03*
X1765000Y1590500D02*
D03*
X1773000D02*
D03*
X1781000D02*
D03*
X1789000D02*
D03*
X1797000D02*
D03*
X1805000D02*
D03*
X1813000D02*
D03*
X1821000D02*
D03*
X1829000D02*
D03*
X1837000D02*
D03*
X1845000D02*
D03*
X1853000D02*
D03*
X1861000D02*
D03*
X1869000D02*
D03*
X1877000D02*
D03*
X1885000D02*
D03*
X1893000D02*
D03*
X1901000D02*
D03*
M02*
