%FSLAX44Y44*%
%MOMM*%
G71*
G01*
G75*
G04 Layer_Physical_Order=1*
G04 Layer_Color=255*
%ADD10C,0.3600*%
%ADD11R,1.9000X1.3500*%
%ADD12R,2.0000X1.0000*%
%ADD13R,2.2000X1.2000*%
%ADD14R,1.4000X2.1000*%
%ADD15O,0.5500X1.6000*%
%ADD16R,1.3000X2.2000*%
%ADD17R,1.1000X0.6000*%
%ADD18R,1.1176X0.6096*%
%ADD19R,0.8500X0.7000*%
G04:AMPARAMS|DCode=20|XSize=1.5mm|YSize=1.2mm|CornerRadius=0.12mm|HoleSize=0mm|Usage=FLASHONLY|Rotation=0.000|XOffset=0mm|YOffset=0mm|HoleType=Round|Shape=RoundedRectangle|*
%AMROUNDEDRECTD20*
21,1,1.5000,0.9600,0,0,0.0*
21,1,1.2600,1.2000,0,0,0.0*
1,1,0.2400,0.6300,-0.4800*
1,1,0.2400,-0.6300,-0.4800*
1,1,0.2400,-0.6300,0.4800*
1,1,0.2400,0.6300,0.4800*
%
%ADD20ROUNDEDRECTD20*%
G04:AMPARAMS|DCode=21|XSize=1.5mm|YSize=0.35mm|CornerRadius=0.035mm|HoleSize=0mm|Usage=FLASHONLY|Rotation=0.000|XOffset=0mm|YOffset=0mm|HoleType=Round|Shape=RoundedRectangle|*
%AMROUNDEDRECTD21*
21,1,1.5000,0.2800,0,0,0.0*
21,1,1.4300,0.3500,0,0,0.0*
1,1,0.0700,0.7150,-0.1400*
1,1,0.0700,-0.7150,-0.1400*
1,1,0.0700,-0.7150,0.1400*
1,1,0.0700,0.7150,0.1400*
%
%ADD21ROUNDEDRECTD21*%
%ADD22R,0.7000X1.8000*%
%ADD23R,1.3500X1.9000*%
%ADD24R,0.9500X1.7000*%
%ADD25C,0.3500*%
%ADD26R,0.9500X2.6000*%
%ADD27R,1.2000X2.6000*%
%ADD28R,0.8000X0.8000*%
%ADD29R,1.3500X2.8000*%
%ADD30R,1.8000X1.1500*%
%ADD31O,0.4500X1.8000*%
%ADD32R,1.8000X2.0000*%
G04:AMPARAMS|DCode=33|XSize=1.8mm|YSize=2mm|CornerRadius=0mm|HoleSize=0mm|Usage=FLASHONLY|Rotation=180.000|XOffset=0mm|YOffset=0mm|HoleType=Round|Shape=Octagon|*
%AMOCTAGOND33*
4,1,8,0.4500,-1.0000,-0.4500,-1.0000,-0.9000,-0.5500,-0.9000,0.5500,-0.4500,1.0000,0.4500,1.0000,0.9000,0.5500,0.9000,-0.5500,0.4500,-1.0000,0.0*
%
%ADD33OCTAGOND33*%

%ADD34R,1.0000X1.0000*%
%ADD35R,2.6000X0.9500*%
%ADD36R,1.3000X1.3000*%
%ADD37R,2.5000X1.2600*%
%ADD38R,2.5000X1.0000*%
%ADD39C,0.1000*%
%ADD40C,0.2540*%
%ADD41C,1.5000*%
%ADD42R,1.5000X1.5000*%
%ADD43R,1.5000X1.5000*%
%ADD44C,4.7600*%
%ADD45R,1.6900X1.6900*%
%ADD46C,1.6900*%
G04:AMPARAMS|DCode=47|XSize=2.4mm|YSize=1.6mm|CornerRadius=0.4mm|HoleSize=0mm|Usage=FLASHONLY|Rotation=0.000|XOffset=0mm|YOffset=0mm|HoleType=Round|Shape=RoundedRectangle|*
%AMROUNDEDRECTD47*
21,1,2.4000,0.8000,0,0,0.0*
21,1,1.6000,1.6000,0,0,0.0*
1,1,0.8000,0.8000,-0.4000*
1,1,0.8000,-0.8000,-0.4000*
1,1,0.8000,-0.8000,0.4000*
1,1,0.8000,0.8000,0.4000*
%
%ADD47ROUNDEDRECTD47*%
%ADD48R,1.6000X1.6000*%
%ADD49C,1.6000*%
%ADD50O,2.0000X4.5000*%
%ADD51O,2.0000X4.0000*%
%ADD52O,4.0000X2.0000*%
%ADD53C,1.5000*%
%ADD54C,2.4000*%
%ADD55C,0.4000*%
%ADD56C,0.6000*%
D10*
X1901000Y1590500D02*
D03*
X1893000D02*
D03*
X1885000D02*
D03*
X1877000D02*
D03*
X1869000D02*
D03*
X1861000D02*
D03*
X1853000D02*
D03*
X1845000D02*
D03*
X1837000D02*
D03*
X1829000D02*
D03*
X1821000D02*
D03*
X1813000D02*
D03*
X1805000D02*
D03*
X1797000D02*
D03*
X1789000D02*
D03*
X1781000D02*
D03*
X1773000D02*
D03*
X1765000D02*
D03*
X1901000Y1598500D02*
D03*
X1893000D02*
D03*
X1885000D02*
D03*
X1877000D02*
D03*
X1869000D02*
D03*
X1861000D02*
D03*
X1853000D02*
D03*
X1845000D02*
D03*
X1837000D02*
D03*
X1829000D02*
D03*
X1821000D02*
D03*
X1813000D02*
D03*
X1805000D02*
D03*
X1797000D02*
D03*
X1789000D02*
D03*
X1781000D02*
D03*
X1773000D02*
D03*
X1765000D02*
D03*
X1901000Y1606500D02*
D03*
X1893000D02*
D03*
X1885000D02*
D03*
X1877000D02*
D03*
X1869000D02*
D03*
X1861000D02*
D03*
X1853000D02*
D03*
X1845000D02*
D03*
X1837000D02*
D03*
X1829000D02*
D03*
X1821000D02*
D03*
X1813000D02*
D03*
X1805000D02*
D03*
X1797000D02*
D03*
X1789000D02*
D03*
X1781000D02*
D03*
X1773000D02*
D03*
X1765000D02*
D03*
X1901000Y1614500D02*
D03*
X1893000D02*
D03*
X1885000D02*
D03*
X1877000D02*
D03*
X1869000D02*
D03*
X1861000D02*
D03*
X1853000D02*
D03*
X1845000D02*
D03*
X1837000D02*
D03*
X1829000D02*
D03*
X1821000D02*
D03*
X1813000D02*
D03*
X1805000D02*
D03*
X1797000D02*
D03*
X1789000D02*
D03*
X1781000D02*
D03*
X1773000D02*
D03*
X1765000D02*
D03*
X1901000Y1622500D02*
D03*
X1893000D02*
D03*
X1885000D02*
D03*
X1877000D02*
D03*
X1869000D02*
D03*
X1861000D02*
D03*
X1853000D02*
D03*
X1845000D02*
D03*
X1837000D02*
D03*
X1829000D02*
D03*
X1821000D02*
D03*
X1813000D02*
D03*
X1805000D02*
D03*
X1797000D02*
D03*
X1789000D02*
D03*
X1781000D02*
D03*
X1773000D02*
D03*
X1765000D02*
D03*
X1901000Y1630500D02*
D03*
X1893000D02*
D03*
X1885000D02*
D03*
X1877000D02*
D03*
X1869000D02*
D03*
X1861000D02*
D03*
X1853000D02*
D03*
X1845000D02*
D03*
X1837000D02*
D03*
X1829000D02*
D03*
X1821000D02*
D03*
X1813000D02*
D03*
X1805000D02*
D03*
X1797000D02*
D03*
X1789000D02*
D03*
X1781000D02*
D03*
X1773000D02*
D03*
X1765000D02*
D03*
X1901000Y1638500D02*
D03*
X1893000D02*
D03*
X1885000D02*
D03*
X1877000D02*
D03*
X1869000D02*
D03*
X1861000D02*
D03*
X1853000D02*
D03*
X1845000D02*
D03*
X1837000D02*
D03*
X1829000D02*
D03*
X1821000D02*
D03*
X1813000D02*
D03*
X1805000D02*
D03*
X1797000D02*
D03*
X1789000D02*
D03*
X1781000D02*
D03*
X1773000D02*
D03*
X1765000D02*
D03*
X1901000Y1646500D02*
D03*
X1893000D02*
D03*
X1885000D02*
D03*
X1877000D02*
D03*
X1869000D02*
D03*
X1861000D02*
D03*
X1853000D02*
D03*
X1845000D02*
D03*
X1837000D02*
D03*
X1829000D02*
D03*
X1821000D02*
D03*
X1813000D02*
D03*
X1805000D02*
D03*
X1797000D02*
D03*
X1789000D02*
D03*
X1781000D02*
D03*
X1773000D02*
D03*
X1765000D02*
D03*
X1901000Y1654500D02*
D03*
X1893000D02*
D03*
X1885000D02*
D03*
X1877000D02*
D03*
X1869000D02*
D03*
X1861000D02*
D03*
X1853000D02*
D03*
X1845000D02*
D03*
X1837000D02*
D03*
X1829000D02*
D03*
X1821000D02*
D03*
X1813000D02*
D03*
X1805000D02*
D03*
X1797000D02*
D03*
X1789000D02*
D03*
X1781000D02*
D03*
X1773000D02*
D03*
X1765000D02*
D03*
X1901000Y1662500D02*
D03*
X1893000D02*
D03*
X1885000D02*
D03*
X1877000D02*
D03*
X1869000D02*
D03*
X1861000D02*
D03*
X1853000D02*
D03*
X1845000D02*
D03*
X1837000D02*
D03*
X1829000D02*
D03*
X1821000D02*
D03*
X1813000D02*
D03*
X1805000D02*
D03*
X1797000D02*
D03*
X1789000D02*
D03*
X1781000D02*
D03*
X1773000D02*
D03*
X1765000D02*
D03*
X1901000Y1670500D02*
D03*
X1893000D02*
D03*
X1885000D02*
D03*
X1877000D02*
D03*
X1869000D02*
D03*
X1861000D02*
D03*
X1853000D02*
D03*
X1845000D02*
D03*
X1837000D02*
D03*
X1829000D02*
D03*
X1821000D02*
D03*
X1813000D02*
D03*
X1805000D02*
D03*
X1797000D02*
D03*
X1789000D02*
D03*
X1781000D02*
D03*
X1773000D02*
D03*
X1765000D02*
D03*
X1901000Y1678500D02*
D03*
X1893000D02*
D03*
X1885000D02*
D03*
X1877000D02*
D03*
X1869000D02*
D03*
X1861000D02*
D03*
X1853000D02*
D03*
X1845000D02*
D03*
X1837000D02*
D03*
X1829000D02*
D03*
X1821000D02*
D03*
X1813000D02*
D03*
X1805000D02*
D03*
X1797000D02*
D03*
X1789000D02*
D03*
X1781000D02*
D03*
X1773000D02*
D03*
X1765000D02*
D03*
X1901000Y1686500D02*
D03*
X1893000D02*
D03*
X1885000D02*
D03*
X1877000D02*
D03*
X1869000D02*
D03*
X1861000D02*
D03*
X1853000D02*
D03*
X1845000D02*
D03*
X1837000D02*
D03*
X1829000D02*
D03*
X1821000D02*
D03*
X1813000D02*
D03*
X1805000D02*
D03*
X1797000D02*
D03*
X1789000D02*
D03*
X1781000D02*
D03*
X1773000D02*
D03*
X1765000D02*
D03*
X1901000Y1694500D02*
D03*
X1893000D02*
D03*
X1885000D02*
D03*
X1877000D02*
D03*
X1869000D02*
D03*
X1861000D02*
D03*
X1853000D02*
D03*
X1845000D02*
D03*
X1837000D02*
D03*
X1829000D02*
D03*
X1821000D02*
D03*
X1813000D02*
D03*
X1805000D02*
D03*
X1797000D02*
D03*
X1789000D02*
D03*
X1781000D02*
D03*
X1773000D02*
D03*
X1765000D02*
D03*
X1901000Y1702500D02*
D03*
X1893000D02*
D03*
X1885000D02*
D03*
X1877000D02*
D03*
X1869000D02*
D03*
X1861000D02*
D03*
X1853000D02*
D03*
X1845000D02*
D03*
X1837000D02*
D03*
X1829000D02*
D03*
X1821000D02*
D03*
X1813000D02*
D03*
X1805000D02*
D03*
X1797000D02*
D03*
X1789000D02*
D03*
X1781000D02*
D03*
X1773000D02*
D03*
X1765000D02*
D03*
X1901000Y1710500D02*
D03*
X1893000D02*
D03*
X1885000D02*
D03*
X1877000D02*
D03*
X1869000D02*
D03*
X1861000D02*
D03*
X1853000D02*
D03*
X1845000D02*
D03*
X1837000D02*
D03*
X1829000D02*
D03*
X1821000D02*
D03*
X1813000D02*
D03*
X1805000D02*
D03*
X1797000D02*
D03*
X1789000D02*
D03*
X1781000D02*
D03*
X1773000D02*
D03*
X1765000D02*
D03*
X1901000Y1718500D02*
D03*
X1893000D02*
D03*
X1885000D02*
D03*
X1877000D02*
D03*
X1869000D02*
D03*
X1861000D02*
D03*
X1853000D02*
D03*
X1845000D02*
D03*
X1837000D02*
D03*
X1829000D02*
D03*
X1821000D02*
D03*
X1813000D02*
D03*
X1805000D02*
D03*
X1797000D02*
D03*
X1789000D02*
D03*
X1781000D02*
D03*
X1773000D02*
D03*
X1765000D02*
D03*
X1901000Y1726500D02*
D03*
X1893000D02*
D03*
X1885000D02*
D03*
X1877000D02*
D03*
X1869000D02*
D03*
X1861000D02*
D03*
X1853000D02*
D03*
X1845000D02*
D03*
X1837000D02*
D03*
X1829000D02*
D03*
X1821000D02*
D03*
X1813000D02*
D03*
X1805000D02*
D03*
X1797000D02*
D03*
X1789000D02*
D03*
X1781000D02*
D03*
X1773000D02*
D03*
X1765000D02*
D03*
D11*
X2020000Y1554500D02*
D03*
Y1585500D02*
D03*
Y1634500D02*
D03*
Y1665500D02*
D03*
Y1745500D02*
D03*
Y1714500D02*
D03*
D12*
X820000Y1420150D02*
D03*
Y1394750D02*
D03*
Y1445550D02*
D03*
D13*
X880000Y1452550D02*
D03*
Y1407500D02*
D03*
D14*
X1075000Y1701000D02*
D03*
Y1610000D02*
D03*
X1120000D02*
D03*
Y1701000D02*
D03*
X1135000Y975000D02*
D03*
Y1066000D02*
D03*
X1090000D02*
D03*
Y975000D02*
D03*
X1255000D02*
D03*
Y1066000D02*
D03*
X1210000D02*
D03*
Y975000D02*
D03*
X1375000D02*
D03*
Y1066000D02*
D03*
X1330000D02*
D03*
Y975000D02*
D03*
X1495000D02*
D03*
Y1066000D02*
D03*
X1450000D02*
D03*
Y975000D02*
D03*
X1615000D02*
D03*
Y1066000D02*
D03*
X1570000D02*
D03*
Y975000D02*
D03*
X1735000D02*
D03*
Y1066000D02*
D03*
X1690000D02*
D03*
Y975000D02*
D03*
X1855000D02*
D03*
Y1066000D02*
D03*
X1810000D02*
D03*
Y975000D02*
D03*
X1975000D02*
D03*
Y1066000D02*
D03*
X1930000D02*
D03*
Y975000D02*
D03*
D15*
X2020000Y1469000D02*
D03*
X2012000D02*
D03*
X2004000D02*
D03*
X1996000D02*
D03*
X1988000D02*
D03*
X1980000D02*
D03*
X1972000D02*
D03*
X1964000D02*
D03*
X1956000D02*
D03*
X1948000D02*
D03*
X1940000D02*
D03*
X1932000D02*
D03*
X1924000D02*
D03*
X1916000D02*
D03*
X1908000D02*
D03*
X1900000D02*
D03*
X1892000D02*
D03*
X1884000D02*
D03*
X1876000D02*
D03*
X1868000D02*
D03*
X1860000D02*
D03*
X1852000D02*
D03*
X2020000Y1357000D02*
D03*
X2012000D02*
D03*
X2004000D02*
D03*
X1996000D02*
D03*
X1988000D02*
D03*
X1980000D02*
D03*
X1972000D02*
D03*
X1964000D02*
D03*
X1956000D02*
D03*
X1948000D02*
D03*
X1940000D02*
D03*
X1932000D02*
D03*
X1924000D02*
D03*
X1916000D02*
D03*
X1908000D02*
D03*
X1900000D02*
D03*
X1892000D02*
D03*
X1884000D02*
D03*
X1876000D02*
D03*
X1868000D02*
D03*
X1860000D02*
D03*
X1852000D02*
D03*
X1780000Y1469000D02*
D03*
X1772000D02*
D03*
X1764000D02*
D03*
X1756000D02*
D03*
X1748000D02*
D03*
X1740000D02*
D03*
X1732000D02*
D03*
X1724000D02*
D03*
X1716000D02*
D03*
X1708000D02*
D03*
X1700000D02*
D03*
X1692000D02*
D03*
X1684000D02*
D03*
X1676000D02*
D03*
X1668000D02*
D03*
X1660000D02*
D03*
X1652000D02*
D03*
X1644000D02*
D03*
X1636000D02*
D03*
X1628000D02*
D03*
X1620000D02*
D03*
X1612000D02*
D03*
X1780000Y1357000D02*
D03*
X1772000D02*
D03*
X1764000D02*
D03*
X1756000D02*
D03*
X1748000D02*
D03*
X1740000D02*
D03*
X1732000D02*
D03*
X1724000D02*
D03*
X1716000D02*
D03*
X1708000D02*
D03*
X1700000D02*
D03*
X1692000D02*
D03*
X1684000D02*
D03*
X1676000D02*
D03*
X1668000D02*
D03*
X1660000D02*
D03*
X1652000D02*
D03*
X1644000D02*
D03*
X1636000D02*
D03*
X1628000D02*
D03*
X1620000D02*
D03*
X1612000D02*
D03*
X1540000Y1469000D02*
D03*
X1532000D02*
D03*
X1524000D02*
D03*
X1516000D02*
D03*
X1508000D02*
D03*
X1500000D02*
D03*
X1492000D02*
D03*
X1484000D02*
D03*
X1476000D02*
D03*
X1468000D02*
D03*
X1460000D02*
D03*
X1452000D02*
D03*
X1444000D02*
D03*
X1436000D02*
D03*
X1428000D02*
D03*
X1420000D02*
D03*
X1412000D02*
D03*
X1404000D02*
D03*
X1396000D02*
D03*
X1388000D02*
D03*
X1380000D02*
D03*
X1372000D02*
D03*
X1540000Y1357000D02*
D03*
X1532000D02*
D03*
X1524000D02*
D03*
X1516000D02*
D03*
X1508000D02*
D03*
X1500000D02*
D03*
X1492000D02*
D03*
X1484000D02*
D03*
X1476000D02*
D03*
X1468000D02*
D03*
X1460000D02*
D03*
X1452000D02*
D03*
X1444000D02*
D03*
X1436000D02*
D03*
X1428000D02*
D03*
X1420000D02*
D03*
X1412000D02*
D03*
X1404000D02*
D03*
X1396000D02*
D03*
X1388000D02*
D03*
X1380000D02*
D03*
X1372000D02*
D03*
D16*
X1111000Y1430000D02*
D03*
X1149000D02*
D03*
D17*
X743500Y1847500D02*
D03*
Y1857500D02*
D03*
X716500Y1847500D02*
D03*
Y1857500D02*
D03*
D18*
X717500Y1987000D02*
D03*
Y1968000D02*
D03*
Y1977500D02*
D03*
X742500Y1968000D02*
D03*
Y1987000D02*
D03*
D19*
X737750Y1912500D02*
D03*
X722250D02*
D03*
D20*
X582001Y1963500D02*
D03*
Y1916500D02*
D03*
D21*
Y1953000D02*
D03*
Y1946500D02*
D03*
Y1940000D02*
D03*
Y1933500D02*
D03*
Y1927000D02*
D03*
D22*
X729750Y1530000D02*
D03*
Y1558000D02*
D03*
X820000Y1710000D02*
D03*
Y1738000D02*
D03*
X729750Y1620000D02*
D03*
Y1648000D02*
D03*
Y1710000D02*
D03*
Y1738000D02*
D03*
X820000Y1798500D02*
D03*
Y1826500D02*
D03*
X834600Y1196000D02*
D03*
Y1224000D02*
D03*
Y1306000D02*
D03*
Y1334000D02*
D03*
Y986000D02*
D03*
Y1014000D02*
D03*
Y1096000D02*
D03*
Y1124000D02*
D03*
D23*
X872800Y2143810D02*
D03*
X841800D02*
D03*
X872800Y2083810D02*
D03*
X841800D02*
D03*
X872800Y2023810D02*
D03*
X841800D02*
D03*
X872800Y1963810D02*
D03*
X841800D02*
D03*
X872800Y2383810D02*
D03*
X841800D02*
D03*
X872800Y2323810D02*
D03*
X841800D02*
D03*
X872800Y2263810D02*
D03*
X841800D02*
D03*
D24*
X843800Y2203810D02*
D03*
X870800D02*
D03*
X991100Y1200000D02*
D03*
X1018100D02*
D03*
X1385500Y2154000D02*
D03*
X1412500D02*
D03*
Y2206000D02*
D03*
X1385500D02*
D03*
D25*
X1100000Y1950000D02*
D03*
X1108000D02*
D03*
X1116000D02*
D03*
X1124000D02*
D03*
X1132000D02*
D03*
X1140000D02*
D03*
X1148000D02*
D03*
X1156000D02*
D03*
X1164000D02*
D03*
X1172000D02*
D03*
X1180000D02*
D03*
X1100000Y1942000D02*
D03*
X1108000D02*
D03*
X1116000D02*
D03*
X1124000D02*
D03*
X1132000D02*
D03*
X1140000D02*
D03*
X1148000D02*
D03*
X1156000D02*
D03*
X1164000D02*
D03*
X1172000D02*
D03*
X1180000D02*
D03*
X1100000Y1934000D02*
D03*
X1108000D02*
D03*
X1116000D02*
D03*
X1124000D02*
D03*
X1132000D02*
D03*
X1140000D02*
D03*
X1148000D02*
D03*
X1156000D02*
D03*
X1164000D02*
D03*
X1172000D02*
D03*
X1180000D02*
D03*
X1100000Y1926000D02*
D03*
X1108000D02*
D03*
X1116000D02*
D03*
X1124000D02*
D03*
X1132000D02*
D03*
X1140000D02*
D03*
X1148000D02*
D03*
X1156000D02*
D03*
X1164000D02*
D03*
X1172000D02*
D03*
X1180000D02*
D03*
X1100000Y1918000D02*
D03*
X1108000D02*
D03*
X1116000D02*
D03*
X1124000D02*
D03*
X1132000D02*
D03*
X1140000D02*
D03*
X1148000D02*
D03*
X1156000D02*
D03*
X1164000D02*
D03*
X1172000D02*
D03*
X1180000D02*
D03*
X1100000Y1910000D02*
D03*
X1108000D02*
D03*
X1116000D02*
D03*
X1124000D02*
D03*
X1132000D02*
D03*
X1140000D02*
D03*
X1148000D02*
D03*
X1156000D02*
D03*
X1164000D02*
D03*
X1172000D02*
D03*
X1180000D02*
D03*
X1100000Y1902000D02*
D03*
X1108000D02*
D03*
X1116000D02*
D03*
X1124000D02*
D03*
X1132000D02*
D03*
X1140000D02*
D03*
X1148000D02*
D03*
X1156000D02*
D03*
X1164000D02*
D03*
X1172000D02*
D03*
X1180000D02*
D03*
X1100000Y1894000D02*
D03*
X1108000D02*
D03*
X1116000D02*
D03*
X1124000D02*
D03*
X1132000D02*
D03*
X1140000D02*
D03*
X1148000D02*
D03*
X1156000D02*
D03*
X1164000D02*
D03*
X1172000D02*
D03*
X1180000D02*
D03*
X1100000Y1886000D02*
D03*
X1108000D02*
D03*
X1116000D02*
D03*
X1124000D02*
D03*
X1132000D02*
D03*
X1140000D02*
D03*
X1148000D02*
D03*
X1156000D02*
D03*
X1164000D02*
D03*
X1172000D02*
D03*
X1180000D02*
D03*
X1100000Y1878000D02*
D03*
X1108000D02*
D03*
X1116000D02*
D03*
X1124000D02*
D03*
X1132000D02*
D03*
X1140000D02*
D03*
X1148000D02*
D03*
X1156000D02*
D03*
X1164000D02*
D03*
X1172000D02*
D03*
X1180000D02*
D03*
X1100000Y1870000D02*
D03*
X1108000D02*
D03*
X1116000D02*
D03*
X1124000D02*
D03*
X1132000D02*
D03*
X1140000D02*
D03*
X1148000D02*
D03*
X1156000D02*
D03*
X1164000D02*
D03*
X1172000D02*
D03*
X1180000D02*
D03*
D26*
X1166000Y1790000D02*
D03*
X1194000D02*
D03*
X1086000D02*
D03*
X1114000D02*
D03*
X1006000D02*
D03*
X1034000D02*
D03*
X1006000Y1850000D02*
D03*
X1034000D02*
D03*
D27*
X991850Y1270000D02*
D03*
X1017350D02*
D03*
X911850Y1210000D02*
D03*
X937350D02*
D03*
X991850Y1340000D02*
D03*
X1017350D02*
D03*
X911850Y1310000D02*
D03*
X937350D02*
D03*
X911850Y1130000D02*
D03*
X937350D02*
D03*
X911850Y1060000D02*
D03*
X937350D02*
D03*
X911850Y990000D02*
D03*
X937350D02*
D03*
D28*
X587500Y1190000D02*
D03*
X572500D02*
D03*
X587500Y980000D02*
D03*
X572500D02*
D03*
X1620500Y1999000D02*
D03*
X1635500D02*
D03*
X1508500Y1998000D02*
D03*
X1523500D02*
D03*
D29*
X1030600Y1110000D02*
D03*
X998600D02*
D03*
X1030600Y990000D02*
D03*
X998600D02*
D03*
D30*
X1110000Y1223500D02*
D03*
Y1194500D02*
D03*
X1170000Y1223500D02*
D03*
Y1194500D02*
D03*
X1230000Y1223500D02*
D03*
Y1194500D02*
D03*
X1290000Y1223500D02*
D03*
Y1194500D02*
D03*
X1350000Y1223500D02*
D03*
Y1194500D02*
D03*
X1410000Y1223500D02*
D03*
Y1194500D02*
D03*
X1470000Y1223500D02*
D03*
Y1194500D02*
D03*
X1530000Y1223500D02*
D03*
Y1194500D02*
D03*
X1590000Y1223500D02*
D03*
Y1194500D02*
D03*
X1650000Y1223500D02*
D03*
Y1194500D02*
D03*
X1710000Y1223500D02*
D03*
Y1194500D02*
D03*
X1770000Y1223500D02*
D03*
Y1194500D02*
D03*
X1830000Y1223500D02*
D03*
Y1194500D02*
D03*
X1890000Y1223500D02*
D03*
Y1194500D02*
D03*
X1950000Y1223500D02*
D03*
Y1194500D02*
D03*
X2010000Y1223500D02*
D03*
Y1194500D02*
D03*
D31*
X794750Y1551000D02*
D03*
X801250D02*
D03*
X807750D02*
D03*
X814250D02*
D03*
X820750D02*
D03*
X827250D02*
D03*
X833750D02*
D03*
X840250D02*
D03*
X794750Y1619000D02*
D03*
X801250D02*
D03*
X807750D02*
D03*
X814250D02*
D03*
X820750D02*
D03*
X827250D02*
D03*
X833750D02*
D03*
X840250D02*
D03*
D32*
X1260000Y1434000D02*
D03*
X1312000Y1390000D02*
D03*
X1260000D02*
D03*
D33*
X1312000Y1434000D02*
D03*
D34*
X1316000Y1439000D02*
D03*
D35*
X1100000Y1524000D02*
D03*
Y1496000D02*
D03*
X1160000D02*
D03*
Y1524000D02*
D03*
D36*
X1081000Y1148000D02*
D03*
Y1124000D02*
D03*
X1141000Y1148000D02*
D03*
Y1124000D02*
D03*
X1201000Y1148000D02*
D03*
Y1124000D02*
D03*
X1261000Y1148000D02*
D03*
Y1124000D02*
D03*
X1321000Y1148000D02*
D03*
Y1124000D02*
D03*
X1381000Y1148000D02*
D03*
Y1124000D02*
D03*
X1441000Y1148000D02*
D03*
Y1124000D02*
D03*
X1501000Y1148000D02*
D03*
Y1124000D02*
D03*
X1561000Y1148000D02*
D03*
Y1124000D02*
D03*
X1621000Y1148000D02*
D03*
Y1124000D02*
D03*
X1681000Y1148000D02*
D03*
Y1124000D02*
D03*
X1741000Y1148000D02*
D03*
Y1124000D02*
D03*
X1801000Y1148000D02*
D03*
Y1124000D02*
D03*
X1861000Y1148000D02*
D03*
Y1124000D02*
D03*
X1921000Y1148000D02*
D03*
Y1124000D02*
D03*
X1981000Y1148000D02*
D03*
Y1124000D02*
D03*
D37*
X750000Y2350000D02*
D03*
Y2330950D02*
D03*
Y2311900D02*
D03*
Y2295390D02*
D03*
Y2269990D02*
D03*
Y2244590D02*
D03*
Y2101080D02*
D03*
Y2117590D02*
D03*
Y2142990D02*
D03*
Y2219190D02*
D03*
Y2193790D02*
D03*
Y2168390D02*
D03*
D38*
Y2087110D02*
D03*
D39*
X1847494Y1611605D02*
X1847520Y1611579D01*
X1847840D01*
X1847494Y1611605D02*
Y1611744D01*
X1847500Y1611750D01*
X1825000Y1634500D02*
X1829000Y1638500D01*
X1825000Y1642500D02*
X1829000Y1646500D01*
X1652000Y1369750D02*
X1674250Y1392000D01*
X1652000Y1357000D02*
Y1369750D01*
X1781368Y1512250D02*
X1781500D01*
X1780540Y1513078D02*
X1781368Y1512250D01*
X1780540Y1513078D02*
Y1526286D01*
X1771904Y1516223D02*
X1780581Y1507546D01*
X1787454D01*
X1412000Y1357000D02*
Y1377500D01*
X1809000Y1713750D02*
X1809750D01*
X1808988Y1713738D02*
X1809000Y1713750D01*
X1708000Y1469000D02*
Y1477066D01*
X1705356D02*
X1708000D01*
X1704142Y1478280D02*
X1705356Y1477066D01*
X1420550Y1932250D02*
X1421000D01*
X1420368Y1932432D02*
X1420550Y1932250D01*
X1676500Y1656500D02*
X1677328D01*
X1677670Y1656842D01*
X1516126Y1486154D02*
X1519972Y1490000D01*
X1520750D01*
X1189232Y1873500D02*
X1189750D01*
X1188974Y1873758D02*
X1189232Y1873500D01*
X1864013Y1595737D02*
X1864091Y1595659D01*
X1864000Y1595737D02*
X1864013D01*
X1864091Y1595328D02*
Y1595659D01*
X1863591Y1595328D02*
X1864000Y1595737D01*
X1863500Y1595318D02*
X1863510Y1595328D01*
X1863591D01*
X1863500Y1594710D02*
Y1595318D01*
Y1594710D02*
X1863598Y1594612D01*
X1776482Y1603000D02*
X1777500D01*
X1775968Y1602486D02*
X1776482Y1603000D01*
X1775968Y1602486D02*
Y1604518D01*
X1777500Y1618242D02*
Y1619000D01*
X1776984Y1617726D02*
X1777500Y1618242D01*
X1818047Y1627500D02*
X1818089Y1627542D01*
Y1627579D01*
X1817248Y1627500D02*
X1818047D01*
X1817116Y1627632D02*
X1817248Y1627500D01*
X1817116Y1627632D02*
X1818132D01*
X1829000Y1622750D02*
Y1623900D01*
X1825116Y1626616D02*
X1829000Y1630500D01*
X1840025Y1635330D02*
X1840090D01*
X1840000Y1635305D02*
X1840025Y1635330D01*
X1840000Y1635250D02*
Y1635305D01*
Y1635250D02*
X1840500Y1634750D01*
X1840132D02*
X1840500D01*
X1839872Y1634490D02*
X1840132Y1634750D01*
X1912000Y1627500D02*
Y1628252D01*
X1911858Y1628394D02*
X1912000Y1628252D01*
X1908750Y1716500D02*
Y1718370D01*
X1908556Y1718564D02*
X1908750Y1718370D01*
X1848500Y1706000D02*
X1848730D01*
X1849120Y1705610D01*
X1888000Y1697750D02*
Y1698480D01*
X1887982Y1698498D02*
X1888000Y1698480D01*
X1885950Y1696466D02*
X1887982Y1698498D01*
X1801000Y1706500D02*
Y1707274D01*
X1801114Y1707388D01*
X1840500Y1714000D02*
Y1714230D01*
X1840238Y1714492D02*
X1840500Y1714230D01*
X1880500Y1650884D02*
Y1651000D01*
X1880108Y1650492D02*
X1880500Y1650884D01*
X1793500Y1650000D02*
Y1650244D01*
X1793748Y1650492D01*
X1795476D01*
X1877000Y1638500D02*
X1881000Y1634500D01*
X1870456Y1650492D02*
X1872996D01*
X1853000Y1638500D02*
X1857000Y1634500D01*
X1856611Y1658112D02*
X1910334D01*
X1857632Y1691132D02*
X1861000Y1694500D01*
X1834896Y1691132D02*
X1857632D01*
X1897699Y1691200D02*
X1904746D01*
X1893000Y1686500D02*
X1897699Y1691200D01*
X1872870Y1690370D02*
Y1690497D01*
X1869000Y1686500D02*
X1872870Y1690370D01*
X1877000Y1662500D02*
X1881000Y1666500D01*
X1877000Y1670500D02*
X1881116Y1674616D01*
X1881124D01*
X1881008Y1674500D02*
X1881124Y1674616D01*
X1881000Y1674500D02*
X1881008D01*
X1824990Y1618488D02*
Y1618490D01*
X1840992Y1618488D02*
Y1618508D01*
X1837469Y1576642D02*
X1869376D01*
X1893242Y1630500D02*
X1896992Y1626750D01*
X1896750D02*
X1896992D01*
X1907750Y1607154D02*
Y1607750D01*
X1907032Y1606436D02*
X1907750Y1607154D01*
X1471750Y1368224D02*
Y1369250D01*
X1472000Y1369500D01*
X1471750Y1368224D02*
X1471930Y1368044D01*
X1849000Y1722500D02*
Y1722508D01*
X1849120Y1722628D01*
X1769000Y1729850D02*
Y1730500D01*
X1769126Y1722374D02*
X1773000Y1718500D01*
X1777000Y1730264D02*
Y1730750D01*
X1776984Y1730248D02*
X1777000Y1730264D01*
X1776984Y1730248D02*
X1777252D01*
X1769000Y1706250D02*
Y1706500D01*
Y1706250D02*
X1769232D01*
X1768856Y1706626D02*
X1769232Y1706250D01*
X1784984Y1706500D02*
X1785620Y1705864D01*
X1784984Y1706500D02*
X1785000D01*
X1816988D02*
X1817000D01*
X1816862Y1706626D02*
X1816988Y1706500D01*
X1873000D02*
Y1706750D01*
X1768945Y1690500D02*
X1771107Y1688338D01*
X1768945Y1690500D02*
X1769000D01*
X1769000Y1682500D02*
X1773000Y1678500D01*
X1800984Y1690500D02*
X1801000D01*
X1800860Y1690624D02*
X1800984Y1690500D01*
X1861000Y1686500D02*
X1865000Y1690500D01*
Y1690500D02*
Y1690500D01*
X1829000Y1678500D02*
X1833000Y1682500D01*
Y1682500D02*
Y1682500D01*
X1785000Y1674500D02*
Y1674510D01*
X1785112Y1674622D01*
X1787144Y1672590D01*
X1865000Y1674500D02*
X1865122Y1674622D01*
X1897000Y1674500D02*
X1897004D01*
X1897126Y1674622D01*
X1777000Y1666500D02*
X1777250Y1666250D01*
Y1666482D01*
X1777238Y1666494D02*
X1777250Y1666482D01*
X1785000Y1642476D02*
Y1642500D01*
Y1642476D02*
X1785112Y1642364D01*
X1787398Y1644650D01*
X1865000Y1642496D02*
Y1642500D01*
X1864882Y1642378D02*
X1865000Y1642496D01*
X1888750Y1634500D02*
Y1634750D01*
Y1634500D02*
X1888750D01*
X1889000Y1634750D01*
X1888496D02*
X1889000D01*
X1888490Y1634744D02*
X1888496Y1634750D01*
X1886712Y1636522D02*
X1888490Y1634744D01*
X1845000Y1630500D02*
X1849000Y1626500D01*
X1864886Y1610614D02*
X1865122D01*
X1849000Y1594500D02*
X1849000D01*
X1848750Y1594750D02*
X1849000Y1594500D01*
X1881000Y1610500D02*
X1881010D01*
X1881124Y1610614D01*
X1880886D02*
X1881124D01*
X1793000Y1594500D02*
X1797000Y1598500D01*
X1793000Y1594500D02*
Y1594500D01*
X1817000Y1594501D02*
X1821000Y1598500D01*
X1817000Y1594500D02*
Y1594501D01*
X1848750Y1594750D02*
X1848982D01*
X1849120Y1594612D01*
X1848888D02*
X1849120D01*
X1776268Y1642500D02*
X1777000D01*
X1776150Y1642618D02*
X1776268Y1642500D01*
X1954500Y1520250D02*
X1960500Y1526250D01*
X1954500Y1481500D02*
Y1520250D01*
X1947000Y1757000D02*
Y1757250D01*
X1925750Y1778500D02*
X1947000Y1757250D01*
X1867250Y1778500D02*
X1925750D01*
X664000Y1407500D02*
Y1420000D01*
X642000Y1384750D02*
X664750Y1407500D01*
X642000Y1370000D02*
Y1384750D01*
X582001Y1927000D02*
X594500D01*
X1719750Y1345250D02*
Y1345862D01*
X1719834Y1345946D01*
X1544500Y1512500D02*
Y1513914D01*
X1544320Y1514094D02*
X1544500Y1513914D01*
X1331890Y1691640D02*
X1332750Y1692500D01*
X1333000D01*
X1320546Y1691640D02*
X1331890D01*
X1387022Y1265500D02*
X1458022Y1194500D01*
X1387022Y1265500D02*
X1387250D01*
X1093750Y1871750D02*
X1100000Y1878000D01*
X1093500Y1871750D02*
X1093750D01*
X592484Y1946500D02*
X592734Y1946250D01*
X594250D01*
X1383500Y1368844D02*
Y1369000D01*
Y1368844D02*
X1384300Y1368044D01*
X1536000Y1480000D02*
Y1480250D01*
Y1480000D02*
X1536500D01*
X1536442Y1480058D02*
X1536500Y1480000D01*
X1534160Y1480058D02*
X1536442D01*
X1863750Y1457250D02*
Y1457942D01*
X1863808Y1458000D01*
X1769000Y1729850D02*
X1769110Y1729740D01*
X1769760D01*
X1784750Y1730347D02*
Y1730750D01*
Y1730347D02*
X1785112Y1729985D01*
X1865122Y1728216D02*
Y1730628D01*
X1865000Y1730750D02*
X1865122Y1730628D01*
X1849000Y1714366D02*
Y1714500D01*
Y1714366D02*
X1849120Y1714246D01*
X1896492Y1706500D02*
X1897000D01*
X1896110Y1706118D02*
X1896492Y1706500D01*
X1896110Y1705610D02*
Y1706118D01*
X1880616Y1714500D02*
X1880750D01*
X1878584Y1712468D02*
X1880616Y1714500D01*
X1872612Y1706750D02*
X1873000D01*
X1872488Y1706626D02*
X1872612Y1706750D01*
X1801490Y1674500D02*
X1805000Y1670990D01*
X1801000Y1674500D02*
X1801490D01*
X1776500Y1674250D02*
Y1674500D01*
X1776750Y1674750D01*
X1776878Y1674622D02*
X1778714D01*
X1776750Y1674750D02*
X1776878Y1674622D01*
X1817116Y1660906D02*
Y1666384D01*
X1817000Y1666500D02*
X1817116Y1666384D01*
X1801000Y1626500D02*
Y1627010D01*
X1801114Y1627124D01*
X1801624D01*
X1873000Y1626500D02*
X1873620D01*
X1873758Y1626362D01*
X1876044Y1628648D01*
X1776362Y1610500D02*
X1777000D01*
X1776222Y1610360D02*
X1776362Y1610500D01*
X1849120Y1586620D02*
Y1588468D01*
X1849000Y1586500D02*
X1849120Y1586620D01*
X1845000Y1670500D02*
X1849000Y1674500D01*
X1845000Y1654500D02*
X1849000Y1650500D01*
X1837000Y1662500D02*
X1841000Y1666500D01*
X1837000Y1646500D02*
X1841000Y1642500D01*
X1825000Y1650500D02*
X1829000Y1654500D01*
X1817000Y1642500D02*
X1821000Y1646500D01*
X1030600Y1093000D02*
Y1110000D01*
X937350Y1114000D02*
Y1130000D01*
Y1043999D02*
Y1060000D01*
X2020000Y1714500D02*
X2032500D01*
X2020000Y1665500D02*
X2032500D01*
X1385500Y2194500D02*
Y2206000D01*
X2020000Y1585500D02*
X2032500D01*
X1893000Y1718500D02*
X1897000Y1722500D01*
X1412500Y2142500D02*
Y2154000D01*
X1877000Y1718500D02*
X1881000Y1722500D01*
X1893000Y1694500D02*
X1897000Y1698500D01*
X1869000Y1694500D02*
X1873000Y1698500D01*
X1893000Y1662500D02*
X1897000Y1666500D01*
X1861000Y1702500D02*
X1865000Y1706500D01*
X1877000Y1678500D02*
X1881000Y1682500D01*
X1837000Y1718500D02*
X1841000Y1722500D01*
X1869000Y1662500D02*
X1873000Y1666500D01*
X1837000Y1694500D02*
X1841000Y1698500D01*
X1893000Y1614500D02*
X1897000Y1610500D01*
X1825000Y1698500D02*
X1829000Y1694500D01*
X1837000Y1678500D02*
X1841000Y1682500D01*
X1809000Y1706500D02*
X1813000Y1702500D01*
X1793000Y1722500D02*
X1797000Y1718500D01*
X1793000Y1698500D02*
X1797000Y1694500D01*
X1761000Y1722500D02*
X1765000Y1718500D01*
X1809000Y1650500D02*
X1813000Y1654500D01*
X1785000Y1682500D02*
X1789000Y1678500D01*
X1769000Y1698500D02*
X1773000Y1694500D01*
X1769000Y1666500D02*
X1773000Y1662500D01*
X1785000Y1634500D02*
X1789000Y1638500D01*
X1801000Y1610500D02*
X1805000Y1614500D01*
X1793000Y1618500D02*
X1797000Y1622500D01*
X1785000Y1594500D02*
X1789000Y1598500D01*
X1769000Y1610500D02*
X1773000Y1614500D01*
X1932000Y1357000D02*
Y1368000D01*
X1700000Y1458000D02*
Y1469000D01*
X1148000Y1926000D02*
X1152000Y1930000D01*
X1128000D02*
X1132000Y1926000D01*
X1156000Y1910000D02*
X1160000Y1914000D01*
X1156000Y1902000D02*
X1160000Y1898000D01*
X1148000Y1894000D02*
X1152000Y1890000D01*
X1120000Y1898000D02*
X1124000Y1902000D01*
X1164000Y1878000D02*
X1168000Y1874000D01*
X1156000Y1878000D02*
X1160000Y1874000D01*
X1460000Y1458000D02*
Y1469000D01*
X1120000Y1701000D02*
Y1714500D01*
X1452000Y1357000D02*
Y1368000D01*
X1120000Y1596500D02*
Y1610000D01*
X1312000Y1377000D02*
Y1390000D01*
X729750Y1738000D02*
Y1750000D01*
X1017350Y1323999D02*
Y1340000D01*
Y1253999D02*
Y1270000D01*
X1018100Y1188500D02*
Y1200000D01*
X937350Y1194000D02*
Y1210000D01*
X834600Y1184000D02*
Y1196000D01*
X1981000Y1114500D02*
Y1124000D01*
X1930000Y961500D02*
Y975000D01*
Y1066000D02*
Y1079500D01*
X1921000Y1114500D02*
Y1124000D01*
X1940000Y1346000D02*
Y1357000D01*
X1901000Y1726500D02*
X1905000Y1730500D01*
X1893000Y1678500D02*
X1897000Y1682500D01*
X1885000Y1710500D02*
X1889000Y1714500D01*
X1893000Y1638500D02*
X1897000Y1634500D01*
X1877000Y1694500D02*
X1881000Y1698500D01*
X1885000Y1614500D02*
X1889000Y1610500D01*
X1885000Y1606500D02*
X1889000Y1602500D01*
X1861000Y1718500D02*
X1865000Y1722500D01*
X1861000Y1114500D02*
Y1124000D01*
X1810000Y961500D02*
Y975000D01*
X1869000Y1614500D02*
X1873000Y1610500D01*
X1853000Y1678500D02*
X1857000Y1682500D01*
X1861000Y1630500D02*
X1865000Y1626500D01*
X1861000Y1622500D02*
X1865000Y1618500D01*
X1837000Y1702500D02*
X1841000Y1706500D01*
X1845000Y1662500D02*
X1849000Y1666500D01*
X1853000Y1598500D02*
X1857000Y1594500D01*
X1845000Y1646500D02*
X1849000Y1642500D01*
X1837000Y1670500D02*
X1841000Y1674500D01*
X1810000Y1066000D02*
Y1079500D01*
X1837000Y1654500D02*
X1841000Y1650500D01*
X1825000Y1666500D02*
X1829000Y1662500D01*
X1809000Y1722500D02*
X1813000Y1718500D01*
X1817000Y1674500D02*
X1821000Y1670500D01*
X1825000Y1610500D02*
X1829000Y1614500D01*
X1817000Y1650500D02*
X1821000Y1654500D01*
X1801000Y1114500D02*
Y1124000D01*
X1793000Y1706500D02*
X1797000Y1702500D01*
X1801000Y1634500D02*
X1805000Y1638500D01*
X1793000Y1682500D02*
X1797000Y1678500D01*
X1801000Y1594500D02*
X1805000Y1598500D01*
X1777000Y1714500D02*
X1781000Y1710500D01*
X1785000Y1666500D02*
X1789000Y1662500D01*
X1785000Y1610500D02*
X1789000Y1614500D01*
X1761000Y1730500D02*
X1765000Y1726500D01*
X1769000Y1634500D02*
X1773000Y1638500D01*
X1741000Y1114500D02*
Y1124000D01*
X1690000Y961500D02*
Y975000D01*
Y1066000D02*
Y1079500D01*
X1681000Y1114500D02*
Y1124000D01*
X1570000Y961500D02*
Y975000D01*
X1621000Y1114500D02*
Y1124000D01*
X1652000Y1458000D02*
Y1469000D01*
X1636000Y1458000D02*
Y1469000D01*
X1570000Y1066000D02*
Y1079500D01*
X1561000Y1114500D02*
Y1124000D01*
X841800Y2371310D02*
Y2383810D01*
X1450000Y961500D02*
Y975000D01*
X1501000Y1114500D02*
Y1124000D01*
X841800Y2311310D02*
Y2323810D01*
X1450000Y1066000D02*
Y1079500D01*
X1441000Y1114500D02*
Y1124000D01*
X1460000Y1346000D02*
Y1357000D01*
X1330000Y961500D02*
Y975000D01*
X1452000Y1469000D02*
Y1480000D01*
X1381000Y1114500D02*
Y1124000D01*
X843800Y2192310D02*
Y2203810D01*
X1330000Y1066000D02*
Y1079500D01*
X1404000Y1469000D02*
Y1480000D01*
X1396000Y1458000D02*
Y1469000D01*
X1321000Y1114500D02*
Y1124000D01*
X1210000Y961500D02*
Y975000D01*
X1148000Y1934000D02*
X1152000Y1938000D01*
X1164000Y1910000D02*
X1168000Y1914000D01*
X1164000Y1902000D02*
X1168000Y1898000D01*
X1172000Y1878000D02*
X1176000Y1874000D01*
X1120000Y1930000D02*
X1124000Y1926000D01*
X1261000Y1114500D02*
Y1124000D01*
X1140000Y1894000D02*
X1144000Y1890000D01*
X1148000Y1878000D02*
X1152000Y1874000D01*
X841800Y2071310D02*
Y2083810D01*
X1112000Y1898000D02*
X1116000Y1902000D01*
X1210000Y1066000D02*
Y1079500D01*
X1120000Y1874000D02*
X1124000Y1878000D01*
X1201000Y1114500D02*
Y1124000D01*
X1090000Y961500D02*
Y975000D01*
X1260000Y1434000D02*
Y1447000D01*
X841800Y2011310D02*
Y2023810D01*
X1034000Y1833999D02*
Y1850000D01*
X1090000Y1066000D02*
Y1079500D01*
X998600Y973000D02*
Y990000D01*
X708912Y1977500D02*
X717500D01*
X1034000Y1773999D02*
Y1790000D01*
X1144000Y1524000D02*
X1160000D01*
X1081000Y1114500D02*
Y1124000D01*
X911850Y974000D02*
Y990000D01*
X1083999Y1524000D02*
X1100000D01*
X911850Y1043999D02*
Y1060000D01*
X834600Y1014000D02*
Y1026000D01*
X820000Y1826500D02*
Y1838500D01*
X587500Y973000D02*
Y980000D01*
X911850Y1114000D02*
Y1130000D01*
X991850Y1253999D02*
Y1270000D01*
Y1323999D02*
Y1340000D01*
X834600Y1124000D02*
Y1136000D01*
X911850Y1194000D02*
Y1210000D01*
Y1293999D02*
Y1310000D01*
X834600Y1224000D02*
Y1236000D01*
X833750Y1551000D02*
Y1563000D01*
X834600Y1334000D02*
Y1346000D01*
X729750Y1608000D02*
Y1620000D01*
X587500Y1183000D02*
Y1190000D01*
X1813000Y1678500D02*
X1816996Y1682496D01*
X1823466D01*
X1825498Y1680464D01*
X1821000Y1662500D02*
X1829000Y1654500D01*
X834600Y986000D02*
Y997756D01*
X829056Y1003300D02*
X834600Y997756D01*
X809498Y1003300D02*
X829056D01*
X795020Y1017778D02*
X809498Y1003300D01*
X572500Y980000D02*
X658284Y1065784D01*
X720090D01*
X1853000Y1662500D02*
X1855286D01*
X1856994Y1664208D01*
Y1666494D01*
X1869000Y1622500D02*
X1872996Y1618504D01*
Y1618488D02*
Y1618504D01*
X1869000Y1598500D02*
X1871648D01*
X1872996Y1597152D01*
Y1594612D02*
Y1597152D01*
X1853000Y1614500D02*
X1855902D01*
X1856994Y1613408D01*
X1837000Y1622500D02*
X1840992Y1618508D01*
X1824990Y1618490D02*
X1829000Y1622500D01*
X1826338Y1598500D02*
X1829000D01*
X1824990Y1597152D02*
X1826338Y1598500D01*
X1824990Y1594612D02*
Y1597152D01*
X1316000Y1439000D02*
Y1439164D01*
X1302512Y1434000D02*
X1312000D01*
X1299210Y1430698D02*
X1302512Y1434000D01*
X1299210Y1422654D02*
Y1430698D01*
X1111000Y1430000D02*
Y1457452D01*
X1100000Y1468452D02*
X1111000Y1457452D01*
X1100000Y1468452D02*
Y1496000D01*
X1149000Y1430000D02*
Y1457452D01*
X1160000Y1468452D01*
Y1496000D01*
X582001Y1963500D02*
Y1975612D01*
X579001Y1978612D02*
X582001Y1975612D01*
X579001Y1978612D02*
Y1991000D01*
Y1889000D02*
Y1901190D01*
X582001Y1904190D01*
Y1916500D01*
X750000Y2142990D02*
X795274D01*
X796094Y2143810D01*
X841800D01*
X1075000Y1655318D02*
Y1701000D01*
X1135000Y975000D02*
Y1066000D01*
X1255000Y975000D02*
Y1066000D01*
X1375000Y975000D02*
Y1066000D01*
X1495000Y975000D02*
Y1066000D01*
X1855000Y975000D02*
Y1066000D01*
X1975000Y975000D02*
Y1066000D01*
X664000Y1420000D02*
Y1432500D01*
X1146048Y1496000D02*
X1160000D01*
X1140460Y1501588D02*
X1146048Y1496000D01*
X1140460Y1501588D02*
Y1758950D01*
X1157732Y1776222D01*
Y1868268D01*
X1156000Y1870000D02*
X1157732Y1868268D01*
X1173600Y1273000D02*
X1182624Y1282024D01*
Y1867376D01*
X1180000Y1870000D02*
X1182624Y1867376D01*
X834600Y1293920D02*
Y1306000D01*
Y1293920D02*
X834644Y1293876D01*
X937260D02*
X937350Y1293966D01*
Y1310000D01*
X1735000Y1065784D02*
Y1066000D01*
X1698752Y1282192D02*
X1732788Y1248156D01*
X1640332Y1282192D02*
X1698752D01*
X1624124Y1298400D02*
X1640332Y1282192D01*
X1615000Y1298400D02*
X1624124D01*
X1160018Y1938018D02*
Y1938020D01*
X1156000Y1934000D02*
X1160018Y1938018D01*
X1172000Y1870000D02*
X1176000Y1866000D01*
Y1863968D02*
Y1866000D01*
X1375726Y1194500D02*
X1410000D01*
X820000Y1771650D02*
Y1798500D01*
Y1771650D02*
X844042Y1747608D01*
Y1564386D02*
Y1747608D01*
X840250Y1560594D02*
X844042Y1564386D01*
X840250Y1551000D02*
Y1560594D01*
X1157986Y1194500D02*
X1170000D01*
X1164000Y1926000D02*
X1167892Y1929892D01*
X872744Y2131314D02*
X872800Y2131370D01*
Y2143810D01*
X729750Y1558000D02*
Y1569974D01*
X814250Y1594866D02*
Y1619000D01*
X1277874Y1197102D02*
X1280476Y1194500D01*
X1290000D01*
X1338072D02*
X1350000D01*
X1331406Y1201166D02*
X1338072Y1194500D01*
X1615000Y1065784D02*
Y1066000D01*
X1602232Y1076452D02*
X1612900Y1065784D01*
X1602232Y1076452D02*
Y1293320D01*
X1597152Y1298400D02*
X1602232Y1293320D01*
X1589600Y1298400D02*
X1597152D01*
X1981000Y1148000D02*
Y1219200D01*
X1985300Y1223500D01*
X2010000D01*
X1921000Y1148000D02*
Y1219200D01*
X1925300Y1223500D01*
X1950000D01*
X1861000Y1148000D02*
Y1219200D01*
X1865300Y1223500D01*
X1890000D01*
X1744726D02*
X1770000D01*
X1741000Y1219774D02*
X1744726Y1223500D01*
X1741000Y1148000D02*
Y1219774D01*
X1681000Y1148000D02*
Y1219200D01*
X1685300Y1223500D01*
X1710000D01*
X1621000Y1148000D02*
Y1219200D01*
X1625300Y1223500D01*
X1650000D01*
X1518000D02*
X1530000D01*
X1501000Y1206500D02*
X1518000Y1223500D01*
X1501000Y1148000D02*
Y1206500D01*
X1441000Y1148000D02*
X1480566Y1187566D01*
Y1222248D01*
X1479314Y1223500D02*
X1480566Y1222248D01*
X1470000Y1223500D02*
X1479314D01*
X1381000Y1148000D02*
X1430528Y1197528D01*
Y1212768D01*
X1419796Y1223500D02*
X1430528Y1212768D01*
X1410000Y1223500D02*
X1419796D01*
X1261000Y1148000D02*
Y1219200D01*
X1265300Y1223500D01*
X1290000D01*
X1201166D02*
X1230000D01*
X1201000Y1223334D02*
X1201166Y1223500D01*
X1201000Y1148000D02*
Y1223334D01*
X1141000Y1148000D02*
Y1219200D01*
X1145300Y1223500D01*
X1170000D01*
X1801000Y1148000D02*
Y1219200D01*
X1805300Y1223500D01*
X1830000D01*
X1561000Y1148000D02*
Y1219200D01*
X1565300Y1223500D01*
X1590000D01*
X1321000Y1148000D02*
Y1219200D01*
X1325300Y1223500D01*
X1350000D01*
X872800Y2083810D02*
Y2104644D01*
X750000Y2193790D02*
X816102D01*
X820000Y1658620D02*
Y1710000D01*
Y1658620D02*
X840250Y1638370D01*
Y1619000D02*
Y1638370D01*
X729750Y1700784D02*
Y1710000D01*
Y1700784D02*
X732544Y1697990D01*
X766694D01*
X833750Y1630934D01*
Y1619000D02*
Y1630934D01*
X1817878Y1194562D02*
X1817940Y1194500D01*
X1830000D01*
X717500Y1968000D02*
X730242D01*
X753110Y1945132D01*
Y1860802D02*
Y1945132D01*
X749808Y1857500D02*
X753110Y1860802D01*
X743500Y1857500D02*
X749808D01*
X743500Y1847500D02*
X749966D01*
X755650Y1853184D01*
Y1963428D01*
X751078Y1968000D02*
X755650Y1963428D01*
X1495000Y1066000D02*
Y1097026D01*
X1552956Y1154982D01*
Y1287156D01*
X1564200Y1298400D01*
X820750Y1619000D02*
Y1630858D01*
X817757Y1633851D02*
X820750Y1630858D01*
X729750Y1530000D02*
Y1545844D01*
X715264Y1912500D02*
X722250D01*
X710184Y1917580D02*
X715264Y1912500D01*
X710184Y1917580D02*
Y1971548D01*
X711200Y1972564D01*
X727456D01*
X732282Y1977390D01*
Y1983698D01*
X735584Y1987000D01*
X742500D01*
X707898Y1847596D02*
X707994Y1847500D01*
X716500D01*
X807750Y1619000D02*
Y1630934D01*
X785144Y1653540D02*
X807750Y1630934D01*
X729750Y1648000D02*
Y1653540D01*
X817626Y1420150D02*
X820000D01*
X1098042Y1196848D02*
Y1204468D01*
Y1196848D02*
X1100390Y1194500D01*
X1110000D01*
X1167892Y1921892D02*
Y1922018D01*
X1164000Y1918000D02*
X1167892Y1921892D01*
X1380000Y1345964D02*
Y1357000D01*
X1379982Y1345946D02*
X1380000Y1345964D01*
X1151890Y1945890D02*
Y1945894D01*
X1148000Y1942000D02*
X1151890Y1945890D01*
X1180000Y1942000D02*
X1183894Y1945894D01*
X1006000Y1850000D02*
Y1874012D01*
X1160018Y1954018D02*
Y1959532D01*
X1156000Y1950000D02*
X1160018Y1954018D01*
X1111978Y1954022D02*
X1116000Y1950000D01*
X960000Y1728200D02*
X1036320D01*
X1055878Y1747758D01*
Y1865376D01*
X1096264Y1905762D01*
X1133856D01*
X1135888Y1907794D01*
Y1945888D01*
X1140000Y1950000D01*
X960000Y1753600D02*
X986028Y1779628D01*
Y1909318D01*
X1025652Y1948942D01*
Y1975104D01*
X1029970Y1979422D01*
X1139444D01*
X1143762Y1975104D01*
Y1945762D02*
Y1975104D01*
X1140000Y1942000D02*
X1143762Y1945762D01*
X739140Y2230374D02*
X743712Y2234946D01*
Y2244590D02*
X750000D01*
X972312Y1061466D02*
X998600Y1087754D01*
X1128014Y1874012D02*
X1130046Y1876044D01*
X1132000D02*
Y1878000D01*
X1112012Y1874012D02*
X1116000Y1878000D01*
X1845310Y1090460D02*
Y1181354D01*
Y1090460D02*
X1855000Y1080770D01*
Y1066000D02*
Y1080770D01*
X1255000Y1066000D02*
Y1103122D01*
X1651000Y1247902D02*
X1660652Y1238250D01*
Y1195832D02*
Y1238250D01*
X1659320Y1194500D02*
X1660652Y1195832D01*
X1650000Y1194500D02*
X1659320D01*
X1156000Y1886000D02*
X1160018Y1881983D01*
Y1881886D02*
Y1881983D01*
X1151982Y1922018D02*
X1156000Y1918000D01*
X1141000Y1118564D02*
Y1124000D01*
X1136936Y1114500D02*
X1141000Y1118564D01*
X1111000Y1417570D02*
Y1430000D01*
Y1417570D02*
X1113536Y1415034D01*
X1162304D01*
X1174750Y1427480D01*
Y1859250D01*
X1164000Y1870000D02*
X1174750Y1859250D01*
X1148000Y1870000D02*
X1152000Y1866000D01*
Y1861936D02*
Y1866000D01*
X1103884Y1865884D02*
X1108000Y1870000D01*
X1180000Y1926000D02*
X1242568D01*
X1194000Y1767903D02*
Y1790000D01*
X1114000Y1775568D02*
Y1790000D01*
Y1775568D02*
X1115568Y1773999D01*
X1118064D01*
X1692000Y1469000D02*
Y1478328D01*
X1693672Y1480000D01*
X1694032D01*
X1104012Y1874012D02*
X1108000Y1878000D01*
X1211834Y1285566D02*
X1224400Y1273000D01*
X1211834Y1285566D02*
Y1468374D01*
X1200404Y1479804D02*
X1211834Y1468374D01*
X1200404Y1479804D02*
Y1876806D01*
X1195070Y1882140D02*
X1200404Y1876806D01*
X1175861Y1882140D02*
X1195070D01*
X1172000Y1886000D02*
X1175861Y1882140D01*
X1096010Y1953990D02*
Y1957832D01*
Y1953990D02*
X1100000Y1950000D01*
X1172000Y1910000D02*
X1175890Y1913890D01*
X1172000Y1934000D02*
Y1936540D01*
X1173480Y1938020D01*
X1176020D01*
X1172000Y1894000D02*
X1176240Y1889760D01*
X1183873D01*
X1186994Y1886639D01*
X1212669D01*
X1240790Y1858518D01*
Y1292352D02*
Y1858518D01*
Y1292352D02*
X1247648Y1285494D01*
X1288106D01*
X1300600Y1273000D01*
X1132000Y1894000D02*
X1135888Y1890113D01*
X1120000Y1866000D02*
X1124000Y1870000D01*
X1120000Y1863968D02*
Y1866000D01*
X1388000Y1357000D02*
Y1377188D01*
X1103885Y1881886D02*
X1108000Y1886000D01*
X1103884Y1881886D02*
X1103885D01*
X1097917Y1883918D02*
X1100000Y1886000D01*
X1089152Y1883918D02*
X1097917D01*
X1172000Y1942000D02*
X1175894Y1945894D01*
X1176020D01*
X1086000Y1836420D02*
X1088032Y1838452D01*
X1086000Y1790000D02*
Y1836420D01*
X1094232Y1912112D02*
X1097888D01*
X1100000Y1910000D01*
X1367790Y1282010D02*
X1376800Y1273000D01*
X1367790Y1282010D02*
Y1322578D01*
X1340866Y1349502D02*
X1367790Y1322578D01*
X1340866Y1349502D02*
Y1690624D01*
X1335024Y1696466D02*
X1340866Y1690624D01*
X1307592Y1696466D02*
X1335024D01*
X1261872Y1742186D02*
X1307592Y1696466D01*
X1261872Y1742186D02*
Y1891538D01*
X1255776Y1897634D02*
X1261872Y1891538D01*
X1199642Y1897634D02*
X1255776D01*
X1191260Y1906016D02*
X1199642Y1897634D01*
X1146048Y1906016D02*
X1191260D01*
X1144016Y1908048D02*
X1146048Y1906016D01*
X1144016Y1908048D02*
Y1921985D01*
X1140000Y1926000D02*
X1144016Y1921985D01*
X1119886Y1890014D02*
X1120014D01*
X1124000Y1894000D01*
X1128107Y1945894D02*
X1132000Y1942000D01*
X1128014Y1945894D02*
X1128107D01*
X1777126Y1722374D02*
X1781000Y1718500D01*
X1776984Y1722374D02*
X1777126D01*
X1769760Y1729740D02*
X1773000Y1726500D01*
X1006000Y1790000D02*
Y1825658D01*
X1159894Y1945894D02*
X1160018D01*
X1156000Y1942000D02*
X1159894Y1945894D01*
X1119886D02*
X1120106D01*
X1124000Y1942000D01*
X1750822Y1708658D02*
X1756980Y1702500D01*
X1765000D01*
X1932000Y1469000D02*
Y1478552D01*
X1933448Y1480000D01*
X1934032D01*
X1340760Y1945640D02*
X1350000Y1936400D01*
X1315720Y1945640D02*
X1340760D01*
X1308862Y1938782D02*
X1315720Y1945640D01*
X1219454Y1938782D02*
X1308862D01*
X1187704Y1970532D02*
X1219454Y1938782D01*
X1170432Y1970532D02*
X1187704D01*
X1164000Y1964100D02*
X1170432Y1970532D01*
X1164000Y1950000D02*
Y1964100D01*
X1765000Y1582372D02*
Y1590500D01*
X1758968Y1576340D02*
X1765000Y1582372D01*
X1876000Y1460495D02*
Y1469000D01*
X1873504Y1458000D02*
X1876000Y1460495D01*
X1863808Y1458000D02*
X1873504D01*
X1112012Y1922018D02*
X1114044Y1919986D01*
X1116000Y1918000D02*
Y1919986D01*
X1135886Y1881886D02*
X1140000Y1886000D01*
X1809762Y1713738D02*
X1813000Y1710500D01*
X1808988Y1713738D02*
X1809762D01*
X1800860Y1690624D02*
X1800876D01*
X1805000Y1686500D01*
X1164000Y1942000D02*
X1167894Y1945894D01*
X1801004Y1682496D02*
X1805000Y1678500D01*
X1799844Y1682496D02*
X1801004D01*
X1112012Y1890014D02*
X1112013D01*
X1116000Y1894000D01*
X1096010Y1945894D02*
X1096106D01*
X1100000Y1942000D01*
X1119886Y1881886D02*
X1121918Y1883918D01*
X1124000D02*
Y1886000D01*
X1808988Y1730512D02*
Y1732534D01*
Y1730512D02*
X1813000Y1726500D01*
X1757574Y1693926D02*
X1765000Y1686500D01*
X1757574Y1693926D02*
Y1695963D01*
X1760037Y1699463D02*
X1765000Y1694500D01*
X1748333Y1699463D02*
X1760037D01*
X1704594Y1743202D02*
X1748333Y1699463D01*
X1426210Y1743202D02*
X1704594D01*
X1421892Y1747520D02*
X1426210Y1743202D01*
X1421892Y1747520D02*
Y1926336D01*
X1420368Y1927860D02*
X1421892Y1926336D01*
X1414272Y1927860D02*
X1420368D01*
X1413510Y1927098D02*
X1414272Y1927860D01*
X1406144Y1927098D02*
X1413510D01*
X1400810Y1932432D02*
X1406144Y1927098D01*
X1400810Y1932432D02*
Y2222754D01*
X1352550Y2271014D02*
X1400810Y2222754D01*
X1352550Y2271014D02*
Y2312416D01*
X1345946Y2319020D02*
X1352550Y2312416D01*
X1324620Y2319020D02*
X1345946D01*
X1311000Y2305400D02*
X1324620Y2319020D01*
X1777002Y1698498D02*
X1781000Y1694500D01*
X1785112Y1690388D02*
X1789000Y1686500D01*
X1800998Y1730502D02*
X1805000Y1726500D01*
X1800998Y1730502D02*
Y1739624D01*
X1901000Y1614500D02*
X1907032Y1608468D01*
Y1606436D02*
Y1608468D01*
X1758904Y1614500D02*
X1765000D01*
X1754904Y1610500D02*
X1758904Y1614500D01*
X1771107Y1688338D02*
X1771162D01*
X1773000Y1686500D01*
X1901000Y1598500D02*
X1906864Y1592636D01*
X1906976D01*
X1736146Y1580444D02*
X1754124Y1598422D01*
X1736146Y1550512D02*
Y1580444D01*
X1715924Y1530291D02*
X1736146Y1550512D01*
X1706803Y1530291D02*
X1715924D01*
X1668000Y1491488D02*
X1706803Y1530291D01*
X1668000Y1469000D02*
Y1491488D01*
X1080306Y1934000D02*
X1100000D01*
X1940000Y1458976D02*
Y1469000D01*
X1936992Y1455968D02*
X1940000Y1458976D01*
X1915616Y1455968D02*
X1936992D01*
X1119886Y1938020D02*
X1119980D01*
X1124000Y1934000D01*
Y1950000D02*
Y1957500D01*
X1532000Y1469000D02*
Y1477898D01*
X1534160Y1480058D01*
X1770888D02*
X1772000Y1478946D01*
X1872488Y1705988D02*
Y1706626D01*
X1869000Y1702500D02*
X1872488Y1705988D01*
X1315466Y1901866D02*
X1324600Y1911000D01*
X1315466Y1856486D02*
Y1901866D01*
Y1856486D02*
X1320800Y1851152D01*
X1328420D01*
X1335024Y1857756D01*
X1817116Y1722384D02*
X1821000Y1718500D01*
X1183938Y1934000D02*
X1187958Y1938020D01*
X1180000Y1934000D02*
X1183938D01*
X1090478Y1918000D02*
X1100000D01*
X1260000Y1390000D02*
Y1403002D01*
X1260094Y1403096D01*
X1833113Y1610614D02*
X1837000Y1614500D01*
X1893000Y1586546D02*
Y1590500D01*
X1986534Y1634500D02*
X2020000D01*
X1404000Y1369060D02*
X1408064Y1373124D01*
X1404000Y1357000D02*
Y1369060D01*
X1776992Y1650492D02*
X1781000Y1654500D01*
X1972000Y1657294D02*
X1972056Y1657350D01*
X1972000Y1469000D02*
Y1657294D01*
X1901000Y1590500D02*
X1902806Y1588694D01*
X1908902D01*
X1917192Y1580404D01*
X1516000Y1357000D02*
Y1380998D01*
X1744980D02*
X1756000Y1369978D01*
Y1357000D02*
Y1369978D01*
X1172000Y1902000D02*
X1176020Y1897980D01*
Y1897888D02*
Y1897980D01*
X1484000Y1357000D02*
Y1388364D01*
X1864882Y1642378D02*
Y1642618D01*
X1861000Y1646500D02*
X1864882Y1642618D01*
X1817116Y1610614D02*
Y1610616D01*
X1821000Y1614500D01*
X1112012Y1866012D02*
X1116000Y1870000D01*
X1112012Y1865884D02*
Y1866012D01*
X1869000Y1726500D02*
X1872996Y1730496D01*
X1769118Y1642618D02*
X1773000Y1646500D01*
X1769110Y1642618D02*
X1769118D01*
X2039874Y1438402D02*
Y1584452D01*
X2004000Y1402528D02*
X2039874Y1438402D01*
X2004000Y1357000D02*
Y1402528D01*
X1877000Y1710500D02*
Y1712468D01*
X1817116Y1634490D02*
X1819402Y1636776D01*
X1821000D02*
Y1638500D01*
X1524000Y1448054D02*
Y1469000D01*
X2007616Y1554500D02*
X2020000D01*
X1776984Y1594612D02*
X1777112D01*
X1781000Y1598500D01*
X1468000Y1357000D02*
Y1365504D01*
X1470540Y1368044D01*
X1471930D01*
X1869000Y1651948D02*
X1870456Y1650492D01*
X1869000Y1651948D02*
Y1654500D01*
X1148000Y1950000D02*
X1151890Y1953890D01*
X1724261Y1526939D02*
X1751230D01*
X1788726Y1564435D01*
Y1568142D01*
X1797508Y1576924D01*
X1815424D01*
X1829000Y1590500D01*
X1793000Y1714500D02*
X1797000Y1710500D01*
X1847088Y1590500D02*
X1849120Y1588468D01*
X1845000Y1590500D02*
X1847088D01*
X1184000Y2305400D02*
X1198880Y2290520D01*
Y2252726D02*
Y2290520D01*
Y2252726D02*
X1215390Y2236216D01*
Y2171954D02*
Y2236216D01*
Y2171954D02*
X1359154Y2028190D01*
Y1824482D02*
Y2028190D01*
Y1824482D02*
X1372616Y1811020D01*
X1781048Y1578356D02*
Y1582549D01*
X1789000Y1590500D01*
X1776984Y1706516D02*
X1781000Y1702500D01*
X1869000Y1606500D02*
X1873014Y1602486D01*
X1777548Y1568704D02*
Y1587048D01*
X1781000Y1590500D01*
X1793748Y1602486D02*
Y1603248D01*
X1797000Y1606500D01*
X1792986Y1610360D02*
X1795780Y1613154D01*
X1797000D02*
Y1614500D01*
X1756000Y1469000D02*
Y1479960D01*
X1612000Y1357000D02*
Y1365968D01*
X1374540Y1368044D02*
X1384300D01*
X1372000Y1365504D02*
X1374540Y1368044D01*
X1372000Y1357000D02*
Y1365504D01*
X729996Y1857500D02*
X743500D01*
X725426Y1852930D02*
X729996Y1857500D01*
X676910Y1852930D02*
X725426D01*
X589840Y1940000D02*
X676910Y1852930D01*
X582001Y1940000D02*
X589840D01*
X1892000Y1369568D02*
X1894032Y1371600D01*
X1892000Y1357000D02*
Y1369568D01*
X1388000Y1469000D02*
Y1489202D01*
X1620266Y1480058D02*
X1626870D01*
X1628000Y1478928D01*
Y1469000D02*
Y1478928D01*
X930000Y2385400D02*
X946150Y2369250D01*
Y1989582D02*
Y2369250D01*
Y1989582D02*
X969010Y1966722D01*
Y1862074D02*
Y1966722D01*
X1785112Y1714500D02*
X1787144Y1712468D01*
X1789000Y1710500D02*
Y1712468D01*
X1893000Y1646500D02*
X1896877Y1642623D01*
X1659890Y1345946D02*
X1666730D01*
X1668000Y1347216D01*
Y1357000D01*
X1801114Y1722374D02*
X1801126D01*
X1805000Y1718500D01*
X1384600Y2012600D02*
X1397254Y1999946D01*
Y1769364D02*
Y1999946D01*
X1808988Y1582425D02*
Y1586489D01*
X1813000Y1590500D01*
X1612000Y1469000D02*
Y1480000D01*
X1372000Y1479950D02*
X1372108Y1480058D01*
X1372000Y1469000D02*
Y1479950D01*
X1532000Y1357000D02*
Y1375532D01*
X1524000Y1357000D02*
Y1371600D01*
X1692000Y1357000D02*
Y1372064D01*
X1785126Y1722374D02*
X1789000Y1718500D01*
X1785112Y1722374D02*
X1785126D01*
X1817116Y1618616D02*
X1821000Y1622500D01*
X1817116Y1618488D02*
Y1618616D01*
X1785620Y1705864D02*
X1785636D01*
X1789000Y1702500D01*
X1824990Y1732534D02*
X1829000Y1728524D01*
Y1726500D02*
Y1728524D01*
X1420000Y1357000D02*
Y1381252D01*
X1425702Y1386954D01*
X1888998Y1674498D02*
Y1674622D01*
X1885000Y1670500D02*
X1888998Y1674498D01*
X1869000Y1678500D02*
X1872995Y1682496D01*
Y1682496D01*
X1612000Y1569582D02*
X1628510Y1586092D01*
X1789000Y1619504D02*
Y1622500D01*
X1787984Y1618488D02*
X1789000Y1619504D01*
X1785112Y1618488D02*
X1787984D01*
X1868000Y1369906D02*
X1868170Y1370076D01*
X1868000Y1357000D02*
Y1369906D01*
X1769111Y1594612D02*
X1773000Y1598500D01*
X1769110Y1594612D02*
X1769111D01*
X1860000Y1469000D02*
Y1504229D01*
X1885000Y1694500D02*
Y1696466D01*
X1516000Y1469000D02*
Y1486028D01*
X1784986Y1602486D02*
X1789000Y1606500D01*
X1808987Y1618488D02*
X1813000Y1622500D01*
X1696466Y1507744D02*
X1753108Y1564386D01*
X1781723D01*
X1796261Y1578925D01*
X1812544D01*
X1821000Y1587380D01*
Y1590500D01*
X1885000Y1598500D02*
X1888888Y1594612D01*
X1888998D01*
X1839872Y1634490D02*
Y1635628D01*
X1837000Y1638500D02*
X1839872Y1635628D01*
X1856994Y1586484D02*
Y1586506D01*
X1853000Y1590500D02*
X1856994Y1586506D01*
X1817000Y1714500D02*
X1821000Y1710500D01*
X1795018Y1728482D02*
Y1745996D01*
Y1728482D02*
X1797000Y1726500D01*
X1900000Y1469000D02*
Y1532949D01*
X1926692Y1559641D01*
Y1595496D01*
X1921390Y1600798D02*
X1926692Y1595496D01*
X1921390Y1600798D02*
Y1640434D01*
X1920596Y1641228D02*
X1921390Y1640434D01*
X1920596Y1641228D02*
Y1657502D01*
X1914557Y1663541D02*
X1920596Y1657502D01*
X1777746Y1681754D02*
Y1681988D01*
Y1681754D02*
X1781000Y1678500D01*
X872800Y1963810D02*
Y1996000D01*
X1901000Y1622500D02*
X1914144Y1609356D01*
Y1594799D02*
Y1609356D01*
Y1594799D02*
X1920692Y1588251D01*
Y1575506D02*
Y1588251D01*
X1912454Y1567268D02*
X1920692Y1575506D01*
X1878750Y1567268D02*
X1912454D01*
X1869376Y1576642D02*
X1878750Y1567268D01*
X1800606Y1539778D02*
X1837469Y1576642D01*
X1800606Y1508760D02*
Y1539778D01*
X1789658Y1497812D02*
X1800606Y1508760D01*
X1738324Y1497812D02*
X1789658D01*
X1732000Y1491488D02*
X1738324Y1497812D01*
X1732000Y1469000D02*
Y1491488D01*
X1716000Y1346986D02*
Y1357000D01*
Y1346986D02*
X1717040Y1345946D01*
X1719834D01*
X1893000Y1630500D02*
X1893242D01*
X1908000Y1469000D02*
Y1505410D01*
X1914596Y1512006D01*
Y1541724D01*
X1929638Y1556766D01*
Y1647190D01*
X1924304Y1652524D02*
X1929638Y1647190D01*
X1802130Y1650492D02*
Y1651630D01*
X1805000Y1654500D01*
X1773000Y1652524D02*
Y1654500D01*
X1769110Y1650492D02*
X1771142Y1652524D01*
X1988000Y1357000D02*
Y1380998D01*
X1808988Y1666494D02*
X1809006D01*
X1813000Y1662500D01*
X1789000Y1670500D02*
Y1672590D01*
X1948000Y1469000D02*
Y1484122D01*
X1763018Y1604518D02*
X1765000Y1606500D01*
X1732280Y1604518D02*
X1763018D01*
X1988000Y1469000D02*
Y1508310D01*
X1796892Y1638500D02*
X1797000D01*
X1792986Y1634594D02*
X1796892Y1638500D01*
X1792986Y1634490D02*
Y1634594D01*
X1780000Y1453896D02*
Y1469000D01*
X1540000Y1458214D02*
Y1469000D01*
X1700000Y1343968D02*
Y1357000D01*
X1901000Y1654500D02*
X1902968Y1652532D01*
Y1652524D02*
Y1652532D01*
Y1652524D02*
X1905000Y1650492D01*
X1656334Y1332230D02*
Y1350518D01*
X1660000D02*
Y1357000D01*
X1808988Y1642489D02*
X1813000Y1646500D01*
X1912340Y1482531D02*
Y1498622D01*
Y1482531D02*
X1916000Y1478871D01*
Y1469000D02*
Y1478871D01*
X1809115Y1626616D02*
X1813000Y1630500D01*
X1808988Y1626616D02*
X1809115D01*
X1824990Y1706510D02*
Y1706626D01*
Y1706510D02*
X1829000Y1702500D01*
X1901000Y1630500D02*
X1903106Y1628394D01*
X1911858D01*
X1724000Y1366520D02*
X1725524Y1368044D01*
X1724000Y1357000D02*
Y1366520D01*
X1901000Y1670500D02*
X1905122Y1674622D01*
X1909064D01*
X1450848Y1506982D02*
X1491234D01*
X1444000Y1500134D02*
X1450848Y1506982D01*
X1444000Y1469000D02*
Y1500134D01*
X1996000Y1357000D02*
Y1368044D01*
X1760728Y1642364D02*
X1760864D01*
X1765000Y1646500D01*
X638816Y1953000D02*
X679316Y1912500D01*
X582001Y1953000D02*
X638816D01*
X1764000Y1357000D02*
Y1371570D01*
X1865121Y1674622D02*
X1865122D01*
X1861000Y1670500D02*
X1865121Y1674622D01*
X1901000Y1686500D02*
X1903206D01*
X1906766Y1690060D01*
X1913128D01*
X1914596Y1688592D01*
Y1670580D02*
Y1688592D01*
X1911057Y1667041D02*
X1914596Y1670580D01*
X1911057Y1660437D02*
Y1667041D01*
Y1660437D02*
X1918176Y1653318D01*
Y1640442D02*
Y1653318D01*
Y1640442D02*
X1919390Y1639228D01*
Y1595238D02*
Y1639228D01*
Y1595238D02*
X1924692Y1589936D01*
Y1561641D02*
Y1589936D01*
X1924259Y1561208D02*
X1924692Y1561641D01*
X1860308Y1561208D02*
X1924259D01*
X1857446Y1558346D02*
X1860308Y1561208D01*
X1772000Y1357000D02*
Y1374140D01*
X1837000Y1590500D02*
X1840992Y1586508D01*
X1412500Y2194500D02*
Y2206000D01*
X1385500Y2142500D02*
Y2154000D01*
X710184Y1857500D02*
X716500D01*
X710184D02*
Y1885188D01*
X872744Y2251202D02*
X872800Y2251258D01*
Y2263810D01*
X1075000Y1717112D02*
X1135750Y1777862D01*
Y1873750D01*
X1140000Y1878000D01*
X820000Y1445550D02*
X849122D01*
X869672Y1425000D01*
X1004600D01*
X1166000Y1790000D02*
Y1835404D01*
X1192783Y1910000D02*
X1198372Y1904411D01*
X1180000Y1910000D02*
X1192783D01*
X1893000Y1622500D02*
X1897012Y1618488D01*
X1732000Y1345946D02*
Y1357000D01*
X1893000Y1670500D02*
X1897122Y1674622D01*
X1897126D01*
X1468000Y1469000D02*
Y1496314D01*
X1440602Y1260602D02*
X1453000Y1273000D01*
X1422146Y1260602D02*
X1440602D01*
X1414780Y1267968D02*
X1422146Y1260602D01*
X1414780Y1267968D02*
Y1330960D01*
X1410208Y1335532D02*
X1414780Y1330960D01*
X1364742Y1335532D02*
X1410208D01*
X1359154Y1341120D02*
X1364742Y1335532D01*
X1359154Y1341120D02*
Y1793240D01*
X1353312Y1799082D02*
X1359154Y1793240D01*
X1307084Y1799082D02*
X1353312D01*
X1128014Y1938020D02*
X1130046Y1935988D01*
X1132000Y1934000D02*
Y1935988D01*
X1122800Y1273000D02*
X1131824Y1282024D01*
Y1332230D01*
X1085342Y1378712D02*
X1131824Y1332230D01*
X1085342Y1378712D02*
Y1501648D01*
X1099566Y1515872D01*
X1128014D01*
X1132078Y1519936D01*
Y1755902D01*
X1140000Y1763824D01*
Y1870000D01*
X1338423Y1922576D02*
X1350000Y1911000D01*
X1255018Y1922576D02*
X1338423D01*
X1250442Y1918000D02*
X1255018Y1922576D01*
X1180000Y1918000D02*
X1250442D01*
X1865008Y1650492D02*
X1865122D01*
X1861000Y1654500D02*
X1865008Y1650492D01*
X1620000Y1469000D02*
Y1476502D01*
X1616710D02*
Y1561846D01*
X1632204Y1577340D01*
Y1588262D01*
X1630680Y1589786D02*
X1632204Y1588262D01*
X1602994Y1589786D02*
X1630680D01*
X1582928Y1569720D02*
X1602994Y1589786D01*
X1536192Y1441450D02*
X1582928Y1488186D01*
X1393444Y1441450D02*
X1536192D01*
X1380000Y1454894D02*
Y1469000D01*
X1609968Y1368000D02*
X1612000Y1365968D01*
X1808988Y1610360D02*
Y1610488D01*
X1813000Y1614500D01*
X1837000Y1598500D02*
X1840992Y1594508D01*
X1869000Y1710500D02*
Y1712468D01*
X1870964D02*
X1872996Y1714500D01*
X1877000Y1726500D02*
Y1731966D01*
X1881064Y1736030D01*
X1833626Y1692402D02*
X1834896Y1691132D01*
X1833626Y1692402D02*
Y1736344D01*
X1828800Y1741170D02*
X1833626Y1736344D01*
X1816100Y1741170D02*
X1828800D01*
X1853000Y1726500D02*
Y1733988D01*
X1845000Y1598500D02*
X1848888Y1594612D01*
X1845000Y1718500D02*
X1849120Y1722620D01*
Y1722628D01*
X1801114Y1706386D02*
X1805000Y1702500D01*
X1801114Y1706386D02*
Y1707388D01*
X1315466Y1686560D02*
X1320546Y1691640D01*
X1315466Y1589934D02*
Y1686560D01*
Y1589934D02*
X1324600Y1580800D01*
X1763346Y1628846D02*
X1765000Y1630500D01*
X1746052Y1628846D02*
X1763346D01*
X1741226Y1624020D02*
X1746052Y1628846D01*
X1866138Y1441958D02*
X2015744D01*
X2020000Y1446214D01*
Y1469000D01*
X1831594Y1522222D02*
Y1550162D01*
X1846890Y1565458D01*
X1859900Y1563370D02*
X1918208D01*
X1922692Y1567854D01*
Y1589080D01*
X1917390Y1594382D02*
X1922692Y1589080D01*
X1917390Y1594382D02*
Y1637228D01*
X1916176Y1638442D02*
X1917390Y1637228D01*
X1916176Y1638442D02*
Y1652270D01*
X1910334Y1658112D02*
X1916176Y1652270D01*
X1853000Y1654500D02*
X1856611Y1658112D01*
X1877000Y1590500D02*
X1883156Y1584344D01*
Y1572768D02*
Y1584344D01*
X1684000Y1457960D02*
Y1469000D01*
X1901000Y1606500D02*
X1907293Y1600207D01*
X1660000Y1469000D02*
Y1508482D01*
X1704594Y1553076D01*
X1872996Y1634490D02*
Y1634504D01*
X1869000Y1638500D02*
X1872996Y1634504D01*
X1684000Y1345966D02*
Y1357000D01*
Y1345966D02*
X1684020Y1345946D01*
X1885000Y1636522D02*
Y1638500D01*
X1877000Y1614500D02*
X1880886Y1610614D01*
X1773000Y1620520D02*
Y1622500D01*
X1769110Y1618488D02*
X1771142Y1620520D01*
X1996000Y1454404D02*
Y1469000D01*
X1813000Y1638500D02*
Y1641042D01*
X1815541D01*
X750000Y2219190D02*
X764032D01*
X765556Y2220714D01*
Y2241804D01*
X750000Y2330950D02*
X765556D01*
X565912Y1048688D02*
X574600Y1040000D01*
X565912Y1048688D02*
Y1241312D01*
X574600Y1250000D01*
X979424Y2012424D02*
X1167000Y2200000D01*
X979424Y1805686D02*
Y2012424D01*
X963930Y1790192D02*
X979424Y1805686D01*
X930656Y1790192D02*
X963930D01*
X925576Y1785112D02*
X930656Y1790192D01*
X925576Y1554824D02*
Y1785112D01*
Y1554824D02*
X1030000Y1450400D01*
X1112012Y1945988D02*
X1116000Y1942000D01*
X1112012Y1937988D02*
X1116000Y1934000D01*
X1884000Y1357000D02*
Y1367962D01*
X1883918Y1368044D02*
X1884000Y1367962D01*
X1785112Y1626669D02*
X1785169D01*
X1789000Y1630500D01*
X1776984Y1629484D02*
X1781000Y1630500D01*
X1776984Y1626616D02*
Y1629484D01*
X1876000Y1415752D02*
X1876044Y1415796D01*
X1876000Y1357000D02*
Y1415752D01*
X1860000Y1347470D02*
Y1357000D01*
X1849120Y1347470D02*
X1860000D01*
X1845056Y1351534D02*
X1849120Y1347470D01*
X1845056Y1351534D02*
Y1442466D01*
X1776984Y1617726D02*
Y1618484D01*
X1781000Y1622500D01*
X1852000Y1357000D02*
Y1439586D01*
X1849882Y1441704D02*
X1852000Y1439586D01*
X1801118Y1642618D02*
X1805000Y1646500D01*
X1868000Y1469000D02*
Y1481582D01*
X1870032Y1483614D01*
X1753210Y1581021D02*
Y1586711D01*
X1765000Y1598500D01*
X1768985Y1602486D02*
X1773000Y1606500D01*
X1980000Y1469000D02*
Y1480892D01*
X1760988Y1618488D02*
X1765000Y1622500D01*
X1760982Y1618488D02*
X1760988D01*
X2004000Y1450908D02*
X2004060Y1450848D01*
X2004000Y1450908D02*
Y1469000D01*
X2012000D02*
Y1487104D01*
X2011934Y1487170D02*
X2012000Y1487104D01*
X1769110Y1626616D02*
X1769116D01*
X1773000Y1630500D01*
X2020000Y1357000D02*
Y1374648D01*
X1776984Y1634490D02*
X1776990D01*
X1781000Y1638500D01*
X1754830D02*
X1765000D01*
X1752852Y1636522D02*
X1754830Y1638500D01*
X1746812Y1636522D02*
X1752852D01*
X1727398Y1617108D02*
X1746812Y1636522D01*
X1727398Y1550614D02*
Y1617108D01*
X1709420Y1532636D02*
X1727398Y1550614D01*
X1702562Y1532636D02*
X1709420D01*
X1701038Y1534160D02*
X1702562Y1532636D01*
X1701038Y1534160D02*
Y1543304D01*
X1708150Y1550416D01*
Y1554480D01*
X1705864Y1556766D02*
X1708150Y1554480D01*
X1702054Y1556766D02*
X1705864D01*
X1664970Y1519682D02*
X1702054Y1556766D01*
X2011934Y1405250D02*
X2012000Y1405184D01*
Y1357000D02*
Y1405184D01*
X1760982Y1654048D02*
X1765000Y1654500D01*
X1760982Y1652016D02*
Y1654048D01*
X1899920Y1380236D02*
X1900000Y1380156D01*
Y1357000D02*
Y1380156D01*
X1787398Y1644650D02*
X1789000Y1646500D01*
X1905762Y1345946D02*
X1908000Y1348184D01*
Y1357000D01*
X1780032Y1646500D02*
X1781000D01*
X1776150Y1642618D02*
X1780032Y1646500D01*
X1916000Y1357000D02*
Y1381428D01*
X1924000Y1346046D02*
Y1357000D01*
X1777238Y1666262D02*
Y1666494D01*
Y1666262D02*
X1781000Y1662500D01*
X1948000Y1342390D02*
Y1357000D01*
X1704594Y1536192D02*
X1709308D01*
X1717548Y1544432D01*
X1784626Y1658874D02*
X1789000Y1654500D01*
X1719580Y1620774D02*
X1747774Y1648968D01*
X1719580Y1571498D02*
Y1620774D01*
Y1571498D02*
X1721104Y1569974D01*
X1901698Y1414018D02*
X1966920D01*
X1972000Y1408938D01*
X1964000Y1456762D02*
Y1469000D01*
X1954022Y1446784D02*
X1964000Y1456762D01*
X1864614Y1446784D02*
X1954022D01*
X1862582Y1444752D02*
X1864614Y1446784D01*
X1862582Y1437640D02*
Y1444752D01*
Y1437640D02*
X1865376Y1434846D01*
X2015744D01*
X2024380Y1443482D01*
Y1517904D01*
X2001520Y1540764D02*
X2024380Y1517904D01*
X1795476Y1650492D02*
X1797000Y1648968D01*
Y1646500D02*
Y1648968D01*
X1956000Y1457960D02*
Y1469000D01*
X1814830Y1658620D02*
X1817116Y1660906D01*
X1801120Y1658620D02*
X1814830D01*
X1797000Y1654500D02*
X1801120Y1658620D01*
X1924000Y1469000D02*
Y1477171D01*
X1920550Y1480622D02*
X1924000Y1477171D01*
X1920550Y1480622D02*
Y1530914D01*
X1778714Y1674622D02*
X1781000Y1672336D01*
Y1670500D02*
Y1672336D01*
X1803146Y1712468D02*
X1805000Y1710500D01*
X1801114Y1714500D02*
X1803146Y1712468D01*
X1777252Y1730248D02*
X1781000Y1726500D01*
X1785112Y1729985D02*
X1785515D01*
X1789000Y1726500D01*
X1816862Y1706626D02*
X1816874D01*
X1821000Y1702500D01*
X1816998Y1730502D02*
X1821000Y1726500D01*
X1845000D02*
Y1738564D01*
X1835546Y1748018D02*
X1845000Y1738564D01*
X1877000Y1598500D02*
X1881133Y1594367D01*
X1849010Y1634490D02*
X1849120D01*
X1845000Y1638500D02*
X1849010Y1634490D01*
X1845000Y1622500D02*
X1849012Y1618488D01*
X1818132Y1627632D02*
X1821000Y1630500D01*
X1809111Y1594612D02*
X1813000Y1598500D01*
X1808988Y1594612D02*
X1809111D01*
X1824990Y1711960D02*
Y1714500D01*
Y1711960D02*
X1826450Y1710500D01*
X1829000D01*
X1824990Y1722374D02*
X1825126D01*
X1829000Y1718500D01*
X1848110Y1705610D02*
X1849120D01*
X1845000Y1702500D02*
X1848110Y1705610D01*
X996188Y2375388D02*
X1006200Y2385400D01*
X996188Y2339086D02*
Y2375388D01*
X971550Y2314448D02*
X996188Y2339086D01*
X971550Y1886712D02*
Y2314448D01*
Y1886712D02*
X973582Y1884680D01*
X1848746Y1714246D02*
X1849120D01*
X1845000Y1710500D02*
X1848746Y1714246D01*
X1837000Y1710500D02*
X1840238Y1713738D01*
Y1714492D01*
X1837000Y1726500D02*
X1840992Y1730492D01*
X1824990Y1690510D02*
X1829000Y1686500D01*
X1824990Y1690510D02*
Y1690624D01*
X1099820Y2167636D02*
Y2237232D01*
X1069848Y2267204D02*
X1099820Y2237232D01*
X1069848Y2267204D02*
Y2347152D01*
X1057000Y2360000D02*
X1069848Y2347152D01*
X1853000Y1718500D02*
X1856874Y1722374D01*
X1856994D01*
X1865000Y1714500D02*
X1865122D01*
X1861000Y1710500D02*
X1865000Y1714500D01*
X1861000Y1726500D02*
X1863406D01*
X1865122Y1728216D01*
X1869000Y1718500D02*
X1872874Y1722374D01*
X1885000Y1718500D02*
X1888874Y1722374D01*
X1888998D01*
X1272540Y2199894D02*
Y2206752D01*
X1270254Y2209038D02*
X1272540Y2206752D01*
X1262126Y2209038D02*
X1270254D01*
X1218438Y2252726D02*
X1262126Y2209038D01*
X1218438Y2252726D02*
Y2376362D01*
X1209400Y2385400D02*
X1218438Y2376362D01*
X1885000Y1726500D02*
X1889252Y1730752D01*
Y1751330D01*
X1881014Y1602486D02*
X1881124D01*
X1877000Y1606500D02*
X1881014Y1602486D01*
X1885000Y1590500D02*
X1889016Y1586484D01*
X1861000Y1614500D02*
X1864886Y1610614D01*
X1861000Y1606500D02*
X1865014Y1602486D01*
X1865122D01*
X1869000Y1590500D02*
X1872996Y1586504D01*
X1856884Y1626616D02*
X1856994D01*
X1853000Y1630500D02*
X1856884Y1626616D01*
X1863598Y1594612D02*
Y1595902D01*
X1861000Y1598500D02*
X1863598Y1595902D01*
X1865122Y1586484D02*
Y1589024D01*
X1863646Y1590500D02*
X1865122Y1589024D01*
X1861000Y1590500D02*
X1863646D01*
X1845000Y1606500D02*
X1849014Y1602486D01*
X1849120D01*
X1840992D02*
Y1602508D01*
X1837000Y1606500D02*
X1840992Y1602508D01*
X1821000Y1606500D02*
X1824990Y1602510D01*
Y1602486D02*
Y1602510D01*
X1832356Y1590179D02*
X1837059Y1585476D01*
Y1582805D02*
Y1585476D01*
X1780540Y1526286D02*
X1837059Y1582805D01*
X1797050Y1584452D02*
X1798951D01*
X1805000Y1590500D01*
X1808988Y1602486D02*
Y1602489D01*
X1813000Y1606500D01*
X1801624Y1627124D02*
X1805000Y1630500D01*
X1788922Y1582422D02*
X1797000Y1590500D01*
X1788922Y1580642D02*
Y1582422D01*
X1238758Y1945894D02*
X1263142D01*
X1176020Y2008632D02*
X1238758Y1945894D01*
X1176020Y2008632D02*
Y2234438D01*
X1145794Y2264664D02*
X1176020Y2234438D01*
X1145794Y2264664D02*
Y2292806D01*
X1133200Y2305400D02*
X1145794Y2292806D01*
X1776222Y1610360D02*
X1776859D01*
X1781000Y1614500D01*
X1777950Y1606500D02*
X1781000D01*
X1775968Y1604518D02*
X1777950Y1606500D01*
X1792986Y1626616D02*
X1793116D01*
X1797000Y1630500D01*
X1805000Y1670500D02*
Y1670990D01*
X1792986Y1674514D02*
Y1674622D01*
Y1674514D02*
X1797000Y1670500D01*
X1779016Y1688592D02*
X1781000Y1686500D01*
X1776984Y1690624D02*
X1779016Y1688592D01*
X1768856Y1706626D02*
X1768874D01*
X1773000Y1702500D01*
X1808988Y1674512D02*
X1813000Y1670500D01*
X1412600Y2280000D02*
X1420368Y2272232D01*
Y1932432D02*
Y2272232D01*
X1785112Y1698388D02*
X1789000Y1694500D01*
X1377696Y1898396D02*
X1384554D01*
X1373600Y1902492D02*
X1377696Y1898396D01*
X1373600Y1902492D02*
Y2149380D01*
X1310386Y2212594D02*
X1373600Y2149380D01*
X1272806Y2212594D02*
X1310386D01*
X1260000Y2225400D02*
X1272806Y2212594D01*
X1769110Y1714390D02*
Y1714500D01*
Y1714390D02*
X1773000Y1710500D01*
X1869000Y1646500D02*
X1872882Y1642618D01*
X1877000Y1686500D02*
Y1688592D01*
X1879092D02*
X1881124Y1690624D01*
X1644000Y1357000D02*
Y1368000D01*
X1636000Y1345960D02*
X1636014Y1345946D01*
X1395984D02*
X1396000Y1345962D01*
Y1357000D01*
X1636000Y1345960D02*
Y1357000D01*
X1885000Y1686500D02*
X1888998Y1690498D01*
X1613014Y1388618D02*
X1628000Y1373632D01*
X1601216Y1388618D02*
X1613014D01*
X1596644Y1393190D02*
X1601216Y1388618D01*
X1596644Y1393190D02*
Y1576070D01*
X1893000Y1710500D02*
X1897063Y1714563D01*
X1906588Y1718564D02*
X1908556D01*
X1901000Y1712976D02*
X1906588Y1718564D01*
X1901000Y1710500D02*
Y1712976D01*
X1380000Y1454894D02*
X1393444Y1441450D01*
X1582928Y1574292D02*
X1635506Y1626870D01*
X1648460D01*
X1893000Y1702500D02*
X1896110Y1705610D01*
X1901000Y1702500D02*
X1905000Y1706500D01*
Y1706626D01*
X1628000Y1544434D02*
X1638046Y1554480D01*
X1740000Y1469000D02*
Y1484816D01*
X1500000Y1479934D02*
X1500124Y1480058D01*
X1500000Y1469000D02*
Y1479934D01*
X1853000Y1670500D02*
X1854962Y1672590D01*
X1856994Y1674622D01*
X1508000Y1458214D02*
Y1469000D01*
X1748000Y1457960D02*
Y1469000D01*
X1508000D02*
Y1503174D01*
X1642618Y1637792D01*
X1646098D01*
X1650162Y1633728D01*
X1665224D01*
X1862582Y1678500D02*
X1865122Y1682496D01*
X1861000Y1678500D02*
X1862582D01*
X1764000Y1454404D02*
Y1469000D01*
X1901000Y1694500D02*
X1921256Y1714756D01*
X1540000Y1347216D02*
Y1357000D01*
X1904746Y1691200D02*
X1908234Y1694688D01*
X1918902D01*
X1935226Y1678364D01*
Y1625858D02*
Y1678364D01*
Y1625858D02*
X1939456Y1621628D01*
Y1615606D02*
Y1621628D01*
X1935226Y1611376D02*
X1939456Y1615606D01*
X1935226Y1578102D02*
Y1611376D01*
Y1578102D02*
X1937766Y1575562D01*
Y1565402D02*
Y1575562D01*
X1872996Y1674496D02*
Y1674622D01*
X1869000Y1670500D02*
X1872996Y1674496D01*
X1508000Y1327912D02*
Y1357000D01*
X1119982Y1922018D02*
X1124000Y1918000D01*
X1119886Y1922018D02*
X1119982D01*
X1104110Y1913890D02*
X1108000Y1910000D01*
X1103884Y1913890D02*
X1104110D01*
X1112110D02*
X1116000Y1910000D01*
X1112012Y1913890D02*
X1112110D01*
X1119886D02*
X1120110D01*
X1124000Y1910000D01*
X1093978Y1897888D02*
X1095888D01*
X1100000Y1902000D01*
X1103888Y1897888D02*
X1108000Y1902000D01*
X1096014Y1890014D02*
X1100000Y1894000D01*
X1096010Y1890014D02*
X1096014D01*
X1104014D02*
X1108000Y1894000D01*
X1103884Y1890014D02*
X1104014D01*
X1180000Y1902000D02*
X1185096D01*
X1194797Y1892300D01*
X1172000Y1926000D02*
X1175892Y1929892D01*
X1172000Y1918000D02*
X1176018Y1922018D01*
X1164000Y1934000D02*
X1167892Y1937892D01*
Y1938020D01*
X1103980D02*
X1108000Y1934000D01*
X1085962Y1938020D02*
X1103980D01*
X1103918Y1930082D02*
X1108000Y1926000D01*
X1103918Y1930082D02*
Y1930146D01*
X1081520Y1925250D02*
X1082271Y1926000D01*
X1100000D01*
X1410000Y1657000D02*
X1419098Y1666098D01*
Y1922272D01*
X1417066Y1924304D02*
X1419098Y1922272D01*
X1103884Y1922018D02*
X1103982D01*
X1108000Y1918000D01*
X1128014Y1889987D02*
X1132000Y1886000D01*
X1112012Y1882012D02*
X1116000Y1886000D01*
X1072000Y1273000D02*
X1081024Y1282024D01*
Y1324356D01*
X1064500Y1340880D02*
X1081024Y1324356D01*
X1064500Y1340880D02*
Y1834500D01*
X1100000Y1870000D01*
X1132000Y1782494D02*
Y1870000D01*
X1066500Y1716994D02*
X1132000Y1782494D01*
X1066500Y1348278D02*
Y1716994D01*
Y1348278D02*
X1088390Y1326388D01*
Y1282010D02*
Y1326388D01*
Y1282010D02*
X1097400Y1273000D01*
X1112108Y1929892D02*
X1116000Y1926000D01*
X1112012Y1929892D02*
X1112108D01*
X1185672Y1870456D02*
X1188974Y1873758D01*
X1185672Y1266952D02*
Y1870456D01*
X1182624Y1263904D02*
X1185672Y1266952D01*
X1157296Y1263904D02*
X1182624D01*
X1148200Y1273000D02*
X1157296Y1263904D01*
X1164000Y1886000D02*
X1167892Y1882108D01*
X1187704Y1850644D02*
X1189482Y1852422D01*
X1187704Y1284296D02*
Y1850644D01*
Y1284296D02*
X1199000Y1273000D01*
X1236980Y1285820D02*
X1249800Y1273000D01*
X1236980Y1285820D02*
Y1857248D01*
X1209728Y1884500D02*
X1236980Y1857248D01*
X1184064Y1884500D02*
X1209728D01*
X1182564Y1886000D02*
X1184064Y1884500D01*
X1180000Y1886000D02*
X1182564D01*
X1164000Y1892046D02*
X1167892Y1890014D01*
X1164000Y1892046D02*
Y1894000D01*
X1180000D02*
X1185750D01*
X1191006Y1888744D01*
X1215644D01*
X1251458Y1852930D01*
Y1486154D02*
Y1852930D01*
Y1486154D02*
X1270508Y1467104D01*
Y1364742D02*
Y1467104D01*
Y1364742D02*
X1313180Y1322070D01*
Y1285820D02*
Y1322070D01*
Y1285820D02*
X1326000Y1273000D01*
X1156000Y1894000D02*
X1160018Y1889982D01*
X1128014Y1953768D02*
X1128232D01*
X1132000Y1950000D01*
X1104106Y1945894D02*
X1108000Y1942000D01*
X1103884Y1954116D02*
X1108000Y1950000D01*
X1103884Y1954116D02*
Y1956148D01*
X1172000Y1950000D02*
Y1966214D01*
X1180000Y1950000D02*
X1183894Y1953894D01*
Y1954022D01*
X1156000Y1926000D02*
X1159701Y1929701D01*
X1183894Y1874012D02*
Y1874106D01*
X1180000Y1878000D02*
X1183894Y1874106D01*
X1428000Y1348474D02*
Y1357000D01*
Y1348474D02*
X1432052Y1344422D01*
X1885000Y1678500D02*
X1888997Y1682497D01*
X1901000Y1678500D02*
X1909060Y1686560D01*
X1911096D01*
X1436000Y1357000D02*
Y1386724D01*
X1444000Y1357000D02*
Y1417818D01*
X1424432Y1437386D02*
X1444000Y1417818D01*
X1864868Y1666369D02*
Y1666494D01*
X1861000Y1662500D02*
X1864868Y1666369D01*
X1475994Y1429766D02*
X1476000Y1429760D01*
Y1357000D02*
Y1429760D01*
X1492000Y1335532D02*
Y1357000D01*
X1880108Y1650492D02*
Y1651392D01*
X1877000Y1654500D02*
X1880108Y1651392D01*
X1885000Y1654500D02*
X1889003Y1650497D01*
X1592834Y1656842D02*
X1677670D01*
X1495552Y1559560D02*
X1592834Y1656842D01*
X1495552Y1504946D02*
Y1559560D01*
X1492000Y1501394D02*
X1495552Y1504946D01*
X1492000Y1469000D02*
Y1501394D01*
X1484000Y1469000D02*
Y1479936D01*
X1484122Y1480058D01*
X1880870Y1642618D02*
Y1642630D01*
X1877000Y1646500D02*
X1880870Y1642630D01*
X1885000Y1646500D02*
X1888882Y1642618D01*
X1888998D01*
X1476000Y1454404D02*
Y1469000D01*
X1436000D02*
Y1479711D01*
X1436232Y1479942D01*
X1888994Y1666494D02*
X1888998D01*
X1885000Y1662500D02*
X1888994Y1666494D01*
X1901000Y1662500D02*
X1905000Y1663516D01*
Y1666494D01*
X1428000Y1469000D02*
Y1493520D01*
X1420000Y1458976D02*
Y1469000D01*
Y1458976D02*
X1434478Y1444498D01*
X1536411D01*
X1544320Y1452406D01*
Y1514094D01*
X1897008Y1650492D02*
X1897126D01*
X1893000Y1654500D02*
X1897008Y1650492D01*
X1676000Y1357000D02*
Y1365612D01*
X1680464Y1370076D01*
X1901000Y1646500D02*
X1905195Y1642305D01*
X1708000Y1328928D02*
Y1357000D01*
Y1328928D02*
X1712826Y1324102D01*
X1910080D01*
X1931924Y1345946D01*
X1909118Y1638500D02*
X1913890Y1633728D01*
X1901000Y1638500D02*
X1909118D01*
X1876044Y1628648D02*
X1877000Y1630500D01*
X1836674Y1571498D02*
X1856740D01*
X1812798Y1547622D02*
X1836674Y1571498D01*
X1812798Y1448816D02*
Y1547622D01*
X1808480Y1444498D02*
X1812798Y1448816D01*
X1730350Y1444498D02*
X1808480D01*
X1724000Y1450848D02*
X1730350Y1444498D01*
X1724000Y1450848D02*
Y1469000D01*
X1885000Y1630500D02*
X1888941Y1626559D01*
X1716000Y1506704D02*
X1719326Y1510030D01*
X1716000Y1469000D02*
Y1506704D01*
X1893000Y1606500D02*
X1897014Y1602486D01*
X1897126D01*
X1704142Y1492306D02*
X1708000Y1496164D01*
X1704142Y1478280D02*
Y1492306D01*
X1676000Y1469000D02*
Y1487424D01*
X1680064Y1491488D01*
X1695450D01*
X1720185Y1516223D01*
X1771904D01*
X1787454Y1507546D02*
X1795272Y1515364D01*
Y1538190D01*
X1837790Y1580708D01*
X1869375D02*
X1880814Y1569268D01*
X1897634Y1587190D02*
X1902714Y1582110D01*
X1897634Y1587190D02*
Y1593866D01*
X1893000Y1598500D02*
X1897634Y1593866D01*
X1897126Y1730626D02*
Y1755394D01*
X1893000Y1726500D02*
X1897126Y1730626D01*
X1878584Y1703832D02*
X1880362Y1705610D01*
X1877000Y1702500D02*
X1878584D01*
X1885000D02*
X1888236Y1705736D01*
X1901000Y1718500D02*
X1904937Y1722437D01*
X1216976Y1194500D02*
X1230000D01*
X1458022D02*
X1470000D01*
X1517904Y1194562D02*
X1517966Y1194500D01*
X1530000D01*
X1578102Y1194562D02*
X1578164Y1194500D01*
X1590000D01*
X1696020D02*
X1710000D01*
X1751330D02*
X1770000D01*
X1874520Y1198118D02*
X1878138Y1194500D01*
X1890000D01*
X1938020Y1196848D02*
Y1209294D01*
Y1196848D02*
X1940368Y1194500D01*
X1950000D01*
X2000312D02*
X2010000D01*
X1985264Y1209548D02*
X2000312Y1194500D01*
X937350Y974180D02*
Y990000D01*
X937260Y974090D02*
X937350Y974180D01*
X827250Y1607086D02*
Y1619000D01*
Y1607086D02*
X827278Y1607058D01*
X820000Y1754036D02*
X827278Y1746758D01*
X820000Y1738000D02*
Y1754036D01*
X2011172Y1745500D02*
X2020000D01*
X1942282Y1676610D02*
X2011172Y1745500D01*
X1942282Y1612844D02*
Y1676610D01*
X1938782Y1609344D02*
X1942282Y1612844D01*
X1938782Y1581404D02*
Y1609344D01*
X1767741Y1579019D02*
X1773000Y1584278D01*
Y1590500D01*
X742500Y1968000D02*
X751078D01*
X582001Y1946500D02*
X592484D01*
X572500Y1190000D02*
X586348Y1176152D01*
X991100Y1188720D02*
Y1200000D01*
X1081000Y1148000D02*
Y1204232D01*
X1100268Y1223500D01*
X1110000D01*
X820000Y1445550D02*
X831596Y1433954D01*
Y1406346D02*
Y1433954D01*
X820000Y1394750D02*
X831596Y1406346D01*
X998600Y1065780D02*
X1030600Y1033780D01*
Y990000D02*
Y1033780D01*
X872800Y2011482D02*
Y2023810D01*
X872744Y2011426D02*
X872800Y2011482D01*
X750000Y2269990D02*
X801878D01*
X750000Y2295390D02*
X781558D01*
X841756Y1951361D02*
X841800Y1951405D01*
Y1963810D01*
X872800Y2371400D02*
Y2383810D01*
X857250Y2355850D02*
X872800Y2371400D01*
X809506Y2355850D02*
X857250D01*
X765556Y2311900D02*
X809506Y2355850D01*
X750000Y2311900D02*
X765556D01*
X841800Y2251456D02*
Y2263810D01*
X750000Y2168390D02*
X765556D01*
X750000Y2350000D02*
X765556D01*
X765564Y2350008D01*
X872800Y2323810D02*
Y2350008D01*
X870800Y2192362D02*
Y2203810D01*
X867410Y2188972D02*
X870800Y2192362D01*
X750000Y2101080D02*
X765556D01*
X827250Y1538986D02*
Y1551000D01*
X820750D02*
Y1578356D01*
X801250Y1604264D02*
Y1619000D01*
X794750D02*
Y1630918D01*
X794766Y1630934D01*
X794750Y1551000D02*
Y1562950D01*
X814250Y1551000D02*
Y1568450D01*
X801250Y1551000D02*
Y1574800D01*
X807750Y1582928D02*
X813846Y1589024D01*
X807750Y1551000D02*
Y1582928D01*
X1166368Y1132078D02*
X1284224D01*
X1162304Y1128014D02*
X1166368Y1132078D01*
X1162304Y1086104D02*
Y1128014D01*
X1142200Y1066000D02*
X1162304Y1086104D01*
X1135000Y1066000D02*
X1142200D01*
X1529588Y1289188D02*
X1538800Y1298400D01*
X1529588Y1258570D02*
Y1289188D01*
Y1258570D02*
X1540510Y1247648D01*
Y1168146D02*
Y1247648D01*
X1508506Y1136142D02*
X1540510Y1168146D01*
X1484884Y1136142D02*
X1508506D01*
X1414742Y1066000D02*
X1484884Y1136142D01*
X1375000Y1066000D02*
X1414742D01*
X1972818Y1140714D02*
Y1234694D01*
Y1140714D02*
X1974088Y1139444D01*
X1981454D01*
X1989074Y1131824D01*
Y1071842D02*
Y1131824D01*
X1983232Y1066000D02*
X1989074Y1071842D01*
X1975000Y1066000D02*
X1983232D01*
X1140000Y1934000D02*
X1144016Y1929984D01*
X1151890Y1881886D02*
Y1882110D01*
X1148000Y1886000D02*
X1151890Y1882110D01*
X737750Y1912500D02*
X748792D01*
X1815541Y1641042D02*
X1817000Y1642500D01*
X1825000Y1674500D02*
X1825498Y1674002D01*
X1829000Y1670500D01*
X1825498Y1674002D02*
Y1680464D01*
X1312000Y1434000D02*
Y1439164D01*
X1316000D01*
X1771142Y1620520D02*
X1773000D01*
X1771142Y1652524D02*
X1773000D01*
X1787144Y1672590D02*
X1789000D01*
X1819402Y1636776D02*
X1821000D01*
X1787144Y1712468D02*
X1789000D01*
X1877000D02*
X1878584D01*
X1869000D02*
X1870964D01*
X1795780Y1613154D02*
X1797000D01*
X1877000Y1688592D02*
X1879092D01*
X1628000Y1357000D02*
Y1368000D01*
Y1373632D01*
X1620000Y1346000D02*
Y1346000D01*
Y1357000D01*
X1612000Y1480000D02*
Y1569582D01*
X1616710Y1476502D02*
X1620000D01*
X1582928Y1488186D02*
Y1569720D01*
Y1574292D01*
X1628000Y1478928D02*
Y1544434D01*
X1500000Y1479934D02*
Y1508128D01*
X1516000Y1486028D02*
X1516126Y1486154D01*
X1746402Y1489558D02*
X1756000Y1479960D01*
X1885000Y1696466D02*
X1885950D01*
X1764000Y1448054D02*
Y1454404D01*
X1772000Y1469000D02*
Y1478946D01*
X1540000Y1347216D02*
X1547366Y1354582D01*
X1780000Y1339088D02*
Y1351788D01*
Y1357000D01*
Y1351788D02*
X1785620D01*
X1764000Y1371570D02*
Y1371600D01*
Y1371570D02*
X1775714Y1383284D01*
X1748000Y1327912D02*
Y1345946D01*
Y1357000D01*
X1114044Y1919986D02*
X1116000D01*
X1130046Y1876044D02*
X1132000D01*
X1121918Y1883918D02*
X1124000D01*
X1130046Y1935988D02*
X1132000D01*
X1656334Y1350518D02*
X1660000D01*
X1885000Y1636522D02*
X1886712D01*
X1878584Y1702500D02*
Y1703832D01*
X834600Y1282192D02*
Y1293920D01*
Y1076750D02*
Y1084000D01*
Y1096000D01*
X729750Y1653540D02*
X785144D01*
X679316Y1912500D02*
X715264D01*
X817626Y1420150D02*
Y1435354D01*
X998600Y1065780D02*
Y1087754D01*
Y1110000D01*
X1075000Y1610000D02*
Y1655318D01*
Y1701000D02*
Y1717112D01*
X743712Y2234946D02*
Y2244590D01*
X1615000Y975000D02*
Y1065784D01*
X1612900D02*
X1615000D01*
X1735000Y975000D02*
Y1065784D01*
X1732788D02*
Y1248156D01*
Y1065784D02*
X1735000D01*
X1635500Y1999000D02*
X1636580Y2000080D01*
X1523500Y1998000D02*
Y2012000D01*
X1508500Y1986750D02*
Y1998000D01*
X1635500Y1999000D02*
Y2004500D01*
X1639000Y2008000D01*
X1639250D02*
Y2009178D01*
X1620500Y1999000D02*
X1635000Y2013500D01*
X956750Y1129750D02*
X957500Y1130500D01*
X1768750Y1674750D02*
X1773000Y1670500D01*
X1762750Y1672750D02*
X1765000Y1670500D01*
X1757958Y1662500D02*
X1765000D01*
X1752707Y1667751D02*
X1757958Y1662500D01*
X1747774Y1648968D02*
Y1654048D01*
X1752600Y1658874D01*
X1784626D01*
X1760500Y1672750D02*
X1762750D01*
X1725750Y1640022D02*
X1727772D01*
X1749207Y1666302D02*
X1751257Y1664251D01*
X1754157Y1671251D02*
X1756207Y1669201D01*
X1727772Y1640022D02*
X1751257Y1663507D01*
Y1664251D01*
X1756207Y1669201D02*
X1756951D01*
X1760500Y1672750D01*
X1717548Y1631820D02*
X1725750Y1640022D01*
X1717548Y1544432D02*
Y1631820D01*
X1690116Y1560830D02*
X1704404Y1575118D01*
X1768750Y1674750D02*
X1768750D01*
X1749207Y1666302D02*
Y1669201D01*
X1751257Y1671251D01*
X1754157D01*
X1751750Y1674750D02*
X1768750D01*
X1724950Y1646000D02*
X1727000Y1648050D01*
Y1650000D01*
X1737962Y1660962D01*
X1739572D01*
X1741622Y1663012D01*
Y1664622D01*
X1751750Y1674750D01*
X1704404Y1629353D02*
X1721051Y1646000D01*
X1724950D01*
X1704404Y1575118D02*
Y1629353D01*
X1723500Y1649500D02*
X1725000Y1651000D01*
Y1656290D01*
X1745460Y1676750D01*
X1763750D01*
X1765000Y1678000D01*
X1980000Y1357000D02*
Y1369500D01*
X1964000Y1357000D02*
Y1368044D01*
X1956000Y1357000D02*
Y1375156D01*
X1972000Y1357000D02*
Y1408938D01*
X1978750Y1370750D02*
X1979250D01*
X1978750D02*
X1980000Y1369500D01*
X1892000Y1469000D02*
Y1475750D01*
X1884000Y1483750D02*
X1892000Y1475750D01*
X1884000Y1469000D02*
Y1483750D01*
X1772000Y1374140D02*
X1844436Y1446576D01*
Y1553662D01*
X1852000Y1469000D02*
Y1529786D01*
X1850136Y1545082D02*
X1853636Y1541582D01*
X1852000Y1529786D02*
X1853636Y1531422D01*
Y1541582D01*
X1883500Y1484250D02*
X1884000Y1483750D01*
X1847750Y1530750D02*
X1848250Y1531250D01*
X1847750Y1445000D02*
Y1530750D01*
X1847250Y1444500D02*
X1847750Y1445000D01*
X1845056Y1442466D02*
X1847342Y1444752D01*
X1783986Y1634500D02*
X1785000D01*
X1792986Y1690514D02*
X1797000Y1686500D01*
X1792986Y1690514D02*
Y1690624D01*
X1793000Y1666500D02*
X1797000Y1662500D01*
X1841000Y1642500D02*
X1841080Y1642580D01*
X1842090D01*
X1849000Y1642500D02*
X1849080Y1642580D01*
X1849090D01*
X1833171Y1618329D02*
X1834090D01*
X1840992Y1618488D02*
X1841083Y1618579D01*
X1841090D01*
X1833171Y1618329D02*
X1837000Y1614500D01*
X1801000Y1666500D02*
X1804750Y1662750D01*
X1740000Y1357000D02*
Y1384250D01*
X1734000Y1390250D02*
X1740000Y1384250D01*
X1920550Y1530914D02*
X1952250Y1562614D01*
Y1650994D01*
X1946402Y1656842D02*
X1952250Y1650994D01*
X1885000Y1622500D02*
X1889000Y1618500D01*
X1500000Y1357000D02*
X1503750Y1360750D01*
Y1373698D01*
X1545450Y1388468D02*
X1547500Y1390518D01*
Y1392500D01*
X1503750Y1373698D02*
X1518520Y1388468D01*
X1545450D01*
X1547500Y1392500D02*
X1587250Y1432250D01*
X1844436Y1553662D02*
X1849120Y1558346D01*
X1857446D01*
X1846890Y1565458D02*
X1857812D01*
X1859900Y1563370D01*
X1837790Y1580708D02*
X1869375D01*
X1849012Y1618488D02*
X1849120D01*
X1849000Y1626500D02*
Y1626500D01*
X1853000Y1620520D02*
Y1622500D01*
Y1620520D02*
X1854962D01*
X1856994Y1618488D01*
X1853000Y1606500D02*
X1856994Y1602506D01*
Y1610614D02*
Y1613408D01*
X1847500Y1611750D02*
X1848746D01*
X1848866Y1611630D01*
X1847870D02*
X1848866D01*
X1845000Y1614500D02*
X1847870Y1611630D01*
X1832356Y1590179D02*
Y1603144D01*
X1829000Y1606500D02*
X1832356Y1603144D01*
X1877000Y1622500D02*
X1881000Y1618500D01*
X1901500Y1577250D02*
Y1578046D01*
X1905000Y1575800D02*
Y1578700D01*
X1898468Y1569268D02*
X1905000Y1575800D01*
X1902714Y1580986D02*
Y1582110D01*
Y1580986D02*
X1905000Y1578700D01*
X1893000Y1586546D02*
X1901500Y1578046D01*
X1880814Y1569268D02*
X1898468D01*
X1865000Y1634500D02*
X1869000Y1630500D01*
X1412000Y1469000D02*
Y1472250D01*
X1403750Y1480500D02*
X1412000Y1472250D01*
X1644000Y1469000D02*
Y1502250D01*
X1652000Y1469000D02*
Y1494250D01*
X1644000Y1502250D02*
X1652000Y1494250D01*
X1411986Y1345946D02*
X1412000Y1345960D01*
X1860500Y1638500D02*
X1861000D01*
X1829000Y1622750D02*
X1836250D01*
X1837000Y1630500D02*
Y1630500D01*
X1833000Y1626500D02*
X1837000Y1630500D01*
X1853000Y1646500D02*
X1857000Y1650500D01*
X1856750Y1642250D02*
X1860500Y1638500D01*
D40*
X1208500Y1315500D02*
Y1333750D01*
D41*
X1384600Y2012600D02*
D03*
X1410000D02*
D03*
X1384600Y1987200D02*
D03*
X1410000D02*
D03*
X1384600Y1961800D02*
D03*
X1410000D02*
D03*
X1384600Y1936400D02*
D03*
X1410000D02*
D03*
X1384600Y1911000D02*
D03*
X1410000D02*
D03*
X1384600Y1885600D02*
D03*
X1410000D02*
D03*
X1384600Y1860200D02*
D03*
X1410000D02*
D03*
X1384600Y1834800D02*
D03*
X1410000D02*
D03*
X1384600Y1809400D02*
D03*
X1410000D02*
D03*
X1384600Y1784000D02*
D03*
X1410000D02*
D03*
X1384600Y1758600D02*
D03*
X1410000D02*
D03*
X1384600Y1733200D02*
D03*
X1410000D02*
D03*
X1384600Y1707800D02*
D03*
X1410000D02*
D03*
X1384600Y1682400D02*
D03*
X1410000D02*
D03*
X1384600Y1657000D02*
D03*
X1410000D02*
D03*
X1384600Y1631600D02*
D03*
X1410000D02*
D03*
X1384600Y1606200D02*
D03*
X1410000D02*
D03*
X1384600Y1580800D02*
D03*
X1410000D02*
D03*
X1384600Y1555400D02*
D03*
X1410000D02*
D03*
X1384600Y1530000D02*
D03*
X1004600Y1450400D02*
D03*
X1030000D02*
D03*
X1004600Y1425000D02*
D03*
X1453000Y1298400D02*
D03*
Y1273000D02*
D03*
X1427600Y1298400D02*
D03*
Y1273000D02*
D03*
X1402200Y1298400D02*
D03*
Y1273000D02*
D03*
X1376800Y1298400D02*
D03*
Y1273000D02*
D03*
X1351400Y1298400D02*
D03*
Y1273000D02*
D03*
X1326000Y1298400D02*
D03*
Y1273000D02*
D03*
X1300600Y1298400D02*
D03*
Y1273000D02*
D03*
X1275200Y1298400D02*
D03*
Y1273000D02*
D03*
X1249800Y1298400D02*
D03*
Y1273000D02*
D03*
X1224400Y1298400D02*
D03*
Y1273000D02*
D03*
X1199000Y1298400D02*
D03*
Y1273000D02*
D03*
X1173600Y1298400D02*
D03*
Y1273000D02*
D03*
X1148200Y1298400D02*
D03*
Y1273000D02*
D03*
X1122800Y1298400D02*
D03*
Y1273000D02*
D03*
X1097400Y1298400D02*
D03*
Y1273000D02*
D03*
X1072000Y1298400D02*
D03*
X1488000D02*
D03*
X1513400Y1273000D02*
D03*
Y1298400D02*
D03*
X1538800Y1273000D02*
D03*
Y1298400D02*
D03*
X1564200Y1273000D02*
D03*
Y1298400D02*
D03*
X1589600Y1273000D02*
D03*
Y1298400D02*
D03*
X1615000Y1273000D02*
D03*
Y1298400D02*
D03*
X1640400Y1273000D02*
D03*
Y1298400D02*
D03*
X1665800Y1273000D02*
D03*
Y1298400D02*
D03*
X1324600Y2012600D02*
D03*
X1350000D02*
D03*
X1324600Y1987200D02*
D03*
X1350000D02*
D03*
X1324600Y1961800D02*
D03*
X1350000D02*
D03*
X1324600Y1936400D02*
D03*
X1350000D02*
D03*
X1324600Y1911000D02*
D03*
X1350000D02*
D03*
X1324600Y1885600D02*
D03*
X1350000D02*
D03*
X1324600Y1860200D02*
D03*
X1350000D02*
D03*
X1324600Y1834800D02*
D03*
X1350000D02*
D03*
X1324600Y1809400D02*
D03*
X1350000D02*
D03*
X1324600Y1784000D02*
D03*
X1350000D02*
D03*
X1324600Y1758600D02*
D03*
X1350000D02*
D03*
X1324600Y1733200D02*
D03*
X1350000D02*
D03*
X1324600Y1707800D02*
D03*
X1350000D02*
D03*
X1324600Y1682400D02*
D03*
X1350000D02*
D03*
X1324600Y1657000D02*
D03*
X1350000D02*
D03*
X1324600Y1631600D02*
D03*
X1350000D02*
D03*
X1324600Y1606200D02*
D03*
X1350000D02*
D03*
X1324600Y1580800D02*
D03*
X1350000D02*
D03*
X1324600Y1555400D02*
D03*
X1350000D02*
D03*
X1324600Y1530000D02*
D03*
X1412600Y2385400D02*
D03*
Y2360000D02*
D03*
X1387200Y2385400D02*
D03*
Y2360000D02*
D03*
X1361800Y2385400D02*
D03*
Y2360000D02*
D03*
X1336400Y2385400D02*
D03*
Y2360000D02*
D03*
X1311000Y2385400D02*
D03*
Y2360000D02*
D03*
X1285600Y2385400D02*
D03*
Y2360000D02*
D03*
X1260200Y2385400D02*
D03*
Y2360000D02*
D03*
X1234800Y2385400D02*
D03*
Y2360000D02*
D03*
X1209400Y2385400D02*
D03*
Y2360000D02*
D03*
X1184000Y2385400D02*
D03*
Y2360000D02*
D03*
X1158600Y2385400D02*
D03*
Y2360000D02*
D03*
X1133200Y2385400D02*
D03*
Y2360000D02*
D03*
X1107800Y2385400D02*
D03*
Y2360000D02*
D03*
X1082400Y2385400D02*
D03*
Y2360000D02*
D03*
X1057000Y2385400D02*
D03*
Y2360000D02*
D03*
X1031600Y2385400D02*
D03*
Y2360000D02*
D03*
X1006200Y2385400D02*
D03*
Y2360000D02*
D03*
X980800Y2385400D02*
D03*
Y2360000D02*
D03*
X955400Y2385400D02*
D03*
Y2360000D02*
D03*
X930000Y2385400D02*
D03*
X1412600Y2305400D02*
D03*
Y2280000D02*
D03*
X1387200Y2305400D02*
D03*
Y2280000D02*
D03*
X1361800Y2305400D02*
D03*
Y2280000D02*
D03*
X1336400Y2305400D02*
D03*
Y2280000D02*
D03*
X1311000Y2305400D02*
D03*
Y2280000D02*
D03*
X1285600Y2305400D02*
D03*
Y2280000D02*
D03*
X1260200Y2305400D02*
D03*
Y2280000D02*
D03*
X1234800Y2305400D02*
D03*
Y2280000D02*
D03*
X1209400Y2305400D02*
D03*
Y2280000D02*
D03*
X1184000Y2305400D02*
D03*
Y2280000D02*
D03*
X1158600Y2305400D02*
D03*
Y2280000D02*
D03*
X1133200Y2305400D02*
D03*
Y2280000D02*
D03*
X1107800Y2305400D02*
D03*
Y2280000D02*
D03*
X1082400Y2305400D02*
D03*
Y2280000D02*
D03*
X1057000Y2305400D02*
D03*
Y2280000D02*
D03*
X1031600Y2305400D02*
D03*
Y2280000D02*
D03*
X1006200Y2305400D02*
D03*
Y2280000D02*
D03*
X980800Y2305400D02*
D03*
Y2280000D02*
D03*
X955400Y2305400D02*
D03*
Y2280000D02*
D03*
X930000Y2305400D02*
D03*
X1006200Y2225400D02*
D03*
Y2200000D02*
D03*
X980800Y2225400D02*
D03*
Y2200000D02*
D03*
X955400Y2225400D02*
D03*
Y2200000D02*
D03*
X930000Y2225400D02*
D03*
X1167000D02*
D03*
Y2200000D02*
D03*
X1141600Y2225400D02*
D03*
Y2200000D02*
D03*
X1116200Y2225400D02*
D03*
Y2200000D02*
D03*
X1090800Y2225400D02*
D03*
Y2200000D02*
D03*
X1065400Y2225400D02*
D03*
Y2200000D02*
D03*
X1040000Y2225400D02*
D03*
X1225400D02*
D03*
Y2200000D02*
D03*
X1200000Y2225400D02*
D03*
X1285400D02*
D03*
Y2200000D02*
D03*
X1260000Y2225400D02*
D03*
X934600Y1652000D02*
D03*
X960000Y1677400D02*
D03*
X934600D02*
D03*
X960000Y1702800D02*
D03*
X934600D02*
D03*
X960000Y1728200D02*
D03*
X934600D02*
D03*
X960000Y1753600D02*
D03*
X934600D02*
D03*
X960000Y1779000D02*
D03*
X934600D02*
D03*
X960000Y1804400D02*
D03*
X934600D02*
D03*
X960000Y1829800D02*
D03*
X934600D02*
D03*
Y2083200D02*
D03*
X960000D02*
D03*
X934600Y2057800D02*
D03*
X960000D02*
D03*
X934600Y2032400D02*
D03*
X960000D02*
D03*
X934600Y2007000D02*
D03*
Y1956200D02*
D03*
X960000D02*
D03*
X934600Y1930800D02*
D03*
X960000D02*
D03*
X934600Y1905400D02*
D03*
X960000D02*
D03*
X934600Y1880000D02*
D03*
X1444600Y1530000D02*
D03*
X600000Y1250000D02*
D03*
Y1040000D02*
D03*
X602000Y1410000D02*
D03*
Y1430000D02*
D03*
X642000Y1370000D02*
D03*
X622000D02*
D03*
D42*
X1410000Y1530000D02*
D03*
X1030000Y1425000D02*
D03*
X1350000Y1530000D02*
D03*
X960000Y1652000D02*
D03*
Y2007000D02*
D03*
Y1880000D02*
D03*
D43*
X1072000Y1273000D02*
D03*
X1488000D02*
D03*
X930000Y2360000D02*
D03*
Y2280000D02*
D03*
Y2200000D02*
D03*
X1040000D02*
D03*
X1200000D02*
D03*
X1260000D02*
D03*
X1470000Y1530000D02*
D03*
X574600Y1250000D02*
D03*
Y1040000D02*
D03*
D44*
X622000Y1808950D02*
D03*
Y1559050D02*
D03*
D45*
X636200Y1628600D02*
D03*
D46*
X607800Y1642450D02*
D03*
X636200Y1656300D02*
D03*
X607800Y1670150D02*
D03*
X636200Y1684000D02*
D03*
X607800Y1697850D02*
D03*
X636200Y1711700D02*
D03*
X607800Y1725550D02*
D03*
X636200Y1739400D02*
D03*
D47*
X579001Y1991000D02*
D03*
Y1889000D02*
D03*
X542000D02*
D03*
Y1991000D02*
D03*
D48*
X740000Y1250000D02*
D03*
Y1040000D02*
D03*
D49*
X714600Y1250000D02*
D03*
X689200D02*
D03*
X714600Y1040000D02*
D03*
X689200D02*
D03*
D50*
X664000Y1420000D02*
D03*
D51*
X602000D02*
D03*
D52*
X632000Y1370000D02*
D03*
D53*
X664000Y1432500D02*
D03*
Y1407500D02*
D03*
D54*
X538750Y947000D02*
D03*
X2031500D02*
D03*
X2032000Y2440750D02*
D03*
X537750Y2441500D02*
D03*
D55*
X1847840Y1611579D02*
D03*
X1856994Y1610614D02*
D03*
X1825250Y1634500D02*
D03*
X1825000Y1642500D02*
D03*
X1674250Y1392000D02*
D03*
X1781500Y1512250D02*
D03*
X1413250Y1378500D02*
D03*
X1734500Y1431000D02*
D03*
X1760250Y1634250D02*
D03*
X1809750Y1713750D02*
D03*
X1709000Y1481250D02*
D03*
X1421000Y1932250D02*
D03*
X1676500Y1656500D02*
D03*
X1653250Y1584000D02*
D03*
X1742000Y1565000D02*
D03*
X1520750Y1490000D02*
D03*
X1189750Y1873500D02*
D03*
X594750Y1927000D02*
D03*
X1864091Y1595328D02*
D03*
X1777500Y1603000D02*
D03*
X1757250Y1624250D02*
D03*
X1777500Y1619000D02*
D03*
X1825116Y1626616D02*
D03*
X1817116Y1618488D02*
D03*
Y1610614D02*
D03*
X1825000Y1610500D02*
D03*
X1748000Y1625250D02*
D03*
X1840090Y1635330D02*
D03*
X1912000Y1627500D02*
D03*
X1908750Y1716500D02*
D03*
X1848500Y1706000D02*
D03*
X1888000Y1697750D02*
D03*
X1801000Y1706500D02*
D03*
X1840500Y1714000D02*
D03*
X1880500Y1651000D02*
D03*
X1793500Y1650000D02*
D03*
X1881000Y1634500D02*
D03*
X1872996Y1642618D02*
D03*
Y1650492D02*
D03*
X1857000Y1634500D02*
D03*
X1880870Y1642618D02*
D03*
X1888998D02*
D03*
Y1666494D02*
D03*
Y1674622D02*
D03*
X1881000Y1674500D02*
D03*
X1872996Y1674622D02*
D03*
X1865000Y1674500D02*
D03*
X1856994Y1674622D02*
D03*
X1857000Y1682500D02*
D03*
X1864868Y1666494D02*
D03*
X1856994D02*
D03*
X1897126Y1650492D02*
D03*
X1896877Y1642623D02*
D03*
X1865000Y1626500D02*
D03*
X1888997Y1682497D02*
D03*
X1881000Y1666500D02*
D03*
X1849120Y1682496D02*
D03*
X1841000Y1682500D02*
D03*
Y1674500D02*
D03*
X1881000Y1682500D02*
D03*
X1872870Y1690497D02*
D03*
X1865122Y1682496D02*
D03*
X1872995Y1682496D02*
D03*
X1873000Y1666500D02*
D03*
X1865122Y1650492D02*
D03*
X1865000Y1690500D02*
D03*
X1865122Y1586484D02*
D03*
X1872996Y1586504D02*
D03*
X1840992Y1586508D02*
D03*
X1896750Y1626750D02*
D03*
X1907750Y1607750D02*
D03*
X1472000Y1369500D02*
D03*
X1849000Y1722500D02*
D03*
X1769000Y1730500D02*
D03*
X1769126Y1722374D02*
D03*
X1777000Y1730750D02*
D03*
X1769000Y1706500D02*
D03*
X1785000D02*
D03*
X1817000D02*
D03*
X1873000D02*
D03*
X1769000Y1690500D02*
D03*
X1769000Y1682500D02*
D03*
X1756664Y1685798D02*
D03*
X1777746Y1681988D02*
D03*
X1833000Y1682500D02*
D03*
X1897000Y1674500D02*
D03*
X1833000Y1642500D02*
D03*
X1785000D02*
D03*
X1865000D02*
D03*
X1888750Y1634750D02*
D03*
X1881000Y1610500D02*
D03*
X1793000Y1594500D02*
D03*
X1817000D02*
D03*
X1777000Y1642500D02*
D03*
X1960500Y1526250D02*
D03*
X1954500Y1481500D02*
D03*
X1947000Y1757250D02*
D03*
X1867250Y1778500D02*
D03*
X1841750Y1801750D02*
D03*
X1933750Y1792500D02*
D03*
X1719750Y1345250D02*
D03*
X1988000Y1583000D02*
D03*
X1544500Y1512500D02*
D03*
X1623250Y1753750D02*
D03*
X1676250Y1697750D02*
D03*
X1889760Y1766570D02*
D03*
X1785366Y1811782D02*
D03*
X1788414Y1803146D02*
D03*
X1333000Y1692500D02*
D03*
X1387250Y1265500D02*
D03*
X1093500Y1871750D02*
D03*
X594250Y1946250D02*
D03*
X1383500Y1369000D02*
D03*
X1536000Y1480250D02*
D03*
X1863750Y1457250D02*
D03*
X1784750Y1730750D02*
D03*
X1865000D02*
D03*
X1849000Y1714500D02*
D03*
X1897000Y1706500D02*
D03*
X1881000Y1714500D02*
D03*
X1777000Y1674500D02*
D03*
X1817000Y1666500D02*
D03*
X1801000Y1626500D02*
D03*
X1777000Y1610500D02*
D03*
X1849000Y1674500D02*
D03*
Y1650500D02*
D03*
X1841000Y1666500D02*
D03*
X1825000Y1674500D02*
D03*
X1030600Y1093000D02*
D03*
X937350Y1114000D02*
D03*
Y1043999D02*
D03*
X2032500Y1714500D02*
D03*
Y1665500D02*
D03*
X1385500Y2194500D02*
D03*
X2032500Y1585500D02*
D03*
X1897000Y1722500D02*
D03*
X1412500Y2142500D02*
D03*
X1881000Y1722500D02*
D03*
X1897000Y1698500D02*
D03*
X1873000D02*
D03*
X1897000Y1666500D02*
D03*
X1865000Y1706500D02*
D03*
X1841000Y1722500D02*
D03*
Y1698500D02*
D03*
X1897000Y1610500D02*
D03*
X1825000Y1698500D02*
D03*
X1809000Y1706500D02*
D03*
X1793000Y1722500D02*
D03*
X1996000Y1394000D02*
D03*
X1793000Y1698500D02*
D03*
X1761000Y1722500D02*
D03*
X1769000Y1698500D02*
D03*
X1254000Y2083999D02*
D03*
X1801000Y1610500D02*
D03*
X1793000Y1618500D02*
D03*
X1926000Y1394000D02*
D03*
X1785000Y1594500D02*
D03*
X1769000Y1610500D02*
D03*
X1184000Y2083999D02*
D03*
X1932000Y1368000D02*
D03*
X1254000Y2023999D02*
D03*
X1714000Y1634000D02*
D03*
X1644000Y1694000D02*
D03*
X1856000Y1394000D02*
D03*
X1184000Y2023999D02*
D03*
X1254000Y1964000D02*
D03*
X1644000Y1634000D02*
D03*
X1564000Y1694000D02*
D03*
X1184000Y1964000D02*
D03*
X1644000Y1573999D02*
D03*
X1254000Y1904000D02*
D03*
X1756000Y1394000D02*
D03*
X1564000Y1634000D02*
D03*
X1114000Y1964000D02*
D03*
X1700000Y1458000D02*
D03*
X1152000Y1930000D02*
D03*
X1044000Y1964000D02*
D03*
X1128000Y1930000D02*
D03*
X1160000Y1914000D02*
D03*
X1686000Y1394000D02*
D03*
X1160000Y1898000D02*
D03*
X1152000Y1890000D02*
D03*
X1120000Y1898000D02*
D03*
X1168000Y1874000D02*
D03*
X1160000D02*
D03*
X1044000Y1904000D02*
D03*
X1224000Y1783999D02*
D03*
X1154000D02*
D03*
X1044000Y1843999D02*
D03*
X1074000Y1783999D02*
D03*
X1460000Y1458000D02*
D03*
X1120000Y1714500D02*
D03*
X1436000Y1394000D02*
D03*
X1452000Y1368000D02*
D03*
X1366000Y1394000D02*
D03*
X1120000Y1596500D02*
D03*
X1312000Y1377000D02*
D03*
X729750Y1750000D02*
D03*
X1017350Y1323999D02*
D03*
Y1253999D02*
D03*
X1018100Y1188500D02*
D03*
X937350Y1194000D02*
D03*
X834600Y1184000D02*
D03*
X1981000Y1114500D02*
D03*
X1930000Y961500D02*
D03*
Y1079500D02*
D03*
X1926000Y1724000D02*
D03*
X1921000Y1114500D02*
D03*
X1940000Y1346000D02*
D03*
X1926000Y1603999D02*
D03*
X1905000Y1730500D02*
D03*
X1926000Y1543999D02*
D03*
X1897000Y1682500D02*
D03*
X1889000Y1714500D02*
D03*
X1897000Y1634500D02*
D03*
X1881000Y1698500D02*
D03*
X1889000Y1610500D02*
D03*
Y1602500D02*
D03*
X1865000Y1722500D02*
D03*
X1861000Y1114500D02*
D03*
X1810000Y961500D02*
D03*
X1884000Y1394000D02*
D03*
X1865000Y1618500D02*
D03*
X1841000Y1706500D02*
D03*
X1849000Y1666500D02*
D03*
X1810000Y1079500D02*
D03*
X1825000Y1666500D02*
D03*
X1809000Y1722500D02*
D03*
X1801000Y1114500D02*
D03*
X1793000Y1706500D02*
D03*
X1801000Y1634500D02*
D03*
Y1594500D02*
D03*
X1777000Y1714500D02*
D03*
X1785000Y1610500D02*
D03*
X1761000Y1730500D02*
D03*
X1769000Y1634500D02*
D03*
X1784000Y1394000D02*
D03*
X1741000Y1114500D02*
D03*
X1690000Y961500D02*
D03*
Y1079500D02*
D03*
X1681000Y1114500D02*
D03*
X1714000Y1394000D02*
D03*
X1570000Y961500D02*
D03*
X1621000Y1114500D02*
D03*
X1616000Y1694000D02*
D03*
X1652000Y1458000D02*
D03*
X1586000Y1753999D02*
D03*
X1644000Y1394000D02*
D03*
X1616000Y1634000D02*
D03*
X1636000Y1458000D02*
D03*
X1570000Y1079500D02*
D03*
X1561000Y1114500D02*
D03*
X841800Y2371310D02*
D03*
X1536000Y1694000D02*
D03*
X1450000Y961500D02*
D03*
X1536000Y1573999D02*
D03*
X1501000Y1114500D02*
D03*
X1536000Y1513999D02*
D03*
X841800Y2311310D02*
D03*
X1450000Y1079500D02*
D03*
X1441000Y1114500D02*
D03*
X1156000Y2083999D02*
D03*
X1464000Y1394000D02*
D03*
X1460000Y1346000D02*
D03*
X1330000Y961500D02*
D03*
X1452000Y1480000D02*
D03*
X1226000Y1964000D02*
D03*
X1381000Y1114500D02*
D03*
X1156000Y2023999D02*
D03*
X843800Y2192310D02*
D03*
X1330000Y1079500D02*
D03*
X1404000Y1480000D02*
D03*
X1226000Y1904000D02*
D03*
X1396000Y1458000D02*
D03*
X1156000Y1964000D02*
D03*
X1321000Y1114500D02*
D03*
X1226000Y1843999D02*
D03*
X1210000Y961500D02*
D03*
X1152000Y1938000D02*
D03*
X1168000Y1914000D02*
D03*
Y1898000D02*
D03*
X1176000Y1874000D02*
D03*
X1120000Y1930000D02*
D03*
X1261000Y1114500D02*
D03*
X1144000Y1890000D02*
D03*
X1152000Y1874000D02*
D03*
X841800Y2071310D02*
D03*
X1196000Y1816000D02*
D03*
X1112000Y1898000D02*
D03*
X1210000Y1079500D02*
D03*
X1016000Y1964000D02*
D03*
X1120000Y1874000D02*
D03*
X1201000Y1114500D02*
D03*
X1090000Y961500D02*
D03*
X1260000Y1447000D02*
D03*
X841800Y2011310D02*
D03*
X1016000Y1904000D02*
D03*
X1126000Y1783999D02*
D03*
X1034000Y1833999D02*
D03*
X1016000Y1843999D02*
D03*
X1090000Y1079500D02*
D03*
X998600Y973000D02*
D03*
X1046000Y1783999D02*
D03*
X708912Y1977500D02*
D03*
X1034000Y1773999D02*
D03*
X1144000Y1524000D02*
D03*
X1081000Y1114500D02*
D03*
X911850Y974000D02*
D03*
X1083999Y1524000D02*
D03*
X911850Y1043999D02*
D03*
X834600Y1026000D02*
D03*
X820000Y1838500D02*
D03*
X587500Y973000D02*
D03*
X911850Y1114000D02*
D03*
X991850Y1253999D02*
D03*
Y1323999D02*
D03*
X834600Y1136000D02*
D03*
X911850Y1194000D02*
D03*
Y1293999D02*
D03*
X834600Y1236000D02*
D03*
X833750Y1563000D02*
D03*
X834600Y1346000D02*
D03*
X729750Y1608000D02*
D03*
X587500Y1183000D02*
D03*
X795020Y1017778D02*
D03*
X720090Y1065784D02*
D03*
X1872996Y1594612D02*
D03*
X1824990D02*
D03*
X1826006Y1544066D02*
D03*
X1299210Y1422654D02*
D03*
X1778000Y1778000D02*
D03*
X1656334Y1813814D02*
D03*
X834644Y1293876D02*
D03*
X937260D02*
D03*
X1160018Y1938020D02*
D03*
X1176000Y1863968D02*
D03*
X1375726Y1194500D02*
D03*
X1157986D02*
D03*
X1167892Y1929892D02*
D03*
X872744Y2131314D02*
D03*
X729750Y1569974D02*
D03*
X814250Y1594866D02*
D03*
X1277874Y1197102D02*
D03*
X1331406Y1201166D02*
D03*
X834600Y1282192D02*
D03*
X872800Y2104644D02*
D03*
X816102Y2193790D02*
D03*
X1817878Y1194562D02*
D03*
X1096160Y1966032D02*
D03*
X817757Y1633851D02*
D03*
X729750Y1545844D02*
D03*
X707898Y1847596D02*
D03*
X817626Y1435354D02*
D03*
X1098042Y1204468D02*
D03*
X1167892Y1922018D02*
D03*
X1611936Y1394000D02*
D03*
X1379982Y1345946D02*
D03*
X1151890Y1945894D02*
D03*
X1183894D02*
D03*
X1006000Y1874012D02*
D03*
X1160018Y1959532D02*
D03*
X1111978Y1954022D02*
D03*
X739140Y2230374D02*
D03*
X972312Y1061466D02*
D03*
X1128014Y1874012D02*
D03*
X1112012D02*
D03*
X1256032Y1843999D02*
D03*
X1845310Y1181354D02*
D03*
X1255000Y1103122D02*
D03*
X1651000Y1247902D02*
D03*
X1160018Y1881886D02*
D03*
X1151982Y1922018D02*
D03*
X1136936Y1114500D02*
D03*
X1683968Y1573999D02*
D03*
X1152000Y1861936D02*
D03*
X1103884Y1865884D02*
D03*
X1242568Y1926000D02*
D03*
X1194000Y1767903D02*
D03*
X1118064Y1773999D02*
D03*
X1694032Y1480000D02*
D03*
X2024000Y1391968D02*
D03*
X1544001D02*
D03*
X1542096Y1634000D02*
D03*
X1104012Y1874012D02*
D03*
X1734312Y1780032D02*
D03*
X1568064Y1513999D02*
D03*
X1096010Y1957832D02*
D03*
X1175890Y1913890D02*
D03*
X1176020Y1938020D02*
D03*
X1526032Y1392936D02*
D03*
X1135888Y1890113D02*
D03*
X1120000Y1863968D02*
D03*
X1388000Y1377188D02*
D03*
X1628000Y1368000D02*
D03*
X1103884Y1881886D02*
D03*
X1089152Y1883918D02*
D03*
X1176020Y1945894D02*
D03*
X1088032Y1838452D02*
D03*
X1398064Y1394000D02*
D03*
X1690064Y1691968D02*
D03*
X1094232Y1912112D02*
D03*
X1119886Y1890014D02*
D03*
X1128014Y1945894D02*
D03*
X1776984Y1722374D02*
D03*
X1446276Y1726184D02*
D03*
X1006000Y1825658D02*
D03*
X1160018Y1945894D02*
D03*
X1119886D02*
D03*
X1921936Y1664000D02*
D03*
X1561968Y1573999D02*
D03*
X1750822Y1708658D02*
D03*
X1707904Y1573999D02*
D03*
X1223968Y2083999D02*
D03*
X1934032Y1480000D02*
D03*
X1956032Y1394000D02*
D03*
X1758968Y1576340D02*
D03*
X1646000Y1513968D02*
D03*
X1766001Y1522096D02*
D03*
X1112012Y1922018D02*
D03*
X1135886Y1881886D02*
D03*
X1918208Y1745932D02*
D03*
X1167894Y1945894D02*
D03*
X1230064Y2023999D02*
D03*
X1750060Y1727200D02*
D03*
X1112012Y1890014D02*
D03*
X1096010Y1945894D02*
D03*
X1119886Y1881886D02*
D03*
X1808988Y1732534D02*
D03*
X1757574Y1695963D02*
D03*
X1777002Y1698498D02*
D03*
X1785112Y1690388D02*
D03*
X1800998Y1739624D02*
D03*
X1707904Y1691968D02*
D03*
X1754904Y1610500D02*
D03*
X1474978Y1908048D02*
D03*
X1906976Y1592636D02*
D03*
X1754124Y1598422D02*
D03*
X1710182Y1544066D02*
D03*
X1080306Y1934000D02*
D03*
X1915616Y1455968D02*
D03*
X1119886Y1938020D02*
D03*
X1124000Y1957500D02*
D03*
X1770888Y1480058D02*
D03*
X1335024Y1857756D02*
D03*
X1817116Y1722384D02*
D03*
X1187958Y1938020D02*
D03*
X1310950Y1895800D02*
D03*
X1090478Y1918000D02*
D03*
X1647952Y1537970D02*
D03*
X1260094Y1403096D02*
D03*
X1690064Y1634000D02*
D03*
X1887982Y1542034D02*
D03*
X1706001Y1511936D02*
D03*
X1766062Y1550162D02*
D03*
X1986534Y1634500D02*
D03*
X1644000Y1368000D02*
D03*
X1408064Y1373124D02*
D03*
X1972056Y1657350D02*
D03*
X1917192Y1580404D02*
D03*
X1886000Y1516000D02*
D03*
X1516000Y1380998D02*
D03*
X1176020Y1897888D02*
D03*
X1484000Y1388364D02*
D03*
X1696085Y1435735D02*
D03*
X1112012Y1865884D02*
D03*
X1872996Y1730496D02*
D03*
X1769110Y1642618D02*
D03*
X2039874Y1584452D02*
D03*
X1785112Y1838706D02*
D03*
X1764000Y1448054D02*
D03*
X1524000D02*
D03*
X2007616Y1554500D02*
D03*
X1798518Y1785874D02*
D03*
X1151890Y1953890D02*
D03*
X1724261Y1526939D02*
D03*
X1767332Y1737614D02*
D03*
X1793000Y1714500D02*
D03*
X1372616Y1811020D02*
D03*
X1776984Y1706516D02*
D03*
X1528572Y2098294D02*
D03*
X1989545Y1620686D02*
D03*
X1873014Y1602486D02*
D03*
X1915840Y1484000D02*
D03*
X1741678Y1558544D02*
D03*
X1917700Y1721612D02*
D03*
X1793748Y1602486D02*
D03*
X1884000Y1484064D02*
D03*
X1656334Y1625346D02*
D03*
X1749552Y1632458D02*
D03*
X1792986Y1610360D02*
D03*
X1746402Y1489558D02*
D03*
X1516126Y1486154D02*
D03*
X1894032Y1371600D02*
D03*
X1388000Y1489202D02*
D03*
X1620266Y1480058D02*
D03*
X1605840Y1571967D02*
D03*
X969010Y1862074D02*
D03*
X1785112Y1714500D02*
D03*
X1659890Y1345946D02*
D03*
X1801114Y1722374D02*
D03*
X1397254Y1769364D02*
D03*
X1808988Y1582425D02*
D03*
X1612000Y1480000D02*
D03*
X1372108Y1480058D02*
D03*
X1532000Y1375532D02*
D03*
X1772000Y1374140D02*
D03*
X1764000Y1371600D02*
D03*
X1524000D02*
D03*
X1692000Y1372064D02*
D03*
X1785112Y1722374D02*
D03*
X1747774Y1690370D02*
D03*
X1824990Y1732534D02*
D03*
X1425702Y1386954D02*
D03*
X1992122Y1498346D02*
D03*
X1628510Y1586092D02*
D03*
X1785112Y1618488D02*
D03*
X1868170Y1370076D02*
D03*
X1769110Y1594612D02*
D03*
X1860000Y1504229D02*
D03*
X1826000Y1509904D02*
D03*
X1697228Y1574038D02*
D03*
X1784986Y1602486D02*
D03*
X1808987Y1618488D02*
D03*
X1623004Y1534470D02*
D03*
X1696466Y1507744D02*
D03*
X1888998Y1594612D02*
D03*
X1979930Y1613154D02*
D03*
X1604518Y1749552D02*
D03*
X1817000Y1714500D02*
D03*
X1397254Y1733296D02*
D03*
X1795018Y1745996D02*
D03*
X1914557Y1663541D02*
D03*
X872800Y1996000D02*
D03*
X1883664Y1555496D02*
D03*
X1924304Y1652524D02*
D03*
X1802130Y1650492D02*
D03*
X1769110D02*
D03*
X1931555Y1657604D02*
D03*
X1988000Y1380998D02*
D03*
X1808988Y1666494D02*
D03*
X1948000Y1484122D02*
D03*
X1732280Y1604518D02*
D03*
X1988000Y1508310D02*
D03*
X1792986Y1634490D02*
D03*
X1802130Y1560576D02*
D03*
X1850136Y1545082D02*
D03*
X1780000Y1453896D02*
D03*
X1540000Y1458214D02*
D03*
X1700000Y1343968D02*
D03*
X1905000Y1650492D02*
D03*
X1656334Y1332230D02*
D03*
X1912340Y1498622D02*
D03*
X1808988Y1626616D02*
D03*
X1824990Y1706626D02*
D03*
X1725524Y1368044D02*
D03*
X1909064Y1674622D02*
D03*
X1607312Y1642872D02*
D03*
X1491234Y1506982D02*
D03*
X1996000Y1368044D02*
D03*
X1808734Y1468120D02*
D03*
X1701038Y1642364D02*
D03*
X1760728D02*
D03*
X1775714Y1383284D02*
D03*
X1978152Y1495298D02*
D03*
X1412500Y2194500D02*
D03*
X1385500Y2142500D02*
D03*
X710184Y1885188D02*
D03*
X872744Y2251202D02*
D03*
X1166000Y1835404D02*
D03*
X1198372Y1904411D02*
D03*
X1897012Y1618488D02*
D03*
X1937258Y1505966D02*
D03*
X1732000Y1345946D02*
D03*
X1468000Y1496314D02*
D03*
X1307084Y1799082D02*
D03*
X1128014Y1938020D02*
D03*
X1905762Y1634490D02*
D03*
X1609968Y1368000D02*
D03*
X1497330Y1913128D02*
D03*
X1808988Y1610360D02*
D03*
X1840992Y1594508D02*
D03*
X1872996Y1714500D02*
D03*
X1519936Y1986788D02*
D03*
X1881064Y1736030D02*
D03*
X1816100Y1741170D02*
D03*
X1853000Y1733988D02*
D03*
X1741226Y1624020D02*
D03*
X1866138Y1441958D02*
D03*
X1831594Y1522222D02*
D03*
X1883156Y1572768D02*
D03*
X1684000Y1457960D02*
D03*
X1907293Y1600207D02*
D03*
X1704594Y1553076D02*
D03*
X1684020Y1345946D02*
D03*
X1933956Y1618996D02*
D03*
X1900682Y1931670D02*
D03*
X1769110Y1618488D02*
D03*
X1996000Y1454404D02*
D03*
X765556Y2241804D02*
D03*
Y2330950D02*
D03*
X1112012Y1945988D02*
D03*
Y1937988D02*
D03*
X1883918Y1368044D02*
D03*
X1785112Y1626669D02*
D03*
X1876044Y1415796D02*
D03*
X1849882Y1441704D02*
D03*
X1697482Y1632712D02*
D03*
X1801118Y1642618D02*
D03*
X1870032Y1483614D02*
D03*
X1753210Y1581021D02*
D03*
X1768985Y1602486D02*
D03*
X1980000Y1480892D02*
D03*
X1760982Y1618488D02*
D03*
X2004060Y1450848D02*
D03*
X2011934Y1487170D02*
D03*
X1769110Y1626616D02*
D03*
X2020000Y1374648D02*
D03*
X1906270Y1583436D02*
D03*
X1776984Y1634490D02*
D03*
X1664970Y1519682D02*
D03*
X2011934Y1405250D02*
D03*
X1760982Y1652016D02*
D03*
X1899920Y1380236D02*
D03*
X1905762Y1345946D02*
D03*
X1916000Y1381428D02*
D03*
X1924000Y1346046D02*
D03*
X1948000Y1342390D02*
D03*
X1706372Y1565402D02*
D03*
X1690116Y1560830D02*
D03*
X1704594Y1536192D02*
D03*
X1721104Y1569974D02*
D03*
X1752092Y1533398D02*
D03*
X1901698Y1414018D02*
D03*
X2001520Y1540764D02*
D03*
X1956000Y1457960D02*
D03*
X1946402Y1656842D02*
D03*
X1801114Y1714500D02*
D03*
X1595374Y1869694D02*
D03*
X1816998Y1730502D02*
D03*
X1835546Y1748018D02*
D03*
X1881000Y1594500D02*
D03*
X1723898Y1580388D02*
D03*
X1861312Y1567952D02*
D03*
X1801114Y1618488D02*
D03*
X1500632Y1640586D02*
D03*
X1833118Y1584452D02*
D03*
X1808988Y1594612D02*
D03*
X1727200Y1636522D02*
D03*
X1824990Y1714500D02*
D03*
X1286002Y1918970D02*
D03*
X1824990Y1722374D02*
D03*
X973582Y1884680D02*
D03*
X1840992Y1730492D02*
D03*
X1824990Y1690624D02*
D03*
X1099820Y2167636D02*
D03*
X1856994Y1722374D02*
D03*
X1479042Y2391156D02*
D03*
X1865122Y1714500D02*
D03*
X1872874Y1722374D02*
D03*
X1888998D02*
D03*
X1272540Y2199894D02*
D03*
X1889252Y1751330D02*
D03*
X1884934Y1813306D02*
D03*
X1917954Y1738376D02*
D03*
X1983994Y1620520D02*
D03*
X1881124Y1602486D02*
D03*
X1889016Y1586484D02*
D03*
X1905508Y1521714D02*
D03*
X1990732Y1588904D02*
D03*
X1884426Y1523746D02*
D03*
X1824990Y1602486D02*
D03*
X1751076Y1494028D02*
D03*
X1797050Y1584452D02*
D03*
X1808988Y1602486D02*
D03*
X1695450Y1560576D02*
D03*
X1788922Y1580642D02*
D03*
X1263142Y1945894D02*
D03*
X1689100Y1619758D02*
D03*
X1654556Y1638554D02*
D03*
X1751330Y1640200D02*
D03*
X1792986Y1626616D02*
D03*
X1776984Y1690624D02*
D03*
X1757172Y1708658D02*
D03*
X1650492Y1693926D02*
D03*
X1785112Y1698388D02*
D03*
X1384554Y1898396D02*
D03*
X1447546Y2173732D02*
D03*
X1769110Y1714500D02*
D03*
X1881000Y1690500D02*
D03*
X1395984Y1345946D02*
D03*
X1636014D02*
D03*
X1975612Y1570482D02*
D03*
X1888998Y1690498D02*
D03*
X1596644Y1576070D02*
D03*
X1897063Y1714563D02*
D03*
X1620000Y1346000D02*
D03*
X1648460Y1626870D02*
D03*
X1905000Y1706626D02*
D03*
X1638046Y1554480D02*
D03*
X1740000Y1484816D02*
D03*
X1500124Y1480058D02*
D03*
X1500000Y1508128D02*
D03*
X1508000Y1458214D02*
D03*
X1748000Y1457960D02*
D03*
X1665224Y1633728D02*
D03*
X1764000Y1454404D02*
D03*
X1921256Y1714756D02*
D03*
X1780000Y1339088D02*
D03*
X1547366Y1354582D02*
D03*
X1937766Y1565402D02*
D03*
X1785620Y1351788D02*
D03*
X1744980Y1380998D02*
D03*
X1966468Y1649222D02*
D03*
X1748000Y1327912D02*
D03*
X1508000D02*
D03*
X1748000Y1345946D02*
D03*
X1924050Y1482090D02*
D03*
X1119886Y1922018D02*
D03*
X1103884Y1913890D02*
D03*
X1112012D02*
D03*
X1486154Y1319784D02*
D03*
X1119886Y1913890D02*
D03*
X1093978Y1897888D02*
D03*
X1305310Y1644396D02*
D03*
X1103888Y1897888D02*
D03*
X1096010Y1890014D02*
D03*
X1103884D02*
D03*
X1194797Y1892300D02*
D03*
X1175892Y1929892D02*
D03*
X1176018Y1922018D02*
D03*
X1167892Y1938020D02*
D03*
X1085962D02*
D03*
X1103918Y1930146D02*
D03*
X1081520Y1925250D02*
D03*
X1417066Y1924304D02*
D03*
X1103884Y1922018D02*
D03*
X1128014Y1889987D02*
D03*
X1112012Y1882012D02*
D03*
Y1929892D02*
D03*
X1167892Y1882108D02*
D03*
X1164082Y1852422D02*
D03*
X1189482D02*
D03*
X1167892Y1890014D02*
D03*
X1160018Y1889982D02*
D03*
X1128014Y1953768D02*
D03*
X1104106Y1945894D02*
D03*
X1103884Y1956148D02*
D03*
X1172000Y1966214D02*
D03*
X1183894Y1954022D02*
D03*
X1159701Y1929701D02*
D03*
X1183894Y1874012D02*
D03*
X1432052Y1344422D02*
D03*
X2032000Y1364742D02*
D03*
X1911096Y1686560D02*
D03*
X1749552Y1387348D02*
D03*
X1436000Y1386724D02*
D03*
X1424432Y1437386D02*
D03*
X1604772Y1729994D02*
D03*
X1856750Y1650500D02*
D03*
X1792986Y1565402D02*
D03*
X1475994Y1429766D02*
D03*
X1492000Y1335532D02*
D03*
X1889003Y1650497D02*
D03*
X1484122Y1480058D02*
D03*
X1476000Y1454404D02*
D03*
X1436232Y1479942D02*
D03*
X1631950Y1648968D02*
D03*
X1905000Y1666494D02*
D03*
X1738122Y1664462D02*
D03*
X1589786Y1638046D02*
D03*
X1428000Y1493520D02*
D03*
X1680464Y1370076D02*
D03*
X1905195Y1642305D02*
D03*
X1931924Y1345946D02*
D03*
X1913890Y1633728D02*
D03*
X1888941Y1626559D02*
D03*
X1719326Y1510030D02*
D03*
X1897126Y1602486D02*
D03*
X1708000Y1496164D02*
D03*
X1897126Y1755394D02*
D03*
X1880362Y1705610D02*
D03*
X1888236Y1705736D02*
D03*
X1904937Y1722437D02*
D03*
X1216976Y1194500D02*
D03*
X1517904Y1194562D02*
D03*
X1578102D02*
D03*
X1696020Y1194500D02*
D03*
X1751330D02*
D03*
X1874520Y1198118D02*
D03*
X1938020Y1209294D02*
D03*
X1985264Y1209548D02*
D03*
X834600Y1084000D02*
D03*
X937260Y974090D02*
D03*
X834600Y1076750D02*
D03*
X827278Y1607058D02*
D03*
Y1746758D02*
D03*
X1938782Y1581404D02*
D03*
X1767741Y1579019D02*
D03*
X751078Y1968000D02*
D03*
X586348Y1176152D02*
D03*
X991100Y1188720D02*
D03*
X872744Y2011426D02*
D03*
X801878Y2269990D02*
D03*
X781558Y2295390D02*
D03*
X841756Y1951361D02*
D03*
X841800Y2251456D02*
D03*
X765556Y2168390D02*
D03*
X765564Y2350008D02*
D03*
X872800D02*
D03*
X867410Y2188972D02*
D03*
X765556Y2101080D02*
D03*
X827250Y1538986D02*
D03*
X820750Y1578356D02*
D03*
X801250Y1604264D02*
D03*
X794766Y1630934D02*
D03*
X794750Y1562950D02*
D03*
X814250Y1568450D02*
D03*
X801250Y1574800D02*
D03*
X813846Y1589024D02*
D03*
X1284224Y1132078D02*
D03*
X1972818Y1234694D02*
D03*
X1144016Y1929984D02*
D03*
X1151890Y1881886D02*
D03*
X748792Y1912500D02*
D03*
X1639250Y2008000D02*
D03*
X1523500Y2012000D02*
D03*
X1508500Y1986750D02*
D03*
X1635000Y2013500D02*
D03*
X1943000Y1491000D02*
D03*
X1777548Y1568704D02*
D03*
X1781048Y1578356D02*
D03*
X1776984Y1594612D02*
D03*
Y1626616D02*
D03*
X1776992Y1650492D02*
D03*
X1785250Y1650500D02*
D03*
X1754500Y1651750D02*
D03*
X1777000Y1666500D02*
D03*
X1769000Y1666500D02*
D03*
X1752707Y1667751D02*
D03*
X1760220Y1667510D02*
D03*
X1723500Y1649500D02*
D03*
X1956000Y1375156D02*
D03*
X1964000Y1368044D02*
D03*
X1977500Y1379000D02*
D03*
X1979250Y1370750D02*
D03*
X1942750Y1501000D02*
D03*
X1848250Y1531250D02*
D03*
X1783986Y1634500D02*
D03*
X1785000Y1666500D02*
D03*
X1785000Y1674500D02*
D03*
X1785000Y1682500D02*
D03*
X1801000Y1690500D02*
D03*
X1792986Y1690624D02*
D03*
X1793000Y1682500D02*
D03*
X1801000Y1674500D02*
D03*
X1799844Y1682496D02*
D03*
X1817000Y1674500D02*
D03*
X1808988Y1674512D02*
D03*
X1793000Y1666500D02*
D03*
X1792986Y1674622D02*
D03*
X1841000Y1650500D02*
D03*
X1817000Y1642500D02*
D03*
X1825000Y1650500D02*
D03*
X1817000D02*
D03*
X1808988Y1642489D02*
D03*
X1809000Y1650500D02*
D03*
X1833000Y1650500D02*
D03*
X1842090Y1642580D02*
D03*
X1849090D02*
D03*
X1817116Y1634490D02*
D03*
X1818089Y1627579D02*
D03*
X1801000Y1666500D02*
D03*
X1734000Y1390250D02*
D03*
X1947250Y1641250D02*
D03*
X1863161Y1554551D02*
D03*
X1856486Y1554734D02*
D03*
X1870000Y1554000D02*
D03*
X1889000Y1618500D02*
D03*
X1587500Y1432250D02*
D03*
X1872996Y1634490D02*
D03*
X1873000Y1626500D02*
D03*
X1872996Y1618488D02*
D03*
X1873000Y1610500D02*
D03*
X1851152Y1561846D02*
D03*
X1856740Y1571498D02*
D03*
X1856994Y1586484D02*
D03*
X1849000Y1586500D02*
D03*
Y1594500D02*
D03*
X1857000Y1594500D02*
D03*
X1856994Y1626616D02*
D03*
X1865000Y1610500D02*
D03*
X1865122Y1602486D02*
D03*
X1849120Y1634490D02*
D03*
X1849000Y1626500D02*
D03*
X1856994Y1618488D02*
D03*
X1833113Y1610614D02*
D03*
X1840992Y1602486D02*
D03*
X1849120D02*
D03*
X1856994Y1602506D02*
D03*
X1824990Y1618488D02*
D03*
X1834090Y1618329D02*
D03*
X1841090Y1618579D02*
D03*
X1849120Y1618488D02*
D03*
X1881000Y1618500D02*
D03*
X1744750Y1502500D02*
D03*
X1901500Y1577250D02*
D03*
X1865000Y1634500D02*
D03*
X1645250Y1501500D02*
D03*
X1857000Y1642500D02*
D03*
X1833000Y1626500D02*
D03*
D56*
X957500Y1130500D02*
D03*
M02*
